<svg width="218" height="219" viewBox="0 0 218 219" fill="none" xmlns="http://www.w3.org/2000/svg">
<g clip-path="url(#clip0_330_7768)">
<mask id="mask0_330_7768" style="mask-type:luminance" maskUnits="userSpaceOnUse" x="0" y="0" width="218" height="219">
<path d="M218 0.28125H0V218.281H218V0.28125Z" fill="white"/>
</mask>
<g mask="url(#mask0_330_7768)">
<path d="M71.7876 87.8995L7.19443 98.2779L2.55469 69.4019L67.1478 59.0234L71.7876 87.8995Z" fill="#F66DBC"/>
<path d="M46.2296 91.8437L68.7918 98.7541L62.5311 82.1133" fill="#F66DBC"/>
<path d="M19.7673 73.3897L23.9067 72.7246L23.7862 73.8589L20.8428 74.3315L20.718 75.539L23.3123 75.1222L23.1995 76.256L20.6056 76.6729L20.3766 78.8686L19.1805 79.0607L19.7673 73.3897Z" fill="white"/>
<path d="M26.2111 77.8393C25.8858 77.7669 25.5971 77.6391 25.3446 77.4565C25.0921 77.2738 24.8826 77.046 24.7166 76.7727C24.5505 76.4989 24.4398 76.1919 24.3849 75.8496C24.3202 75.4459 24.3355 75.0385 24.4317 74.6272C24.5275 74.2163 24.6953 73.8369 24.9346 73.4908C25.1739 73.1446 25.4792 72.847 25.8509 72.5987C26.2226 72.3509 26.6518 72.1874 27.1384 72.1091C27.511 72.0491 27.8601 72.0554 28.1854 72.1278C28.5103 72.2006 28.7994 72.3284 29.0515 72.5106C29.3039 72.6937 29.5134 72.9215 29.6795 73.1948C29.8455 73.4686 29.9558 73.7756 30.0107 74.1175C30.0755 74.5211 30.0601 74.929 29.9643 75.3404C29.8681 75.7512 29.7008 76.1302 29.4615 76.4763C29.2222 76.8229 28.9169 77.1201 28.5452 77.3683C28.1731 77.6166 27.7443 77.7801 27.2576 77.8584C26.8851 77.9185 26.5359 77.9121 26.2111 77.8393ZM27.9691 76.421C28.1833 76.2596 28.3566 76.0684 28.4894 75.8479C28.6223 75.6273 28.7147 75.3876 28.7666 75.13C28.8186 74.872 28.8258 74.6263 28.7883 74.3934C28.756 74.1912 28.6959 74.0115 28.6091 73.8527C28.5222 73.6939 28.4102 73.5619 28.2736 73.4563C28.1364 73.3502 27.9759 73.2787 27.7903 73.2395C27.6051 73.2004 27.4007 73.1987 27.1772 73.2344C26.891 73.2804 26.6407 73.3843 26.4265 73.5461C26.2123 73.7079 26.0391 73.8991 25.9062 74.1196C25.7734 74.3402 25.6814 74.5791 25.6294 74.8371C25.5771 75.0947 25.5703 75.3404 25.6077 75.5737C25.6401 75.7759 25.6997 75.956 25.7866 76.1148C25.8734 76.2737 25.9854 76.4057 26.1225 76.5112C26.2596 76.6164 26.4206 76.6888 26.6058 76.728C26.791 76.7671 26.9954 76.7693 27.2193 76.7335C27.5054 76.6875 27.755 76.5832 27.9691 76.421Z" fill="white"/>
<path d="M31.3787 71.5243L33.359 71.2058C33.7631 71.1411 34.1131 71.1309 34.4099 71.1764C34.7066 71.2216 34.9608 71.3208 35.1712 71.4724C35.4956 71.707 35.694 72.0493 35.7664 72.5002C35.8456 72.992 35.7638 73.4284 35.5224 73.8099C35.281 74.1914 34.8812 74.4963 34.3226 74.7236L35.5454 76.4319L34.1863 76.6499L33.0678 75.0451L32.1745 75.1886L31.988 77.0033L30.792 77.1957L31.3787 71.5243ZM33.3548 73.9074C33.5413 73.8776 33.712 73.8299 33.8661 73.7656C34.0207 73.7017 34.1514 73.6221 34.2583 73.5284C34.3651 73.4344 34.4439 73.3271 34.4933 73.2053C34.5427 73.0844 34.5559 72.9485 34.5316 72.7987C34.5035 72.6237 34.4231 72.4887 34.2911 72.3933C34.1169 72.2681 33.841 72.2354 33.4629 72.2962L32.4606 72.4572L32.2907 74.0786L33.3548 73.9074Z" fill="white"/>
<path d="M38.474 75.9129C38.1538 75.8686 37.8583 75.7694 37.5879 75.6136C37.3175 75.4582 37.0838 75.2431 36.8866 74.9694C36.6891 74.6956 36.5584 74.3567 36.4937 73.953C36.4251 73.5285 36.4447 73.107 36.5516 72.6889C36.6584 72.2708 36.8373 71.8863 37.0872 71.5354C37.3371 71.1842 37.6548 70.8848 38.0401 70.637C38.425 70.3892 38.8636 70.2262 39.3558 70.147C39.6402 70.1014 39.9037 70.0856 40.1451 70.0997C40.3866 70.1142 40.6046 70.1495 40.7996 70.2057C40.9946 70.2619 41.1696 70.336 41.3254 70.4284C41.4808 70.5199 41.615 70.62 41.7282 70.7299L40.969 71.6564C40.7804 71.506 40.5633 71.3877 40.3184 71.3025C40.0736 71.2174 39.7807 71.2016 39.4388 71.2565C39.1484 71.303 38.8874 71.4051 38.6553 71.5618C38.4229 71.7189 38.23 71.9093 38.0776 72.1328C37.9247 72.3563 37.8157 72.605 37.751 72.8783C37.6858 73.1517 37.6769 73.431 37.7225 73.7154C37.7565 73.9279 37.8225 74.1097 37.9213 74.2613C38.0197 74.4124 38.1414 74.5329 38.2862 74.6211C38.4305 74.7096 38.5915 74.7688 38.7686 74.7986C38.9462 74.8284 39.1309 74.8276 39.3225 74.7969C39.5346 74.7624 39.716 74.7126 39.8675 74.6458C40.0187 74.5789 40.1494 74.5078 40.2593 74.4312L40.3734 73.5051L39.1697 73.6984L39.2829 72.6207L41.6443 72.2414L41.3109 75.0749C41.0657 75.2683 40.7915 75.439 40.4883 75.5859C40.1856 75.7328 39.8296 75.8388 39.4205 75.9048C39.1101 75.9546 38.7942 75.9576 38.474 75.9129Z" fill="white"/>
<path d="M43.0834 69.643L47.1454 68.9902L47.0291 70.1002L44.1555 70.5622L44.0389 71.7203L46.5629 71.3146L46.4441 72.4088L43.9197 72.8146L43.7936 74.014L46.7141 73.5448L46.5978 74.6553L42.4967 75.3144L43.0834 69.643Z" fill="white"/>
<path d="M49.2723 69.7801L47.6177 70.0462L47.7356 68.8957L52.2404 68.1719L52.1229 69.3219L50.4683 69.588L49.9995 74.109L48.8035 74.3014L49.2723 69.7801Z" fill="white"/>
<path d="M11.9257 84.2107L13.6496 83.9335C14.038 83.8713 14.3773 83.8603 14.6681 83.9011C14.9589 83.9424 15.2182 84.045 15.4469 84.2102C15.7713 84.4453 15.971 84.7953 16.0459 85.2615C16.1 85.5979 16.0796 85.9091 15.985 86.1952C15.8901 86.4814 15.7394 86.7343 15.5329 86.9531C15.3264 87.1728 15.07 87.3546 14.7643 87.4994C14.4578 87.6442 14.1189 87.7459 13.7459 87.806L12.7129 87.972L12.5345 89.6901L11.3385 89.8821L11.9257 84.2107ZM13.6394 86.7475C14.038 86.6836 14.3458 86.5474 14.5621 86.34C14.7784 86.1335 14.8614 85.8738 14.8116 85.5634C14.7826 85.382 14.6992 85.2415 14.5608 85.1419C14.4646 85.072 14.3552 85.0273 14.2325 85.0069C14.1099 84.9869 13.9575 84.9916 13.7761 85.0205L12.9995 85.1448L12.8241 86.8786L13.6394 86.7475Z" fill="white"/>
<path d="M18.9945 83.034L20.1441 82.8496L21.886 88.1872L20.6589 88.3843L20.2918 87.1922L17.993 87.5617L17.3654 88.9136L16.0762 89.1205L18.9945 83.034ZM19.9814 86.1507L19.4441 84.396L18.5363 86.3827L19.9814 86.1507Z" fill="white"/>
<path d="M22.2346 87.1837L23.0134 86.2776C23.268 86.4752 23.5269 86.6157 23.79 86.6983C24.0531 86.7805 24.3401 86.7975 24.6505 86.7477C24.894 86.7085 25.0848 86.6242 25.2236 86.4956C25.362 86.3671 25.4178 86.2176 25.3905 86.0469C25.3799 85.9796 25.3556 85.9213 25.3186 85.8715C25.2811 85.8216 25.2236 85.7752 25.1448 85.7318C25.0661 85.6884 24.9622 85.6471 24.8336 85.6066C24.7046 85.5666 24.5441 85.5244 24.3512 85.4806C24.1634 85.4363 23.9825 85.3852 23.8083 85.3247C23.6337 85.2651 23.4753 85.1872 23.3327 85.091C23.1897 84.9939 23.07 84.8764 22.9733 84.738C22.8767 84.6001 22.812 84.4298 22.7796 84.2275C22.7349 83.9482 22.7528 83.6889 22.8337 83.4496C22.915 83.2107 23.0411 82.9983 23.2131 82.8114C23.3851 82.6249 23.595 82.4682 23.8432 82.3434C24.0915 82.2187 24.3605 82.1331 24.6505 82.0863C25.1214 82.0105 25.5319 82.019 25.8814 82.1118C26.231 82.2042 26.5427 82.3562 26.8152 82.5674L26.1241 83.5224C25.8861 83.3645 25.6596 83.2525 25.4446 83.186C25.2296 83.1201 24.9899 83.1073 24.7259 83.1499C24.4721 83.1907 24.2856 83.2806 24.1677 83.419C24.0489 83.5573 24.0003 83.694 24.0221 83.8286C24.0335 83.9014 24.0595 83.9622 24.0995 84.0112C24.1396 84.061 24.1992 84.1053 24.2801 84.1458C24.3605 84.1858 24.4666 84.2245 24.5977 84.2616C24.7284 84.2995 24.8932 84.342 25.092 84.3893C25.2913 84.4374 25.4765 84.4923 25.649 84.5554C25.821 84.6175 25.9743 84.6967 26.1088 84.7921C26.2438 84.8875 26.3566 85.005 26.4482 85.1438C26.5397 85.283 26.6014 85.4512 26.6329 85.6479C26.6789 85.9328 26.6602 86.1972 26.5772 86.4416C26.4941 86.6855 26.3668 86.9023 26.1952 87.0888C26.0232 87.2757 25.8129 87.4307 25.5647 87.5529C25.316 87.6746 25.0495 87.7589 24.7646 87.8045C23.7031 87.9748 22.8597 87.7683 22.2346 87.1837Z" fill="white"/>
<path d="M27.1746 86.3893L27.9529 85.4837C28.2079 85.6813 28.4664 85.8222 28.7295 85.9048C28.9926 85.987 29.2796 86.0032 29.59 85.9533C29.8336 85.9142 30.0243 85.8307 30.1631 85.7021C30.3019 85.5735 30.3573 85.4237 30.33 85.2529C30.3194 85.1857 30.2951 85.1269 30.2576 85.0771C30.2206 85.0273 30.1627 84.9813 30.0843 84.9379C30.0056 84.8944 29.9021 84.8531 29.7735 84.8127C29.6445 84.7722 29.484 84.7305 29.2907 84.6866C29.1029 84.6428 28.9224 84.5913 28.7482 84.5308C28.5737 84.4712 28.4149 84.3933 28.2718 84.297C28.1292 84.2 28.0095 84.0825 27.9129 83.9441C27.8158 83.8061 27.7515 83.6358 27.7191 83.4336C27.6744 83.1543 27.6923 82.895 27.7732 82.6557C27.8541 82.4168 27.981 82.2043 28.1526 82.0174C28.3246 81.8309 28.5345 81.6742 28.7827 81.5495C29.031 81.4247 29.3001 81.3387 29.59 81.2923C30.0609 81.2165 30.4714 81.225 30.8209 81.3179C31.1705 81.4098 31.4818 81.5623 31.7547 81.7734L31.0641 82.7285C30.8261 82.5705 30.5991 82.4585 30.3841 82.3921C30.1691 82.3261 29.9294 82.3133 29.6654 82.3559C29.4116 82.3968 29.2255 82.4866 29.1072 82.625C28.9884 82.7634 28.9403 82.9001 28.962 83.0346C28.9735 83.1074 28.9995 83.1679 29.0391 83.2173C29.0791 83.2671 29.1391 83.3114 29.2196 83.3518C29.3005 83.3918 29.4065 83.4306 29.5372 83.4676C29.6679 83.5055 29.8331 83.5481 30.032 83.5954C30.2308 83.6435 30.4165 83.6984 30.5885 83.7614C30.7605 83.8236 30.9142 83.9028 31.0487 83.9982C31.1833 84.0935 31.2965 84.211 31.3877 84.3498C31.4792 84.4891 31.5409 84.6573 31.5725 84.854C31.618 85.1388 31.5997 85.4032 31.5167 85.6481C31.4337 85.892 31.3063 86.1083 31.1347 86.2948C30.9632 86.4817 30.7528 86.6367 30.5042 86.7589C30.2555 86.8807 29.989 86.965 29.7041 87.0106C28.6427 87.1813 27.7996 86.9739 27.1746 86.3893Z" fill="white"/>
<path d="M34.3141 86.099C33.9888 86.0266 33.7002 85.8989 33.4481 85.7162C33.1956 85.5335 32.9865 85.3062 32.8205 85.0328C32.6544 84.7591 32.5437 84.4516 32.4888 84.1097C32.4241 83.7057 32.439 83.2986 32.5352 82.8869C32.6314 82.476 32.7988 82.0971 33.0381 81.7505C33.2774 81.4043 33.5826 81.1067 33.9543 80.8585C34.3265 80.6102 34.7552 80.4472 35.2423 80.3688C35.6149 80.3088 35.9636 80.3152 36.2889 80.388C36.6142 80.4608 36.9025 80.5881 37.1549 80.7703C37.4079 80.953 37.6165 81.1812 37.783 81.4546C37.949 81.7283 38.0593 82.0353 38.1142 82.3777C38.1789 82.7809 38.1636 83.1888 38.0678 83.6001C37.9712 84.011 37.8047 84.3903 37.5654 84.7365C37.3261 85.0826 37.0204 85.3803 36.6487 85.6281C36.2766 85.8767 35.8478 86.0402 35.3611 86.1186C34.9886 86.1786 34.6394 86.1722 34.3141 86.099ZM36.073 84.6807C36.2872 84.5193 36.4601 84.3282 36.5929 84.1076C36.7258 83.8871 36.8181 83.6478 36.8701 83.3893C36.922 83.1321 36.9293 82.886 36.8918 82.6531C36.8594 82.4513 36.7998 82.2708 36.713 82.1124C36.6261 81.9536 36.5141 81.8216 36.377 81.716C36.2399 81.6104 36.079 81.5384 35.8938 81.4993C35.7086 81.4601 35.5042 81.458 35.2806 81.4937C34.9945 81.5397 34.7442 81.6436 34.5304 81.8054C34.3163 81.9676 34.1425 82.1592 34.0097 82.3798C33.8769 82.6003 33.7849 82.8396 33.7329 83.0968C33.681 83.3553 33.6738 83.6005 33.7112 83.8334C33.7436 84.0356 33.8032 84.2158 33.8901 84.3746C33.9773 84.5334 34.0889 84.6658 34.226 84.7714C34.3631 84.8766 34.524 84.9485 34.7093 84.9881C34.8945 85.0273 35.0984 85.029 35.3224 84.9932C35.6085 84.9472 35.8589 84.8429 36.073 84.6807Z" fill="white"/>
<path d="M38.9381 79.8704L40.181 79.6707L40.9125 83.3299L42.5087 79.2811L43.5336 79.1159L44.3766 82.773L45.8975 78.7523L47.2489 78.5352L44.8045 84.5446L43.6937 84.7235L42.8693 81.2785L41.3016 85.1079L40.2065 85.2838L38.9381 79.8704Z" fill="white"/>
<path d="M49.3817 83.6771C49.0564 83.6047 48.7681 83.477 48.5156 83.2943C48.2631 83.1121 48.0537 82.8843 47.8876 82.611C47.7215 82.3372 47.6108 82.0298 47.5559 81.6879C47.4912 81.2838 47.5065 80.8767 47.6027 80.465C47.6985 80.0541 47.8663 79.6752 48.1056 79.3286C48.3449 78.9824 48.6502 78.6853 49.0219 78.437C49.3936 78.1888 49.8228 78.0253 50.3094 77.9469C50.6824 77.8869 51.0316 77.8933 51.3564 77.9661C51.6813 78.0389 51.97 78.1667 52.2225 78.3489C52.475 78.5315 52.684 78.7593 52.8501 79.0327C53.0161 79.3065 53.1268 79.6135 53.1818 79.9558C53.2465 80.359 53.2312 80.7669 53.1353 81.1782C53.0391 81.5891 52.8718 81.9684 52.6325 82.3146C52.3932 82.6608 52.0879 82.9584 51.7162 83.2062C51.3441 83.4549 50.9153 83.6184 50.4287 83.6967C50.0561 83.7567 49.7065 83.7503 49.3817 83.6771ZM51.1401 82.2588C51.3543 82.0975 51.528 81.9063 51.6609 81.6857C51.7933 81.4652 51.8857 81.2259 51.9372 80.9679C51.9891 80.7103 51.9968 80.4642 51.9593 80.2313C51.927 80.0294 51.8669 79.8493 51.7801 79.6909C51.6932 79.5321 51.5817 79.3997 51.4446 79.2941C51.3075 79.1885 51.1465 79.1166 50.9613 79.077C50.7761 79.0378 50.5717 79.0365 50.3482 79.0723C50.0621 79.1178 49.8117 79.2217 49.5975 79.3835C49.3834 79.5462 49.2101 79.7374 49.0772 79.9579C48.9444 80.1785 48.8524 80.4173 48.8005 80.6749C48.7481 80.933 48.7409 81.1786 48.7783 81.4115C48.8107 81.6138 48.8707 81.7939 48.9576 81.9527C49.0444 82.1115 49.1569 82.2439 49.2935 82.3495C49.4306 82.4547 49.5916 82.5271 49.7768 82.5662C49.962 82.6054 50.1664 82.6075 50.3903 82.5718C50.6765 82.5258 50.9264 82.4211 51.1401 82.2588Z" fill="white"/>
<path d="M54.5497 77.362L56.5305 77.0435C56.9341 76.9788 57.2845 76.969 57.5809 77.0141C57.8776 77.0593 58.1314 77.1585 58.3413 77.3101C58.6662 77.5451 58.865 77.8874 58.9374 78.3383C59.0166 78.8301 58.9349 79.2665 58.6934 79.648C58.452 80.0295 58.0522 80.3344 57.4936 80.5617L58.7164 82.27L57.3569 82.488L56.2388 80.8828L55.3455 81.0263L55.159 82.8414L53.963 83.0338L54.5497 77.362ZM56.5258 79.7451C56.7123 79.7153 56.8826 79.668 57.0372 79.6037C57.1913 79.5395 57.3224 79.4603 57.4293 79.3662C57.5362 79.2721 57.6149 79.1643 57.6643 79.043C57.7137 78.9216 57.7265 78.7862 57.7022 78.6368C57.6741 78.4614 57.5945 78.3268 57.4621 78.231C57.2879 78.1063 57.012 78.0735 56.6339 78.1344L55.6316 78.2953L55.4618 79.9163L56.5258 79.7451Z" fill="white"/>
<path d="M60.1884 76.456L61.7727 76.2014C62.3011 76.1167 62.7465 76.1116 63.1093 76.1861C63.4716 76.2606 63.7731 76.3849 64.0132 76.5586C64.4701 76.889 64.7524 77.3881 64.8597 78.0561C64.9252 78.4649 64.912 78.863 64.8205 79.2496C64.7285 79.6362 64.5586 80.0007 64.3108 80.3426C64.037 80.7215 63.6781 81.034 63.2344 81.2806C62.7908 81.5271 62.2526 81.7017 61.6212 81.803L59.6017 82.1279L60.1884 76.456ZM61.5956 80.6998C61.958 80.6415 62.2879 80.5316 62.586 80.369C62.8836 80.2067 63.1246 80.0002 63.3068 79.7473C63.4546 79.5434 63.5559 79.3169 63.6121 79.0691C63.6675 78.8208 63.6747 78.5649 63.6321 78.3005C63.5738 77.9382 63.4218 77.6682 63.1753 77.4898C63.0369 77.3898 62.8606 77.3199 62.6473 77.2799C62.434 77.2399 62.1713 77.2446 61.8609 77.2944L61.2784 77.3881L60.9195 80.8079L61.5956 80.6998Z" fill="white"/>
<path d="M167.573 131.683C167.573 131.683 169.714 118.931 171.964 115.351C174.915 110.654 188.772 100.862 188.772 100.862C190.087 99.4739 192.379 99.8026 193.251 101.504C193.679 102.339 193.656 103.332 193.19 104.146L187.061 112.323C187.061 112.323 205.965 101.143 209.483 102.105C213 103.067 209.336 107.165 209.336 107.165C209.336 107.165 213.359 105.138 214.693 107.536C216.026 109.934 211.556 112.323 211.556 112.323C211.556 112.323 215.095 111.557 215.425 114.362C215.755 117.167 211.917 118.869 211.917 118.869C211.917 118.869 216.46 119.09 213.901 123.126C211.732 126.546 197.534 130.409 192.514 133.613C190.204 135.088 184.795 141.401 184.795 141.401L167.573 131.683Z" fill="white"/>
<path d="M167.573 131.683C167.573 131.683 169.714 118.931 171.964 115.351C174.915 110.654 188.772 100.862 188.772 100.862C190.087 99.4739 192.379 99.8026 193.251 101.504C193.679 102.339 193.656 103.332 193.19 104.146L187.061 112.323C187.061 112.323 205.965 101.143 209.483 102.105C213 103.067 209.336 107.165 209.336 107.165C209.336 107.165 213.359 105.138 214.693 107.536C216.026 109.934 211.556 112.323 211.556 112.323C211.556 112.323 215.095 111.557 215.425 114.362C215.755 117.167 211.917 118.869 211.917 118.869C211.917 118.869 216.46 119.09 213.901 123.126C211.732 126.546 197.534 130.409 192.514 133.613C190.204 135.088 184.795 141.401 184.795 141.401L167.573 131.683Z" stroke="black" stroke-width="2" stroke-linecap="round" stroke-linejoin="round"/>
<path d="M209.336 107.165C206.891 108.213 201.955 111.302 197.383 114.093Z" fill="white"/>
<path d="M209.336 107.165C206.891 108.213 201.955 111.302 197.383 114.093" stroke="black" stroke-width="2" stroke-linecap="round" stroke-linejoin="round"/>
<path d="M211.556 112.322C211.556 112.322 210.688 112.511 207.472 114.159C204.257 115.807 198.559 119.364 198.559 119.364" fill="white"/>
<path d="M211.556 112.322C211.556 112.322 210.688 112.511 207.472 114.159C204.257 115.807 198.559 119.364 198.559 119.364" stroke="black" stroke-width="2" stroke-linecap="round" stroke-linejoin="round"/>
<path d="M211.917 118.869C211.917 118.869 209.304 119.794 208.245 120.217C207.659 120.451 199.716 124.505 199.716 124.505" fill="white"/>
<path d="M211.917 118.869C211.917 118.869 209.304 119.794 208.245 120.217C207.659 120.451 199.716 124.505 199.716 124.505" stroke="black" stroke-width="2" stroke-linecap="round" stroke-linejoin="round"/>
<path d="M129.037 99.5117L133.941 99.5875C144.617 99.7523 153.775 107.249 156.034 117.684C161.817 144.394 173.042 188.503 160.841 193.047C136.101 202.261 128.217 151.931 128.343 151.173C128.469 150.416 129.037 99.5117 129.037 99.5117Z" fill="#D4E8E8"/>
<path d="M149.856 165.777C149.856 165.777 158.344 142.422 165.06 126.166L195.301 137.932C195.301 137.932 177.628 194.417 156.297 194.047" fill="#D4E8E8"/>
<path d="M153.9 155.242C153.9 155.242 158.344 142.422 165.06 126.166L195.301 137.932" stroke="black" stroke-width="2" stroke-linecap="round" stroke-linejoin="round"/>
<path d="M147.034 116.654L147.323 190.421C144.481 201.781 73.0313 203.323 71.2592 183.261L71.26 116.88C71.1723 107.661 78.5647 100.111 87.7833 100.004L130.127 99.5129C139.602 99.403 147.274 107.182 147.034 116.654Z" fill="#D4E8E8"/>
<path d="M147.085 129.693L147.323 190.422" stroke="black" stroke-width="2" stroke-linecap="round" stroke-linejoin="round"/>
<path d="M78.6707 68.7497C78.6707 68.7497 72.2423 62.1484 75.2194 57.9204C78.1964 53.6924 84.1501 57.2732 84.1501 57.2732L82.5539 64.5647L80.3862 69.637" fill="black"/>
<path d="M84.8837 67.1098C84.8837 67.1098 79.7803 62.4926 76.7521 67.2162C73.724 71.9398 79.2165 76.9398 84.6005 77.0475" fill="white"/>
<path d="M84.8837 67.1098C84.8837 67.1098 79.7803 62.4926 76.7521 67.2162C73.724 71.9398 79.2165 76.9398 84.6005 77.0475" stroke="black" stroke-width="2" stroke-linecap="round" stroke-linejoin="round"/>
<path d="M117.872 79.924L119.995 99.779C119.995 99.779 114.467 103.308 108.944 103.308C103.422 103.308 96.9849 99.9962 96.9849 99.9962L92.762 77.9893" fill="white"/>
<path d="M117.872 79.924L119.995 99.779C119.995 99.779 114.467 103.308 108.944 103.308C103.422 103.308 96.9849 99.9962 96.9849 99.9962L92.762 77.9893" stroke="black" stroke-width="2" stroke-linecap="round" stroke-linejoin="round"/>
<path d="M110.234 91.457C108.919 92.0748 107.524 92.5138 106.06 92.7433C94.7252 94.5188 83.5187 83.073 81.5247 70.3425C79.5308 57.6121 87.5044 48.4186 98.8387 46.6431C110.173 44.8676 120.576 51.1828 122.57 63.9132C123.7 71.1243 121.888 78.8471 118.046 84.5108" fill="white"/>
<path d="M110.234 91.457C108.919 92.0748 107.524 92.5138 106.06 92.7433C94.7252 94.5188 83.5187 83.073 81.5247 70.3425C79.5308 57.6121 87.5044 48.4186 98.8387 46.6431C110.173 44.8676 120.576 51.1828 122.57 63.9132C123.7 71.1243 121.888 78.8471 118.046 84.5108" stroke="black" stroke-width="2" stroke-linecap="round" stroke-linejoin="round"/>
<path d="M118.595 64.138C118.595 64.138 117.791 67.414 115.884 67.3407C111.27 67.1636 116.372 47.2635 102.06 49.3779C102.06 49.3779 99.643 52.1863 90.0765 52.3102C90.0765 52.3102 86.1078 62.1547 79.9468 62.1607C75.4377 62.1649 72.2708 56.0107 77.5347 50.6518C77.5347 50.6518 69.7727 42.0353 74.8076 36.4426C79.8424 30.85 89.0917 33.661 91.7149 39.0361C91.7149 39.0361 94.7997 29.2985 101.277 29.43C107.755 29.5616 107.428 36.0092 107.428 36.0092C107.428 36.0092 113.39 29.5642 119.281 33.5175C125.172 37.4709 121.457 42.6697 121.457 42.6697C121.457 42.6697 127.244 57.6798 125.723 64.1427C124.201 70.6056 118.595 64.138 118.595 64.138Z" fill="black"/>
<path d="M117.438 66.284C117.438 66.284 121.647 56.5608 127.11 60.8953C132.572 65.2297 128.128 73.32 121.842 75.6145" fill="white"/>
<path d="M117.438 66.284C117.438 66.284 121.647 56.5608 127.11 60.8953C132.572 65.2297 128.128 73.32 121.842 75.6145" stroke="black" stroke-width="2" stroke-linecap="round" stroke-linejoin="round"/>
<path d="M122.512 64.7412C123.608 64.8677 124.617 65.5898 125.089 66.5865C125.562 67.5833 125.483 68.821 124.887 69.7497" fill="white"/>
<path d="M122.512 64.7412C123.608 64.8677 124.617 65.5898 125.089 66.5865C125.562 67.5833 125.483 68.821 124.887 69.7497" stroke="black" stroke-width="2" stroke-linecap="round" stroke-linejoin="round"/>
<path d="M103.895 61.2942C104.624 60.7343 105.532 60.4124 106.426 60.3971C107.319 60.3817 108.194 60.6734 108.862 61.2099" fill="white"/>
<path d="M103.895 61.2942C104.624 60.7343 105.532 60.4124 106.426 60.3971C107.319 60.3817 108.194 60.6734 108.862 61.2099" stroke="black" stroke-width="2" stroke-linecap="round" stroke-linejoin="round"/>
<path d="M87.2643 65.9866C87.9932 65.4267 88.901 65.1048 89.7947 65.0894C90.6884 65.0741 91.5625 65.3658 92.2306 65.9023" fill="white"/>
<path d="M87.2643 65.9866C87.9932 65.4267 88.901 65.1048 89.7947 65.0894C90.6884 65.0741 91.5625 65.3658 92.2306 65.9023" stroke="black" stroke-width="2" stroke-linecap="round" stroke-linejoin="round"/>
<path d="M98.6685 66.5547C99.2526 69.3478 98.7468 72.3538 97.28 74.8016C96.9738 75.3126 96.617 75.9312 96.8883 76.4613C97.0926 76.8611 97.5716 77.0204 98.0034 77.143C98.998 77.4249 99.9926 77.7072 100.987 77.989" fill="white"/>
<path d="M98.6685 66.5547C99.2526 69.3478 98.7468 72.3538 97.28 74.8016C96.9738 75.3126 96.617 75.9312 96.8883 76.4613C97.0926 76.8611 97.5716 77.0204 98.0034 77.143C98.998 77.4249 99.9926 77.7072 100.987 77.989" stroke="black" stroke-width="2" stroke-linecap="round" stroke-linejoin="round"/>
<path d="M102.652 81.6993C102.652 83.2517 103.911 84.5098 105.463 84.5098C107.015 84.5098 108.274 83.2517 108.274 81.6993C108.274 80.1469 107.015 78.8887 105.463 78.8887C103.911 78.8887 102.652 80.1469 102.652 81.6993Z" fill="black"/>
<path d="M107.652 67.8059C108.59 67.5776 109.085 66.3084 108.759 64.9659C108.433 63.6238 107.409 62.7157 106.474 62.9486C105.536 63.1768 105.042 64.446 105.367 65.7881C105.693 67.1306 106.722 68.0362 107.652 67.8059Z" fill="black"/>
<path d="M91.0209 72.4996C91.9585 72.2714 92.4537 71.0022 92.1276 69.6597C91.8018 68.3176 90.7774 67.409 89.8424 67.6419C88.9048 67.8701 88.4101 69.1394 88.7358 70.4814C89.0619 71.8239 90.0906 72.73 91.0209 72.4996Z" fill="black"/>
<path d="M123.869 163.194L103.784 164.978C101.151 165.212 98.8829 163.521 98.3626 160.937L91.1776 125.251C90.487 121.822 93.1051 118.329 96.5982 118.019L116.684 116.235C119.316 116.002 121.584 117.692 122.105 120.276L129.29 155.962C129.98 159.391 127.362 162.884 123.869 163.194Z" fill="#40AF2D"/>
<path d="M91.5054 148.715C94.9117 141.717 87.905 134.729 93.826 132.435C96.9107 131.239 100.053 142.632 101.336 142.992C102.619 143.352 117.748 126.88 123.754 128.469C125.275 128.872 126.157 131.345 123.891 134.467C123.891 134.467 126.526 134.29 127.73 136.281C129.655 139.464 125.507 142.473 125.507 142.473C125.507 142.473 127.762 141.161 129.313 142.918C131.73 145.656 126.747 150.186 126.747 150.186C126.747 150.186 131.191 148.283 131.878 152.219C133.106 159.249 108.637 164.08 105.869 166.033C103.102 167.987 98.4678 169.882 98.4678 169.882L82.8514 157.744L91.5054 148.715Z" fill="white"/>
<path d="M91.5054 148.715C94.9117 141.717 87.905 134.729 93.826 132.435C96.9107 131.239 100.053 142.632 101.336 142.992C102.619 143.352 117.748 126.88 123.754 128.469C125.275 128.872 126.157 131.345 123.891 134.467C123.891 134.467 126.526 134.29 127.73 136.281C129.655 139.464 125.507 142.473 125.507 142.473C125.507 142.473 127.762 141.161 129.313 142.918C131.73 145.656 126.747 150.186 126.747 150.186C126.747 150.186 131.191 148.283 131.878 152.219C133.106 159.249 108.637 164.08 105.869 166.033C103.102 167.987 98.4678 169.882 98.4678 169.882L82.8514 157.744L91.5054 148.715Z" stroke="black" stroke-width="2" stroke-linecap="round" stroke-linejoin="round"/>
<path d="M123.891 134.467C123.891 134.467 123.04 135.931 120.523 137.892C118.007 139.853 111.42 143.829 111.42 143.829" fill="white"/>
<path d="M123.891 134.467C123.891 134.467 123.04 135.931 120.523 137.892C118.007 139.853 111.42 143.829 111.42 143.829" stroke="black" stroke-width="2" stroke-linecap="round" stroke-linejoin="round"/>
<path d="M125.575 142.367C125.575 142.367 125.31 142.719 121.541 144.828C118.757 146.387 114.627 148.516 114.627 148.516" fill="white"/>
<path d="M125.575 142.367C125.575 142.367 125.31 142.719 121.541 144.828C118.757 146.387 114.627 148.516 114.627 148.516" stroke="black" stroke-width="2" stroke-linecap="round" stroke-linejoin="round"/>
<path d="M88.835 99.9926C88.835 99.9926 71.8974 99.5119 63.4601 108.688C55.0676 117.815 31.2941 181.677 55.934 192.799C74.8672 201.346 103.575 169.598 103.575 169.598L90.8447 145.207L67.6409 160.108L88.835 99.9926Z" fill="#D4E8E8"/>
<path d="M67.0125 193.718C84.5197 190.171 103.575 169.598 103.575 169.598L90.8447 145.207L67.6409 160.108L83.1581 118.196" stroke="black" stroke-width="2" stroke-linecap="round" stroke-linejoin="round"/>
<path d="M126.747 150.186C126.747 150.186 126.025 151.156 124.397 152.193C122.769 153.229 116.305 155.745 116.305 155.745" fill="white"/>
<path d="M126.747 150.186C126.747 150.186 126.025 151.156 124.397 152.193C122.769 153.229 116.305 155.745 116.305 155.745" stroke="black" stroke-width="2" stroke-linecap="round" stroke-linejoin="round"/>
<path d="M137.309 50.4515L154.312 19.8438L170.124 36.8814L137.309 50.4515Z" fill="#41AF2D"/>
<path d="M142.211 52.0092L154.825 46.9492L154.711 52.9732L142.211 52.0092Z" fill="#D4E8E8"/>
<path d="M129.588 27.7129L133.678 45.0098L143.844 30.0845L129.588 27.7129Z" fill="white"/>
<path d="M129.588 27.7129L133.678 45.0098L143.844 30.0845L129.588 27.7129Z" stroke="black" stroke-width="2" stroke-linecap="round" stroke-linejoin="round"/>
<path d="M215.445 96.1686H138.448V71.0049H215.445V96.1686Z" fill="black"/>
<path d="M150.015 87.199L150.925 83.1542L147.375 85.3552L146.173 82.7811L150.166 81.5471L146.495 79.5659L148.148 77.236L151.203 80.0855L151.054 75.9431L153.841 76.1988L152.931 80.2435L156.481 78.042L157.683 80.6166L153.69 81.8507L157.361 83.8318L155.708 86.1617L152.654 83.3121L152.802 87.4546L150.015 87.199Z" fill="white"/>
<path d="M166.694 87.1989L167.604 83.1541L164.054 85.3552L162.852 82.7811L166.844 81.5471L163.174 79.5658L164.827 77.236L167.881 80.0855L167.733 75.943L170.52 76.1988L169.61 80.2435L173.16 78.042L174.362 80.6166L170.369 81.8506L174.04 83.8318L172.387 86.1616L169.333 83.3121L169.481 87.4546L166.694 87.1989Z" fill="white"/>
<path d="M183.373 87.1989L184.283 83.1542L180.733 85.3552L179.531 82.7811L183.524 81.5471L179.853 79.5659L181.506 77.236L184.56 80.0855L184.412 75.943L187.199 76.1988L186.289 80.2435L189.839 78.042L191.041 80.6166L187.048 81.8507L190.719 83.8318L189.066 86.1617L186.012 83.3121L186.16 87.4546L183.373 87.1989Z" fill="white"/>
<path d="M200.052 87.1989L200.962 83.1541L197.412 85.3552L196.21 82.7811L200.202 81.5471L196.532 79.5658L198.185 77.236L201.239 80.0855L201.091 75.943L203.878 76.1988L202.968 80.2435L206.518 78.042L207.72 80.6166L203.727 81.8506L207.398 83.8317L205.745 86.1616L202.691 83.3121L202.839 87.4546L200.052 87.1989Z" fill="white"/>
</g>
</g>
<defs>
<clipPath id="clip0_330_7768">
<rect width="218" height="218" fill="white" transform="translate(0 0.28125)"/>
</clipPath>
</defs>
</svg>
