<svg width="178" height="134" viewBox="0 0 178 134" fill="none" xmlns="http://www.w3.org/2000/svg">
<path d="M109.583 36.8906C90.0743 36.8906 69.1884 36.8906 50.1118 36.8906C40.8513 36.8906 35.4122 41.6607 35.4122 51.662C35.4122 73.702 35.4122 132.644 35.4122 132.644H123.542C123.542 132.644 123.542 78.5175 123.542 50.9212C123.542 41.6607 116.251 36.8906 109.583 36.8906Z" fill="#1D4354"/>
<path d="M108.819 40.7988C103.826 40.7988 55.7618 40.7988 50.8081 40.7988C42.3981 40.7988 38.7723 45.6953 38.7723 54.7782C38.7723 74.7941 38.7723 132.361 38.7723 132.361H120.182C120.182 132.361 120.182 79.1673 120.182 54.1054C120.182 45.6953 114.874 40.7988 108.819 40.7988Z" fill="#C1DEDE"/>
<path d="M108.819 40.7988C103.826 40.7988 55.7617 40.7988 50.8081 40.7988C42.398 40.7988 38.8344 45.7088 38.8344 54.7782C51.0989 134.277 120.182 132.361 120.182 132.361C120.182 132.361 120.182 79.1673 120.182 54.1054C120.182 45.6953 114.874 40.7988 108.819 40.7988Z" fill="#D4E8E8"/>
<path fill-rule="evenodd" clip-rule="evenodd" d="M0.8573 132.645C0.8573 132.018 1.36498 131.511 1.99124 131.511H156.585C157.211 131.511 157.719 132.018 157.719 132.645C157.719 133.271 157.211 133.779 156.585 133.779H1.99124C1.36498 133.779 0.8573 133.271 0.8573 132.645Z" fill="#1D4354"/>
<path d="M93.2732 49.1753C93.2732 51.2614 91.5795 52.9551 89.4934 52.9551H69.0825C66.9965 52.9551 65.3027 51.2614 65.3027 49.1753C65.3027 47.0892 66.9965 45.3955 69.0825 45.3955H89.4934C91.5795 45.3955 93.2732 47.0892 93.2732 49.1753Z" fill="#1D4354"/>
<path d="M61.0838 97.8187V107.344C61.0838 108.095 60.474 108.705 59.7231 108.705H52.5881C51.8371 108.705 51.2274 108.095 51.2274 107.344V97.8187C51.2274 97.0677 51.8371 96.458 52.5881 96.458H59.7231C60.474 96.458 61.0838 97.0677 61.0838 97.8187Z" fill="#C1DEDE"/>
<path fill-rule="evenodd" clip-rule="evenodd" d="M52.5881 96.9688C52.1189 96.9688 51.7376 97.3501 51.7376 97.8192V107.344C51.7376 107.813 52.1189 108.195 52.5881 108.195H59.7231C60.1922 108.195 60.5735 107.813 60.5735 107.344V97.8192C60.5735 97.3501 60.1922 96.9688 59.7231 96.9688H52.5881ZM50.7171 97.8192C50.7171 96.7864 51.5553 95.9482 52.5881 95.9482H59.7231C60.7559 95.9482 61.5941 96.7864 61.5941 97.8192V107.344C61.5941 108.377 60.7559 109.215 59.7231 109.215H52.5881C51.5553 109.215 50.7171 108.377 50.7171 107.344V97.8192Z" fill="#ACC5C5"/>
<path d="M76.0518 97.8187V107.344C76.0518 108.095 75.4421 108.705 74.6911 108.705H67.5561C66.8051 108.705 66.1954 108.095 66.1954 107.344V97.8187C66.1954 97.0677 66.8051 96.458 67.5561 96.458H74.6911C75.4421 96.458 76.0518 97.0677 76.0518 97.8187Z" fill="#C1DEDE"/>
<path fill-rule="evenodd" clip-rule="evenodd" d="M67.5561 96.9688C67.0869 96.9688 66.7057 97.3501 66.7057 97.8192V107.344C66.7057 107.813 67.0869 108.195 67.5561 108.195H74.6911C75.1603 108.195 75.5415 107.813 75.5415 107.344V97.8192C75.5415 97.3501 75.1603 96.9688 74.6911 96.9688H67.5561ZM65.6851 97.8192C65.6851 96.7864 66.5233 95.9482 67.5561 95.9482H74.6911C75.7239 95.9482 76.5621 96.7864 76.5621 97.8192V107.344C76.5621 108.377 75.7239 109.215 74.6911 109.215H67.5561C66.5233 109.215 65.6851 108.377 65.6851 107.344V97.8192Z" fill="#ACC5C5"/>
<path d="M92.3805 97.8187V107.344C92.3805 108.095 91.7708 108.705 91.0198 108.705H83.8848C83.1339 108.705 82.5241 108.095 82.5241 107.344V97.8187C82.5241 97.0677 83.1339 96.458 83.8848 96.458H91.0198C91.7708 96.458 92.3805 97.0677 92.3805 97.8187Z" fill="#C1DEDE"/>
<path fill-rule="evenodd" clip-rule="evenodd" d="M83.8849 96.9688C83.4157 96.9688 83.0344 97.3501 83.0344 97.8192V107.344C83.0344 107.813 83.4157 108.195 83.8849 108.195H91.0198C91.489 108.195 91.8703 107.813 91.8703 107.344V97.8192C91.8703 97.3501 91.489 96.9688 91.0198 96.9688H83.8849ZM82.0139 97.8192C82.0139 96.7864 82.8521 95.9482 83.8849 95.9482H91.0198C92.0526 95.9482 92.8908 96.7864 92.8908 97.8192V107.344C92.8908 108.377 92.0526 109.215 91.0198 109.215H83.8849C82.8521 109.215 82.0139 108.377 82.0139 107.344V97.8192Z" fill="#ACC5C5"/>
<path d="M107.348 97.8187V107.344C107.348 108.095 106.739 108.705 105.988 108.705H98.8527C98.1017 108.705 97.492 108.095 97.492 107.344V97.8187C97.492 97.0677 98.1017 96.458 98.8527 96.458H105.988C106.739 96.458 107.348 97.0677 107.348 97.8187Z" fill="#C1DEDE"/>
<path fill-rule="evenodd" clip-rule="evenodd" d="M98.8527 96.9688C98.3836 96.9688 98.0023 97.3501 98.0023 97.8192V107.344C98.0023 107.813 98.3836 108.195 98.8527 108.195H105.988C106.457 108.195 106.838 107.813 106.838 107.344V97.8192C106.838 97.3501 106.457 96.9688 105.988 96.9688H98.8527ZM96.9818 97.8192C96.9818 96.7864 97.8199 95.9482 98.8527 95.9482H105.988C107.021 95.9482 107.859 96.7864 107.859 97.8192V107.344C107.859 108.377 107.021 109.215 105.988 109.215H98.8527C97.8199 109.215 96.9818 108.377 96.9818 107.344V97.8192Z" fill="#ACC5C5"/>
<path d="M71.3071 86.2416C71.3071 86.9926 70.6974 87.6023 69.9464 87.6023H52.257C51.506 87.6023 50.8962 86.9926 50.8962 86.2416C50.8962 85.4906 51.506 84.8809 52.257 84.8809H69.9464C70.6974 84.8809 71.3071 85.4906 71.3071 86.2416Z" fill="#A0B6B6"/>
<path d="M88.3163 80.7986C88.3163 81.7373 87.5541 82.4995 86.6154 82.4995H52.5972C51.6585 82.4995 50.8963 81.7373 50.8963 80.7986C50.8963 79.8598 51.6585 79.0977 52.5972 79.0977H86.6154C87.5541 79.0977 88.3163 79.8598 88.3163 80.7986Z" fill="#A0B6B6"/>
<path d="M165.584 1.15286C157.588 1.35743 87.8365 3.48985 80.5361 3.67662C73.2356 3.8634 70.5167 6.36805 70.7302 14.7114C70.997 25.1407 71.7445 47.5591 71.909 53.9905C72.0736 60.4219 74.0256 61.9373 81.4999 61.7461C88.9742 61.5549 95.3621 61.3915 98.4909 61.3114C101.62 61.2314 102.166 62.174 102.111 65.1323C102.058 68.0008 101.966 69.6583 101.645 74.1019C101.254 79.5031 102.12 79.3644 104.653 76.1121C107.347 72.6515 110.287 68.5758 113.737 64.0522C116.057 61.0105 117.828 60.8167 120.61 60.7455C123.391 60.6744 161.507 59.3513 168.112 59.1823C174.717 59.0133 176.75 56.8741 176.607 51.3119C176.465 45.7496 176.065 16.5388 175.905 10.2813C175.745 4.02371 172.536 0.974981 165.584 1.15286Z" fill="#F66DBC"/>
<path d="M165.584 1.15286C157.588 1.35743 87.8365 3.48985 80.5361 3.67662C73.2356 3.8634 70.5167 6.36805 70.7302 14.7114C70.997 25.1407 71.7445 47.5591 71.909 53.9905C72.0736 60.4219 74.0256 61.9373 81.4999 61.7461C88.9742 61.5549 95.3621 61.3915 98.4909 61.3114C101.62 61.2314 102.166 62.174 102.111 65.1323C102.058 68.0008 101.966 69.6583 101.645 74.1019C101.254 79.5031 102.418 79.5068 104.034 75.7147C106.741 69.3622 111.241 60.6206 114.752 56.1268C118.092 51.8505 123.099 52.0846 141.446 50.2981C165.435 47.9625 166.419 47.3981 171.092 12.4916C171.922 6.28735 172.536 0.974981 165.584 1.15286Z" fill="#FA99D1"/>
</svg>
