<svg width="174" height="175" viewBox="0 0 174 175" fill="none" xmlns="http://www.w3.org/2000/svg">
<g clip-path="url(#clip0_330_7505)">
<mask id="mask0_330_7505" style="mask-type:luminance" maskUnits="userSpaceOnUse" x="0" y="0" width="174" height="175">
<path d="M174 0.330078H0V174.33H174V0.330078Z" fill="white"/>
</mask>
<g mask="url(#mask0_330_7505)">
<path d="M70.1359 105.119H41.2111C29.6809 105.119 20.3339 95.7717 20.3339 84.2415V43.762C20.3339 32.2318 29.6809 22.8848 41.2111 22.8848H70.1359C81.6662 22.8848 91.0132 32.2318 91.0132 43.762V84.2415C91.0132 95.7717 81.6662 105.119 70.1359 105.119Z" fill="white"/>
<path d="M91.0135 41.1288V86.8744C91.0135 96.9484 82.8433 105.119 72.7694 105.119H38.5797C31.1993 105.119 24.8439 100.738 21.9692 94.436C25.2986 97.9554 30.0085 100.15 35.2326 100.15H69.4253C79.4993 100.15 87.6695 91.9826 87.6695 81.9059V36.1602C87.6695 33.4666 87.0846 30.9063 86.0362 28.6045C89.122 31.8745 91.0135 36.2788 91.0135 41.1288Z" fill="#E7EBFB"/>
<path fill-rule="evenodd" clip-rule="evenodd" d="M41.2111 23.1816C29.8452 23.1816 20.6312 32.3956 20.6312 43.7616V84.241C20.6312 95.607 29.8452 104.821 41.2111 104.821H70.1359C81.5019 104.821 90.7159 95.607 90.7159 84.241V43.7616C90.7159 32.3956 81.5019 23.1816 70.1359 23.1816H41.2111ZM20.0365 43.7616C20.0365 32.0671 29.5167 22.5869 41.2111 22.5869H70.1359C81.8304 22.5869 91.3106 32.0671 91.3106 43.7616V84.241C91.3106 95.9355 81.8304 105.416 70.1359 105.416H41.2111C29.5167 105.416 20.0365 95.9355 20.0365 84.241V43.7616Z" fill="#060F11"/>
<path d="M62.6267 57.4586L65.2945 71.786C65.5236 73.0166 64.5791 74.153 63.3275 74.153H51.9149C50.6632 74.153 49.7188 73.0166 49.9478 71.786L52.6156 57.4582C52.7747 56.6045 52.3655 55.7454 51.6008 55.3339C47.364 53.0535 44.5685 48.4456 44.9277 43.2228C45.3674 36.8283 50.6109 31.712 57.0135 31.4136C64.3158 31.0734 70.3456 36.8929 70.3456 44.1227C70.3456 48.9706 67.6337 53.1871 63.6422 55.3342C62.8775 55.7457 62.4677 56.6049 62.6267 57.4586Z" fill="#F66DBC"/>
<path d="M62.6277 57.459L65.2948 71.7851C65.5242 73.0153 64.5798 74.1528 63.3268 74.1528H60.6026C61.8556 74.1528 62.8004 73.0153 62.571 71.7851L59.9036 57.459C59.7445 56.6053 60.1533 55.7451 60.9183 55.3343C64.9091 53.1868 67.6218 48.9714 67.6218 44.1225C67.6218 37.553 62.6437 32.1505 56.2581 31.4718C56.5078 31.4446 56.7597 31.4239 57.0139 31.4127C64.3164 31.0721 70.3456 36.8923 70.3456 44.1225C70.3456 48.9714 67.633 53.1868 63.6422 55.3343C62.8772 55.7451 62.4687 56.6053 62.6277 57.459Z" fill="#141323"/>
<path fill-rule="evenodd" clip-rule="evenodd" d="M70.0483 44.1223C70.0483 37.0614 64.1594 31.3779 57.0274 31.7102C50.7752 32.0015 45.6537 36.9993 45.2243 43.2428L44.9277 43.2224L45.2243 43.2428C44.8735 48.3438 47.6031 52.844 51.7418 55.0715C52.6208 55.5446 53.0906 56.5319 52.908 57.5122C52.908 57.5122 52.908 57.5122 52.908 57.5122L50.2402 71.84C50.0452 72.8877 50.8493 73.8552 51.9149 73.8552H63.3275C64.3931 73.8552 65.1972 72.8877 65.0022 71.84L62.3344 57.5125C62.1518 56.5321 62.6224 55.5449 63.5013 55.0719L63.5013 55.0718C67.4002 52.9745 70.0483 48.8564 70.0483 44.1223ZM56.9997 31.1161C64.4722 30.768 70.643 36.7235 70.643 44.1223C70.643 49.0838 67.8671 53.3986 63.7831 55.5956C63.1327 55.9456 62.7837 56.6767 62.9191 57.4036L62.9191 57.4036L65.5869 71.7311L65.2945 71.7856L65.5869 71.7311C65.85 73.1446 64.7652 74.4499 63.3275 74.4499H51.9149C50.4772 74.4499 49.3924 73.1446 49.6555 71.7311L49.9479 71.7856L49.6555 71.7311L52.3233 57.4033L52.3233 57.4033C52.4588 56.6762 52.1102 55.9452 51.4599 55.5952C47.1249 53.262 44.2634 48.5464 44.631 43.202C45.0812 36.6564 50.4466 31.4215 56.9997 31.1161L57.0136 31.4131L56.9997 31.1161Z" fill="#060F11"/>
<path fill-rule="evenodd" clip-rule="evenodd" d="M56.5551 35.6683C56.5628 35.8323 56.436 35.9715 56.2719 35.9792C52.2596 36.1662 48.9726 39.3743 48.6969 43.3806C48.6856 43.5445 48.5436 43.6682 48.3798 43.6569C48.216 43.6456 48.0923 43.5037 48.1036 43.3398C48.4001 39.0315 51.931 35.5862 56.2442 35.3851C56.4083 35.3774 56.5475 35.5042 56.5551 35.6683Z" fill="white"/>
<path d="M76.0982 92.1039H39.1439C35.6819 92.1039 32.8754 89.2972 32.8754 85.8352C32.8754 82.3732 35.6819 79.5664 39.1439 79.5664H76.0982C79.5601 79.5664 82.3669 82.3732 82.3669 85.8352C82.3669 89.2972 79.5601 92.1039 76.0982 92.1039Z" fill="#E7EBFB"/>
<path fill-rule="evenodd" clip-rule="evenodd" d="M39.1439 79.8633C35.8461 79.8633 33.1728 82.5369 33.1728 85.8347C33.1728 89.1325 35.8461 91.8061 39.1439 91.8061H76.0982C79.3959 91.8061 82.0696 89.1324 82.0696 85.8347C82.0696 82.5369 79.3959 79.8633 76.0982 79.8633H39.1439ZM32.5781 85.8347C32.5781 82.2085 35.5176 79.2686 39.1439 79.2686H76.0982C79.7244 79.2686 82.6643 82.2085 82.6643 85.8347C82.6643 89.4609 79.7244 92.4008 76.0982 92.4008H39.1439C35.5176 92.4008 32.5781 89.4609 32.5781 85.8347Z" fill="#060F11"/>
<path d="M43.8718 85.8346C43.8718 86.8365 43.0592 87.6487 42.0574 87.6487C41.0555 87.6487 40.2433 86.8365 40.2433 85.8346C40.2433 84.8327 41.0555 84.0205 42.0574 84.0205C43.0592 84.0205 43.8718 84.8327 43.8718 85.8346Z" fill="#141323"/>
<path d="M49.8874 85.8346C49.8874 86.8365 49.0751 87.6487 48.0733 87.6487C47.0714 87.6487 46.2589 86.8365 46.2589 85.8346C46.2589 84.8327 47.0714 84.0205 48.0733 84.0205C49.0751 84.0205 49.8874 84.8327 49.8874 85.8346Z" fill="#141323"/>
<path d="M55.903 85.8346C55.903 86.8365 55.0907 87.6487 54.0889 87.6487C53.087 87.6487 52.2748 86.8365 52.2748 85.8346C52.2748 84.8327 53.087 84.0205 54.0889 84.0205C55.0907 84.0205 55.903 84.8327 55.903 85.8346Z" fill="#141323"/>
<path d="M61.9185 85.8346C61.9185 86.8365 61.1063 87.6487 60.1044 87.6487C59.1026 87.6487 58.2903 86.8365 58.2903 85.8346C58.2903 84.8327 59.1026 84.0205 60.1044 84.0205C61.1063 84.0205 61.9185 84.8327 61.9185 85.8346Z" fill="#141323"/>
<g opacity="0.982954">
<path fill-rule="evenodd" clip-rule="evenodd" d="M63.441 87.6489C63.441 87.4847 63.5742 87.3516 63.7384 87.3516H67.0495C67.2137 87.3516 67.3469 87.4847 67.3469 87.6489C67.3469 87.8132 67.2137 87.9463 67.0495 87.9463H63.7384C63.5742 87.9463 63.441 87.8132 63.441 87.6489Z" fill="#060F11"/>
</g>
<path d="M77.3872 70.9035L90.0674 86.0718C92.5744 89.9334 97.8525 90.8155 101.479 87.9788L115.854 76.734L108.767 66.6883L97.0796 76.755L88.7185 65.0479L77.3872 70.9035Z" fill="#FFC1A4"/>
<path d="M112.128 63.6312L106.308 67.8286L113.069 80.3838L122.407 72.2877L112.128 63.6312Z" fill="#41AE2D"/>
<path d="M106.594 68.5596L110.487 80.932L112.436 79.4073L106.594 68.5596Z" fill="#F7B094"/>
<path d="M83.1571 62.41C80.0372 61.1245 76.537 62.1619 74.5796 64.7272L58.2671 57.9978C57.3045 57.604 56.206 58.0596 55.8122 59.0221C55.4153 59.982 55.8709 61.0832 56.8307 61.4801L56.8991 61.5069L55.8653 64.0086L58.2899 65.0098L58.8586 63.628L60.9353 64.4869L60.3669 65.8656L62.5032 66.7485L63.5369 64.2437L73.1491 68.2067C72.7251 71.4058 74.4748 74.6083 77.5977 75.8969C81.3238 77.4312 85.5862 75.6589 87.1235 71.9331C88.6578 68.2101 86.8832 63.9474 83.1571 62.41ZM85.344 71.2014C84.8583 72.3751 83.5135 72.935 82.3367 72.4523C81.163 71.9667 80.6005 70.6218 81.0861 69.4451C81.5718 68.2684 82.9163 67.7088 84.093 68.1945C85.2698 68.6771 85.8296 70.0247 85.344 71.2014Z" fill="#30270F"/>
<path d="M88.7185 65.047L87.3013 61.3603C86.8696 60.5907 86.0354 60.1356 85.1543 60.1889L81.8611 60.3887C80.9432 60.4444 80.2089 61.1718 80.145 62.0891C80.0711 63.1488 80.9115 64.0488 81.9739 64.0476L85.5851 64.0436L87.273 66.6989L88.7185 65.047Z" fill="#FFC1A4"/>
<path fill-rule="evenodd" clip-rule="evenodd" d="M110.261 69.4298C110.407 69.355 110.586 69.413 110.661 69.5592L113.857 75.8118C113.932 75.9581 113.874 76.1372 113.727 76.212C113.581 76.2867 113.402 76.2287 113.327 76.0825L110.131 69.8299C110.057 69.6837 110.115 69.5045 110.261 69.4298Z" fill="white"/>
<path d="M154.949 155.632L149.169 149.074L158.484 142L163.848 148.026" fill="#FFC1A4"/>
<path d="M157.502 171.998L171.186 156.832C171.387 156.612 171.459 156.308 171.388 156.021L163.848 148.026L154.949 155.632L156.869 159.541L156.056 168.949L155.975 171.565C156.109 172.289 157.008 172.542 157.502 171.998Z" fill="#30270F"/>
<path d="M157.502 171.998L171.186 156.832C171.387 156.612 171.459 156.308 171.388 156.021L169.974 154.521L157.039 169.516C156.548 170.062 156.179 169.631 156.047 168.909L155.975 171.565C156.109 172.289 157.009 172.542 157.502 171.998Z" fill="#181407"/>
<path fill-rule="evenodd" clip-rule="evenodd" d="M160.37 157.998C160.446 158.17 160.368 158.37 160.196 158.446L157.005 159.851C156.834 159.927 156.633 159.849 156.557 159.677C156.482 159.506 156.56 159.305 156.731 159.229L159.922 157.824C160.094 157.748 160.295 157.826 160.37 157.998Z" fill="white"/>
<path fill-rule="evenodd" clip-rule="evenodd" d="M160.648 159.49C160.722 159.663 160.641 159.862 160.469 159.936L157.467 161.213C157.294 161.286 157.094 161.206 157.021 161.033C156.948 160.861 157.028 160.661 157.201 160.588L160.203 159.31C160.375 159.237 160.575 159.317 160.648 159.49Z" fill="white"/>
<path fill-rule="evenodd" clip-rule="evenodd" d="M167.421 151.39C167.532 151.541 167.499 151.754 167.348 151.865C166.913 152.184 166.301 152.71 165.862 153.393C165.426 154.072 165.169 154.888 165.397 155.817C165.61 156.681 166.206 157.342 166.779 157.797C167.062 158.022 167.332 158.19 167.531 158.302C167.63 158.358 167.711 158.4 167.766 158.427C167.794 158.44 167.815 158.45 167.828 158.457C167.835 158.46 167.84 158.462 167.843 158.463L167.846 158.465C168.018 158.539 168.097 158.74 168.022 158.912C167.947 159.084 167.747 159.163 167.575 159.088L167.711 158.776C167.575 159.088 167.575 159.088 167.575 159.088L167.574 159.087L167.572 159.086L167.565 159.084C167.56 159.081 167.553 159.078 167.544 159.074C167.525 159.065 167.499 159.053 167.467 159.037C167.401 159.005 167.309 158.957 167.198 158.895C166.975 158.769 166.674 158.581 166.356 158.329C165.726 157.828 165 157.05 164.737 155.979C164.452 154.82 164.784 153.813 165.29 153.026C165.793 152.244 166.478 151.66 166.946 151.317C167.097 151.206 167.31 151.239 167.421 151.39Z" fill="white"/>
<path d="M160.867 144.676L153.45 153.93L152.094 152.394L160.72 144.775L160.867 144.676Z" fill="black"/>
<path d="M106.177 158.008L108.529 149.589L119.536 153.549L117.402 161.329" fill="#FFC1A4"/>
<path d="M93.8407 169.061L114.014 172.279C114.306 172.327 114.601 172.222 114.803 172.007L117.402 161.329L106.177 158.008L103.945 161.746L95.6106 166.188L93.3728 167.545C92.8389 168.052 93.1158 168.944 93.8407 169.061Z" fill="#30270F"/>
<path d="M93.8407 169.061L114.014 172.28C114.306 172.328 114.601 172.223 114.803 172.007L115.29 170.004L95.6711 167.322C94.9459 167.208 95.106 166.664 95.6395 166.159L93.3728 167.545C92.8389 168.052 93.1158 168.944 93.8407 169.061Z" fill="#181407"/>
<path fill-rule="evenodd" clip-rule="evenodd" d="M103.66 161.56C103.763 161.403 103.973 161.359 104.13 161.462L107.047 163.372C107.204 163.475 107.248 163.686 107.145 163.843C107.042 164 106.832 164.044 106.675 163.941L103.758 162.03C103.601 161.928 103.557 161.717 103.66 161.56Z" fill="white"/>
<path fill-rule="evenodd" clip-rule="evenodd" d="M102.775 162.686C102.88 162.531 103.091 162.489 103.247 162.594L105.953 164.416C106.109 164.521 106.15 164.732 106.045 164.888C105.941 165.044 105.729 165.085 105.574 164.98L102.867 163.158C102.712 163.053 102.671 162.842 102.775 162.686Z" fill="white"/>
<path fill-rule="evenodd" clip-rule="evenodd" d="M113.994 165.262C114.924 165.257 115.787 165.514 116.33 165.72C116.505 165.786 116.594 165.982 116.527 166.158C116.461 166.334 116.264 166.422 116.089 166.355C115.584 166.164 114.81 165.938 113.998 165.941C113.191 165.945 112.367 166.174 111.712 166.872L111.712 166.872C111.103 167.52 110.873 168.38 110.804 169.108C110.769 169.469 110.775 169.787 110.789 170.015C110.796 170.129 110.806 170.219 110.813 170.28C110.817 170.31 110.82 170.333 110.822 170.348C110.823 170.356 110.824 170.361 110.824 170.364L110.825 170.367L110.825 170.367L110.825 170.367C110.856 170.553 110.731 170.728 110.546 170.758C110.361 170.789 110.185 170.664 110.154 170.479L110.49 170.423C110.154 170.479 110.154 170.479 110.154 170.479L110.154 170.479L110.154 170.478L110.154 170.476L110.153 170.469C110.152 170.463 110.151 170.455 110.149 170.445C110.146 170.425 110.143 170.397 110.138 170.361C110.13 170.288 110.119 170.185 110.111 170.058C110.095 169.803 110.089 169.447 110.127 169.044C110.204 168.242 110.462 167.21 111.217 166.406M113.994 165.262C113.058 165.266 112.034 165.536 111.217 166.406Z" fill="white"/>
<path d="M118.589 157.004L106.788 155.823L107.338 153.85L118.426 156.934L118.589 157.004Z" fill="black"/>
<path d="M144.226 88.174L133.791 106.722L128.074 116.878L125.29 132.185L120.593 158.007L103.945 152.814L110.619 116.124C111.228 113.044 112.371 110.094 113.994 107.406L126.633 86.4915L137.241 75.5098L144.226 88.174Z" fill="#30270F"/>
<path d="M133.791 106.722L128.074 116.878L125.289 132.185L124.213 123.282C123.607 118.31 124.266 113.265 126.128 108.612L130.827 96.8672L133.791 106.722Z" fill="#181407"/>
<path d="M136.803 45.3972L139.433 41.9641L125.693 43.5811L124.097 35.1438L143.986 30.7917C146.646 29.988 149.526 30.9029 151.236 33.0942C153.034 35.4007 153.136 38.6047 151.488 41.0207L143.19 53.1847L136.803 45.3972Z" fill="#FFC1A4"/>
<path d="M129.495 129.086L150.197 154.767L163.049 143.816L144.226 118.657L150.569 92.8133C151.373 88.7165 150.784 84.4684 148.902 80.7424L146.255 75.5088L134.404 80.8895L126.309 114.66C125.1 119.703 126.274 125.02 129.495 129.086Z" fill="#30270F"/>
<path fill-rule="evenodd" clip-rule="evenodd" d="M131.849 91.5473C132.009 91.5856 132.107 91.7461 132.069 91.9058L126.598 114.73C126.56 114.889 126.399 114.988 126.239 114.95C126.08 114.911 125.981 114.751 126.02 114.591L131.49 91.7672C131.529 91.6075 131.689 91.509 131.849 91.5473Z" fill="white"/>
<path d="M112.128 63.634L130.254 51.2178L146.654 75.2872L124.085 88.8966L112.128 63.634Z" fill="#41AE2D"/>
<path d="M130.254 51.2179L136.915 44.417L144.618 53.2689L137.436 61.7585C130.547 64.235 129.514 58.9076 130.254 51.2179Z" fill="#41AE2D"/>
<path fill-rule="evenodd" clip-rule="evenodd" d="M144.81 53.042C144.936 53.1481 144.951 53.3357 144.845 53.4611L137.663 61.9507C137.63 61.9906 137.586 62.0209 137.537 62.0385C135.54 62.7566 133.968 62.8514 132.764 62.3751C131.549 61.894 130.776 60.8584 130.321 59.4762C130.27 59.3202 130.355 59.1521 130.511 59.1007C130.667 59.0494 130.835 59.1342 130.886 59.2902C131.307 60.5679 131.985 61.4269 132.983 61.8221C133.981 62.2168 135.364 62.1757 137.261 61.5055L144.391 53.077C144.497 52.9516 144.685 52.936 144.81 53.042Z" fill="white"/>
<path d="M137.304 44.8643L145.094 50.3932L143.785 52.3116L137.304 44.8643Z" fill="#F7B094"/>
<path fill-rule="evenodd" clip-rule="evenodd" d="M142.338 82.4795C142.5 82.5091 142.607 82.664 142.577 82.8255C142.343 84.1042 142.638 85.4742 143.378 86.543C144.117 87.6118 145.295 88.3711 146.574 88.6034C146.736 88.6328 146.843 88.7876 146.813 88.9491C146.784 89.1107 146.629 89.2179 146.468 89.1886C145.033 88.9281 143.718 88.08 142.889 86.8814C142.06 85.6827 141.73 84.1525 141.992 82.7185C142.022 82.557 142.177 82.45 142.338 82.4795Z" fill="white"/>
<path fill-rule="evenodd" clip-rule="evenodd" d="M139.961 93.5327C140.119 93.5753 140.214 93.7384 140.171 93.897L134.64 114.506L134.353 114.429L134.64 114.506C133.9 117.263 134.409 120.206 136.032 122.555L150.068 142.866C150.161 143.001 150.127 143.186 149.992 143.279C149.857 143.373 149.672 143.339 149.579 143.204L135.543 122.893L135.787 122.724L135.543 122.893C133.821 120.4 133.28 117.278 134.066 114.352L134.353 114.429L134.066 114.352L139.597 93.7428C139.639 93.5842 139.802 93.4901 139.961 93.5327Z" fill="white"/>
<path fill-rule="evenodd" clip-rule="evenodd" d="M156.582 140.444C156.7 140.559 156.702 140.747 156.587 140.865L149.382 148.239C149.267 148.356 149.079 148.358 148.961 148.244C148.844 148.129 148.842 147.941 148.957 147.823L156.162 140.449C156.276 140.331 156.465 140.329 156.582 140.444Z" fill="white"/>
<path fill-rule="evenodd" clip-rule="evenodd" d="M125.967 96.5964C126.116 96.6647 126.182 96.8412 126.114 96.9905L118.774 113.025C118.774 113.025 118.774 113.025 118.774 113.025C118.253 114.165 117.9 115.375 117.727 116.616L113.618 146.122C113.596 146.284 113.445 146.398 113.283 146.375C113.12 146.352 113.006 146.202 113.029 146.04L117.138 116.534C117.138 116.534 117.138 116.534 117.138 116.534C117.319 115.235 117.688 113.97 118.233 112.778L125.573 96.743C125.641 96.5937 125.818 96.528 125.967 96.5964Z" fill="white"/>
<path fill-rule="evenodd" clip-rule="evenodd" d="M107.423 147.459C107.458 147.298 107.617 147.197 107.777 147.233L118.999 149.718C119.159 149.753 119.26 149.912 119.225 150.072C119.189 150.233 119.031 150.334 118.87 150.298L107.649 147.813C107.488 147.778 107.387 147.619 107.423 147.459Z" fill="white"/>
<path d="M121.025 64.5304C117.376 67.1853 115.842 63.8885 115.563 61.2435L113.05 55.2174L119.477 51.1182L122.357 57.2578C122.357 57.2578 126.099 60.8377 121.025 64.5304Z" fill="#FFC1A4"/>
<path d="M114.913 59.6856C114.913 59.6856 118.098 57.148 118.101 55.2656L113.579 56.0629L114.913 59.6856Z" fill="#060606"/>
<path d="M116.356 43.8093C120 46.4869 120.783 51.6111 118.105 55.2549C115.427 58.8987 110.303 59.6817 106.659 57.0041C103.015 54.3265 102.233 49.202 104.91 45.5582C107.588 41.9143 112.712 41.1317 116.356 43.8093Z" fill="#FFC1A4"/>
<path fill-rule="evenodd" clip-rule="evenodd" d="M108.944 51.2574C109.107 51.2743 109.226 51.4204 109.209 51.5837C109.173 51.9287 109.139 52.264 109.104 52.5994C109.07 52.9335 109.036 53.2677 109 53.6114M108.944 51.2574C108.78 51.2406 108.634 51.3594 108.617 51.5228ZM108.617 51.5228C108.583 51.855 108.548 52.1969 108.513 52.5388ZM108.513 52.5388C108.478 52.8793 108.443 53.2198 108.409 53.5506ZM108.409 53.5506L108.409 53.5508ZM108.409 53.5508C108.388 53.7516 108.372 53.9961 108.404 54.2357ZM108.404 54.2357C108.436 54.4769 108.521 54.7372 108.724 54.9449ZM109.149 54.5295C109.067 54.4446 109.015 54.3225 108.993 54.1565C108.971 53.9891 108.981 53.8019 109 53.6116M109.149 54.5296C109.248 54.6305 109.396 54.6657 109.532 54.6396C109.681 54.611 109.82 54.5255 110.01 54.4005C110.148 54.3105 110.332 54.3489 110.422 54.4862C110.512 54.6236 110.474 54.8079 110.336 54.8979C110.332 54.9005 110.328 54.9031 110.324 54.9057C110.151 55.0192 109.921 55.1706 109.644 55.2237C109.347 55.2805 108.986 55.2131 108.724 54.9449L108.724 54.9449" fill="#060606"/>
<path fill-rule="evenodd" clip-rule="evenodd" d="M113.946 52.7871C114.04 52.9214 114.008 53.1069 113.874 53.2015C113.09 53.7544 112.604 54.7138 112.622 55.6727C112.625 55.8369 112.494 55.9725 112.33 55.9756C112.166 55.9787 112.03 55.8481 112.027 55.6839C112.005 54.5276 112.586 53.382 113.531 52.7155C113.665 52.6209 113.851 52.6529 113.946 52.7871Z" fill="#060606"/>
<path d="M119.081 41.5189C124.49 40.7186 123.631 50.2971 119.695 50.4572C119.636 49.247 119.191 44.0226 117.549 45.6304C115.983 47.1631 117.132 47.6151 117.129 47.6429C117.083 47.9342 116.773 48.0341 116.35 48.0215C114.745 47.9732 113.622 46.3984 113.99 44.8345L114.035 44.6431C114.035 44.6431 104.293 51.4162 100.859 46.4844C97.8682 42.1874 101.036 39.1845 105.142 40.3458C104.363 39.4802 102.758 37.2648 105.212 35.8218C108.839 33.6923 116.955 36.8478 119.081 41.5189Z" fill="#060606"/>
<path fill-rule="evenodd" clip-rule="evenodd" d="M102.23 43.3197C102.374 43.2409 102.555 43.2939 102.634 43.4381C103.286 44.6319 104.51 45.501 105.852 45.7233C107.194 45.9455 108.633 45.5169 109.635 44.5969C109.756 44.4858 109.944 44.4939 110.055 44.6149C110.166 44.7358 110.158 44.9239 110.037 45.035C108.9 46.0786 107.278 46.5622 105.755 46.31C104.232 46.0578 102.852 45.0775 102.112 43.7232C102.033 43.5791 102.086 43.3984 102.23 43.3197Z" fill="white"/>
<path fill-rule="evenodd" clip-rule="evenodd" d="M109.181 43.5083C109.281 43.6383 109.257 43.8251 109.127 43.9254C108.23 44.6172 106.93 44.7211 105.935 44.1807C105.79 44.1023 105.737 43.9218 105.815 43.7774C105.894 43.6331 106.074 43.5797 106.218 43.658C107.007 44.0861 108.054 44.0025 108.764 43.4545C108.894 43.3542 109.081 43.3783 109.181 43.5083Z" fill="white"/>
<path d="M119.888 45.1737C120.632 46.1681 120.428 47.5761 119.433 48.3193C118.439 49.0625 117.031 48.859 116.288 47.8646C115.545 46.8702 115.748 45.4622 116.742 44.719C117.737 43.9757 119.145 44.1793 119.888 45.1737Z" fill="#FFC1A4"/>
<path fill-rule="evenodd" clip-rule="evenodd" d="M115.308 70.3519C115.457 70.2816 115.634 70.345 115.704 70.4935L118.227 75.8236C118.297 75.972 118.234 76.1493 118.085 76.2196C117.937 76.2898 117.76 76.2264 117.689 76.078L115.167 70.7479C115.096 70.5994 115.16 70.4222 115.308 70.3519Z" fill="white"/>
<path d="M126.215 42.5633C124.666 44.1505 122.766 44.2492 121.633 43.6688C120.501 43.0854 120.667 41.1661 120.667 41.1661C119.586 40.6687 120.074 39.5186 120.074 39.5186C118.728 39.2348 119.19 37.9081 119.19 37.9081L118.453 36.1618L116.918 36.9608C116.533 37.2254 116.038 37.2685 115.613 37.0746C114.749 36.6801 114.566 35.5334 115.263 34.889L117.679 33.335C118.184 32.8686 118.877 32.6639 119.554 32.7816C120.635 32.9692 125.296 34.9096 125.296 34.9096C127.398 36.5194 127.763 40.9792 126.215 42.5633Z" fill="#FFC1A4"/>
<path fill-rule="evenodd" clip-rule="evenodd" d="M119.289 37.6264C119.444 37.6803 119.526 37.8492 119.473 38.004C119.473 38.0041 119.473 38.0043 119.473 38.0045L119.471 38.0109C119.469 38.0174 119.465 38.0282 119.461 38.0428C119.453 38.0721 119.443 38.1159 119.433 38.1697C119.414 38.2794 119.403 38.421 119.423 38.5639C119.443 38.7051 119.494 38.8385 119.592 38.949C119.688 39.0578 119.851 39.1666 120.137 39.2268C120.224 39.2451 120.298 39.3014 120.339 39.3802C120.38 39.4589 120.384 39.5518 120.35 39.6336C120.35 39.6336 120.35 39.6336 120.35 39.6336C120.349 39.6338 120.349 39.6339 120.349 39.634L120.076 39.5177C120.349 39.634 120.349 39.6339 120.349 39.6338L120.35 39.6336L120.35 39.6336L120.35 39.6336L120.35 39.6332L120.35 39.6328L120.35 39.6327C120.35 39.6327 120.35 39.6329 120.35 39.6331L120.348 39.6384C120.346 39.6438 120.342 39.6531 120.338 39.6657C120.329 39.6911 120.317 39.7295 120.305 39.7777C120.28 39.8754 120.258 40.0058 120.263 40.1447C120.268 40.2828 120.3 40.4214 120.374 40.5461C120.447 40.668 120.572 40.7939 120.792 40.8948C120.906 40.9471 120.975 41.0656 120.964 41.1908C120.964 41.1909 120.964 41.1909 120.964 41.191L120.964 41.1911L120.964 41.1911L120.964 41.1937L120.963 41.2068C120.962 41.2189 120.961 41.2376 120.96 41.262C120.958 41.311 120.956 41.3828 120.957 41.4713C120.958 41.6491 120.972 41.89 121.018 42.1456C121.113 42.6743 121.33 43.1784 121.769 43.4038L121.633 43.6683L121.769 43.4038C122.399 43.7275 123.32 43.8251 124.283 43.4847C124.438 43.43 124.608 43.5112 124.663 43.666C124.717 43.8208 124.636 43.9907 124.481 44.0455C123.377 44.4358 122.284 44.3373 121.497 43.9328L121.497 43.9328C120.802 43.5756 120.537 42.8281 120.433 42.2509C120.379 41.9535 120.364 41.6778 120.362 41.4773C120.361 41.4268 120.362 41.3808 120.363 41.3401C120.138 41.2053 119.975 41.0377 119.864 40.8513C119.726 40.6206 119.677 40.3783 119.669 40.1665C119.663 39.9977 119.683 39.8432 119.708 39.7197C119.472 39.6295 119.287 39.5012 119.147 39.344C118.953 39.1259 118.867 38.8745 118.834 38.6484C118.802 38.4242 118.822 38.2163 118.847 38.0683C118.86 37.9933 118.875 37.9312 118.887 37.8868C118.893 37.8646 118.899 37.8466 118.903 37.8336C118.905 37.827 118.907 37.8217 118.908 37.8176L118.91 37.8125L118.91 37.8107L118.911 37.81L118.911 37.8097C118.911 37.8096 118.911 37.8094 119.192 37.9072L118.911 37.8094C118.965 37.6543 119.134 37.5724 119.289 37.6264Z" fill="#060606"/>
<path fill-rule="evenodd" clip-rule="evenodd" d="M121.872 36.9414C121.879 37.1054 121.753 37.2448 121.589 37.2527C121.203 37.2713 120.655 37.4832 120.173 37.7157C119.938 37.8285 119.731 37.9403 119.582 38.0239C119.508 38.0657 119.449 38.1002 119.408 38.1242C119.388 38.1361 119.372 38.1454 119.362 38.1517L119.35 38.1586L119.348 38.1602L119.347 38.1606C119.207 38.2465 119.024 38.2028 118.938 38.0629C118.852 37.9229 118.896 37.7398 119.036 37.6538L119.192 37.9072C119.036 37.6538 119.036 37.6539 119.036 37.6538L119.037 37.6529L119.041 37.6506L119.055 37.6424C119.067 37.6353 119.084 37.625 119.106 37.6121C119.149 37.5862 119.213 37.5495 119.291 37.5054C119.448 37.4174 119.666 37.2995 119.915 37.1799C120.397 36.9475 121.041 36.6836 121.56 36.6587C121.724 36.6508 121.864 36.7773 121.872 36.9414Z" fill="#060606"/>
<path fill-rule="evenodd" clip-rule="evenodd" d="M122.54 38.9609C122.558 39.1241 122.44 39.271 122.277 39.2889C121.774 39.3441 121.25 39.4703 120.847 39.5847C120.646 39.6416 120.478 39.6949 120.36 39.7339C120.301 39.7534 120.255 39.7693 120.224 39.7802C120.208 39.7856 120.196 39.7898 120.189 39.7926L120.18 39.7957L120.178 39.7964L120.178 39.7965C120.024 39.8529 119.853 39.7736 119.796 39.6193C119.74 39.4651 119.819 39.2943 119.974 39.2379L120.076 39.5172C119.974 39.2379 119.974 39.238 119.974 39.2379L119.975 39.2375L119.978 39.2364L119.988 39.2326C119.997 39.2294 120.011 39.2247 120.028 39.2187C120.062 39.2068 120.111 39.1899 120.173 39.1693C120.298 39.1281 120.474 39.0722 120.685 39.0125C121.103 38.8939 121.663 38.7581 122.212 38.6977C122.375 38.6798 122.522 38.7976 122.54 38.9609Z" fill="#060606"/>
<path fill-rule="evenodd" clip-rule="evenodd" d="M123.448 40.6454C123.444 40.8096 123.307 40.9388 123.142 40.9341C122.716 40.9217 122.132 41.0429 121.632 41.1776C121.387 41.2436 121.17 41.3106 121.015 41.3611C120.937 41.3863 120.875 41.4073 120.833 41.4219C120.812 41.4292 120.795 41.4349 120.784 41.4387L120.772 41.443L120.77 41.444L120.769 41.4442C120.769 41.4443 120.769 41.4442 120.769 41.4442C120.769 41.4442 120.769 41.4443 120.668 41.1646L120.567 40.8849C120.412 40.9407 120.332 41.1112 120.388 41.2656C120.444 41.4201 120.615 41.5 120.769 41.4442M120.668 41.1646C120.567 40.8849 120.567 40.8849 120.567 40.8849L120.568 40.8843L120.572 40.883L120.586 40.878C120.598 40.8737 120.616 40.8675 120.639 40.8597C120.684 40.844 120.75 40.8219 120.831 40.7955C120.993 40.7427 121.22 40.6726 121.477 40.6033C121.982 40.4672 122.64 40.3245 123.16 40.3396C123.324 40.3443 123.453 40.4813 123.448 40.6454" fill="#060606"/>
<path d="M111.121 50.289C111.228 50.7093 111.079 51.1117 110.789 51.1885C110.496 51.2626 110.17 50.9846 110.06 50.5666C109.951 50.1438 110.1 49.7411 110.393 49.667C110.683 49.5902 111.009 49.8686 111.121 50.289Z" fill="#060606"/>
<path d="M106.671 51.3873C106.778 51.8076 106.629 52.21 106.338 52.2868C106.046 52.3609 105.72 52.0829 105.61 51.6649C105.501 51.2421 105.65 50.8398 105.943 50.7657C106.233 50.6889 106.559 50.9669 106.671 51.3873Z" fill="#060606"/>
<path d="M59.559 123.264C58.4484 125.391 56.6285 126.906 54.5378 127.673L54.5365 127.676C52.1688 128.546 49.4541 128.451 47.0426 127.191C44.631 125.932 43.0011 123.759 42.3619 121.319L42.3632 121.317C41.7981 119.163 42.0006 116.803 43.1112 114.676C45.4833 110.133 51.0874 108.375 55.6287 110.746C60.1701 113.116 61.9311 118.72 59.559 123.264Z" fill="white"/>
<path fill-rule="evenodd" clip-rule="evenodd" d="M55.4911 111.009C51.0953 108.714 45.6709 110.415 43.3748 114.814L43.3748 114.814C42.2998 116.872 42.1037 119.155 42.6509 121.241C42.6537 121.252 42.6559 121.263 42.6575 121.274C43.2819 123.624 44.8559 125.714 47.1802 126.927C49.5049 128.141 52.1203 128.238 54.4059 127.406C54.4155 127.402 54.4253 127.397 54.4354 127.394C56.4594 126.651 58.2204 125.184 59.2954 123.125C61.5915 118.727 59.8869 113.304 55.4911 111.009ZM42.8476 114.538C45.2958 109.849 51.0795 108.035 55.7663 110.482C60.4532 112.928 62.2708 118.711 59.8226 123.401L59.8226 123.401C58.6815 125.586 56.8144 127.146 54.6691 127.941C54.6593 127.946 54.6493 127.951 54.639 127.954C52.1959 128.852 49.3937 128.754 46.9049 127.455C44.4161 126.155 42.7338 123.912 42.0742 121.394C42.0713 121.383 42.0691 121.372 42.0675 121.361C41.4944 119.146 41.7068 116.723 42.8476 114.538ZM43.1112 114.676L42.8476 114.538L43.1112 114.676Z" fill="#30270F"/>
<path d="M54.7804 118.225C54.0878 119.551 52.4511 120.065 51.1247 119.372C49.7983 118.68 49.2845 117.043 49.9771 115.717C50.6697 114.39 52.306 113.876 53.6324 114.569C54.9589 115.262 55.473 116.898 54.7804 118.225Z" fill="white"/>
<path fill-rule="evenodd" clip-rule="evenodd" d="M53.4948 114.832C52.3141 114.216 50.8573 114.673 50.2407 115.854C49.6241 117.035 50.0815 118.492 51.2624 119.108C52.4432 119.725 53.9002 119.267 54.5168 118.087C55.1334 116.906 54.6757 115.449 53.4948 114.832ZM49.7135 115.579C50.4821 114.107 52.298 113.536 53.7701 114.305C55.242 115.073 55.8127 116.89 55.044 118.362C54.2754 119.834 52.4591 120.404 50.9871 119.635C49.5151 118.867 48.9448 117.051 49.7135 115.579L49.9771 115.716L49.7135 115.579Z" fill="#060F11"/>
<path d="M54.5378 127.673L54.5365 127.676C52.1688 128.546 49.4541 128.45 47.0426 127.191C44.631 125.932 43.0011 123.759 42.3619 121.319L42.3632 121.317C44.6409 119.648 47.76 119.309 50.4301 120.703C53.1003 122.097 54.6051 124.85 54.5378 127.673Z" fill="white"/>
<path fill-rule="evenodd" clip-rule="evenodd" d="M42.7032 121.439C43.3565 123.722 44.9107 125.742 47.1802 126.927C49.4498 128.112 51.9963 128.232 54.2426 127.464C54.2328 124.821 52.7947 122.273 50.2925 120.966C47.7902 119.66 44.8771 119.937 42.7032 121.439ZM42.1875 121.076C44.553 119.343 47.7933 118.991 50.5677 120.439C53.3422 121.888 54.905 124.748 54.8351 127.68C54.8339 127.729 54.8205 127.777 54.796 127.82L54.7947 127.823C54.7599 127.883 54.7048 127.93 54.639 127.954C52.1959 128.852 49.3937 128.754 46.9049 127.454C44.4161 126.155 42.7339 123.912 42.0742 121.394C42.0545 121.319 42.0651 121.239 42.1036 121.171L42.105 121.169C42.1257 121.133 42.1538 121.101 42.1875 121.076Z" fill="#060F11"/>
<path d="M112.125 12.5369C112.438 13.306 112.61 14.0444 112.642 14.7532C112.673 15.4618 112.581 16.1215 112.365 16.7339C112.15 17.3462 111.818 17.9013 111.372 18.4002C110.924 18.8994 110.379 19.3238 109.734 19.673L110.737 22.461C110.796 22.6338 110.714 22.8146 110.49 23.0039C110.267 23.1936 109.911 23.387 109.424 23.5851C109.115 23.7111 108.852 23.81 108.635 23.8818C108.418 23.9533 108.241 23.9956 108.104 24.0075C107.967 24.0197 107.857 24.0041 107.774 23.9614C107.691 23.9191 107.624 23.8476 107.573 23.7484L106.096 20.4807C105.964 20.1847 105.879 19.9358 105.841 19.7326C105.802 19.5297 105.808 19.3519 105.861 19.1995C105.914 19.0471 106.007 18.9187 106.14 18.8158C106.272 18.7125 106.442 18.619 106.648 18.535L106.845 18.4551C107.342 18.2529 107.739 17.9985 108.035 17.6927C108.331 17.3865 108.543 17.0543 108.67 16.6963C108.798 16.3386 108.843 15.9596 108.806 15.559C108.769 15.1593 108.668 14.757 108.504 14.3539C108.321 13.9042 108.09 13.5177 107.811 13.1939C107.532 12.8705 107.208 12.6253 106.84 12.4583C106.471 12.2913 106.063 12.2141 105.615 12.227C105.167 12.2402 104.68 12.3533 104.155 12.567C103.677 12.7614 103.274 12.9799 102.947 13.2227C102.619 13.4649 102.347 13.6959 102.13 13.9153C101.913 14.1345 101.737 14.3265 101.602 14.4908C101.466 14.655 101.352 14.7563 101.258 14.7942C101.192 14.821 101.123 14.8247 101.05 14.8051C100.976 14.7854 100.897 14.7278 100.815 14.6306C100.731 14.5331 100.636 14.3864 100.529 14.1897C100.421 13.9932 100.303 13.7348 100.173 13.4161C100.039 13.0879 99.9563 12.8434 99.9238 12.6815C99.8906 12.5203 99.9018 12.374 99.9573 12.2415C100.013 12.1101 100.147 11.9269 100.358 11.6939C100.568 11.4605 100.835 11.2157 101.157 10.9589C101.478 10.7029 101.85 10.4448 102.269 10.1867C102.688 9.92866 103.142 9.70073 103.629 9.50226C104.735 9.05215 105.745 8.81947 106.656 8.80389C107.568 8.78797 108.379 8.93632 109.09 9.24723C109.802 9.55916 110.41 10.0005 110.915 10.5705C111.42 11.1415 111.824 11.7965 112.125 12.5369ZM112.865 26.2828C113.022 26.6678 113.123 27.0035 113.169 27.2907C113.214 27.5782 113.193 27.8329 113.103 28.0554C113.013 28.2776 112.853 28.4764 112.624 28.6515C112.395 28.827 112.092 28.9905 111.717 29.143C111.324 29.3031 110.986 29.3997 110.704 29.4322C110.423 29.465 110.172 29.4332 109.953 29.337C109.733 29.2405 109.539 29.0732 109.371 28.8354C109.203 28.5977 109.042 28.2871 108.885 27.902C108.725 27.5085 108.621 27.1654 108.573 26.8734C108.526 26.5815 108.546 26.3217 108.634 26.0951C108.722 25.8679 108.878 25.6674 109.102 25.4943C109.327 25.3209 109.637 25.1546 110.03 24.9944C110.405 24.842 110.735 24.7482 111.022 24.7136C111.308 24.6787 111.562 24.7126 111.784 24.8139C112.005 24.9145 112.201 25.0865 112.371 25.3287C112.54 25.5712 112.705 25.8892 112.865 26.2828Z" fill="#E7EBFB"/>
<path d="M124.033 29.5373C123.901 29.8143 123.769 30.0368 123.635 30.2051C123.501 30.3731 123.351 30.4883 123.185 30.5503C123.02 30.6122 122.832 30.6238 122.622 30.5862C122.412 30.5486 122.172 30.4659 121.902 30.3376C121.618 30.2031 121.398 30.067 121.239 29.9295C121.081 29.7923 120.974 29.6399 120.917 29.4719C120.86 29.3042 120.854 29.1153 120.9 28.9056C120.946 28.6956 121.035 28.4525 121.166 28.1754C121.301 27.8919 121.437 27.664 121.572 27.4926C121.707 27.3209 121.859 27.2027 122.026 27.1377C122.194 27.0726 122.381 27.0577 122.587 27.0936C122.794 27.1295 123.039 27.2152 123.322 27.3497C123.592 27.4781 123.808 27.6115 123.97 27.7504C124.131 27.8892 124.24 28.0443 124.295 28.2154C124.35 28.3864 124.354 28.5788 124.307 28.7922C124.259 29.0052 124.167 29.2538 124.033 29.5373ZM131.155 22.2823C130.893 22.836 130.576 23.2977 130.205 23.6682C129.835 24.0384 129.429 24.3171 128.988 24.5051C128.547 24.6927 128.08 24.7889 127.585 24.794C127.09 24.7991 126.587 24.7127 126.075 24.5359L125.055 26.4722C124.991 26.5907 124.851 26.6364 124.636 26.6087C124.422 26.5812 124.139 26.4837 123.788 26.317C123.565 26.211 123.38 26.1172 123.233 26.0349C123.086 25.9526 122.975 25.8771 122.9 25.8083C122.825 25.7396 122.778 25.6718 122.76 25.6055C122.742 25.5391 122.748 25.4669 122.776 25.3894L123.821 22.9556C123.916 22.7365 124.01 22.5658 124.101 22.4435C124.192 22.3216 124.293 22.2366 124.402 22.1891C124.511 22.1417 124.628 22.1289 124.75 22.1499C124.872 22.1705 125.008 22.2166 125.157 22.287L125.299 22.3544C125.657 22.5244 125.992 22.6142 126.307 22.6227C126.621 22.6311 126.908 22.5813 127.167 22.4723C127.425 22.3636 127.654 22.199 127.854 21.9795C128.054 21.76 128.222 21.5047 128.36 21.2144C128.514 20.8903 128.61 20.5719 128.647 20.2583C128.684 19.945 128.656 19.646 128.564 19.3621C128.471 19.0783 128.31 18.8172 128.079 18.5791C127.849 18.3413 127.544 18.1324 127.166 17.9529C126.822 17.7893 126.502 17.6789 126.207 17.621C125.911 17.5637 125.649 17.5302 125.423 17.5217C125.195 17.5129 125.003 17.5126 124.845 17.5204C124.689 17.5285 124.576 17.517 124.509 17.4848C124.461 17.4625 124.424 17.4259 124.398 17.3764C124.372 17.327 124.365 17.2552 124.377 17.1614C124.388 17.0676 124.421 16.9422 124.475 16.7858C124.528 16.6293 124.61 16.4362 124.719 16.2063C124.831 15.9702 124.923 15.8029 124.995 15.7043C125.066 15.6061 125.152 15.5387 125.251 15.5035C125.351 15.4683 125.517 15.4497 125.749 15.4483C125.982 15.4469 126.248 15.4703 126.548 15.5177C126.848 15.5655 127.174 15.639 127.523 15.7389C127.873 15.8388 128.223 15.9722 128.574 16.1392C129.371 16.5175 130.001 16.9517 130.464 17.4404C130.927 17.9295 131.251 18.4453 131.436 18.9886C131.62 19.5318 131.683 20.0829 131.624 20.6424C131.565 21.2022 131.409 21.7489 131.155 22.2823Z" fill="#E7EBFB"/>
<path d="M54.9921 155.019C54.9677 155.083 54.952 155.123 54.9429 155.141C54.949 155.123 54.9616 155.08 54.9921 155.019Z" fill="white"/>
<path d="M54.9429 155.141C54.949 155.123 54.9616 155.08 54.9921 155.019C54.9677 155.083 54.952 155.123 54.9429 155.141Z" stroke="#060F11" stroke-width="1.75" stroke-linecap="round" stroke-linejoin="round"/>
<path fill-rule="evenodd" clip-rule="evenodd" d="M63.7262 153.48C62.9733 152.745 62.2837 152.375 61.7313 152.422C61.1509 152.471 60.7951 152.76 60.5671 153.184C60.3294 153.625 60.2308 154.218 60.2165 154.839C60.2023 155.454 60.2714 156.067 60.3452 156.53C60.382 156.761 60.4196 156.952 60.4479 157.085C60.4621 157.151 60.4739 157.203 60.482 157.238C60.4861 157.255 60.4893 157.269 60.4914 157.277L60.4937 157.287L60.4942 157.289L60.4943 157.289C60.519 157.387 60.4925 157.491 60.4238 157.564C60.3552 157.638 60.2537 157.672 60.1544 157.655L60.206 157.362C60.1544 157.655 60.1543 157.655 60.1544 157.655L60.1538 157.655L60.1512 157.654L60.1404 157.652C60.1306 157.651 60.1158 157.648 60.0963 157.645C60.0572 157.639 59.9992 157.629 59.9244 157.618C59.7747 157.595 59.5578 157.565 59.2909 157.533C58.7567 157.469 58.0245 157.4 57.2309 157.381C56.436 157.362 55.5876 157.392 54.8183 157.524C54.0436 157.656 53.3796 157.885 52.9274 158.242L52.927 158.242C52.5131 158.567 52.2726 158.834 52.1371 159.069C52.0062 159.296 51.9663 159.505 51.9774 159.731C51.9891 159.969 52.057 160.229 52.1548 160.563C52.1667 160.603 52.1791 160.645 52.1917 160.688C52.2799 160.986 52.3818 161.331 52.4616 161.727C52.4891 161.864 52.4181 162.001 52.2909 162.058C52.1636 162.114 52.0142 162.075 51.9312 161.963C51.2623 161.061 49.9966 160.444 48.7932 160.264C48.1953 160.174 47.6372 160.196 47.1982 160.329C46.7607 160.461 46.4675 160.692 46.3328 161.008L46.3326 161.008C46.1636 161.402 46.1308 161.936 46.1989 162.547C46.2663 163.152 46.4287 163.8 46.6186 164.4C46.8081 164.999 47.0224 165.543 47.1896 165.937C47.2731 166.133 47.3447 166.292 47.3951 166.402C47.4203 166.456 47.4403 166.499 47.4538 166.527C47.4606 166.541 47.4657 166.552 47.4691 166.559L47.4729 166.567L47.4738 166.569L47.4739 166.569L47.207 166.7C46.9401 166.831 46.94 166.831 46.94 166.831L46.9395 166.83L46.9383 166.827L46.9338 166.818C46.9299 166.81 46.9242 166.798 46.917 166.783C46.9024 166.753 46.8814 166.708 46.8551 166.651C46.8024 166.537 46.7284 166.372 46.6422 166.169C46.47 165.763 46.2484 165.202 46.0516 164.58C45.8552 163.959 45.6811 163.271 45.6078 162.613C45.5352 161.961 45.5576 161.306 45.7861 160.774C46.0108 160.248 46.4788 159.925 47.0264 159.759C47.5725 159.595 48.2238 159.577 48.8814 159.676C49.8206 159.817 50.8231 160.203 51.606 160.804C51.5986 160.779 51.5913 160.754 51.584 160.73C51.4879 160.401 51.399 160.078 51.3834 159.76C51.3671 159.429 51.4292 159.106 51.6219 158.772C51.8101 158.446 52.1147 158.123 52.5597 157.774C53.1253 157.329 53.9029 157.077 54.7182 156.937C55.539 156.797 56.429 156.767 57.2453 156.786C58.0629 156.806 58.8147 156.877 59.3616 156.942C59.5387 156.963 59.6946 156.984 59.8245 157.002C59.8034 156.893 59.7805 156.765 59.7579 156.624C59.681 156.141 59.6067 155.489 59.6219 154.825C59.637 154.166 59.7406 153.464 60.0434 152.902C60.3559 152.322 60.8788 151.898 61.6809 151.829C62.511 151.759 63.3694 152.3 64.1416 153.054C64.9294 153.823 65.6959 154.88 66.3492 155.989C67.0034 157.099 67.5523 158.275 67.8998 159.291C68.0735 159.799 68.1991 160.274 68.2609 160.684C68.2685 160.735 68.2753 160.785 68.281 160.834C68.3961 160.722 68.5254 160.604 68.6654 160.49C68.946 160.262 69.2822 160.039 69.645 159.91C70.0109 159.781 70.4214 159.742 70.8249 159.912C71.5925 160.233 71.877 160.935 71.9764 161.493C71.9972 161.61 72.0105 161.723 72.0186 161.829C72.2051 161.685 72.4341 161.531 72.6896 161.408C73.0366 161.24 73.4552 161.119 73.8922 161.18C74.3405 161.243 74.7665 161.492 75.126 161.988C75.8269 162.955 75.8375 164.187 75.6982 165.129C75.6276 165.606 75.5161 166.025 75.4225 166.325C75.3756 166.475 75.3329 166.596 75.3017 166.68C75.2861 166.722 75.2733 166.755 75.2642 166.778C75.2597 166.789 75.2561 166.798 75.2535 166.804L75.2505 166.812L75.2496 166.814L75.2493 166.815C75.2492 166.815 75.2491 166.815 74.975 166.7L75.2491 166.815C75.1854 166.967 75.0111 167.038 74.8597 166.974C74.7084 166.91 74.6372 166.736 74.7008 166.585M74.7008 166.585L74.7031 166.579C74.7049 166.575 74.7077 166.568 74.7115 166.558C74.719 166.539 74.7302 166.511 74.7442 166.473C74.7722 166.397 74.8114 166.287 74.8548 166.148C74.9419 165.869 75.0449 165.481 75.1099 165.042C75.2417 164.151 75.2074 163.114 74.6445 162.337C74.3664 161.953 74.0766 161.806 73.8097 161.769C73.5316 161.73 73.2358 161.805 72.9481 161.943C72.6621 162.081 72.4063 162.272 72.2193 162.433C72.1266 162.512 72.0527 162.582 72.0025 162.632C71.9774 162.657 71.9584 162.677 71.946 162.69C71.9398 162.696 71.9353 162.701 71.9325 162.704L71.9296 162.707C71.9296 162.707 71.9293 162.708 71.9293 162.708C71.9293 162.708 71.9294 162.708 71.7087 162.508C71.4146 162.465 71.4146 162.465 71.4145 162.465L71.4148 162.463L71.4163 162.452C71.4176 162.441 71.4196 162.424 71.4217 162.402C71.4259 162.357 71.4309 162.292 71.4333 162.211C71.4381 162.048 71.4321 161.829 71.3909 161.597C71.3072 161.127 71.0923 160.668 70.5952 160.46L70.5946 160.46C70.3657 160.364 70.1146 160.375 69.8435 160.471C69.5693 160.568 69.2933 160.746 69.0408 160.951C68.7901 161.155 68.5745 161.377 68.4207 161.549C68.3442 161.634 68.2838 161.706 68.2429 161.757C68.2225 161.782 68.207 161.802 68.1968 161.815L68.1857 161.829L68.1832 161.833L68.1829 161.833C68.0949 161.95 67.9346 161.986 67.8052 161.917C67.6758 161.848 67.6159 161.695 67.6641 161.557C67.7168 161.405 67.729 161.146 67.6728 160.773C67.618 160.409 67.5035 159.97 67.3371 159.484C67.0045 158.511 66.4737 157.371 65.8369 156.291C65.1993 155.209 64.4635 154.2 63.7262 153.48M71.4145 162.465C71.3954 162.594 71.4633 162.721 71.5818 162.777C71.7003 162.833 71.8414 162.805 71.9293 162.708M47.3381 166.967C47.1906 167.039 47.0124 166.978 46.94 166.831L47.207 166.7M47.3381 166.967C47.4855 166.894 47.5463 166.716 47.4739 166.569Z" fill="#060F11"/>
<path d="M62.5802 166.7C62.5802 166.7 63.7013 165.352 63.5447 163.521C63.388 161.693 60.4076 161.536 60.4076 161.536C61.1389 159.077 60.5642 155.885 57.9495 155.049C55.857 154.379 55.2025 155.252 55.0244 155.624C55.384 154.662 55.3955 149.608 53.455 149.338C50.2697 148.894 48.1025 155.595 48.1025 155.595C48.1025 155.595 47.1 149.886 44.2731 149.886C41.4494 149.886 38.9638 161.901 38.9638 161.901C37.9714 159.809 32.7912 157.925 31.0151 160.122C29.2361 162.319 32.5818 166.7 32.5818 166.7" fill="#41AF2D"/>
<path d="M62.5802 166.7C62.5802 166.7 63.7013 165.352 63.5447 163.521C63.388 161.693 60.4076 161.536 60.4076 161.536C61.1389 159.077 60.5642 155.885 57.9495 155.049C55.857 154.379 55.2025 155.252 55.0244 155.624C55.384 154.662 55.3955 149.608 53.455 149.338C50.2697 148.894 48.1025 155.595 48.1025 155.595C48.1025 155.595 47.1 149.886 44.2731 149.886C41.4494 149.886 38.9638 161.901 38.9638 161.901C37.9714 159.809 32.7912 157.925 31.0151 160.122C29.2361 162.319 32.5818 166.7 32.5818 166.7" stroke="#060F11" stroke-width="0.5" stroke-linecap="round" stroke-linejoin="round"/>
<path fill-rule="evenodd" clip-rule="evenodd" d="M52.4302 155.285C52.5799 155.353 52.6463 155.529 52.5787 155.679C51.0413 159.079 50.1103 162.992 49.8465 166.721C49.8349 166.885 49.6927 167.008 49.5289 166.996C49.3651 166.985 49.2417 166.843 49.2533 166.679C49.5216 162.886 50.468 158.904 52.0368 155.434C52.1044 155.284 52.2806 155.218 52.4302 155.285Z" fill="#060F11"/>
<path fill-rule="evenodd" clip-rule="evenodd" d="M44.3641 158.849C44.5282 158.843 44.6663 158.971 44.6726 159.135C44.7631 161.5 45.0913 164.34 45.6476 166.63C45.6863 166.79 45.5884 166.951 45.4288 166.989C45.2692 167.028 45.1084 166.93 45.0696 166.771C44.5017 164.432 44.1699 161.552 44.0783 159.157C44.072 158.993 44.2 158.855 44.3641 158.849Z" fill="#060F11"/>
<path fill-rule="evenodd" clip-rule="evenodd" d="M34.8525 163.412C34.9135 163.259 35.0866 163.185 35.2391 163.246C36.8642 163.896 38.2756 165.065 39.2171 166.541C39.3055 166.679 39.2649 166.863 39.1264 166.951C38.988 167.04 38.8042 166.999 38.7158 166.861C37.8412 165.49 36.5278 164.402 35.0182 163.798C34.8657 163.737 34.7915 163.564 34.8525 163.412Z" fill="#060F11"/>
<path fill-rule="evenodd" clip-rule="evenodd" d="M56.3653 160.841C56.5159 160.907 56.585 161.082 56.5196 161.232C56.4845 161.313 56.4498 161.393 56.4155 161.472C55.5997 163.348 54.9928 164.744 54.5894 166.758C54.5572 166.919 54.4005 167.024 54.2394 166.991C54.0784 166.959 53.974 166.802 54.0063 166.641C54.4223 164.564 55.052 163.116 55.8641 161.248C55.9004 161.165 55.9371 161.081 55.9741 160.995C56.0395 160.845 56.2147 160.776 56.3653 160.841Z" fill="#060F11"/>
<path d="M28.4612 64.8761L7.57065 66.1465C3.87281 66.3714 1.38481 62.4231 3.18395 59.1844L12.6333 42.1752C14.2989 39.1771 18.5136 38.9209 20.5303 41.695L31.9718 57.4339C34.1502 60.4306 32.1591 64.6512 28.4612 64.8761Z" fill="white"/>
<path fill-rule="evenodd" clip-rule="evenodd" d="M20.2898 41.8694C18.4009 39.271 14.4533 39.5111 12.8933 42.3191L3.44392 59.3283C1.75881 62.3618 4.08913 66.0599 7.55262 65.8492L7.57068 66.146L7.55263 65.8492L28.4432 64.5788C31.9067 64.3681 33.7716 60.415 31.7313 57.6083L20.2898 41.8694L20.5303 41.6945L20.2898 41.8694ZM12.3734 42.0303C14.1445 38.8422 18.6264 38.5697 20.7708 41.5197L32.2124 57.2585L31.9718 57.4334L32.2124 57.2586C34.5289 60.4452 32.4115 64.9332 28.4793 65.1725L28.4613 64.8757L28.4793 65.1725L7.58874 66.4428C3.65655 66.682 1.01087 62.4835 2.92403 59.0395L3.18381 59.1838L2.92403 59.0395L12.3734 42.0303Z" fill="#060F11"/>
<g opacity="0.159815">
<path d="M19.5539 47.6542C19.5587 47.7673 19.5556 47.8825 19.5457 47.9998L18.9531 54.9751C18.8796 55.8563 18.1612 56.5452 17.2783 56.5836C16.3937 56.622 15.6202 55.998 15.469 55.1266L14.2731 48.2288C14.0005 46.6475 15.1767 45.1855 16.7801 45.1159C18.2652 45.0513 19.491 46.2102 19.5539 47.6542Z" fill="#FF452D"/>
<path d="M19.282 59.3592C19.3259 60.3668 18.5445 61.2188 17.5369 61.2626C16.5293 61.3065 15.6769 60.5252 15.6331 59.5175C15.5893 58.5099 16.3706 57.6579 17.3782 57.6141C18.3858 57.5702 19.2382 58.3515 19.282 59.3592Z" fill="#FF452D"/>
</g>
</g>
</g>
<defs>
<clipPath id="clip0_330_7505">
<rect width="174" height="174" fill="white" transform="translate(0 0.330078)"/>
</clipPath>
</defs>
</svg>
