<svg width="21" height="21" viewBox="0 0 21 21" fill="none" xmlns="http://www.w3.org/2000/svg">
<g clip-path="url(#clip0_183_5980)">
<path d="M14.4982 6.21419H12.4982V2.54753H13.1649C13.349 2.54753 13.4982 2.39827 13.4982 2.21419V1.21419C13.4982 1.03011 13.349 0.880859 13.1649 0.880859H7.83154C7.64746 0.880859 7.49821 1.03011 7.49821 1.21419V2.21419C7.49821 2.39827 7.64746 2.54753 7.83154 2.54753H8.49821V6.21419H6.49821C5.57812 6.21533 4.83268 6.96077 4.83154 7.88086V18.2142C4.83268 19.1343 5.57812 19.8797 6.49821 19.8809V20.5475C6.49821 20.7316 6.64746 20.8809 6.83154 20.8809H8.16488C8.34896 20.8809 8.49821 20.7316 8.49821 20.5475V19.8809H12.4982V20.5475C12.4982 20.7316 12.6475 20.8809 12.8315 20.8809H14.1649C14.349 20.8809 14.4982 20.7316 14.4982 20.5475V19.8809C15.4183 19.8797 16.1637 19.1343 16.1649 18.2142V7.88086C16.1637 6.96077 15.4183 6.21533 14.4982 6.21419ZM8.16488 1.54753H12.8315V1.88086H8.16488V1.54753ZM9.16488 2.54753H11.8315V6.21419H9.16488V2.54753ZM7.83154 20.2142H7.16488V19.8809H7.83154V20.2142ZM13.8315 20.2142H13.1649V19.8809H13.8315V20.2142ZM15.4982 18.2142C15.4982 18.7664 15.0505 19.2142 14.4982 19.2142H6.49821C5.94596 19.2142 5.49821 18.7664 5.49821 18.2142V7.88086C5.49821 7.32861 5.94596 6.88086 6.49821 6.88086H14.4982C15.0505 6.88086 15.4982 7.32861 15.4982 7.88086V18.2142Z" fill="black"/>
<path d="M10.4979 7.54785C10.3138 7.54785 10.1646 7.6971 10.1646 7.88118V18.2145C10.1646 18.3986 10.3138 18.5479 10.4979 18.5479C10.682 18.5479 10.8312 18.3986 10.8312 18.2145V7.88118C10.8312 7.6971 10.682 7.54785 10.4979 7.54785Z" fill="black"/>
<path d="M13.1649 8.21387C12.9808 8.21387 12.8315 8.36312 12.8315 8.5472V17.5472C12.8315 17.7313 12.9808 17.8805 13.1649 17.8805C13.349 17.8805 13.4982 17.7313 13.4982 17.5472V8.5472C13.4982 8.36312 13.349 8.21387 13.1649 8.21387Z" fill="black"/>
<path d="M7.83138 8.21387C7.6473 8.21387 7.49805 8.36312 7.49805 8.5472V17.5472C7.49805 17.7313 7.6473 17.8805 7.83138 17.8805C8.01546 17.8805 8.16471 17.7313 8.16471 17.5472V8.5472C8.16471 8.36312 8.01546 8.21387 7.83138 8.21387Z" fill="black"/>
</g>
<defs>
<clipPath id="clip0_183_5980">
<rect width="20" height="20" fill="white" transform="translate(0.498047 0.880859)"/>
</clipPath>
</defs>
</svg>
