<svg width="19" height="19" viewBox="0 0 19 19" fill="none" xmlns="http://www.w3.org/2000/svg">
<g clip-path="url(#clip0_119_4941)">
<path d="M1.20138 1.85619C1.20069 1.85368 1.20199 1.85875 1.20138 1.85619V1.85619Z" fill="black"/>
<path d="M17.7375 13.6993C17.153 13.1866 16.4194 12.9583 15.6724 13.0563L7.69251 14.1037L7.37755 11.0492C7.2314 9.36185 6.83878 7.70887 6.2105 6.13611L5.92886 5.43112C5.70745 4.87685 5.28596 4.44527 4.76596 4.20617C4.99508 3.69743 5.02837 3.12156 4.85111 2.5836C4.84942 2.57843 4.84756 2.5733 4.84552 2.56824C4.40202 1.45807 3.34326 0.724923 2.14812 0.700384C1.85562 0.694619 1.57971 0.821111 1.39373 1.04812C1.20772 1.27515 1.13755 1.56969 1.20115 1.85625L3.85067 13.418C3.88245 13.5607 4.02381 13.6507 4.16672 13.6189C4.30946 13.5871 4.39942 13.4457 4.36768 13.3029L2.55597 5.16369C2.52011 5.00218 2.55969 4.83617 2.66453 4.7082C2.7694 4.58024 2.92461 4.50957 3.08974 4.51217L3.84877 4.52775C4.0055 4.53095 4.15818 4.55499 4.30383 4.59746C4.31097 4.59996 4.31818 4.60221 4.32542 4.60407C4.82404 4.75644 5.23695 5.12671 5.43703 5.62754L5.71866 6.33253C6.32792 7.85768 6.70859 9.46067 6.8501 11.097C6.8502 11.0984 6.85034 11.0999 6.85049 11.1013L7.16714 14.1726L6.66423 14.2386C6.32395 13.7812 5.73498 13.5399 5.14368 13.6717C4.34236 13.8505 3.83552 14.648 4.0139 15.4493C4.01425 15.4508 4.0146 15.4523 4.01492 15.4538L4.66338 18.1482C4.74156 18.4732 5.02967 18.7002 5.36397 18.7002H15.5424C16.2939 18.7002 16.9062 18.0938 16.9162 17.3446H17.5345C18.2112 17.3446 18.7618 16.7534 18.7618 16.0269C18.7618 15.1188 18.3885 14.2704 17.7375 13.6993ZM4.2588 4.04185C4.12882 4.01605 3.99544 4.00107 3.8597 3.99829L3.10068 3.98272C2.81377 3.97629 2.54078 4.08485 2.33729 4.28281L1.71766 1.73911C1.69038 1.61304 1.72157 1.48363 1.80337 1.38379C1.88568 1.28331 2.00837 1.2278 2.13725 1.22987C3.11653 1.25002 3.9844 1.84912 4.35063 2.75696C4.48925 3.18439 4.45483 3.64283 4.2588 4.04185ZM5.36401 18.1706C5.27538 18.1706 5.19905 18.1105 5.17835 18.0243L4.53045 15.3322C4.41682 14.8164 4.74329 14.3037 5.25903 14.1887C5.77551 14.0734 6.28981 14.4 6.40565 14.919L7.16186 18.1706H5.36401ZM17.5346 16.815H14.548C14.4018 16.815 14.2832 16.9335 14.2832 17.0798C14.2832 17.226 14.4018 17.3446 14.548 17.3446H16.3867C16.3767 17.8017 16.0019 18.1706 15.5424 18.1706H7.70559L7.5135 17.3446H13.3159C13.4621 17.3446 13.5807 17.226 13.5807 17.0798C13.5807 16.9335 13.4621 16.815 13.3159 16.815H7.39031L6.92199 14.8013C6.91746 14.781 6.91225 14.7609 6.90691 14.741L15.7413 13.5814C16.3351 13.5034 16.92 13.6867 17.3882 14.0974C17.9245 14.568 18.2322 15.2713 18.2322 16.0269C18.2322 16.4615 17.9193 16.815 17.5346 16.815Z" fill="black"/>
</g>
<defs>
<clipPath id="clip0_119_4941">
<rect width="18" height="18" fill="white" transform="translate(0.970215 0.700195)"/>
</clipPath>
</defs>
</svg>
