<svg width="33" height="33" viewBox="0 0 33 33" fill="none" xmlns="http://www.w3.org/2000/svg">
<g id="ic:baseline-apple" clip-path="url(#clip0_90_9799)">
<path id="Vector" d="M25.163 30.4843C23.4759 32.1198 21.6339 31.8616 19.8607 31.0869C17.9843 30.295 16.2627 30.2605 14.283 31.0869C11.804 32.1542 10.4956 31.8443 9.01511 30.4843C0.614053 21.825 1.85355 8.63814 11.3908 8.15611C13.7149 8.27662 15.3331 9.43004 16.6931 9.53334C18.7245 9.12017 20.6699 7.93231 22.839 8.08725C25.4385 8.29384 27.401 9.32675 28.6922 11.186C23.321 14.4053 24.5949 21.4807 29.5185 23.4605C28.5372 26.0428 27.2633 28.6079 25.1458 30.5015L25.163 30.4843ZM16.521 8.05282C16.2627 4.21381 19.3787 1.0462 22.9595 0.736328C23.4587 5.17787 18.9311 8.4832 16.521 8.05282Z" fill="#080809"/>
</g>
<defs>
<clipPath id="clip0_90_9799">
<rect width="32.3654" height="32.3654" fill="white" transform="translate(0.285156 0.0478516)"/>
</clipPath>
</defs>
</svg>
