<svg width="21" height="20" viewBox="0 0 21 20" fill="none" xmlns="http://www.w3.org/2000/svg">
<path d="M9.54277 1.3573C9.60899 1.21543 9.7167 1.09494 9.8529 1.01039C9.9891 0.925849 10.148 0.880859 10.3103 0.880859C10.4726 0.880859 10.6315 0.925849 10.7677 1.01039C10.9038 1.09494 11.0116 1.21543 11.0778 1.3573L13.398 6.32579C13.4565 6.45136 13.5476 6.56049 13.6627 6.64276C13.7778 6.72504 13.913 6.77771 14.0554 6.79576L19.5364 7.48945C19.6925 7.50901 19.8398 7.57018 19.9614 7.66598C20.0831 7.76178 20.1741 7.88836 20.2243 8.0313C20.2744 8.17424 20.2815 8.32778 20.2449 8.47443C20.2083 8.62108 20.1294 8.75493 20.0172 8.86073L15.9334 12.7235C15.8357 12.8156 15.763 12.9291 15.7217 13.0542C15.6804 13.1794 15.6717 13.3123 15.6963 13.4413L16.7404 18.9329C16.7689 19.0839 16.7517 19.2396 16.6909 19.3816C16.63 19.5236 16.528 19.646 16.3968 19.7343C16.2657 19.8226 16.1109 19.8732 15.9508 19.8801C15.7906 19.8869 15.6317 19.8498 15.4929 19.7731L10.7314 17.1255C10.6036 17.0548 10.4587 17.0176 10.3111 17.0176C10.1636 17.0176 10.0186 17.0548 9.89079 17.1255L5.13106 19.7634C4.9922 19.8401 4.83332 19.8773 4.67315 19.8704C4.51298 19.8635 4.3582 19.813 4.22707 19.7246C4.09594 19.6363 3.99393 19.514 3.93306 19.372C3.87219 19.23 3.85501 19.0743 3.88354 18.9233L4.93098 13.4317C4.9556 13.3026 4.94687 13.1697 4.90555 13.0446C4.86423 12.9195 4.79158 12.8059 4.69392 12.7138L0.606702 8.85912C0.494489 8.75332 0.415583 8.61947 0.378977 8.47282C0.342371 8.32617 0.349537 8.17263 0.399659 8.02969C0.449781 7.88675 0.540843 7.76017 0.662466 7.66437C0.784088 7.56857 0.93138 7.5074 1.08755 7.48784L6.56688 6.79415C6.70927 6.7761 6.84445 6.72343 6.95953 6.64115C7.07462 6.55888 7.16576 6.44975 7.22427 6.32418L9.54277 1.3573Z" fill="#E6B045"/>
</svg>
