<svg width="33" height="34" viewBox="0 0 33 34" fill="none" xmlns="http://www.w3.org/2000/svg">
<g id="logos:google-pay" clip-path="url(#clip0_90_9807)">
<path id="Vector" d="M32.7094 17.4844C32.7094 16.3809 32.5845 15.2773 32.4597 14.1738H16.856V20.4273H25.7189C25.3445 22.389 24.221 24.2283 22.4734 25.332V29.3783H27.8412C30.962 26.5582 32.7096 22.389 32.7096 17.4846L32.7094 17.4844Z" fill="#4285F4"/>
<path id="Vector_2" d="M16.8557 33.3007C21.3495 33.3007 25.0945 31.8293 27.8409 29.3769L22.4731 25.3306C20.9751 26.3115 19.1026 26.9246 16.8557 26.9246C12.6112 26.9246 8.86622 24.1045 7.61789 20.1807H2.12549V24.3496C4.99656 29.8673 10.614 33.3007 16.8557 33.3007Z" fill="#34A853"/>
<path id="Vector_3" d="M7.61782 20.1812C6.86898 18.2193 6.86898 16.0123 7.61782 13.9277V9.75879H2.12542C-0.246559 14.2957 -0.246559 19.6908 2.12542 24.3501L7.61782 20.1812Z" fill="#FBBC04"/>
<path id="Vector_4" d="M16.8557 7.30656C19.2275 7.30656 21.4744 8.16495 23.2223 9.75889L27.9658 5.09953C24.9697 2.40189 20.9751 0.807946 16.9804 0.930409C10.7388 0.930409 4.99664 4.36379 2.25024 9.88155L7.74284 14.0505C8.8663 10.1267 12.6113 7.30656 16.8557 7.30656Z" fill="#EA4335"/>
</g>
<defs>
<clipPath id="clip0_90_9807">
<rect width="32.3886" height="32.3886" fill="white" transform="translate(0.346436 0.923828)"/>
</clipPath>
</defs>
</svg>
