<svg width="31" height="31" viewBox="0 0 31 31" fill="none" xmlns="http://www.w3.org/2000/svg">
<rect x="0.0400391" y="0.318359" width="30" height="30" rx="15" fill="#F4FAF2"/>
<path d="M12.582 10.7734H17.4982V19.8644H12.582V10.7734Z" fill="#FF5F00"/>
<path d="M12.8943 15.3193C12.8943 13.4723 13.737 11.8339 15.0324 10.7738C14.0804 10.0029 12.8787 9.53711 11.5678 9.53711C8.46189 9.53711 5.94922 12.123 5.94922 15.3193C5.94922 18.5156 8.46189 21.1016 11.5677 21.1016C12.8787 21.1016 14.0804 20.6358 15.0324 19.8648C13.737 18.8208 12.8943 17.1664 12.8943 15.3193Z" fill="#EB001B"/>
<path d="M24.131 15.3193C24.131 18.5156 21.6183 21.1016 18.5125 21.1016C17.2016 21.1016 15.9999 20.6358 15.0479 19.8648C16.3588 18.8047 17.186 17.1664 17.186 15.3193C17.186 13.4723 16.3432 11.8339 15.0479 10.7738C15.9998 10.0029 17.2016 9.53711 18.5125 9.53711C21.6183 9.53711 24.131 12.1391 24.131 15.3193Z" fill="#F79E1B"/>
</svg>
