<svg width="257" height="192" viewBox="0 0 257 192" fill="none" xmlns="http://www.w3.org/2000/svg">
<path d="M251.496 165.855L0 165.996V166.139L251.496 165.998V165.855Z" fill="#5E6D55"/>
<path d="M256.444 175.719H237.564V175.861H256.444V175.719Z" fill="#5E6D55"/>
<path d="M188.795 176.945H183.84V177.088H188.795V176.945Z" fill="#5E6D55"/>
<path d="M236.993 170.088H226.054V170.23H236.993V170.088Z" fill="#5E6D55"/>
<path d="M63.2067 171.049H59.5969V171.191H63.2067V171.049Z" fill="#5E6D55"/>
<path d="M128.334 173.461H74.9385V173.603H128.334V173.461Z" fill="#5E6D55"/>
<path d="M33.0737 165.998V130.687H35.4033V117.676H38.8085V72.4367H43.731V66.5994L54.2413 61.6859V55.8001H55.697V72.4367H57.7354V117.676H59.7737V93.8885H65.3061V81.6305H66.8497V117.676H71.0517V103.958H73.8179V100.455H80.2241V88.4894H83.7319V80.0251H88.0445V67.6935H89.5835V80.0251H93.8961V88.4894H97.4039V100.455H103.81V103.958H106.576V117.676H109.857V100.455H116.264V63.3885H118.302V59.3024H131.988V63.3885H134.899V90.2399H146.546V92.8669H150.914V94.91H146.546V105.417H158.776V70.3936H161.397V62.9509H167.075V36.5371H168.677V62.9509H172.753V70.3936H196.652V67.9437H198.109V84.5803H200.147V84.8717H201.371V101.508H203.409V106.032H207.718V93.7742H209.261V122.96H210.98V110.702H212.524V129.819H213.463V116.101H216.23V112.599H222.636V100.632H226.144V92.1682H230.456V79.8371H231.995V92.1682H236.307V100.632H239.816V112.599H246.222V116.101H248.988V129.527H249.484V129.819H250.854V165.998H33.0737Z" fill="#5E6D55"/>
<path d="M183.318 72.0312H181.668V73.6852H183.318V72.0312Z" fill="white"/>
<path d="M183.318 74.8047H181.668V76.4587H183.318V74.8047Z" fill="white"/>
<path d="M183.318 85.8945H181.668V87.5485H183.318V85.8945Z" fill="white"/>
<path d="M183.318 88.668H181.668V90.322H183.318V88.668Z" fill="white"/>
<path d="M183.318 91.4414H181.668V93.0954H183.318V91.4414Z" fill="white"/>
<path d="M183.318 99.7598H181.668V101.414H183.318V99.7598Z" fill="white"/>
<path d="M183.318 102.531H181.668V104.185H183.318V102.531Z" fill="white"/>
<path d="M180.697 83.123H179.047V84.7771H180.697V83.123Z" fill="white"/>
<path d="M180.697 85.8945H179.047V87.5485H180.697V85.8945Z" fill="white"/>
<path d="M180.697 88.668H179.047V90.322H180.697V88.668Z" fill="white"/>
<path d="M180.697 91.4414H179.047V93.0954H180.697V91.4414Z" fill="white"/>
<path d="M180.697 94.2129H179.047V95.8669H180.697V94.2129Z" fill="white"/>
<path d="M180.697 99.7598H179.047V101.414H180.697V99.7598Z" fill="white"/>
<path d="M180.697 102.531H179.047V104.185H180.697V102.531Z" fill="white"/>
<path d="M178.077 72.0312H176.427V73.6852H178.077V72.0312Z" fill="white"/>
<path d="M178.077 74.8047H176.427V76.4587H178.077V74.8047Z" fill="white"/>
<path d="M178.077 77.5762H176.427V79.2302H178.077V77.5762Z" fill="white"/>
<path d="M178.077 80.3496H176.427V82.0036H178.077V80.3496Z" fill="white"/>
<path d="M178.077 83.123H176.427V84.7771H178.077V83.123Z" fill="white"/>
<path d="M178.077 85.8945H176.427V87.5485H178.077V85.8945Z" fill="white"/>
<path d="M178.077 88.668H176.427V90.322H178.077V88.668Z" fill="white"/>
<path d="M178.077 91.4414H176.427V93.0954H178.077V91.4414Z" fill="white"/>
<path d="M178.077 94.2129H176.427V95.8669H178.077V94.2129Z" fill="white"/>
<path d="M178.077 96.9844H176.427V98.6384H178.077V96.9844Z" fill="white"/>
<path d="M178.077 102.531H176.427V104.185H178.077V102.531Z" fill="white"/>
<path d="M175.456 72.0312H173.806V73.6852H175.456V72.0312Z" fill="white"/>
<path d="M175.456 74.8047H173.806V76.4587H175.456V74.8047Z" fill="white"/>
<path d="M175.456 77.5762H173.806V79.2302H175.456V77.5762Z" fill="white"/>
<path d="M175.456 80.3496H173.806V82.0036H175.456V80.3496Z" fill="white"/>
<path d="M175.456 83.123H173.806V84.7771H175.456V83.123Z" fill="white"/>
<path d="M175.456 85.8945H173.806V87.5485H175.456V85.8945Z" fill="white"/>
<path d="M175.456 88.668H173.806V90.322H175.456V88.668Z" fill="white"/>
<path d="M175.456 113.623H173.806V115.277H175.456V113.623Z" fill="white"/>
<path d="M172.835 72.0312H171.185V73.6852H172.835V72.0312Z" fill="white"/>
<path d="M172.835 74.8047H171.185V76.4587H172.835V74.8047Z" fill="white"/>
<path d="M172.835 77.5762H171.185V79.2302H172.835V77.5762Z" fill="white"/>
<path d="M172.835 80.3496H171.185V82.0036H172.835V80.3496Z" fill="white"/>
<path d="M172.835 83.123H171.185V84.7771H172.835V83.123Z" fill="white"/>
<path d="M172.835 85.8945H171.185V87.5485H172.835V85.8945Z" fill="white"/>
<path d="M172.835 88.668H171.185V90.322H172.835V88.668Z" fill="white"/>
<path d="M172.835 91.4414H171.185V93.0954H172.835V91.4414Z" fill="white"/>
<path d="M172.835 108.078H171.185V109.732H172.835V108.078Z" fill="white"/>
<path d="M172.835 110.85H171.185V112.504H172.835V110.85Z" fill="white"/>
<path d="M172.835 113.623H171.185V115.277H172.835V113.623Z" fill="white"/>
<path d="M172.835 116.395H171.185V118.049H172.835V116.395Z" fill="white"/>
<path d="M172.835 127.486H171.185V129.14H172.835V127.486Z" fill="white"/>
<path d="M170.215 72.0312H168.564V73.6852H170.215V72.0312Z" fill="white"/>
<path d="M170.215 74.8047H168.564V76.4587H170.215V74.8047Z" fill="white"/>
<path d="M170.215 77.5762H168.564V79.2302H170.215V77.5762Z" fill="white"/>
<path d="M170.215 80.3496H168.564V82.0036H170.215V80.3496Z" fill="white"/>
<path d="M170.215 83.123H168.564V84.7771H170.215V83.123Z" fill="white"/>
<path d="M170.215 85.8945H168.564V87.5485H170.215V85.8945Z" fill="white"/>
<path d="M170.215 88.668H168.564V90.322H170.215V88.668Z" fill="white"/>
<path d="M170.215 91.4414H168.564V93.0954H170.215V91.4414Z" fill="white"/>
<path d="M170.215 94.2129H168.564V95.8669H170.215V94.2129Z" fill="white"/>
<path d="M170.215 96.9844H168.564V98.6384H170.215V96.9844Z" fill="white"/>
<path d="M170.215 105.303H168.564V106.957H170.215V105.303Z" fill="white"/>
<path d="M170.215 108.078H168.564V109.732H170.215V108.078Z" fill="white"/>
<path d="M170.215 110.85H168.564V112.504H170.215V110.85Z" fill="white"/>
<path d="M170.215 113.623H168.564V115.277H170.215V113.623Z" fill="white"/>
<path d="M170.215 116.395H168.564V118.049H170.215V116.395Z" fill="white"/>
<path d="M170.215 127.486H168.564V129.14H170.215V127.486Z" fill="white"/>
<path d="M167.594 72.0312H165.944V73.6852H167.594V72.0312Z" fill="white"/>
<path d="M167.594 74.8047H165.944V76.4587H167.594V74.8047Z" fill="white"/>
<path d="M167.594 77.5762H165.944V79.2302H167.594V77.5762Z" fill="white"/>
<path d="M167.594 80.3496H165.944V82.0036H167.594V80.3496Z" fill="white"/>
<path d="M167.594 83.123H165.944V84.7771H167.594V83.123Z" fill="white"/>
<path d="M167.594 85.8945H165.944V87.5485H167.594V85.8945Z" fill="white"/>
<path d="M167.594 88.668H165.944V90.322H167.594V88.668Z" fill="white"/>
<path d="M167.594 91.4414H165.944V93.0954H167.594V91.4414Z" fill="white"/>
<path d="M167.594 94.2129H165.944V95.8669H167.594V94.2129Z" fill="white"/>
<path d="M167.594 96.9844H165.944V98.6384H167.594V96.9844Z" fill="white"/>
<path d="M167.594 99.7598H165.944V101.414H167.594V99.7598Z" fill="white"/>
<path d="M167.594 102.531H165.944V104.185H167.594V102.531Z" fill="white"/>
<path d="M167.594 105.303H165.944V106.957H167.594V105.303Z" fill="white"/>
<path d="M167.594 108.078H165.944V109.732H167.594V108.078Z" fill="white"/>
<path d="M167.594 110.85H165.944V112.504H167.594V110.85Z" fill="white"/>
<path d="M167.594 113.623H165.944V115.277H167.594V113.623Z" fill="white"/>
<path d="M167.594 116.395H165.944V118.049H167.594V116.395Z" fill="white"/>
<path d="M167.594 119.168H165.944V120.822H167.594V119.168Z" fill="white"/>
<path d="M164.973 72.0312H163.323V73.6852H164.973V72.0312Z" fill="white"/>
<path d="M164.973 74.8047H163.323V76.4587H164.973V74.8047Z" fill="white"/>
<path d="M164.973 77.5762H163.323V79.2302H164.973V77.5762Z" fill="white"/>
<path d="M164.973 80.3496H163.323V82.0036H164.973V80.3496Z" fill="white"/>
<path d="M164.973 83.123H163.323V84.7771H164.973V83.123Z" fill="white"/>
<path d="M164.973 85.8945H163.323V87.5485H164.973V85.8945Z" fill="white"/>
<path d="M164.973 88.668H163.323V90.322H164.973V88.668Z" fill="white"/>
<path d="M164.973 91.4414H163.323V93.0954H164.973V91.4414Z" fill="white"/>
<path d="M164.973 94.2129H163.323V95.8669H164.973V94.2129Z" fill="white"/>
<path d="M164.973 96.9844H163.323V98.6384H164.973V96.9844Z" fill="white"/>
<path d="M164.973 105.303H163.323V106.957H164.973V105.303Z" fill="white"/>
<path d="M164.973 108.078H163.323V109.732H164.973V108.078Z" fill="white"/>
<path d="M164.973 110.85H163.323V112.504H164.973V110.85Z" fill="white"/>
<path d="M164.973 113.623H163.323V115.277H164.973V113.623Z" fill="white"/>
<path d="M162.353 72.0312H160.702V73.6852H162.353V72.0312Z" fill="white"/>
<path d="M162.353 74.8047H160.702V76.4587H162.353V74.8047Z" fill="white"/>
<path d="M162.353 77.5762H160.702V79.2302H162.353V77.5762Z" fill="white"/>
<path d="M162.353 80.3496H160.702V82.0036H162.353V80.3496Z" fill="white"/>
<path d="M162.353 83.123H160.702V84.7771H162.353V83.123Z" fill="white"/>
<path d="M162.353 85.8945H160.702V87.5485H162.353V85.8945Z" fill="white"/>
<path d="M162.353 88.668H160.702V90.322H162.353V88.668Z" fill="white"/>
<path d="M162.353 91.4414H160.702V93.0954H162.353V91.4414Z" fill="white"/>
<path d="M162.353 94.2129H160.702V95.8669H162.353V94.2129Z" fill="white"/>
<path d="M162.353 96.9844H160.702V98.6384H162.353V96.9844Z" fill="white"/>
<path d="M162.353 105.303H160.702V106.957H162.353V105.303Z" fill="white"/>
<path d="M162.353 108.078H160.702V109.732H162.353V108.078Z" fill="white"/>
<path d="M162.353 110.85H160.702V112.504H162.353V110.85Z" fill="white"/>
<path d="M132.846 64.832H131.196V66.486H132.846V64.832Z" fill="white"/>
<path d="M132.846 67.6035H131.196V69.2575H132.846V67.6035Z" fill="white"/>
<path d="M132.846 70.3789H131.196V72.0329H132.846V70.3789Z" fill="white"/>
<path d="M132.846 73.1504H131.196V74.8044H132.846V73.1504Z" fill="white"/>
<path d="M132.846 75.9219H131.196V77.5759H132.846V75.9219Z" fill="white"/>
<path d="M132.846 78.6973H131.196V80.3513H132.846V78.6973Z" fill="white"/>
<path d="M132.846 81.4688H131.196V83.1228H132.846V81.4688Z" fill="white"/>
<path d="M132.846 84.2402H131.196V85.8942H132.846V84.2402Z" fill="white"/>
<path d="M132.846 92.5586H131.196V94.2126H132.846V92.5586Z" fill="white"/>
<path d="M132.846 95.332H131.196V96.986H132.846V95.332Z" fill="white"/>
<path d="M130.225 64.832H128.575V66.486H130.225V64.832Z" fill="white"/>
<path d="M130.225 67.6035H128.575V69.2575H130.225V67.6035Z" fill="white"/>
<path d="M130.225 70.3789H128.575V72.0329H130.225V70.3789Z" fill="white"/>
<path d="M130.225 73.1504H128.575V74.8044H130.225V73.1504Z" fill="white"/>
<path d="M130.225 75.9219H128.575V77.5759H130.225V75.9219Z" fill="white"/>
<path d="M130.225 78.6973H128.575V80.3513H130.225V78.6973Z" fill="white"/>
<path d="M130.225 81.4688H128.575V83.1228H130.225V81.4688Z" fill="white"/>
<path d="M130.225 84.2402H128.575V85.8942H130.225V84.2402Z" fill="white"/>
<path d="M130.225 95.332H128.575V96.986H130.225V95.332Z" fill="white"/>
<path d="M127.604 64.832H125.954V66.486H127.604V64.832Z" fill="white"/>
<path d="M127.604 67.6035H125.954V69.2575H127.604V67.6035Z" fill="white"/>
<path d="M127.604 70.3789H125.954V72.0329H127.604V70.3789Z" fill="white"/>
<path d="M127.604 73.1504H125.954V74.8044H127.604V73.1504Z" fill="white"/>
<path d="M127.604 75.9219H125.954V77.5759H127.604V75.9219Z" fill="white"/>
<path d="M127.604 78.6973H125.954V80.3513H127.604V78.6973Z" fill="white"/>
<path d="M127.604 81.4688H125.954V83.1228H127.604V81.4688Z" fill="white"/>
<path d="M127.604 84.2402H125.954V85.8942H127.604V84.2402Z" fill="white"/>
<path d="M124.983 64.832H123.333V66.486H124.983V64.832Z" fill="white"/>
<path d="M124.983 67.6035H123.333V69.2575H124.983V67.6035Z" fill="white"/>
<path d="M124.983 70.3789H123.333V72.0329H124.983V70.3789Z" fill="white"/>
<path d="M124.983 73.1504H123.333V74.8044H124.983V73.1504Z" fill="white"/>
<path d="M124.983 75.9219H123.333V77.5759H124.983V75.9219Z" fill="white"/>
<path d="M124.983 78.6973H123.333V80.3513H124.983V78.6973Z" fill="white"/>
<path d="M124.983 84.2402H123.333V85.8942H124.983V84.2402Z" fill="white"/>
<path d="M124.983 87.0137H123.333V88.6677H124.983V87.0137Z" fill="white"/>
<path d="M124.983 95.332H123.333V96.986H124.983V95.332Z" fill="white"/>
<path d="M124.983 98.1055H123.333V99.7595H124.983V98.1055Z" fill="white"/>
<path d="M124.983 100.877H123.333V102.531H124.983V100.877Z" fill="white"/>
<path d="M124.983 103.65H123.333V105.304H124.983V103.65Z" fill="white"/>
<path d="M124.983 106.424H123.333V108.078H124.983V106.424Z" fill="white"/>
<path d="M124.983 109.195H123.333V110.849H124.983V109.195Z" fill="white"/>
<path d="M124.983 111.969H123.333V113.623H124.983V111.969Z" fill="white"/>
<path d="M122.363 64.832H120.713V66.486H122.363V64.832Z" fill="white"/>
<path d="M122.363 67.6035H120.713V69.2575H122.363V67.6035Z" fill="white"/>
<path d="M122.363 70.3789H120.713V72.0329H122.363V70.3789Z" fill="white"/>
<path d="M122.363 73.1504H120.713V74.8044H122.363V73.1504Z" fill="white"/>
<path d="M122.363 75.9219H120.713V77.5759H122.363V75.9219Z" fill="white"/>
<path d="M122.363 78.6973H120.713V80.3513H122.363V78.6973Z" fill="white"/>
<path d="M122.363 87.0137H120.713V88.6677H122.363V87.0137Z" fill="white"/>
<path d="M122.363 89.7871H120.713V91.4411H122.363V89.7871Z" fill="white"/>
<path d="M122.363 92.5586H120.713V94.2126H122.363V92.5586Z" fill="white"/>
<path d="M122.363 95.332H120.713V96.986H122.363V95.332Z" fill="white"/>
<path d="M122.363 98.1055H120.713V99.7595H122.363V98.1055Z" fill="white"/>
<path d="M122.363 100.877H120.713V102.531H122.363V100.877Z" fill="white"/>
<path d="M122.363 103.65H120.713V105.304H122.363V103.65Z" fill="white"/>
<path d="M122.363 106.424H120.713V108.078H122.363V106.424Z" fill="white"/>
<path d="M122.363 109.195H120.713V110.849H122.363V109.195Z" fill="white"/>
<path d="M122.363 111.969H120.713V113.623H122.363V111.969Z" fill="white"/>
<path d="M122.363 114.742H120.713V116.396H122.363V114.742Z" fill="white"/>
<path d="M122.363 120.287H120.713V121.941H122.363V120.287Z" fill="white"/>
<path d="M119.742 64.832H118.092V66.486H119.742V64.832Z" fill="white"/>
<path d="M119.742 67.6035H118.092V69.2575H119.742V67.6035Z" fill="white"/>
<path d="M119.742 70.3789H118.092V72.0329H119.742V70.3789Z" fill="white"/>
<path d="M119.742 73.1504H118.092V74.8044H119.742V73.1504Z" fill="white"/>
<path d="M119.742 75.9219H118.092V77.5759H119.742V75.9219Z" fill="white"/>
<path d="M119.742 78.6973H118.092V80.3513H119.742V78.6973Z" fill="white"/>
<path d="M119.742 87.0137H118.092V88.6677H119.742V87.0137Z" fill="white"/>
<path d="M119.742 89.7871H118.092V91.4411H119.742V89.7871Z" fill="white"/>
<path d="M119.742 92.5586H118.092V94.2126H119.742V92.5586Z" fill="white"/>
<path d="M119.742 95.332H118.092V96.986H119.742V95.332Z" fill="white"/>
<path d="M119.742 103.65H118.092V105.304H119.742V103.65Z" fill="white"/>
<path d="M119.742 106.424H118.092V108.078H119.742V106.424Z" fill="white"/>
<path d="M119.742 109.195H118.092V110.849H119.742V109.195Z" fill="white"/>
<path d="M119.742 111.969H118.092V113.623H119.742V111.969Z" fill="white"/>
<path d="M119.742 114.742H118.092V116.396H119.742V114.742Z" fill="white"/>
<path d="M119.742 120.287H118.092V121.941H119.742V120.287Z" fill="white"/>
<path d="M119.742 123.059H118.092V124.713H119.742V123.059Z" fill="white"/>
<path d="M95.9624 90.6133H94.3123V92.2673H95.9624V90.6133Z" fill="white"/>
<path d="M95.9624 93.3867H94.3123V95.0407H95.9624V93.3867Z" fill="white"/>
<path d="M95.9624 96.1582H94.3123V97.8122H95.9624V96.1582Z" fill="white"/>
<path d="M95.9624 98.9316H94.3123V100.586H95.9624V98.9316Z" fill="white"/>
<path d="M95.9624 101.705H94.3123V103.359H95.9624V101.705Z" fill="white"/>
<path d="M95.9624 104.477H94.3123V106.131H95.9624V104.477Z" fill="white"/>
<path d="M95.9624 107.25H94.3123V108.904H95.9624V107.25Z" fill="white"/>
<path d="M95.9624 115.568H94.3123V117.222H95.9624V115.568Z" fill="white"/>
<path d="M95.9624 118.342H94.3123V119.996H95.9624V118.342Z" fill="white"/>
<path d="M95.9624 121.113H94.3123V122.767H95.9624V121.113Z" fill="white"/>
<path d="M93.3416 90.6133H91.6914V92.2673H93.3416V90.6133Z" fill="white"/>
<path d="M93.3416 93.3867H91.6914V95.0407H93.3416V93.3867Z" fill="white"/>
<path d="M93.3416 96.1582H91.6914V97.8122H93.3416V96.1582Z" fill="white"/>
<path d="M93.3416 98.9316H91.6914V100.586H93.3416V98.9316Z" fill="white"/>
<path d="M93.3416 101.705H91.6914V103.359H93.3416V101.705Z" fill="white"/>
<path d="M93.3416 104.477H91.6914V106.131H93.3416V104.477Z" fill="white"/>
<path d="M93.3416 107.25H91.6914V108.904H93.3416V107.25Z" fill="white"/>
<path d="M90.7207 90.6133H89.0706V92.2673H90.7207V90.6133Z" fill="white"/>
<path d="M90.7207 93.3867H89.0706V95.0407H90.7207V93.3867Z" fill="white"/>
<path d="M90.7207 96.1582H89.0706V97.8122H90.7207V96.1582Z" fill="white"/>
<path d="M90.7207 98.9316H89.0706V100.586H90.7207V98.9316Z" fill="white"/>
<path d="M90.7207 101.705H89.0706V103.359H90.7207V101.705Z" fill="white"/>
<path d="M90.7207 104.477H89.0706V106.131H90.7207V104.477Z" fill="white"/>
<path d="M90.7207 107.25H89.0706V108.904H90.7207V107.25Z" fill="white"/>
<path d="M88.1003 90.6133H86.4502V92.2673H88.1003V90.6133Z" fill="white"/>
<path d="M88.1003 93.3867H86.4502V95.0407H88.1003V93.3867Z" fill="white"/>
<path d="M88.1003 96.1582H86.4502V97.8122H88.1003V96.1582Z" fill="white"/>
<path d="M88.1003 98.9316H86.4502V100.586H88.1003V98.9316Z" fill="white"/>
<path d="M88.1003 101.705H86.4502V103.359H88.1003V101.705Z" fill="white"/>
<path d="M88.1003 104.477H86.4502V106.131H88.1003V104.477Z" fill="white"/>
<path d="M88.1003 107.25H86.4502V108.904H88.1003V107.25Z" fill="white"/>
<path d="M88.1003 110.023H86.4502V111.677H88.1003V110.023Z" fill="white"/>
<path d="M88.1003 112.795H86.4502V114.449H88.1003V112.795Z" fill="white"/>
<path d="M88.1003 115.568H86.4502V117.222H88.1003V115.568Z" fill="white"/>
<path d="M88.1003 118.342H86.4502V119.996H88.1003V118.342Z" fill="white"/>
<path d="M85.4795 90.6133H83.8293V92.2673H85.4795V90.6133Z" fill="white"/>
<path d="M85.4795 93.3867H83.8293V95.0407H85.4795V93.3867Z" fill="white"/>
<path d="M85.4795 96.1582H83.8293V97.8122H85.4795V96.1582Z" fill="white"/>
<path d="M85.4795 98.9316H83.8293V100.586H85.4795V98.9316Z" fill="white"/>
<path d="M85.4795 101.705H83.8293V103.359H85.4795V101.705Z" fill="white"/>
<path d="M85.4795 104.477H83.8293V106.131H85.4795V104.477Z" fill="white"/>
<path d="M85.4795 107.25H83.8293V108.904H85.4795V107.25Z" fill="white"/>
<path d="M85.4795 110.023H83.8293V111.677H85.4795V110.023Z" fill="white"/>
<path d="M85.4795 112.795H83.8293V114.449H85.4795V112.795Z" fill="white"/>
<path d="M85.4795 115.568H83.8293V117.222H85.4795V115.568Z" fill="white"/>
<path d="M85.4795 118.342H83.8293V119.996H85.4795V118.342Z" fill="white"/>
<path d="M85.4795 121.113H83.8293V122.767H85.4795V121.113Z" fill="white"/>
<path d="M85.4795 129.432H83.8293V131.086H85.4795V129.432Z" fill="white"/>
<path d="M85.4795 132.203H83.8293V133.857H85.4795V132.203Z" fill="white"/>
<path d="M82.8586 90.6133H81.2085V92.2673H82.8586V90.6133Z" fill="white"/>
<path d="M82.8586 93.3867H81.2085V95.0407H82.8586V93.3867Z" fill="white"/>
<path d="M82.8586 96.1582H81.2085V97.8122H82.8586V96.1582Z" fill="white"/>
<path d="M82.8586 104.477H81.2085V106.131H82.8586V104.477Z" fill="white"/>
<path d="M82.8586 107.25H81.2085V108.904H82.8586V107.25Z" fill="white"/>
<path d="M82.8586 110.023H81.2085V111.677H82.8586V110.023Z" fill="white"/>
<path d="M82.8586 112.795H81.2085V114.449H82.8586V112.795Z" fill="white"/>
<path d="M82.8586 115.568H81.2085V117.222H82.8586V115.568Z" fill="white"/>
<path d="M82.8586 118.342H81.2085V119.996H82.8586V118.342Z" fill="white"/>
<path d="M82.8586 121.113H81.2085V122.767H82.8586V121.113Z" fill="white"/>
<path d="M82.8586 129.432H81.2085V131.086H82.8586V129.432Z" fill="white"/>
<path d="M82.8586 132.203H81.2085V133.857H82.8586V132.203Z" fill="white"/>
<path d="M82.8586 134.979H81.2085V136.633H82.8586V134.979Z" fill="white"/>
<path d="M55.3904 73.9766H53.7402V75.6306H55.3904V73.9766Z" fill="white"/>
<path d="M55.3904 76.75H53.7402V78.404H55.3904V76.75Z" fill="white"/>
<path d="M55.3904 79.5234H53.7402V81.1774H55.3904V79.5234Z" fill="white"/>
<path d="M55.3904 82.2949H53.7402V83.9489H55.3904V82.2949Z" fill="white"/>
<path d="M55.3904 85.0684H53.7402V86.7224H55.3904V85.0684Z" fill="white"/>
<path d="M55.3904 87.8398H53.7402V89.4938H55.3904V87.8398Z" fill="white"/>
<path d="M55.3904 90.6133H53.7402V92.2673H55.3904V90.6133Z" fill="white"/>
<path d="M55.3904 93.3867H53.7402V95.0407H55.3904V93.3867Z" fill="white"/>
<path d="M55.3904 96.1582H53.7402V97.8122H55.3904V96.1582Z" fill="white"/>
<path d="M55.3904 98.9316H53.7402V100.586H55.3904V98.9316Z" fill="white"/>
<path d="M55.3904 101.705H53.7402V103.359H55.3904V101.705Z" fill="white"/>
<path d="M55.3904 104.477H53.7402V106.131H55.3904V104.477Z" fill="white"/>
<path d="M55.3904 107.25H53.7402V108.904H55.3904V107.25Z" fill="white"/>
<path d="M55.3904 110.023H53.7402V111.677H55.3904V110.023Z" fill="white"/>
<path d="M55.3904 112.795H53.7402V114.449H55.3904V112.795Z" fill="white"/>
<path d="M55.3904 115.568H53.7402V117.222H55.3904V115.568Z" fill="white"/>
<path d="M55.3904 118.342H53.7402V119.996H55.3904V118.342Z" fill="white"/>
<path d="M55.3904 121.113H53.7402V122.767H55.3904V121.113Z" fill="white"/>
<path d="M55.3904 123.885H53.7402V125.539H55.3904V123.885Z" fill="white"/>
<path d="M55.3904 126.66H53.7402V128.314H55.3904V126.66Z" fill="white"/>
<path d="M55.3904 129.432H53.7402V131.086H55.3904V129.432Z" fill="white"/>
<path d="M55.3904 132.203H53.7402V133.857H55.3904V132.203Z" fill="white"/>
<path d="M55.3904 134.979H53.7402V136.633H55.3904V134.979Z" fill="white"/>
<path d="M52.77 73.9766H51.1199V75.6306H52.77V73.9766Z" fill="white"/>
<path d="M52.77 76.75H51.1199V78.404H52.77V76.75Z" fill="white"/>
<path d="M52.77 79.5234H51.1199V81.1774H52.77V79.5234Z" fill="white"/>
<path d="M52.77 82.2949H51.1199V83.9489H52.77V82.2949Z" fill="white"/>
<path d="M52.77 85.0684H51.1199V86.7224H52.77V85.0684Z" fill="white"/>
<path d="M52.77 87.8398H51.1199V89.4938H52.77V87.8398Z" fill="white"/>
<path d="M52.77 90.6133H51.1199V92.2673H52.77V90.6133Z" fill="white"/>
<path d="M52.77 93.3867H51.1199V95.0407H52.77V93.3867Z" fill="white"/>
<path d="M52.77 96.1582H51.1199V97.8122H52.77V96.1582Z" fill="white"/>
<path d="M52.77 98.9316H51.1199V100.586H52.77V98.9316Z" fill="white"/>
<path d="M52.77 101.705H51.1199V103.359H52.77V101.705Z" fill="white"/>
<path d="M52.77 104.477H51.1199V106.131H52.77V104.477Z" fill="white"/>
<path d="M52.77 107.25H51.1199V108.904H52.77V107.25Z" fill="white"/>
<path d="M52.77 110.023H51.1199V111.677H52.77V110.023Z" fill="white"/>
<path d="M52.77 112.795H51.1199V114.449H52.77V112.795Z" fill="white"/>
<path d="M52.77 115.568H51.1199V117.222H52.77V115.568Z" fill="white"/>
<path d="M52.77 118.342H51.1199V119.996H52.77V118.342Z" fill="white"/>
<path d="M52.77 121.113H51.1199V122.767H52.77V121.113Z" fill="white"/>
<path d="M52.77 123.885H51.1199V125.539H52.77V123.885Z" fill="white"/>
<path d="M50.1492 73.9766H48.499V75.6306H50.1492V73.9766Z" fill="white"/>
<path d="M50.1492 76.75H48.499V78.404H50.1492V76.75Z" fill="white"/>
<path d="M50.1492 79.5234H48.499V81.1774H50.1492V79.5234Z" fill="white"/>
<path d="M50.1492 82.2949H48.499V83.9489H50.1492V82.2949Z" fill="white"/>
<path d="M50.1492 85.0684H48.499V86.7224H50.1492V85.0684Z" fill="white"/>
<path d="M50.1492 87.8398H48.499V89.4938H50.1492V87.8398Z" fill="white"/>
<path d="M50.1492 90.6133H48.499V92.2673H50.1492V90.6133Z" fill="white"/>
<path d="M50.1492 93.3867H48.499V95.0407H50.1492V93.3867Z" fill="white"/>
<path d="M50.1492 96.1582H48.499V97.8122H50.1492V96.1582Z" fill="white"/>
<path d="M50.1492 98.9316H48.499V100.586H50.1492V98.9316Z" fill="white"/>
<path d="M50.1492 101.705H48.499V103.359H50.1492V101.705Z" fill="white"/>
<path d="M50.1492 104.477H48.499V106.131H50.1492V104.477Z" fill="white"/>
<path d="M50.1492 107.25H48.499V108.904H50.1492V107.25Z" fill="white"/>
<path d="M50.1492 110.023H48.499V111.677H50.1492V110.023Z" fill="white"/>
<path d="M50.1492 112.795H48.499V114.449H50.1492V112.795Z" fill="white"/>
<path d="M50.1492 115.568H48.499V117.222H50.1492V115.568Z" fill="white"/>
<path d="M50.1492 118.342H48.499V119.996H50.1492V118.342Z" fill="white"/>
<path d="M50.1492 121.113H48.499V122.767H50.1492V121.113Z" fill="white"/>
<path d="M50.1492 123.885H48.499V125.539H50.1492V123.885Z" fill="white"/>
<path d="M47.5283 73.9766H45.8782V75.6306H47.5283V73.9766Z" fill="white"/>
<path d="M47.5283 76.75H45.8782V78.404H47.5283V76.75Z" fill="white"/>
<path d="M47.5283 79.5234H45.8782V81.1774H47.5283V79.5234Z" fill="white"/>
<path d="M47.5283 82.2949H45.8782V83.9489H47.5283V82.2949Z" fill="white"/>
<path d="M47.5283 85.0684H45.8782V86.7224H47.5283V85.0684Z" fill="white"/>
<path d="M47.5283 87.8398H45.8782V89.4938H47.5283V87.8398Z" fill="white"/>
<path d="M47.5283 90.6133H45.8782V92.2673H47.5283V90.6133Z" fill="white"/>
<path d="M47.5283 93.3867H45.8782V95.0407H47.5283V93.3867Z" fill="white"/>
<path d="M47.5283 96.1582H45.8782V97.8122H47.5283V96.1582Z" fill="white"/>
<path d="M47.5283 98.9316H45.8782V100.586H47.5283V98.9316Z" fill="white"/>
<path d="M47.5283 101.705H45.8782V103.359H47.5283V101.705Z" fill="white"/>
<path d="M47.5283 104.477H45.8782V106.131H47.5283V104.477Z" fill="white"/>
<path d="M47.5283 107.25H45.8782V108.904H47.5283V107.25Z" fill="white"/>
<path d="M47.5283 110.023H45.8782V111.677H47.5283V110.023Z" fill="white"/>
<path d="M47.5283 112.795H45.8782V114.449H47.5283V112.795Z" fill="white"/>
<path d="M44.9081 73.9766H43.2579V75.6306H44.9081V73.9766Z" fill="white"/>
<path d="M44.9081 76.75H43.2579V78.404H44.9081V76.75Z" fill="white"/>
<path d="M44.9081 79.5234H43.2579V81.1774H44.9081V79.5234Z" fill="white"/>
<path d="M44.9081 82.2949H43.2579V83.9489H44.9081V82.2949Z" fill="white"/>
<path d="M44.9081 85.0684H43.2579V86.7224H44.9081V85.0684Z" fill="white"/>
<path d="M44.9081 87.8398H43.2579V89.4938H44.9081V87.8398Z" fill="white"/>
<path d="M44.9081 90.6133H43.2579V92.2673H44.9081V90.6133Z" fill="white"/>
<path d="M44.9081 93.3867H43.2579V95.0407H44.9081V93.3867Z" fill="white"/>
<path d="M44.9081 96.1582H43.2579V97.8122H44.9081V96.1582Z" fill="white"/>
<path d="M44.9081 98.9316H43.2579V100.586H44.9081V98.9316Z" fill="white"/>
<path d="M44.9081 101.705H43.2579V103.359H44.9081V101.705Z" fill="white"/>
<path d="M44.9081 104.477H43.2579V106.131H44.9081V104.477Z" fill="white"/>
<path d="M44.9081 107.25H43.2579V108.904H44.9081V107.25Z" fill="white"/>
<path d="M42.2872 73.9766H40.6371V75.6306H42.2872V73.9766Z" fill="white"/>
<path d="M42.2872 76.75H40.6371V78.404H42.2872V76.75Z" fill="white"/>
<path d="M42.2872 79.5234H40.6371V81.1774H42.2872V79.5234Z" fill="white"/>
<path d="M42.2872 82.2949H40.6371V83.9489H42.2872V82.2949Z" fill="white"/>
<path d="M42.2872 85.0684H40.6371V86.7224H42.2872V85.0684Z" fill="white"/>
<path d="M42.2872 87.8398H40.6371V89.4938H42.2872V87.8398Z" fill="white"/>
<path d="M42.2872 90.6133H40.6371V92.2673H42.2872V90.6133Z" fill="white"/>
<path d="M42.2872 93.3867H40.6371V95.0407H42.2872V93.3867Z" fill="white"/>
<path d="M42.2872 96.1582H40.6371V97.8122H42.2872V96.1582Z" fill="white"/>
<path d="M42.2872 98.9316H40.6371V100.586H42.2872V98.9316Z" fill="white"/>
<path d="M42.2872 101.705H40.6371V103.359H42.2872V101.705Z" fill="white"/>
<path d="M42.2872 104.477H40.6371V106.131H42.2872V104.477Z" fill="white"/>
<path d="M234.857 94.2129H233.207V95.8669H234.857V94.2129Z" fill="white"/>
<path d="M234.857 96.9844H233.207V98.6384H234.857V96.9844Z" fill="white"/>
<path d="M234.857 99.7598H233.207V101.414H234.857V99.7598Z" fill="white"/>
<path d="M234.857 102.531H233.207V104.185H234.857V102.531Z" fill="white"/>
<path d="M234.857 105.303H233.207V106.957H234.857V105.303Z" fill="white"/>
<path d="M234.857 108.078H233.207V109.732H234.857V108.078Z" fill="white"/>
<path d="M234.857 110.85H233.207V112.504H234.857V110.85Z" fill="white"/>
<path d="M234.857 113.623H233.207V115.277H234.857V113.623Z" fill="white"/>
<path d="M234.857 116.395H233.207V118.049H234.857V116.395Z" fill="white"/>
<path d="M234.857 119.168H233.207V120.822H234.857V119.168Z" fill="white"/>
<path d="M234.857 121.939H233.207V123.593H234.857V121.939Z" fill="white"/>
<path d="M234.857 124.713H233.207V126.367H234.857V124.713Z" fill="white"/>
<path d="M234.857 127.486H233.207V129.14H234.857V127.486Z" fill="white"/>
<path d="M234.857 130.258H233.207V131.912H234.857V130.258Z" fill="white"/>
<path d="M234.857 133.031H233.207V134.685H234.857V133.031Z" fill="white"/>
<path d="M234.857 135.805H233.207V137.459H234.857V135.805Z" fill="white"/>
<path d="M234.857 138.576H233.207V140.23H234.857V138.576Z" fill="white"/>
<path d="M234.857 141.35H233.207V143.004H234.857V141.35Z" fill="white"/>
<path d="M234.857 144.123H233.207V145.777H234.857V144.123Z" fill="white"/>
<path d="M234.857 146.895H233.207V148.549H234.857V146.895Z" fill="white"/>
<path d="M232.237 94.2129H230.587V95.8669H232.237V94.2129Z" fill="white"/>
<path d="M232.237 96.9844H230.587V98.6384H232.237V96.9844Z" fill="white"/>
<path d="M232.237 99.7598H230.587V101.414H232.237V99.7598Z" fill="white"/>
<path d="M232.237 102.531H230.587V104.185H232.237V102.531Z" fill="white"/>
<path d="M232.237 105.303H230.587V106.957H232.237V105.303Z" fill="white"/>
<path d="M232.237 108.078H230.587V109.732H232.237V108.078Z" fill="white"/>
<path d="M232.237 110.85H230.587V112.504H232.237V110.85Z" fill="white"/>
<path d="M232.237 113.623H230.587V115.277H232.237V113.623Z" fill="white"/>
<path d="M232.237 116.395H230.587V118.049H232.237V116.395Z" fill="white"/>
<path d="M232.237 119.168H230.587V120.822H232.237V119.168Z" fill="white"/>
<path d="M232.237 121.939H230.587V123.593H232.237V121.939Z" fill="white"/>
<path d="M232.237 124.713H230.587V126.367H232.237V124.713Z" fill="white"/>
<path d="M232.237 127.486H230.587V129.14H232.237V127.486Z" fill="white"/>
<path d="M232.237 130.258H230.587V131.912H232.237V130.258Z" fill="white"/>
<path d="M232.237 133.031H230.587V134.685H232.237V133.031Z" fill="white"/>
<path d="M232.237 135.805H230.587V137.459H232.237V135.805Z" fill="white"/>
<path d="M232.237 138.576H230.587V140.23H232.237V138.576Z" fill="white"/>
<path d="M232.237 141.35H230.587V143.004H232.237V141.35Z" fill="white"/>
<path d="M229.616 94.2129H227.966V95.8669H229.616V94.2129Z" fill="white"/>
<path d="M229.616 96.9844H227.966V98.6384H229.616V96.9844Z" fill="white"/>
<path d="M229.616 99.7598H227.966V101.414H229.616V99.7598Z" fill="white"/>
<path d="M229.616 102.531H227.966V104.185H229.616V102.531Z" fill="white"/>
<path d="M229.616 105.303H227.966V106.957H229.616V105.303Z" fill="white"/>
<path d="M229.616 108.078H227.966V109.732H229.616V108.078Z" fill="white"/>
<path d="M229.616 110.85H227.966V112.504H229.616V110.85Z" fill="white"/>
<path d="M229.616 113.623H227.966V115.277H229.616V113.623Z" fill="white"/>
<path d="M229.616 116.395H227.966V118.049H229.616V116.395Z" fill="white"/>
<path d="M229.616 119.168H227.966V120.822H229.616V119.168Z" fill="white"/>
<path d="M229.616 121.939H227.966V123.593H229.616V121.939Z" fill="white"/>
<path d="M229.616 124.713H227.966V126.367H229.616V124.713Z" fill="white"/>
<path d="M229.616 127.486H227.966V129.14H229.616V127.486Z" fill="white"/>
<path d="M229.616 130.258H227.966V131.912H229.616V130.258Z" fill="white"/>
<path d="M229.616 133.031H227.966V134.685H229.616V133.031Z" fill="white"/>
<path d="M229.616 135.805H227.966V137.459H229.616V135.805Z" fill="white"/>
<path d="M229.616 138.576H227.966V140.23H229.616V138.576Z" fill="white"/>
<path d="M229.616 141.35H227.966V143.004H229.616V141.35Z" fill="white"/>
<path d="M244.661 114.449H243.01V116.103H244.661V114.449Z" fill="white"/>
<path d="M244.661 117.221H243.01V118.875H244.661V117.221Z" fill="white"/>
<path d="M244.661 119.994H243.01V121.648H244.661V119.994Z" fill="white"/>
<path d="M244.661 122.768H243.01V124.422H244.661V122.768Z" fill="white"/>
<path d="M244.661 125.539H243.01V127.193H244.661V125.539Z" fill="white"/>
<path d="M244.661 128.314H243.01V129.968H244.661V128.314Z" fill="white"/>
<path d="M244.661 131.086H243.01V132.74H244.661V131.086Z" fill="white"/>
<path d="M244.661 133.857H243.01V135.511H244.661V133.857Z" fill="white"/>
<path d="M244.661 136.633H243.01V138.287H244.661V136.633Z" fill="white"/>
<path d="M244.661 139.404H243.01V141.058H244.661V139.404Z" fill="white"/>
<path d="M244.661 142.176H243.01V143.83H244.661V142.176Z" fill="white"/>
<path d="M244.661 144.949H243.01V146.603H244.661V144.949Z" fill="white"/>
<path d="M244.661 147.723H243.01V149.377H244.661V147.723Z" fill="white"/>
<path d="M242.04 114.449H240.39V116.103H242.04V114.449Z" fill="white"/>
<path d="M242.04 117.221H240.39V118.875H242.04V117.221Z" fill="white"/>
<path d="M242.04 119.994H240.39V121.648H242.04V119.994Z" fill="white"/>
<path d="M242.04 122.768H240.39V124.422H242.04V122.768Z" fill="white"/>
<path d="M242.04 125.539H240.39V127.193H242.04V125.539Z" fill="white"/>
<path d="M242.04 128.314H240.39V129.968H242.04V128.314Z" fill="white"/>
<path d="M242.04 131.086H240.39V132.74H242.04V131.086Z" fill="white"/>
<path d="M242.04 133.857H240.39V135.511H242.04V133.857Z" fill="white"/>
<path d="M242.04 136.633H240.39V138.287H242.04V136.633Z" fill="white"/>
<path d="M242.04 139.404H240.39V141.058H242.04V139.404Z" fill="white"/>
<path d="M242.04 142.176H240.39V143.83H242.04V142.176Z" fill="white"/>
<path d="M242.04 144.949H240.39V146.603H242.04V144.949Z" fill="white"/>
<path d="M242.04 147.723H240.39V149.377H242.04V147.723Z" fill="white"/>
<path d="M239.419 114.449H237.769V116.103H239.419V114.449Z" fill="white"/>
<path d="M239.419 117.221H237.769V118.875H239.419V117.221Z" fill="white"/>
<path d="M239.419 119.994H237.769V121.648H239.419V119.994Z" fill="white"/>
<path d="M239.419 122.768H237.769V124.422H239.419V122.768Z" fill="white"/>
<path d="M239.419 125.539H237.769V127.193H239.419V125.539Z" fill="white"/>
<path d="M239.419 128.314H237.769V129.968H239.419V128.314Z" fill="white"/>
<path d="M239.419 131.086H237.769V132.74H239.419V131.086Z" fill="white"/>
<path d="M239.419 133.857H237.769V135.511H239.419V133.857Z" fill="white"/>
<path d="M239.419 136.633H237.769V138.287H239.419V136.633Z" fill="white"/>
<path d="M239.419 139.404H237.769V141.058H239.419V139.404Z" fill="white"/>
<path d="M239.419 142.176H237.769V143.83H239.419V142.176Z" fill="white"/>
<path d="M239.419 144.949H237.769V146.603H239.419V144.949Z" fill="white"/>
<path d="M239.419 147.723H237.769V149.377H239.419V147.723Z" fill="white"/>
<path d="M239.419 150.494H237.769V152.148H239.419V150.494Z" fill="white"/>
<path d="M224.86 115.275H223.21V116.929H224.86V115.275Z" fill="white"/>
<path d="M224.86 118.049H223.21V119.703H224.86V118.049Z" fill="white"/>
<path d="M224.86 120.822H223.21V122.476H224.86V120.822Z" fill="white"/>
<path d="M224.86 123.594H223.21V125.248H224.86V123.594Z" fill="white"/>
<path d="M224.86 126.367H223.21V128.021H224.86V126.367Z" fill="white"/>
<path d="M224.86 129.141H223.21V130.795H224.86V129.141Z" fill="white"/>
<path d="M224.86 131.912H223.21V133.566H224.86V131.912Z" fill="white"/>
<path d="M224.86 134.686H223.21V136.34H224.86V134.686Z" fill="white"/>
<path d="M224.86 137.459H223.21V139.113H224.86V137.459Z" fill="white"/>
<path d="M224.86 140.23H223.21V141.884H224.86V140.23Z" fill="white"/>
<path d="M224.86 148.549H223.21V150.203H224.86V148.549Z" fill="white"/>
<path d="M222.24 115.275H220.59V116.929H222.24V115.275Z" fill="white"/>
<path d="M222.24 118.049H220.59V119.703H222.24V118.049Z" fill="white"/>
<path d="M222.24 120.822H220.59V122.476H222.24V120.822Z" fill="white"/>
<path d="M222.24 123.594H220.59V125.248H222.24V123.594Z" fill="white"/>
<path d="M222.24 126.367H220.59V128.021H222.24V126.367Z" fill="white"/>
<path d="M222.24 129.141H220.59V130.795H222.24V129.141Z" fill="white"/>
<path d="M222.24 131.912H220.59V133.566H222.24V131.912Z" fill="white"/>
<path d="M222.24 134.686H220.59V136.34H222.24V134.686Z" fill="white"/>
<path d="M222.24 137.459H220.59V139.113H222.24V137.459Z" fill="white"/>
<path d="M222.24 145.777H220.59V147.431H222.24V145.777Z" fill="white"/>
<path d="M222.24 148.549H220.59V150.203H222.24V148.549Z" fill="white"/>
<path d="M219.619 115.275H217.969V116.929H219.619V115.275Z" fill="white"/>
<path d="M219.619 118.049H217.969V119.703H219.619V118.049Z" fill="white"/>
<path d="M219.619 120.822H217.969V122.476H219.619V120.822Z" fill="white"/>
<path d="M219.619 123.594H217.969V125.248H219.619V123.594Z" fill="white"/>
<path d="M219.619 126.367H217.969V128.021H219.619V126.367Z" fill="white"/>
<path d="M219.619 129.141H217.969V130.795H219.619V129.141Z" fill="white"/>
<path d="M219.619 131.912H217.969V133.566H219.619V131.912Z" fill="white"/>
<path d="M219.619 134.686H217.969V136.34H219.619V134.686Z" fill="white"/>
<path d="M219.619 143.002H217.969V144.656H219.619V143.002Z" fill="white"/>
<path d="M219.619 145.777H217.969V147.431H219.619V145.777Z" fill="white"/>
<path d="M219.619 148.549H217.969V150.203H219.619V148.549Z" fill="white"/>
<path d="M195.256 73.1504H193.606V74.8044H195.256V73.1504Z" fill="white"/>
<path d="M195.256 75.9219H193.606V77.5759H195.256V75.9219Z" fill="white"/>
<path d="M195.256 78.6973H193.606V80.3513H195.256V78.6973Z" fill="white"/>
<path d="M195.256 81.4688H193.606V83.1228H195.256V81.4688Z" fill="white"/>
<path d="M195.256 84.2402H193.606V85.8942H195.256V84.2402Z" fill="white"/>
<path d="M195.256 87.0137H193.606V88.6677H195.256V87.0137Z" fill="white"/>
<path d="M195.256 89.7871H193.606V91.4411H195.256V89.7871Z" fill="white"/>
<path d="M195.256 92.5586H193.606V94.2126H195.256V92.5586Z" fill="white"/>
<path d="M195.256 95.332H193.606V96.986H195.256V95.332Z" fill="white"/>
<path d="M195.256 98.1055H193.606V99.7595H195.256V98.1055Z" fill="white"/>
<path d="M195.256 100.877H193.606V102.531H195.256V100.877Z" fill="white"/>
<path d="M195.256 103.65H193.606V105.304H195.256V103.65Z" fill="white"/>
<path d="M195.256 106.424H193.606V108.078H195.256V106.424Z" fill="white"/>
<path d="M195.256 109.195H193.606V110.849H195.256V109.195Z" fill="white"/>
<path d="M195.256 111.969H193.606V113.623H195.256V111.969Z" fill="white"/>
<path d="M195.256 114.742H193.606V116.396H195.256V114.742Z" fill="white"/>
<path d="M195.256 117.514H193.606V119.168H195.256V117.514Z" fill="white"/>
<path d="M195.256 123.059H193.606V124.713H195.256V123.059Z" fill="white"/>
<path d="M195.256 125.832H193.606V127.486H195.256V125.832Z" fill="white"/>
<path d="M195.256 128.604H193.606V130.258H195.256V128.604Z" fill="white"/>
<path d="M195.256 131.377H193.606V133.031H195.256V131.377Z" fill="white"/>
<path d="M195.256 134.15H193.606V135.804H195.256V134.15Z" fill="white"/>
<path d="M192.635 73.1504H190.985V74.8044H192.635V73.1504Z" fill="white"/>
<path d="M192.635 75.9219H190.985V77.5759H192.635V75.9219Z" fill="white"/>
<path d="M192.635 78.6973H190.985V80.3513H192.635V78.6973Z" fill="white"/>
<path d="M192.635 81.4688H190.985V83.1228H192.635V81.4688Z" fill="white"/>
<path d="M192.635 84.2402H190.985V85.8942H192.635V84.2402Z" fill="white"/>
<path d="M192.635 87.0137H190.985V88.6677H192.635V87.0137Z" fill="white"/>
<path d="M192.635 89.7871H190.985V91.4411H192.635V89.7871Z" fill="white"/>
<path d="M192.635 92.5586H190.985V94.2126H192.635V92.5586Z" fill="white"/>
<path d="M192.635 95.332H190.985V96.986H192.635V95.332Z" fill="white"/>
<path d="M192.635 98.1055H190.985V99.7595H192.635V98.1055Z" fill="white"/>
<path d="M192.635 100.877H190.985V102.531H192.635V100.877Z" fill="white"/>
<path d="M192.635 103.65H190.985V105.304H192.635V103.65Z" fill="white"/>
<path d="M192.635 106.424H190.985V108.078H192.635V106.424Z" fill="white"/>
<path d="M192.635 109.195H190.985V110.849H192.635V109.195Z" fill="white"/>
<path d="M192.635 111.969H190.985V113.623H192.635V111.969Z" fill="white"/>
<path d="M192.635 114.742H190.985V116.396H192.635V114.742Z" fill="white"/>
<path d="M192.635 131.377H190.985V133.031H192.635V131.377Z" fill="white"/>
<path d="M192.635 134.15H190.985V135.804H192.635V134.15Z" fill="white"/>
<path d="M190.015 73.1504H188.365V74.8044H190.015V73.1504Z" fill="white"/>
<path d="M190.015 75.9219H188.365V77.5759H190.015V75.9219Z" fill="white"/>
<path d="M190.015 78.6973H188.365V80.3513H190.015V78.6973Z" fill="white"/>
<path d="M190.015 81.4688H188.365V83.1228H190.015V81.4688Z" fill="white"/>
<path d="M190.015 84.2402H188.365V85.8942H190.015V84.2402Z" fill="white"/>
<path d="M190.015 87.0137H188.365V88.6677H190.015V87.0137Z" fill="white"/>
<path d="M190.015 89.7871H188.365V91.4411H190.015V89.7871Z" fill="white"/>
<path d="M190.015 92.5586H188.365V94.2126H190.015V92.5586Z" fill="white"/>
<path d="M190.015 95.332H188.365V96.986H190.015V95.332Z" fill="white"/>
<path d="M190.015 98.1055H188.365V99.7595H190.015V98.1055Z" fill="white"/>
<path d="M190.015 100.877H188.365V102.531H190.015V100.877Z" fill="white"/>
<path d="M190.015 103.65H188.365V105.304H190.015V103.65Z" fill="white"/>
<path d="M190.015 106.424H188.365V108.078H190.015V106.424Z" fill="white"/>
<path d="M190.015 109.195H188.365V110.849H190.015V109.195Z" fill="white"/>
<path d="M190.015 111.969H188.365V113.623H190.015V111.969Z" fill="white"/>
<path d="M190.015 114.742H188.365V116.396H190.015V114.742Z" fill="white"/>
<path d="M190.015 120.287H188.365V121.941H190.015V120.287Z" fill="white"/>
<path d="M190.015 123.059H188.365V124.713H190.015V123.059Z" fill="white"/>
<path d="M190.015 125.832H188.365V127.486H190.015V125.832Z" fill="white"/>
<path d="M190.015 128.604H188.365V130.258H190.015V128.604Z" fill="white"/>
<path d="M190.015 134.15H188.365V135.804H190.015V134.15Z" fill="white"/>
<path d="M204.769 108.078H203.118V109.732H204.769V108.078Z" fill="white"/>
<path d="M204.769 110.85H203.118V112.504H204.769V110.85Z" fill="white"/>
<path d="M204.769 113.623H203.118V115.277H204.769V113.623Z" fill="white"/>
<path d="M204.769 116.395H203.118V118.049H204.769V116.395Z" fill="white"/>
<path d="M204.769 119.168H203.118V120.822H204.769V119.168Z" fill="white"/>
<path d="M204.769 121.939H203.118V123.593H204.769V121.939Z" fill="white"/>
<path d="M204.769 124.713H203.118V126.367H204.769V124.713Z" fill="white"/>
<path d="M204.769 130.258H203.118V131.912H204.769V130.258Z" fill="white"/>
<path d="M204.769 133.031H203.118V134.685H204.769V133.031Z" fill="white"/>
<path d="M204.769 135.805H203.118V137.459H204.769V135.805Z" fill="white"/>
<path d="M204.769 138.576H203.118V140.23H204.769V138.576Z" fill="white"/>
<path d="M204.769 141.35H203.118V143.004H204.769V141.35Z" fill="white"/>
<path d="M204.769 144.123H203.118V145.777H204.769V144.123Z" fill="white"/>
<path d="M204.769 146.895H203.118V148.549H204.769V146.895Z" fill="white"/>
<path d="M204.769 149.668H203.118V151.322H204.769V149.668Z" fill="white"/>
<path d="M202.148 108.078H200.498V109.732H202.148V108.078Z" fill="white"/>
<path d="M202.148 110.85H200.498V112.504H202.148V110.85Z" fill="white"/>
<path d="M202.148 113.623H200.498V115.277H202.148V113.623Z" fill="white"/>
<path d="M202.148 116.395H200.498V118.049H202.148V116.395Z" fill="white"/>
<path d="M202.148 119.168H200.498V120.822H202.148V119.168Z" fill="white"/>
<path d="M202.148 121.939H200.498V123.593H202.148V121.939Z" fill="white"/>
<path d="M202.148 130.258H200.498V131.912H202.148V130.258Z" fill="white"/>
<path d="M202.148 133.031H200.498V134.685H202.148V133.031Z" fill="white"/>
<path d="M202.148 135.805H200.498V137.459H202.148V135.805Z" fill="white"/>
<path d="M202.148 138.576H200.498V140.23H202.148V138.576Z" fill="white"/>
<path d="M202.148 141.35H200.498V143.004H202.148V141.35Z" fill="white"/>
<path d="M202.148 144.123H200.498V145.777H202.148V144.123Z" fill="white"/>
<path d="M202.148 146.895H200.498V148.549H202.148V146.895Z" fill="white"/>
<path d="M202.148 149.668H200.498V151.322H202.148V149.668Z" fill="white"/>
<path d="M199.527 108.078H197.877V109.732H199.527V108.078Z" fill="white"/>
<path d="M199.527 110.85H197.877V112.504H199.527V110.85Z" fill="white"/>
<path d="M199.527 113.623H197.877V115.277H199.527V113.623Z" fill="white"/>
<path d="M199.527 116.395H197.877V118.049H199.527V116.395Z" fill="white"/>
<path d="M199.527 119.168H197.877V120.822H199.527V119.168Z" fill="white"/>
<path d="M199.527 121.939H197.877V123.593H199.527V121.939Z" fill="white"/>
<path d="M199.527 127.486H197.877V129.14H199.527V127.486Z" fill="white"/>
<path d="M199.527 130.258H197.877V131.912H199.527V130.258Z" fill="white"/>
<path d="M199.527 133.031H197.877V134.685H199.527V133.031Z" fill="white"/>
<path d="M199.527 135.805H197.877V137.459H199.527V135.805Z" fill="white"/>
<path d="M199.527 138.576H197.877V140.23H199.527V138.576Z" fill="white"/>
<path d="M199.527 141.35H197.877V143.004H199.527V141.35Z" fill="white"/>
<path d="M199.527 144.123H197.877V145.777H199.527V144.123Z" fill="white"/>
<path d="M199.527 146.895H197.877V148.549H199.527V146.895Z" fill="white"/>
<path d="M199.527 149.668H197.877V151.322H199.527V149.668Z" fill="white"/>
<path d="M144.299 92.5586H142.649V94.2126H144.299V92.5586Z" fill="white"/>
<path d="M144.299 95.332H142.649V96.986H144.299V95.332Z" fill="white"/>
<path d="M144.299 98.1055H142.649V99.7595H144.299V98.1055Z" fill="white"/>
<path d="M144.299 100.877H142.649V102.531H144.299V100.877Z" fill="white"/>
<path d="M144.299 103.65H142.649V105.304H144.299V103.65Z" fill="white"/>
<path d="M144.299 106.424H142.649V108.078H144.299V106.424Z" fill="white"/>
<path d="M144.299 109.195H142.649V110.849H144.299V109.195Z" fill="white"/>
<path d="M144.299 111.969H142.649V113.623H144.299V111.969Z" fill="white"/>
<path d="M144.299 114.742H142.649V116.396H144.299V114.742Z" fill="white"/>
<path d="M144.299 117.514H142.649V119.168H144.299V117.514Z" fill="white"/>
<path d="M144.299 120.287H142.649V121.941H144.299V120.287Z" fill="white"/>
<path d="M144.299 123.059H142.649V124.713H144.299V123.059Z" fill="white"/>
<path d="M144.299 125.832H142.649V127.486H144.299V125.832Z" fill="white"/>
<path d="M144.299 131.377H142.649V133.031H144.299V131.377Z" fill="white"/>
<path d="M144.299 134.15H142.649V135.804H144.299V134.15Z" fill="white"/>
<path d="M144.299 136.922H142.649V138.576H144.299V136.922Z" fill="white"/>
<path d="M144.299 139.695H142.649V141.349H144.299V139.695Z" fill="white"/>
<path d="M144.299 145.242H142.649V146.896H144.299V145.242Z" fill="white"/>
<path d="M144.299 148.014H142.649V149.668H144.299V148.014Z" fill="white"/>
<path d="M144.299 150.787H142.649V152.441H144.299V150.787Z" fill="white"/>
<path d="M141.678 92.5586H140.028V94.2126H141.678V92.5586Z" fill="white"/>
<path d="M141.678 95.332H140.028V96.986H141.678V95.332Z" fill="white"/>
<path d="M141.678 98.1055H140.028V99.7595H141.678V98.1055Z" fill="white"/>
<path d="M141.678 100.877H140.028V102.531H141.678V100.877Z" fill="white"/>
<path d="M141.678 103.65H140.028V105.304H141.678V103.65Z" fill="white"/>
<path d="M141.678 106.424H140.028V108.078H141.678V106.424Z" fill="white"/>
<path d="M141.678 109.195H140.028V110.849H141.678V109.195Z" fill="white"/>
<path d="M141.678 111.969H140.028V113.623H141.678V111.969Z" fill="white"/>
<path d="M141.678 114.742H140.028V116.396H141.678V114.742Z" fill="white"/>
<path d="M141.678 117.514H140.028V119.168H141.678V117.514Z" fill="white"/>
<path d="M141.678 120.287H140.028V121.941H141.678V120.287Z" fill="white"/>
<path d="M141.678 123.059H140.028V124.713H141.678V123.059Z" fill="white"/>
<path d="M141.678 125.832H140.028V127.486H141.678V125.832Z" fill="white"/>
<path d="M141.678 134.15H140.028V135.804H141.678V134.15Z" fill="white"/>
<path d="M141.678 136.922H140.028V138.576H141.678V136.922Z" fill="white"/>
<path d="M141.678 142.469H140.028V144.123H141.678V142.469Z" fill="white"/>
<path d="M141.678 145.242H140.028V146.896H141.678V145.242Z" fill="white"/>
<path d="M141.678 148.014H140.028V149.668H141.678V148.014Z" fill="white"/>
<path d="M141.678 150.787H140.028V152.441H141.678V150.787Z" fill="white"/>
<path d="M139.058 92.5586H137.408V94.2126H139.058V92.5586Z" fill="white"/>
<path d="M139.058 95.332H137.408V96.986H139.058V95.332Z" fill="white"/>
<path d="M139.058 98.1055H137.408V99.7595H139.058V98.1055Z" fill="white"/>
<path d="M139.058 100.877H137.408V102.531H139.058V100.877Z" fill="white"/>
<path d="M139.058 103.65H137.408V105.304H139.058V103.65Z" fill="white"/>
<path d="M139.058 106.424H137.408V108.078H139.058V106.424Z" fill="white"/>
<path d="M139.058 109.195H137.408V110.849H139.058V109.195Z" fill="white"/>
<path d="M139.058 111.969H137.408V113.623H139.058V111.969Z" fill="white"/>
<path d="M139.058 114.742H137.408V116.396H139.058V114.742Z" fill="white"/>
<path d="M139.058 117.514H137.408V119.168H139.058V117.514Z" fill="white"/>
<path d="M139.058 120.287H137.408V121.941H139.058V120.287Z" fill="white"/>
<path d="M139.058 123.059H137.408V124.713H139.058V123.059Z" fill="white"/>
<path d="M139.058 125.832H137.408V127.486H139.058V125.832Z" fill="white"/>
<path d="M139.058 128.604H137.408V130.258H139.058V128.604Z" fill="white"/>
<path d="M139.058 134.15H137.408V135.804H139.058V134.15Z" fill="white"/>
<path d="M139.058 139.695H137.408V141.349H139.058V139.695Z" fill="white"/>
<path d="M139.058 142.469H137.408V144.123H139.058V142.469Z" fill="white"/>
<path d="M139.058 145.242H137.408V146.896H139.058V145.242Z" fill="white"/>
<path d="M139.058 148.014H137.408V149.668H139.058V148.014Z" fill="white"/>
<path d="M139.058 150.787H137.408V152.441H139.058V150.787Z" fill="white"/>
<path d="M154.976 108.369H153.325V110.023H154.976V108.369Z" fill="white"/>
<path d="M154.976 111.141H153.325V112.795H154.976V111.141Z" fill="white"/>
<path d="M154.976 113.916H153.325V115.57H154.976V113.916Z" fill="white"/>
<path d="M154.976 116.688H153.325V118.341H154.976V116.688Z" fill="white"/>
<path d="M154.976 119.459H153.325V121.113H154.976V119.459Z" fill="white"/>
<path d="M154.976 122.232H153.325V123.886H154.976V122.232Z" fill="white"/>
<path d="M154.976 130.549H153.325V132.203H154.976V130.549Z" fill="white"/>
<path d="M154.976 133.324H153.325V134.978H154.976V133.324Z" fill="white"/>
<path d="M154.976 136.096H153.325V137.75H154.976V136.096Z" fill="white"/>
<path d="M154.976 138.867H153.325V140.521H154.976V138.867Z" fill="white"/>
<path d="M154.976 141.643H153.325V143.297H154.976V141.643Z" fill="white"/>
<path d="M154.976 144.414H153.325V146.068H154.976V144.414Z" fill="white"/>
<path d="M154.976 147.188H153.325V148.841H154.976V147.188Z" fill="white"/>
<path d="M152.355 108.369H150.705V110.023H152.355V108.369Z" fill="white"/>
<path d="M152.355 111.141H150.705V112.795H152.355V111.141Z" fill="white"/>
<path d="M152.355 113.916H150.705V115.57H152.355V113.916Z" fill="white"/>
<path d="M152.355 116.688H150.705V118.341H152.355V116.688Z" fill="white"/>
<path d="M152.355 119.459H150.705V121.113H152.355V119.459Z" fill="white"/>
<path d="M152.355 122.232H150.705V123.886H152.355V122.232Z" fill="white"/>
<path d="M152.355 130.549H150.705V132.203H152.355V130.549Z" fill="white"/>
<path d="M152.355 133.324H150.705V134.978H152.355V133.324Z" fill="white"/>
<path d="M152.355 136.096H150.705V137.75H152.355V136.096Z" fill="white"/>
<path d="M152.355 138.867H150.705V140.521H152.355V138.867Z" fill="white"/>
<path d="M152.355 141.643H150.705V143.297H152.355V141.643Z" fill="white"/>
<path d="M152.355 144.414H150.705V146.068H152.355V144.414Z" fill="white"/>
<path d="M152.355 149.961H150.705V151.615H152.355V149.961Z" fill="white"/>
<path d="M65.2908 96.1582H63.6406V97.8122H65.2908V96.1582Z" fill="white"/>
<path d="M65.2908 98.9316H63.6406V100.586H65.2908V98.9316Z" fill="white"/>
<path d="M65.2908 101.705H63.6406V103.359H65.2908V101.705Z" fill="white"/>
<path d="M65.2908 104.477H63.6406V106.131H65.2908V104.477Z" fill="white"/>
<path d="M65.2908 107.25H63.6406V108.904H65.2908V107.25Z" fill="white"/>
<path d="M65.2908 110.023H63.6406V111.677H65.2908V110.023Z" fill="white"/>
<path d="M65.2908 112.795H63.6406V114.449H65.2908V112.795Z" fill="white"/>
<path d="M65.2908 115.568H63.6406V117.222H65.2908V115.568Z" fill="white"/>
<path d="M65.2908 118.342H63.6406V119.996H65.2908V118.342Z" fill="white"/>
<path d="M65.2908 121.113H63.6406V122.767H65.2908V121.113Z" fill="white"/>
<path d="M65.2908 123.885H63.6406V125.539H65.2908V123.885Z" fill="white"/>
<path d="M65.2908 129.432H63.6406V131.086H65.2908V129.432Z" fill="white"/>
<path d="M65.2908 132.203H63.6406V133.857H65.2908V132.203Z" fill="white"/>
<path d="M65.2908 134.979H63.6406V136.633H65.2908V134.979Z" fill="white"/>
<path d="M65.2908 137.75H63.6406V139.404H65.2908V137.75Z" fill="white"/>
<path d="M65.2908 140.521H63.6406V142.175H65.2908V140.521Z" fill="white"/>
<path d="M65.2908 143.297H63.6406V144.951H65.2908V143.297Z" fill="white"/>
<path d="M65.2908 146.068H63.6406V147.722H65.2908V146.068Z" fill="white"/>
<path d="M65.2908 148.84H63.6406V150.494H65.2908V148.84Z" fill="white"/>
<path d="M62.6704 96.1582H61.0203V97.8122H62.6704V96.1582Z" fill="white"/>
<path d="M62.6704 98.9316H61.0203V100.586H62.6704V98.9316Z" fill="white"/>
<path d="M62.6704 101.705H61.0203V103.359H62.6704V101.705Z" fill="white"/>
<path d="M62.6704 104.477H61.0203V106.131H62.6704V104.477Z" fill="white"/>
<path d="M62.6704 107.25H61.0203V108.904H62.6704V107.25Z" fill="white"/>
<path d="M62.6704 110.023H61.0203V111.677H62.6704V110.023Z" fill="white"/>
<path d="M62.6704 112.795H61.0203V114.449H62.6704V112.795Z" fill="white"/>
<path d="M62.6704 115.568H61.0203V117.222H62.6704V115.568Z" fill="white"/>
<path d="M62.6704 118.342H61.0203V119.996H62.6704V118.342Z" fill="white"/>
<path d="M62.6704 121.113H61.0203V122.767H62.6704V121.113Z" fill="white"/>
<path d="M62.6704 123.885H61.0203V125.539H62.6704V123.885Z" fill="white"/>
<path d="M62.6704 126.66H61.0203V128.314H62.6704V126.66Z" fill="white"/>
<path d="M62.6704 129.432H61.0203V131.086H62.6704V129.432Z" fill="white"/>
<path d="M62.6704 132.203H61.0203V133.857H62.6704V132.203Z" fill="white"/>
<path d="M62.6704 134.979H61.0203V136.633H62.6704V134.979Z" fill="white"/>
<path d="M62.6704 137.75H61.0203V139.404H62.6704V137.75Z" fill="white"/>
<path d="M62.6704 140.521H61.0203V142.175H62.6704V140.521Z" fill="white"/>
<path d="M62.6704 143.297H61.0203V144.951H62.6704V143.297Z" fill="white"/>
<path d="M62.6704 146.068H61.0203V147.722H62.6704V146.068Z" fill="white"/>
<path d="M62.6704 148.84H61.0203V150.494H62.6704V148.84Z" fill="white"/>
<path d="M78.2001 106.957H76.5499V108.611H78.2001V106.957Z" fill="white"/>
<path d="M78.2001 109.732H76.5499V111.386H78.2001V109.732Z" fill="white"/>
<path d="M78.2001 112.504H76.5499V114.158H78.2001V112.504Z" fill="white"/>
<path d="M78.2001 115.275H76.5499V116.929H78.2001V115.275Z" fill="white"/>
<path d="M78.2001 118.049H76.5499V119.703H78.2001V118.049Z" fill="white"/>
<path d="M78.2001 120.822H76.5499V122.476H78.2001V120.822Z" fill="white"/>
<path d="M78.2001 123.594H76.5499V125.248H78.2001V123.594Z" fill="white"/>
<path d="M78.2001 126.367H76.5499V128.021H78.2001V126.367Z" fill="white"/>
<path d="M78.2001 129.141H76.5499V130.795H78.2001V129.141Z" fill="white"/>
<path d="M78.2001 131.912H76.5499V133.566H78.2001V131.912Z" fill="white"/>
<path d="M75.5792 106.957H73.9291V108.611H75.5792V106.957Z" fill="white"/>
<path d="M75.5792 109.732H73.9291V111.386H75.5792V109.732Z" fill="white"/>
<path d="M75.5792 112.504H73.9291V114.158H75.5792V112.504Z" fill="white"/>
<path d="M75.5792 115.275H73.9291V116.929H75.5792V115.275Z" fill="white"/>
<path d="M75.5792 118.049H73.9291V119.703H75.5792V118.049Z" fill="white"/>
<path d="M75.5792 120.822H73.9291V122.476H75.5792V120.822Z" fill="white"/>
<path d="M75.5792 123.594H73.9291V125.248H75.5792V123.594Z" fill="white"/>
<path d="M75.5792 126.367H73.9291V128.021H75.5792V126.367Z" fill="white"/>
<path d="M75.5792 129.141H73.9291V130.795H75.5792V129.141Z" fill="white"/>
<path opacity="0.1" d="M103.074 26.1334C103.074 23.5344 100.972 21.428 98.3798 21.428C97.9107 21.428 97.4592 21.4988 97.0317 21.6273C97.1001 21.1554 97.1372 20.6732 97.1372 20.1824C97.1372 14.6788 92.686 10.2173 87.1952 10.2173C86.5694 10.2173 85.9578 10.2779 85.3638 10.3887C83.8356 7.88226 81.0888 6.20312 77.9436 6.20312C73.1829 6.20312 69.3217 10.0368 69.2511 14.7914C69.2026 14.7908 69.1553 14.7839 69.1063 14.7839C64.6831 14.7839 61.0978 18.3782 61.0978 22.8111C61.0978 27.2441 64.6836 30.8389 69.1063 30.8389H98.5171L98.5114 30.8321C101.043 30.7618 103.074 28.6878 103.074 26.1334Z" fill="#40AF2D"/>
<path opacity="0.1" d="M233.782 14.1544C233.782 12.4952 232.439 11.1497 230.784 11.1497C230.485 11.1497 230.196 11.1954 229.923 11.2771C229.967 10.9761 229.99 10.6681 229.99 10.3544C229.99 6.84076 227.148 3.99211 223.643 3.99211C223.243 3.99211 222.853 4.03096 222.474 4.1018C221.499 2.50151 219.745 1.42969 217.737 1.42969C214.697 1.42969 212.232 3.87784 212.187 6.91332C212.156 6.91275 212.126 6.90875 212.094 6.90875C209.27 6.90875 206.981 9.20322 206.981 12.0342C206.981 14.8645 209.27 17.1596 212.094 17.1596H230.873L230.869 17.1556C232.484 17.1093 233.782 15.7855 233.782 14.1544Z" fill="#40AF2D"/>
<path opacity="0.1" d="M152.508 7.79467C152.508 6.77827 151.686 5.95441 150.672 5.95441C150.488 5.95441 150.311 5.98183 150.144 6.03211C150.171 5.84757 150.185 5.65903 150.185 5.46706C150.185 3.31429 148.445 1.56945 146.297 1.56945C146.052 1.56945 145.813 1.59344 145.58 1.63686C144.982 0.656458 143.909 0 142.678 0C140.817 0 139.306 1.49974 139.278 3.35942C139.26 3.35942 139.241 3.35657 139.222 3.35657C137.492 3.35657 136.09 4.76204 136.09 6.49603C136.09 8.23002 137.492 9.63549 139.222 9.63549H150.725L150.723 9.63321C151.714 9.60464 152.508 8.79392 152.508 7.79467Z" fill="#40AF2D"/>
<path opacity="0.15" d="M142.5 191.999C203.537 191.999 253.017 189.103 253.017 185.53C253.017 181.957 203.537 179.061 142.5 179.061C81.4634 179.061 31.9834 181.957 31.9834 185.53C31.9834 189.103 81.4634 191.999 142.5 191.999Z" fill="#001E00"/>
<path d="M243.564 169.216C243.564 169.216 245.086 164.106 242.007 163.088C238.929 162.07 237.102 159.681 237.205 156.978C237.309 154.275 234.068 151.644 231.638 154.178C229.207 156.711 229.531 152.23 226.291 151.141C223.051 150.052 220.304 152.694 221.191 155.108C222.078 157.523 218.88 159.031 215.051 156.978C211.222 154.924 207.01 158.66 207.82 161.583C208.63 164.507 207.967 164.831 205.544 163.857C203.121 162.882 198.787 165.644 200.306 169.216C201.824 172.789 243.564 169.216 243.564 169.216Z" fill="#6F796F"/>
<path opacity="0.3" d="M243.564 169.216C243.564 169.216 245.086 164.106 242.007 163.088C238.929 162.07 237.102 159.681 237.205 156.978C237.309 154.275 234.068 151.644 231.638 154.178C229.207 156.711 229.531 152.23 226.291 151.141C223.051 150.052 220.304 152.694 221.191 155.108C222.078 157.523 218.88 159.031 215.051 156.978C211.222 154.924 207.01 158.66 207.82 161.583C208.63 164.507 207.967 164.831 205.544 163.857C203.121 162.882 198.787 165.644 200.306 169.216C201.824 172.789 243.564 169.216 243.564 169.216Z" fill="white"/>
<path d="M96.3681 170.168C99.1013 168.31 96.6417 165.151 93.908 164.779C91.1748 164.407 88.4274 161.138 88.2975 159.057C88.1675 156.976 83.2478 150.573 75.5945 154.527C67.9411 158.48 70.2672 155.109 64.7308 153.998C59.1944 152.888 55.702 156.084 58.1314 158.48C58.1314 158.48 52.5699 157.533 50.2785 161.063C47.9871 164.594 50.2785 166.786 50.2785 166.786C50.2785 166.786 39.8184 166.576 40.7595 170.973C41.7011 175.37 96.3681 170.168 96.3681 170.168Z" fill="#6F796F"/>
<path opacity="0.3" d="M96.3681 170.168C99.1013 168.31 96.6417 165.151 93.908 164.779C91.1748 164.407 88.4274 161.138 88.2975 159.057C88.1675 156.976 83.2478 150.573 75.5945 154.527C67.9411 158.48 70.2672 155.109 64.7308 153.998C59.1944 152.888 55.702 156.084 58.1314 158.48C58.1314 158.48 52.5699 157.533 50.2785 161.063C47.9871 164.594 50.2785 166.786 50.2785 166.786C50.2785 166.786 39.8184 166.576 40.7595 170.973C41.7011 175.37 96.3681 170.168 96.3681 170.168Z" fill="white"/>
<path d="M247.786 168.354V175.861H36.77V168.354C36.77 167.05 37.6775 165.998 38.9788 165.998H245.578C246.879 165.998 247.786 167.05 247.786 168.354Z" fill="#6F796F"/>
<path d="M61.9173 165.998H48.797V175.861H61.9173V165.998Z" fill="#5E6D55"/>
<path d="M86.518 165.998H73.9443V175.861H86.518V165.998Z" fill="#5E6D55"/>
<path d="M111.665 165.998H98.5443V175.861H111.665V165.998Z" fill="#5E6D55"/>
<path d="M136.265 165.998H123.692V175.861H136.265V165.998Z" fill="#5E6D55"/>
<path d="M160.865 165.998H148.292V175.861H160.865V165.998Z" fill="#5E6D55"/>
<path d="M186.012 165.998H172.892V175.861H186.012V165.998Z" fill="#5E6D55"/>
<path d="M210.613 165.998H198.039V175.861H210.613V165.998Z" fill="#5E6D55"/>
<path d="M235.759 165.998H222.639V175.861H235.759V165.998Z" fill="#5E6D55"/>
<g opacity="0.6">
<path d="M61.9173 165.998H48.797V175.861H61.9173V165.998Z" fill="white"/>
<path d="M86.518 165.998H73.9443V175.861H86.518V165.998Z" fill="white"/>
<path d="M111.665 165.998H98.5443V175.861H111.665V165.998Z" fill="white"/>
<path d="M136.265 165.998H123.692V175.861H136.265V165.998Z" fill="white"/>
<path d="M160.865 165.998H148.292V175.861H160.865V165.998Z" fill="white"/>
<path d="M186.012 165.998H172.892V175.861H186.012V165.998Z" fill="white"/>
<path d="M210.613 165.998H198.039V175.861H210.613V165.998Z" fill="white"/>
<path d="M235.759 165.998H222.639V175.861H235.759V165.998Z" fill="white"/>
</g>
<path opacity="0.2" d="M247.786 168.354V175.861H36.77V168.354C36.77 167.05 37.6775 165.998 38.9788 165.998H245.578C246.879 165.998 247.786 167.05 247.786 168.354Z" fill="white"/>
<path d="M93.5165 156.029C93.1585 156.029 85.0862 156.029 84.7282 156.029C82.4214 156.029 80.5513 162.674 80.5513 170.871C80.5513 179.067 82.4214 185.712 84.7282 185.712C85.0862 185.712 93.1585 185.712 93.5165 185.712C95.8233 185.712 97.6935 179.067 97.6935 170.871C97.694 162.674 95.8239 156.029 93.5165 156.029Z" fill="#263238"/>
<path opacity="0.2" d="M94.1702 157.08C92.243 157.08 90.6807 163.254 90.6807 170.87C90.6807 178.486 92.243 184.659 94.1702 184.659C96.0974 184.659 97.6597 178.486 97.6597 170.87C97.6603 163.254 96.0979 157.08 94.1702 157.08Z" fill="white"/>
<path opacity="0.6" d="M94.4723 163.418C93.4309 163.418 92.5862 166.755 92.5862 170.87C92.5862 174.986 93.4303 178.323 94.4723 178.323C95.5137 178.323 96.3584 174.986 96.3584 170.87C96.3584 166.755 95.5143 163.418 94.4723 163.418Z" fill="white"/>
<path opacity="0.6" d="M94.1702 164.441C93.2719 164.441 92.5435 167.32 92.5435 170.87C92.5435 174.421 93.2719 177.299 94.1702 177.299C95.0686 177.299 95.797 174.42 95.797 170.87C95.7976 167.32 95.0691 164.441 94.1702 164.441Z" fill="white"/>
<path d="M93.4003 167.656C92.9511 167.656 92.5869 169.095 92.5869 170.871C92.5869 172.646 92.9511 174.085 93.4003 174.085C93.8495 174.085 94.2137 172.646 94.2137 170.871C94.2137 169.095 93.8495 167.656 93.4003 167.656Z" fill="#263238"/>
<path opacity="0.2" d="M93.7992 169.264C93.5746 169.264 93.3922 169.983 93.3922 170.871C93.3922 171.759 93.574 172.478 93.7992 172.478C94.0243 172.478 94.2062 171.759 94.2062 170.871C94.2056 169.983 94.0238 169.264 93.7992 169.264Z" fill="white"/>
<path d="M119.421 156.029C119.062 156.029 110.99 156.029 110.632 156.029C108.325 156.029 106.455 162.674 106.455 170.871C106.455 179.067 108.325 185.712 110.632 185.712C110.99 185.712 119.062 185.712 119.421 185.712C121.728 185.712 123.598 179.067 123.598 170.871C123.598 162.674 121.728 156.029 119.421 156.029Z" fill="#263238"/>
<path opacity="0.2" d="M120.074 157.08C118.147 157.08 116.585 163.254 116.585 170.87C116.585 178.486 118.147 184.659 120.074 184.659C122.002 184.659 123.564 178.486 123.564 170.87C123.564 163.254 122.002 157.08 120.074 157.08Z" fill="white"/>
<path opacity="0.6" d="M120.377 163.418C119.335 163.418 118.49 166.755 118.49 170.87C118.49 174.986 119.335 178.323 120.377 178.323C121.418 178.323 122.263 174.986 122.263 170.87C122.263 166.755 121.418 163.418 120.377 163.418Z" fill="white"/>
<path opacity="0.6" d="M120.075 164.441C119.176 164.441 118.448 167.32 118.448 170.87C118.448 174.421 119.176 177.299 120.075 177.299C120.973 177.299 121.701 174.42 121.701 170.87C121.701 167.32 120.973 164.441 120.075 164.441Z" fill="white"/>
<path d="M119.304 167.656C118.855 167.656 118.49 169.095 118.49 170.871C118.49 172.646 118.855 174.085 119.304 174.085C119.753 174.085 120.117 172.646 120.117 170.871C120.117 169.095 119.754 167.656 119.304 167.656Z" fill="#263238"/>
<path opacity="0.2" d="M119.703 169.264C119.478 169.264 119.296 169.983 119.296 170.871C119.296 171.759 119.478 172.478 119.703 172.478C119.927 172.478 120.11 171.759 120.11 170.871C120.11 169.983 119.927 169.264 119.703 169.264Z" fill="white"/>
<path d="M192.208 175.393L190.292 179.061H93.3923L89.1224 173.656L157.375 142.195C157.375 142.195 193.025 145.512 193.025 146.182C193.025 146.852 192.208 175.393 192.208 175.393Z" fill="#263238"/>
<path d="M160.211 156.029C159.853 156.029 151.781 156.029 151.423 156.029C149.116 156.029 147.246 162.674 147.246 170.871C147.246 179.067 149.116 185.712 151.423 185.712C151.781 185.712 159.853 185.712 160.211 185.712C162.518 185.712 164.388 179.067 164.388 170.871C164.388 162.674 162.518 156.029 160.211 156.029Z" fill="#263238"/>
<path opacity="0.2" d="M160.865 157.08C158.938 157.08 157.375 163.254 157.375 170.87C157.375 178.486 158.938 184.659 160.865 184.659C162.792 184.659 164.354 178.486 164.354 170.87C164.354 163.254 162.792 157.08 160.865 157.08Z" fill="white"/>
<path opacity="0.6" d="M161.167 163.418C160.125 163.418 159.281 166.755 159.281 170.87C159.281 174.986 160.125 178.323 161.167 178.323C162.208 178.323 163.053 174.986 163.053 170.87C163.053 166.755 162.208 163.418 161.167 163.418Z" fill="white"/>
<path opacity="0.6" d="M160.865 164.441C159.966 164.441 159.238 167.32 159.238 170.87C159.238 174.421 159.966 177.299 160.865 177.299C161.763 177.299 162.492 174.42 162.492 170.87C162.492 167.32 161.763 164.441 160.865 164.441Z" fill="white"/>
<path d="M160.094 167.656C159.645 167.656 159.281 169.095 159.281 170.871C159.281 172.646 159.645 174.085 160.094 174.085C160.543 174.085 160.908 172.646 160.908 170.871C160.908 169.095 160.543 167.656 160.094 167.656Z" fill="#263238"/>
<path opacity="0.2" d="M160.493 169.264C160.269 169.264 160.086 169.983 160.086 170.871C160.086 171.759 160.269 172.478 160.493 172.478C160.718 172.478 160.9 171.759 160.9 170.871C160.9 169.983 160.718 169.264 160.493 169.264Z" fill="white"/>
<path d="M186.115 156.029C185.756 156.029 177.684 156.029 177.326 156.029C175.019 156.029 173.149 162.674 173.149 170.871C173.149 179.067 175.019 185.712 177.326 185.712C177.684 185.712 185.756 185.712 186.115 185.712C188.422 185.712 190.292 179.067 190.292 170.871C190.292 162.674 188.422 156.029 186.115 156.029Z" fill="#263238"/>
<path opacity="0.2" d="M186.769 157.08C184.841 157.08 183.279 163.254 183.279 170.87C183.279 178.486 184.841 184.659 186.769 184.659C188.696 184.659 190.258 178.486 190.258 170.87C190.259 163.254 188.696 157.08 186.769 157.08Z" fill="white"/>
<path opacity="0.6" d="M187.071 163.418C186.029 163.418 185.185 166.755 185.185 170.87C185.185 174.986 186.029 178.323 187.071 178.323C188.113 178.323 188.957 174.986 188.957 170.87C188.957 166.755 188.113 163.418 187.071 163.418Z" fill="white"/>
<path opacity="0.6" d="M186.769 164.441C185.87 164.441 185.142 167.32 185.142 170.87C185.142 174.421 185.87 177.299 186.769 177.299C187.667 177.299 188.395 174.42 188.395 170.87C188.396 167.32 187.667 164.441 186.769 164.441Z" fill="white"/>
<path d="M185.998 167.656C185.549 167.656 185.185 169.095 185.185 170.871C185.185 172.646 185.549 174.085 185.998 174.085C186.448 174.085 186.812 172.646 186.812 170.871C186.812 169.095 186.448 167.656 185.998 167.656Z" fill="#263238"/>
<path opacity="0.2" d="M186.397 169.264C186.173 169.264 185.99 169.983 185.99 170.871C185.99 171.759 186.172 172.478 186.397 172.478C186.623 172.478 186.804 171.759 186.804 170.871C186.804 169.983 186.622 169.264 186.397 169.264Z" fill="white"/>
<path d="M124.211 163.424H90.8381V177.3H124.211V163.424Z" fill="#263238"/>
<path d="M124.211 176.02H90.8381V177.864H124.211V176.02Z" fill="#F4B71E"/>
<path opacity="0.2" d="M124.211 176.02H90.8381V177.864H124.211V176.02Z" fill="black"/>
<path opacity="0.2" d="M124.211 174.084H90.8381V174.938H124.211V174.084Z" fill="black"/>
<path opacity="0.2" d="M124.211 171.795H90.8381V172.649H124.211V171.795Z" fill="black"/>
<path opacity="0.2" d="M124.211 169.504H90.8381V170.357H124.211V169.504Z" fill="black"/>
<path opacity="0.2" d="M124.211 167.213H90.8381V168.066H124.211V167.213Z" fill="black"/>
<path opacity="0.2" d="M124.211 164.924H90.8381V165.777H124.211V164.924Z" fill="black"/>
<path opacity="0.2" d="M124.211 162.633H90.8381V163.486H124.211V162.633Z" fill="black"/>
<path d="M71.946 161.312C71.946 162.701 72.1227 164.906 72.3393 167.106C72.4989 168.711 72.6756 170.305 72.8238 171.579C72.8979 172.213 74.9955 175.219 76.3293 177.081C77.0076 178.03 78.0963 178.59 79.2591 178.59H89.8668C90.8415 178.59 91.6395 177.818 91.6794 176.841L91.9359 170.22C91.9815 169.077 92.922 168.174 94.062 168.168L113.225 168.157C114.098 168.157 114.924 168.551 115.477 169.225L122.043 177.287C122.71 178.11 123.713 178.59 124.774 178.59H153.103C154.442 178.59 155.519 177.504 155.519 176.167V171.442C155.519 171.442 155.525 171.436 155.525 171.431C156.067 164.032 158.056 156.028 160.952 156.028C164.28 156.028 164.942 170.202 164.942 178.212H179.277C180.565 178.212 181.631 177.19 181.677 175.893C182.059 164.409 184.937 154.685 187.542 156.313C190.694 158.29 190.307 173.019 190.694 177.035C190.763 177.744 191.583 178.115 192.153 177.693C192.558 177.39 192.997 177.024 193.396 176.607C194.251 175.699 195.898 164.689 196.833 160.85C197.129 159.633 197.357 158.736 197.466 158.45C197.688 157.844 195.197 132.512 188.391 128.398C188.391 128.398 184.247 111.738 177.966 106.556C177.898 106.493 177.824 106.436 177.749 106.379C177.47 106.162 177.191 105.968 176.906 105.802C176.507 105.562 176.102 105.379 175.686 105.248C160.889 100.597 118.988 100.809 109.406 106.905C109.201 107.036 109.013 107.167 108.842 107.299C107.85 108.064 106.876 108.893 105.929 109.761C99.7677 115.435 94.6548 122.919 92.0499 127.067L92.0043 127.135C91.0923 128.587 90.4938 129.621 90.2772 130.009L90.2031 130.135L90.1803 130.175C73.9695 144.035 74.4426 148.509 72.9435 158.907C72.9435 158.907 71.946 159.861 71.946 161.312Z" fill="#F4B71E"/>
<path d="M126.244 178.59H153.103C154.442 178.59 155.519 177.504 155.519 176.167V171.442C155.519 171.442 155.525 171.436 155.525 171.431C156.067 164.032 158.056 156.028 160.952 156.028C164.28 156.028 164.942 170.202 164.942 178.212H179.277C180.565 178.212 181.631 177.19 181.677 175.893C182.059 164.409 184.937 154.685 187.542 156.313C190.694 158.29 190.307 173.019 190.694 177.035C190.763 177.744 191.583 178.115 192.153 177.693C192.558 177.39 192.997 177.024 193.396 176.607C194.251 175.699 195.898 164.689 196.833 160.85C197.129 159.633 197.357 158.736 197.466 158.45C197.688 157.844 195.197 132.512 188.391 128.398C188.391 128.398 184.247 111.738 177.966 106.556C172.733 106.162 160.655 105.511 155.246 107.373L154.482 133.477C154.482 133.477 147.767 143.018 146.04 147.418C144.319 151.823 144.769 157.199 144.769 157.199L147.243 159.13C147.243 159.13 147.163 169.214 146.04 172.648C144.917 176.081 126.244 178.59 126.244 178.59Z" fill="#E9A90A"/>
<path opacity="0.2" d="M151.055 135.249C151.055 135.249 149.251 140.786 136.172 147.567C123.093 154.348 108.518 158.262 93.3923 154.348C81.6024 151.296 82.9579 138.188 82.9579 138.188C82.9579 138.188 83.195 136.404 90.1781 130.176C90.1781 130.176 135.217 134.989 152.268 132.632L151.055 135.249Z" fill="white"/>
<path opacity="0.2" d="M109.404 106.907C111.855 107.809 116.78 108.055 126.59 108.055C138.879 108.055 154.89 106.095 160.864 105.53C164.78 105.158 172.235 105.518 176.904 105.804C176.505 105.564 176.1 105.381 175.684 105.25C160.887 100.599 118.986 100.81 109.404 106.907Z" fill="white"/>
<path opacity="0.2" d="M146.043 159.131C146.043 159.131 90.3508 162.823 74.9836 159.131C74.9836 159.131 88.4527 166.439 146.043 159.131Z" fill="white"/>
<path opacity="0.2" d="M171.535 106.77C171.535 106.77 175.804 114.68 177.394 129.371C177.394 129.371 179.198 131.958 179.536 133.54C179.874 135.122 181.37 153.857 179.679 159.282L179.015 165.309L169.432 166.439L178.001 164.441C178.001 164.441 179.113 158.951 179.229 158.302C180.581 150.731 178.677 134.457 178.677 134.457L176.525 129.938C176.525 129.938 175.804 120.055 171.535 106.77Z" fill="black"/>
<path d="M173.571 108.367C176.609 114.92 178.405 124.902 179.003 128.667C182.515 127.77 187.821 128.398 187.821 128.398C186.02 119.291 180.007 109.258 180.007 109.258C178 108.841 175.8 108.556 173.571 108.367Z" fill="#263238"/>
<path d="M155.246 132.06L175.31 130.055C174.153 120.582 171.867 111.589 170.949 108.196C166.445 107.96 162.076 108.063 159.201 108.191C157.293 108.276 155.782 109.829 155.735 111.742L155.246 132.06Z" fill="#263238"/>
<path d="M90.178 130.178C90.178 130.178 94.5613 135.851 109.894 135.851C125.227 135.851 152.268 132.634 152.268 132.634L154.48 108.324C154.48 108.324 122.622 110.267 105.927 109.764C99.7654 115.437 94.6525 122.922 92.0476 127.07L92.002 127.138L90.2749 130.012L90.2008 130.138L90.178 130.178Z" fill="#263238"/>
<path opacity="0.2" d="M160.865 148.243C160.865 148.243 160.888 136.942 160.087 134.907C159.285 132.873 158.071 131.775 158.071 131.775H155.817C155.817 131.775 158.853 133.623 159.238 135.847C159.623 138.072 160.865 148.243 160.865 148.243Z" fill="black"/>
<path opacity="0.2" d="M166.614 152.538C166.614 152.538 165.167 148.921 159.238 149.373C153.31 149.825 150.04 158.188 150.04 158.188C150.04 158.188 152.03 160.637 152.839 159.13C153.648 157.623 158.834 147.904 166.614 152.538Z" fill="white"/>
<path opacity="0.2" d="M182.624 156.607C182.624 156.607 184.791 151.725 187.823 151.849C190.854 151.974 192.208 155.823 192.208 155.823C192.208 155.823 191.87 152.2 189.727 150.73C187.585 149.261 185.833 149.241 183.714 150.844C181.721 152.35 180.782 157.08 180.782 157.08C180.782 157.08 181.82 157.549 182.624 156.607Z" fill="white"/>
<path opacity="0.2" d="M177.4 137.133C177.4 137.133 174.168 137.736 174.018 138.639C173.867 139.543 177.776 139.167 177.776 139.167C177.776 139.167 177.851 138.037 177.4 137.133Z" fill="black"/>
<path opacity="0.2" d="M148.239 109.783C148.239 109.783 122.259 123.194 112.661 134.344C112.661 134.344 122.154 123.344 129.369 118.975C129.369 118.975 115.84 124.249 106.068 134.344C106.068 134.344 95.2008 133.089 91.2388 130.176C91.2388 130.176 98.3102 116.919 106.068 110.989C106.068 110.989 126.213 111.406 148.239 109.783Z" fill="white"/>
<path d="M136.064 167.909L126.053 169.862C124.779 170.11 124.11 171.524 124.722 172.67L126.108 175.263C126.497 175.99 127.304 176.39 128.117 176.257L138.537 174.555C139.901 174.332 140.595 172.786 139.856 171.615L138.062 168.772C137.636 168.099 136.843 167.756 136.064 167.909Z" fill="#263238"/>
<path d="M88.1643 170.89L88.6169 172.56C88.9897 173.936 87.7978 175.229 86.3996 174.965L77.8359 173.347C76.9741 173.184 76.3311 172.459 76.2701 171.583L76.1681 170.114C76.0815 168.863 77.1861 167.863 78.4179 168.076L86.631 169.493C87.3703 169.62 87.9677 170.165 88.1643 170.89Z" fill="#263238"/>
<path d="M76.0957 147.903C75.8808 148.258 75.8546 148.694 76.0244 149.074C76.8652 150.955 79.8178 156.573 85.8427 158.614C86.4583 158.831 87.1081 159.003 87.7921 159.128C95.2021 160.505 114.388 160.414 123.594 159.117C125.258 158.883 126.598 158.608 127.481 158.3C130.71 157.164 139.139 152.24 142.551 150.213C143.338 149.745 143.545 148.699 142.999 147.963L141.37 145.765C141.007 145.275 140.391 145.045 139.796 145.178L121.165 149.336L119.7 151.067C119.7 151.067 101.574 153.027 89.1196 151.067V149.336L78.8579 145.342C78.2885 145.12 77.6426 145.341 77.3263 145.864L76.0957 147.903Z" fill="#263238"/>
<path opacity="0.7" d="M119.701 151.067C119.701 151.067 122.163 156.883 123.594 159.117C125.258 158.883 126.598 158.608 127.481 158.3C130.71 157.164 139.139 152.24 142.551 150.213C143.338 149.745 143.545 148.699 142.999 147.963L141.37 145.765C141.007 145.275 140.391 145.045 139.796 145.178L121.165 149.336L119.701 151.067Z" fill="white"/>
<path opacity="0.7" d="M76.0244 149.073C76.8652 150.955 79.8178 156.572 85.8427 158.614L89.1202 151.066V149.335L78.8585 145.342C78.289 145.12 77.6432 145.34 77.3269 145.864L76.0957 147.902C75.8808 148.258 75.8546 148.694 76.0244 149.073Z" fill="white"/>
<path d="M123.057 153.415C123.057 155.181 124.485 156.613 126.246 156.613C128.007 156.613 129.436 155.181 129.436 153.415C129.436 151.65 128.008 150.219 126.246 150.219C124.485 150.219 123.057 151.65 123.057 153.415Z" fill="white"/>
<path d="M82.5282 152.987C82.3509 154.744 83.1899 156.267 84.4023 156.391C85.6147 156.513 86.7416 155.189 86.9189 153.433C87.0961 151.676 86.2571 150.153 85.0447 150.029C83.8317 149.906 82.7054 151.23 82.5282 152.987Z" fill="white"/>
<path d="M78.7137 150.228C78.5564 151.79 79.3019 153.144 80.3798 153.253C81.4577 153.362 82.4592 152.186 82.6165 150.624C82.7738 149.063 82.0283 147.709 80.9504 147.599C79.8725 147.489 78.871 148.667 78.7137 150.228Z" fill="white"/>
<path d="M77.1912 147.171C76.9945 147.857 77.2185 148.524 77.6928 148.661C78.1664 148.797 78.7102 148.352 78.9069 147.665C79.1035 146.979 78.8789 146.311 78.4053 146.175C77.9316 146.039 77.3878 146.484 77.1912 147.171Z" fill="white"/>
<path d="M130.452 151.182C130.452 152.805 131.764 154.12 133.384 154.12C135.003 154.12 136.315 152.805 136.315 151.182C136.315 149.56 135.003 148.244 133.384 148.244C131.764 148.244 130.452 149.56 130.452 151.182Z" fill="white"/>
<path d="M138.048 147.865C138.048 148.677 138.704 149.334 139.514 149.334C140.323 149.334 140.979 148.677 140.979 147.865C140.979 147.054 140.323 146.396 139.514 146.396C138.704 146.396 138.048 147.054 138.048 147.865Z" fill="white"/>
<path opacity="0.2" d="M119.304 153.415L109.609 154.12L107.074 155.741H97.694L96.3585 154.12L89.1224 153.211L88.3574 154.478L95.235 155.741L96.8139 158.615H108.276L111.164 155.913L120.117 154.949L119.304 153.415Z" fill="white"/>
<path opacity="0.2" d="M132.582 174.356C133.757 174.356 134.711 173.4 134.711 172.222C134.711 171.043 133.757 170.088 132.582 170.088C131.406 170.088 130.453 171.043 130.453 172.222C130.453 173.4 131.406 174.356 132.582 174.356Z" fill="white"/>
<path opacity="0.2" d="M80.2954 171.521C80.2954 172.699 81.2485 173.655 82.4244 173.655C83.6003 173.655 84.5533 172.699 84.5533 171.521C84.5533 170.342 83.6003 169.387 82.4244 169.387C81.249 169.386 80.2954 170.342 80.2954 171.521Z" fill="white"/>
<path d="M129.435 134.88L123.598 133.479H104.828L99.9696 134.88C99.9696 134.88 99.5193 141.05 100.872 141.729C102.226 142.407 118.756 142.294 120.075 141.729C121.392 141.163 126.993 138.768 129.435 134.88Z" fill="#F4B71E"/>
<path opacity="0.2" d="M129.435 134.88L123.598 133.479H104.828L99.9696 134.88C99.9696 134.88 99.5193 141.05 100.872 141.729C102.226 142.407 118.756 142.294 120.075 141.729C121.392 141.163 126.993 138.768 129.435 134.88Z" fill="white"/>
<path d="M195.357 108.137L198.363 107.542L196.67 104.273C196.67 104.273 194.013 105.143 194.246 106.632L195.357 108.137Z" fill="#FF8B7B"/>
<path d="M200.156 104.906L199.37 103.861C199.057 103.445 198.489 103.317 198.028 103.559L196.669 104.274L198.363 107.542L199.929 106.41C200.411 106.061 200.514 105.383 200.156 104.906Z" fill="#FF8B7B"/>
<path d="M197.017 107.34C196.469 106.748 195.746 106.311 194.902 106.118L194.249 105.969C193.901 105.889 193.823 105.968 193.78 106.057L193.616 106.314L193.279 106.828C193.051 107.17 192.818 107.508 192.581 107.84C192.122 108.514 191.643 109.166 191.162 109.786C190.684 110.405 190.185 110.991 189.691 111.456C189.678 111.468 189.666 111.477 189.653 111.489C189.487 111.308 189.323 111.123 189.162 110.931C188.65 110.299 188.156 109.622 187.679 108.922C187.207 108.216 186.763 107.478 186.335 106.729C186.119 106.355 185.91 105.977 185.709 105.596C185.512 105.226 185.302 104.81 185.152 104.487L185.134 104.45C185.123 104.426 185.11 104.401 185.098 104.376C184.412 103.028 182.764 102.493 181.419 103.181C180.074 103.87 179.54 105.521 180.227 106.869C180.486 107.378 180.71 107.782 180.962 108.223C181.208 108.656 181.461 109.08 181.723 109.501C182.249 110.342 182.812 111.163 183.411 111.971C184.62 113.581 185.989 115.13 187.8 116.483L187.897 116.555C188.448 116.962 189.174 117.117 189.883 116.913C190.777 116.656 191.359 116.257 191.85 115.882C192.337 115.499 192.723 115.111 193.072 114.723C193.768 113.947 194.322 113.169 194.837 112.384C195.345 111.597 195.787 110.796 196.204 109.99C196.404 109.583 196.596 109.173 196.783 108.761L197.059 108.14L197.193 107.826C197.249 107.724 197.269 107.612 197.017 107.34ZM188.689 112.161L188.707 112.165C188.681 112.172 188.668 112.173 188.689 112.161Z" fill="#636363"/>
<path opacity="0.6" d="M197.017 107.341C196.469 106.747 195.746 106.313 194.902 106.119L194.246 105.97C193.899 105.89 193.825 105.97 193.779 106.056L193.614 106.313L193.277 106.827C193.049 107.17 192.821 107.507 192.582 107.838C192.12 108.513 191.642 109.164 191.163 109.787C190.684 110.404 190.182 110.992 189.692 111.455C189.681 111.466 189.664 111.478 189.652 111.489C189.487 111.312 189.322 111.124 189.162 110.929C188.649 110.301 188.159 109.627 187.68 108.924C187.207 108.216 186.762 107.479 186.335 106.73C186.118 106.359 185.907 105.976 185.708 105.599C185.514 105.227 185.303 104.81 185.155 104.49L185.132 104.45C185.121 104.428 185.109 104.405 185.098 104.376C184.414 103.028 182.767 102.497 181.421 103.182C180.076 103.873 179.54 105.525 180.224 106.873C180.487 107.381 180.709 107.781 180.96 108.227C181.211 108.655 181.461 109.084 181.724 109.501C182.06 110.044 182.413 110.569 182.778 111.095C182.983 111.392 183.194 111.684 183.411 111.975C184.306 113.163 185.286 114.317 186.466 115.391C186.882 115.763 187.327 116.128 187.8 116.483L187.897 116.557C188.45 116.963 189.173 117.117 189.886 116.917C190.775 116.66 191.357 116.26 191.852 115.883C192.337 115.5 192.725 115.112 193.072 114.723C193.768 113.946 194.321 113.169 194.839 112.386C195.347 111.598 195.785 110.798 196.202 109.992C196.407 109.587 196.595 109.175 196.783 108.764L197.057 108.141L197.193 107.827C197.25 107.724 197.267 107.61 197.017 107.341ZM188.689 112.163H188.706C188.683 112.175 188.666 112.175 188.689 112.163Z" fill="#A6FB89"/>
<path opacity="0.2" d="M186.466 115.391C185.286 114.317 184.306 113.163 183.411 111.975C183.194 111.684 182.983 111.392 182.778 111.095C183.034 109.758 183.462 108.427 184.106 107.25C184.106 107.25 187.463 109.461 186.466 115.391Z" fill="black"/>
<path d="M170.015 101.462C173.124 101.078 177.315 101.042 180.668 101.393C183.684 101.709 185.976 104.277 185.967 107.317C185.949 112.778 184.523 114.532 183.615 122.92C184.366 123.901 183.813 125.31 183.182 125.46C177.879 126.723 169.998 125.211 167.387 124.593C166.237 124.321 166.902 122.784 166.902 122.784C166.894 119.952 167.463 120.177 167.311 116.676C166.84 113.217 167.207 110.617 166.532 106.024C166.204 103.796 167.784 101.738 170.015 101.462Z" fill="#636363"/>
<path opacity="0.6" d="M183.616 122.922C184.368 123.899 183.81 125.31 183.183 125.458C179.398 126.361 174.296 125.847 170.74 125.258C169.315 125.024 168.135 124.773 167.388 124.596C166.237 124.321 166.903 122.785 166.903 122.785C166.892 119.951 167.462 120.179 167.308 116.677C167.263 116.329 167.223 115.991 167.188 115.654C166.903 112.672 167.137 110.152 166.533 106.027C166.202 103.794 167.787 101.737 170.016 101.463C173.122 101.08 177.317 101.04 180.669 101.394C183.684 101.708 185.976 104.279 185.964 107.319C185.947 112.781 184.522 114.535 183.616 122.922Z" fill="#A6FB89"/>
<path d="M172.359 101.415C174.103 103.511 178.904 105.565 179.54 107.124C180.51 103.603 180.436 101.826 179.01 101.625C174.873 101.088 172.359 101.415 172.359 101.415Z" fill="white"/>
<path opacity="0.2" d="M167.764 116.209C168.882 113.417 170.415 108.955 170.092 106.148L166.951 110.516C167.035 112.342 167.027 113.92 167.195 115.653L167.189 115.654C167.223 115.991 167.263 116.328 167.308 116.677C167.462 120.179 166.892 119.951 166.904 122.784C166.904 122.784 166.237 124.321 167.388 124.596C168.135 124.773 169.315 125.024 170.74 125.258C169.441 122.59 168.194 117.908 167.764 116.209Z" fill="black"/>
<path d="M174.082 95.1406C174.085 98.0213 173.543 99.6787 172.9 101.236C172.838 101.386 172.872 101.56 172.992 101.669C174.089 102.66 175.766 103.47 178.043 103.501C180.293 103.531 180.164 102.826 179.632 102.033C179.556 101.921 179.453 101.828 179.336 101.759C177.797 100.844 177.742 99.6181 178.172 98.8788L174.082 95.1406Z" fill="#FF8B7B"/>
<path opacity="0.2" d="M174.083 95.1426L178.173 98.8796C177.93 99.2933 177.842 99.8635 178.087 100.446C177.281 100.473 176.455 100.215 175.734 99.6001C174.68 98.702 174.321 97.641 174.059 96.1441C174.076 95.8282 174.083 95.4962 174.083 95.1426Z" fill="black"/>
<path d="M180.389 90.0957C181.042 90.9761 180.158 91.9936 180.139 92.8141C180.121 93.6345 180.195 94.7092 179.219 93.5162C178.243 92.3233 179.36 88.8685 180.389 90.0957Z" fill="#263238"/>
<path d="M172.863 93.212C173.045 95.9647 172.654 96.4058 174.05 97.801C176.15 99.8995 179.568 100.301 180.051 97.509C180.486 94.9963 180.727 90.4457 178.029 89.3864C175.37 88.3426 172.681 90.4599 172.863 93.212Z" fill="#FF8B7B"/>
<path d="M173.15 95.0763C174.333 95.8985 174.841 94.1879 174.764 94.0485C174.429 93.4372 174.48 92.9384 174.995 91.8443C175.509 90.7502 173.345 89.3116 171.682 89.6938C170.152 90.0457 171.599 91.3158 171.344 92.2842C170.888 94.0102 172.196 94.4136 173.15 95.0763Z" fill="#263238"/>
<path d="M171.616 95.0568C171.888 95.7172 172.395 96.1852 172.884 96.396C173.62 96.7131 174.024 95.9915 173.851 95.1659C173.694 94.4232 173.123 93.3628 172.37 93.3994C171.628 93.4354 171.304 94.3021 171.616 95.0568Z" fill="#FF8B7B"/>
<path d="M176.187 93.4792C176.197 93.714 176.304 93.734 176.457 93.7261C176.611 93.7181 176.752 93.6849 176.742 93.4501C176.732 93.2153 176.6 93.0313 176.446 93.0393C176.294 93.0479 176.177 93.2444 176.187 93.4792Z" fill="#263238"/>
<path d="M179.053 93.6486C179.063 93.8834 179.17 93.9034 179.323 93.8954C179.477 93.8874 179.618 93.8543 179.608 93.62C179.598 93.3852 179.466 93.2012 179.312 93.2092C179.159 93.2172 179.043 93.4138 179.053 93.6486Z" fill="#263238"/>
<path d="M178.61 93.5449C178.61 93.5449 179 94.5899 179.442 95.0972C179.117 95.392 178.577 95.2503 178.577 95.2503L178.61 93.5449Z" fill="#FF5652"/>
<path d="M175.75 92.4269C175.728 92.4224 175.706 92.4115 175.688 92.3955C175.631 92.3447 175.627 92.2578 175.678 92.2007C176.19 91.6305 176.821 91.7179 176.847 91.7219C176.922 91.7333 176.974 91.8036 176.962 91.879C176.95 91.9539 176.88 92.0059 176.804 91.995C176.784 91.9921 176.291 91.9287 175.883 92.3841C175.848 92.4224 175.797 92.4372 175.75 92.4269Z" fill="#263238"/>
<path d="M180.154 92.4152C180.11 92.4227 180.063 92.4084 180.03 92.3735C179.618 91.9285 179.128 92.0056 179.107 92.009C179.032 92.0216 178.962 91.9713 178.949 91.8965C178.937 91.8216 178.987 91.7502 179.061 91.7371C179.089 91.7331 179.716 91.6274 180.233 92.1844C180.285 92.2398 180.281 92.3278 180.225 92.3798C180.204 92.3987 180.179 92.4107 180.154 92.4152Z" fill="#263238"/>
<path d="M171.794 89.8369C171.794 89.8369 171.074 88.9856 172.695 87.8395C174.316 86.6934 178.166 88.1292 179.609 87.9201C181.053 87.711 181.137 87.1094 181.137 87.1094C181.137 87.1094 181.817 90.01 179.278 90.6122C176.739 91.2144 172.965 90.6922 171.794 89.8369Z" fill="#263238"/>
<path d="M176.668 95.3477C176.668 95.3477 177.187 96.3378 178.617 96.3326" stroke="#263238" stroke-width="0.3" stroke-miterlimit="10" stroke-linecap="round" stroke-linejoin="round"/>
<path d="M187.144 171.615C186.979 172.112 186.705 172.86 186.38 173.712C186.295 173.946 186.204 174.192 186.107 174.443C185.89 175.031 185.668 175.637 185.451 176.225C185.007 177.454 184.619 178.596 184.471 179.265C184.454 179.368 184.437 179.453 184.425 179.533C183.183 180.499 182.123 180.35 181.849 179.339C181.781 179.099 181.826 178.528 181.94 177.797C182.037 177.105 182.197 176.265 182.368 175.426C182.527 174.62 182.704 173.82 182.858 173.14C182.915 172.883 182.972 172.643 183.023 172.432C183.171 171.786 183.274 171.369 183.274 171.369L187.144 171.615Z" fill="#FF8B7B"/>
<path d="M197.245 152.888C195.312 157.201 192.519 162.949 190.285 167.462C188.814 170.433 187.589 172.867 187.019 173.993C186.796 174.432 186.677 174.672 186.677 174.672L186.107 174.444L182.858 173.141L182.692 173.078C182.692 173.078 182.738 172.844 182.829 172.41C183.262 170.399 184.705 164.126 187.144 157.492C187.8 155.704 188.529 153.887 189.333 152.122C188.677 151.482 188.05 150.859 187.446 150.242C178.36 140.981 175.06 134.348 175.06 134.348L178.93 130.703L182.995 126.869C189.168 134.148 198.704 149.637 197.245 152.888Z" fill="#263238"/>
<path opacity="0.1" d="M197.245 152.888C195.312 157.201 192.519 162.949 190.285 167.462C188.814 170.433 187.589 172.867 187.019 173.993C186.796 174.432 186.677 174.672 186.677 174.672L186.107 174.444L182.858 173.141L182.692 173.078C182.692 173.078 182.738 172.844 182.829 172.41C183.262 170.399 184.705 164.126 187.144 157.492C187.8 155.704 188.529 153.887 189.333 152.122C188.677 151.482 188.05 150.859 187.446 150.242C178.36 140.981 175.06 134.348 175.06 134.348L178.93 130.703L182.995 126.869C189.168 134.148 198.704 149.637 197.245 152.888Z" fill="white"/>
<path d="M186.226 185.678C185.297 185.26 183.684 183.901 180.025 180.656L180.03 180.056L179.489 180.181L178.816 179.587L181.541 177.822C181.655 177.742 181.82 177.73 181.94 177.799C181.951 177.799 181.963 177.805 181.969 177.81L184.471 179.267L184.756 179.433C184.915 179.53 184.955 179.707 184.87 179.856C184.015 181.393 186.563 185.192 186.563 185.192C186.563 185.192 186.614 185.443 186.226 185.678Z" fill="#263238"/>
<path d="M187.298 174.124C187.298 174.124 186.734 176.192 186.124 176.272C185.987 176.29 185.748 176.272 185.451 176.227C184.545 176.09 183.091 175.724 182.368 175.427C182.259 175.387 182.168 175.347 182.1 175.307C182.1 175.307 182.191 172.639 182.67 172.422C182.704 172.405 182.755 172.399 182.829 172.41C182.886 172.41 182.949 172.422 183.023 172.433C183.758 172.587 185.36 173.262 186.38 173.713C186.637 173.827 186.859 173.924 187.019 173.993C187.195 174.079 187.298 174.124 187.298 174.124Z" fill="#636363"/>
<path opacity="0.3" d="M187.298 174.124C187.298 174.124 186.734 176.192 186.124 176.272C185.987 176.29 185.748 176.272 185.451 176.227C184.545 176.09 183.091 175.724 182.368 175.427C182.259 175.387 182.168 175.347 182.1 175.307C182.1 175.307 182.191 172.639 182.67 172.422C182.704 172.405 182.755 172.399 182.829 172.41C182.886 172.41 182.949 172.422 183.023 172.433C183.758 172.587 185.36 173.262 186.38 173.713C186.637 173.827 186.859 173.924 187.019 173.993C187.195 174.079 187.298 174.124 187.298 174.124Z" fill="white"/>
<path opacity="0.2" d="M187.446 150.243C178.36 140.981 175.06 134.348 175.06 134.348L178.93 130.703C181.484 133.685 186.603 140.747 187.446 150.243Z" fill="black"/>
<path opacity="0.4" d="M186.226 185.678C185.297 185.26 183.684 183.901 180.025 180.656L180.03 180.056L179.489 180.181L178.816 179.587L181.541 177.822C181.655 177.742 181.82 177.73 181.94 177.799C181.951 177.799 181.963 177.805 181.969 177.81L184.471 179.267L184.756 179.433C184.915 179.53 184.955 179.707 184.87 179.856C184.015 181.393 186.563 185.192 186.563 185.192C186.563 185.192 186.614 185.443 186.226 185.678Z" fill="white"/>
<path opacity="0.2" d="M185.451 176.228C185.007 177.456 184.619 178.599 184.471 179.268L184.756 179.433C184.915 179.53 184.955 179.707 184.87 179.856C184.015 181.393 186.563 185.192 186.563 185.192C186.563 185.192 186.614 185.444 186.226 185.678C185.297 185.261 183.684 183.901 180.025 180.656L180.03 180.056L179.489 180.182L178.816 179.587L181.541 177.822C181.655 177.742 181.82 177.731 181.94 177.799C182.037 177.108 182.196 176.268 182.367 175.428C182.259 175.388 182.168 175.348 182.1 175.308C182.1 175.308 182.191 172.64 182.67 172.423C182.704 172.406 182.755 172.4 182.829 172.412C183.262 170.4 184.704 164.127 187.144 157.494C187.8 159.665 189.082 163.693 190.285 167.464C188.814 170.435 187.589 172.869 187.019 173.994C187.195 174.08 187.298 174.126 187.298 174.126C187.298 174.126 186.734 176.194 186.124 176.274C185.987 176.291 185.748 176.274 185.451 176.228Z" fill="black"/>
<path d="M189.303 174.027C189.763 175.789 191.236 180.692 191.812 181.9C191.286 183.383 189.88 183.409 189.103 182.705C188.325 182 185.915 175.914 185.915 175.914L189.303 174.027Z" fill="#FF8B7B"/>
<path d="M177.516 153.446C173.455 140.939 167.086 135.506 167.261 128.569L179.239 128.469C179.239 128.469 183.895 146.101 185.361 154.363C186.832 162.658 190.003 176.099 190.003 176.099L186.633 177.74C186.633 177.74 178.839 163.122 177.516 153.446Z" fill="#263238"/>
<path opacity="0.1" d="M177.516 153.446C173.455 140.939 167.086 135.506 167.261 128.569L179.239 128.469C179.239 128.469 183.895 146.101 185.361 154.363C186.832 162.658 190.003 176.099 190.003 176.099L186.633 177.74C186.633 177.74 178.839 163.122 177.516 153.446Z" fill="white"/>
<path d="M186.672 179.701C187.464 179.51 190.155 178.034 190.556 177.566C190.957 177.097 189.995 175.182 189.995 175.182C189.995 175.182 186.051 176.489 185.744 176.914C185.437 177.338 186.672 179.701 186.672 179.701Z" fill="#636363"/>
<path opacity="0.3" d="M186.672 179.701C187.464 179.51 190.155 178.034 190.556 177.566C190.957 177.097 189.995 175.182 189.995 175.182C189.995 175.182 186.051 176.489 185.744 176.914C185.437 177.338 186.672 179.701 186.672 179.701Z" fill="#E6E6E6"/>
<path d="M197.071 184.909C197.071 184.909 192.69 183.615 192.369 181.886C192.338 181.716 192.196 181.604 192.015 181.634L188.834 182.167C188.685 182.193 188.555 182.306 188.51 182.452L187.539 185.554L188.439 185.582L188.772 185.137L189.149 185.605C194.033 185.758 196.145 185.771 197.121 185.497C197.275 185.068 197.071 184.909 197.071 184.909Z" fill="#263238"/>
<path opacity="0.4" d="M197.071 184.909C197.071 184.909 192.69 183.615 192.369 181.886C192.338 181.716 192.196 181.604 192.015 181.634L188.834 182.167C188.685 182.193 188.555 182.306 188.51 182.452L187.539 185.554L188.439 185.582L188.772 185.137L189.149 185.605C194.033 185.758 196.145 185.771 197.121 185.497C197.275 185.068 197.071 184.909 197.071 184.909Z" fill="white"/>
<path d="M183.182 128.469C183.363 127.018 183.182 125.459 183.182 125.459C183.182 125.145 168.6 124.545 167.387 124.592C165.868 124.651 167.161 131.604 168.353 133.97C178.921 134.665 182.85 130.297 183.182 128.469Z" fill="#263238"/>
<path opacity="0.1" d="M183.182 128.469C183.363 127.018 183.182 125.459 183.182 125.459C183.182 125.145 168.6 124.545 167.387 124.592C165.868 124.651 167.161 131.604 168.353 133.97C178.921 134.665 182.85 130.297 183.182 128.469Z" fill="white"/>
<path d="M172.96 125.093C170.612 124.997 168.486 124.954 167.418 125.028C167.336 125.033 167.264 125.087 167.238 125.165C167.118 125.529 167.118 125.894 167.134 126.106C167.142 126.214 167.229 126.296 167.337 126.299C167.907 126.31 169.819 126.355 172.959 126.499C172.936 126.117 172.909 125.469 172.96 125.093Z" fill="#263238"/>
<path d="M173.758 126.537C175.591 126.625 177.793 126.745 180.345 126.908C180.385 126.559 180.433 125.949 180.37 125.521C178.592 125.385 176.161 125.236 173.838 125.131C173.787 125.484 173.766 126.132 173.758 126.537Z" fill="#263238"/>
<path d="M182.981 125.952C182.976 125.852 182.905 125.77 182.807 125.754C182.511 125.707 181.919 125.648 181.135 125.582C181.165 125.933 181.09 126.578 181.04 126.953C181.6 126.989 182.176 127.027 182.768 127.068C182.886 127.076 182.989 126.986 182.994 126.868C183.005 126.581 182.991 126.176 182.981 125.952Z" fill="#263238"/>
<path d="M171.446 106.505C170.97 107.375 170.483 108.318 170.028 109.235C169.568 110.159 169.116 111.084 168.7 112.011C168.286 112.938 167.894 113.866 167.564 114.766C167.399 115.216 167.257 115.659 167.148 116.069C167.038 116.47 166.972 116.871 166.96 117.038L166.898 116.548C167.035 117.258 167.348 118.178 167.682 119.055C168.021 119.944 168.397 120.845 168.801 121.744C169.199 122.644 169.599 123.553 170.018 124.457L170.63 125.822L170.943 126.501L171.101 126.839C171.163 126.944 171.196 127.071 170.952 127.344L170.782 127.534C170.104 128.294 169.205 128.746 168.271 128.88C167.902 128.933 167.812 128.839 167.75 128.723L167.538 128.397L167.12 127.744L166.296 126.43C165.768 125.542 165.25 124.643 164.76 123.722C164.271 122.801 163.802 121.859 163.352 120.881C162.907 119.89 162.472 118.916 162.134 117.653C162.097 117.517 162.078 117.38 162.073 117.245L162.072 117.162C162.048 116.261 162.166 115.603 162.288 114.964C162.415 114.334 162.569 113.751 162.737 113.188C163.071 112.061 163.458 111.002 163.873 109.964C164.287 108.927 164.719 107.91 165.177 106.909C165.641 105.903 166.105 104.936 166.624 103.919C167.311 102.572 168.959 102.038 170.304 102.727C171.648 103.416 172.181 105.068 171.493 106.416C171.483 106.436 171.473 106.455 171.462 106.474L171.446 106.505Z" fill="#636363"/>
<path opacity="0.6" d="M171.446 106.505C170.97 107.375 170.483 108.318 170.028 109.235C169.568 110.159 169.116 111.084 168.7 112.011C168.286 112.938 167.894 113.866 167.564 114.766C167.399 115.216 167.257 115.659 167.148 116.069C167.038 116.47 166.972 116.871 166.96 117.038L166.898 116.548C167.035 117.258 167.348 118.178 167.682 119.055C168.021 119.944 168.397 120.845 168.801 121.744C169.199 122.644 169.599 123.553 170.018 124.457L170.63 125.822L170.943 126.501L171.101 126.839C171.163 126.944 171.196 127.071 170.952 127.344L170.782 127.534C170.104 128.294 169.205 128.746 168.271 128.88C167.902 128.933 167.812 128.839 167.75 128.723L167.538 128.397L167.12 127.744L166.296 126.43C165.768 125.542 165.25 124.643 164.76 123.722C164.271 122.801 163.802 121.859 163.352 120.881C162.907 119.89 162.472 118.916 162.134 117.653C162.097 117.517 162.078 117.38 162.073 117.245L162.072 117.162C162.048 116.261 162.166 115.603 162.288 114.964C162.415 114.334 162.569 113.751 162.737 113.188C163.071 112.061 163.458 111.002 163.873 109.964C164.287 108.927 164.719 107.91 165.177 106.909C165.641 105.903 166.105 104.936 166.624 103.919C167.311 102.572 168.959 102.038 170.304 102.727C171.648 103.416 172.181 105.068 171.493 106.416C171.483 106.436 171.473 106.455 171.462 106.474L171.446 106.505Z" fill="#A6FB89"/>
<path d="M178.324 108.378C178.324 107.759 178.824 107.258 179.442 107.258C180.059 107.258 180.56 107.759 180.56 108.378C180.56 108.997 180.059 109.499 179.442 109.499C178.824 109.499 178.324 108.997 178.324 108.378Z" fill="#263238"/>
<path d="M178.324 111.068C178.324 110.449 178.824 109.947 179.442 109.947C180.059 109.947 180.56 110.449 180.56 111.068C180.56 111.686 180.059 112.188 179.442 112.188C178.824 112.188 178.324 111.686 178.324 111.068Z" fill="#263238"/>
<path d="M179.56 112.579V110.058C179.56 110.058 179.777 109.794 179.56 109.314V106.816" stroke="#263238" stroke-width="0.6724" stroke-miterlimit="10" stroke-linecap="round" stroke-linejoin="round"/>
</svg>
