<svg width="168" height="168" viewBox="0 0 168 168" fill="none" xmlns="http://www.w3.org/2000/svg">
<g clip-path="url(#clip0_194_8219)">
<path d="M84 167.86C130.315 167.86 167.86 130.315 167.86 84.0005C167.86 37.686 130.315 0.140625 84 0.140625C37.6855 0.140625 0.140137 37.686 0.140137 84.0005C0.140137 130.315 37.6855 167.86 84 167.86Z" fill="url(#paint0_linear_194_8219)"/>
<path d="M2.2207 122.521V122.95C2.2207 126.012 4.82885 128.518 8.01658 128.518H107C110.188 128.518 112.796 126.012 112.796 122.95V122.521H2.2207Z" fill="#153B0E"/>
<path d="M98.1204 59.7168H21.0744C20.4623 59.7168 19.8562 59.8374 19.2907 60.0717C18.7252 60.3059 18.2114 60.6493 17.7787 61.0822C17.3459 61.5151 17.0026 62.0289 16.7685 62.5945C16.5344 63.16 16.4139 63.7662 16.4141 64.3783V117.86C16.414 118.472 16.5345 119.078 16.7687 119.644C17.0028 120.209 17.3461 120.723 17.7789 121.156C18.2116 121.589 18.7254 121.932 19.2909 122.166C19.8563 122.401 20.4624 122.521 21.0744 122.521H98.1204C99.3563 122.521 100.542 122.03 101.416 121.156C102.29 120.282 102.781 119.097 102.781 117.861V64.3783C102.781 63.7662 102.66 63.16 102.426 62.5945C102.192 62.0289 101.849 61.5151 101.416 61.0822C100.983 60.6493 100.47 60.3059 99.9041 60.0717C99.3386 59.8374 98.7325 59.7168 98.1204 59.7168ZM62.3816 68.3929C61.2506 68.3929 60.3337 67.5297 60.3337 66.4653C60.3337 65.4008 61.2506 64.5376 62.3816 64.5376C63.5126 64.5376 64.43 65.4008 64.43 66.4653C64.43 67.5297 63.5131 68.3929 62.3816 68.3929Z" fill="#5E6D55"/>
<path d="M136.464 18.5762H85.6255C82.743 18.5762 80.3843 20.9349 80.3843 23.8174V100.168H166.302C167.341 94.8418 167.862 89.4278 167.86 84.0014C167.86 57.5425 155.606 33.946 136.464 18.5762Z" fill="#5E6D55"/>
<path d="M161.224 116.75C163.14 112.239 164.653 107.567 165.747 102.789H80.3843V111.51C80.3843 114.393 82.743 116.752 85.6255 116.752H134.255V124.604H115.624V128.535H155.072C155.881 127.248 156.654 125.937 157.393 124.604H155.952V116.75H161.224Z" fill="#5E6D55"/>
<path d="M131.465 131.214C130.78 127.642 130.682 116.383 129.623 111.722C129.011 109.026 118.3 87.6641 118.3 87.6641L92.793 136.936C92.793 136.936 93.7724 155.933 101.776 165.973C113.712 163.392 124.937 158.225 134.659 150.836C133.705 146.204 132.312 135.632 131.465 131.214Z" fill="url(#paint1_linear_194_8219)"/>
<g filter="url(#filter0_d_194_8219)">
<path d="M102.867 147.431L48.1077 134.721C47.6832 134.62 47.3156 134.356 47.0852 133.985C46.8548 133.615 46.7802 133.168 46.8777 132.743L71.3005 27.5269C71.4005 27.1017 71.6646 26.7334 72.0352 26.5023C72.4058 26.2712 72.8528 26.1962 73.2785 26.2936L128.036 39.004C128.461 39.1039 128.829 39.368 129.06 39.7386C129.291 40.1092 129.366 40.5562 129.269 40.9819L104.846 146.198C104.746 146.624 104.482 146.992 104.111 147.223C103.74 147.454 103.293 147.529 102.867 147.431Z" fill="url(#paint2_linear_194_8219)"/>
</g>
<g filter="url(#filter1_d_194_8219)">
<path d="M89.0257 104.338C100.235 104.338 109.322 95.2509 109.322 84.0419C109.322 72.8328 100.235 63.7461 89.0257 63.7461C77.8167 63.7461 68.73 72.8328 68.73 84.0419C68.73 95.2509 77.8167 104.338 89.0257 104.338Z" fill="url(#paint3_linear_194_8219)"/>
</g>
<path d="M85.0817 91.7862L79.1763 82.4487L81.3902 81.0471L85.8957 88.1702L100.491 78.9395L101.891 81.1545L85.0817 91.7862Z" fill="url(#paint4_linear_194_8219)"/>
<path d="M80.2015 136.125C80.9868 134.305 80.148 132.193 78.328 131.407C76.5079 130.622 74.3958 131.461 73.6105 133.281C72.8251 135.101 73.6639 137.213 75.484 137.998C77.304 138.784 79.4161 137.945 80.2015 136.125Z" fill="#001E00"/>
<path d="M96.5188 36.9293L95.9209 39.4805L102.007 40.9068L102.605 38.3556L96.5188 36.9293Z" fill="#001E00"/>
<path d="M129.971 121.547C127.524 100.582 116.773 108.671 116.773 108.671C116.773 108.671 108.254 117.189 106.836 117.275C105.417 117.361 97.2069 115.549 94.5228 114.19C94.5228 114.19 84.6542 108.503 81.5151 106.925C78.3759 105.348 72.6706 101.127 69.5511 107.205C66.4315 113.282 73.9822 117.148 77.326 120.481C80.6697 123.814 87.3735 123.039 92.12 127.246C96.8664 131.452 97.5217 136.197 100.011 143.264C101.037 146.175 106.288 158.379 109.215 164.002C118.422 161.099 127.058 156.623 134.738 150.773C133.581 144.187 130.393 125.163 129.971 121.547Z" fill="url(#paint5_linear_194_8219)"/>
<path d="M69.3623 108.591C69.3623 108.591 73.8522 110.794 74.7159 111.051C77.7785 111.952 79.956 111.001 81.0054 109.952C82.0548 108.903 81.5561 107.693 80.6946 107.366C79.8331 107.039 75.3974 104.151 73.9858 104.347C72.5741 104.544 70.5598 105.152 69.3623 108.591Z" fill="url(#paint6_linear_194_8219)"/>
<path d="M44.0867 18.5898C44.0867 18.5898 45.0801 29.2781 45.6599 29.8578C46.2396 30.4376 51.8934 31.431 51.8934 31.431C51.8934 31.431 46.2396 32.425 45.6599 33.0048C45.0801 33.5845 44.0867 44.2728 44.0867 44.2728C44.0867 44.2728 43.0926 33.5845 42.5129 33.0048C41.9331 32.425 36.2793 31.431 36.2793 31.431C36.2793 31.431 41.9331 30.4376 42.5129 29.8578C43.0926 29.2781 44.0867 18.5898 44.0867 18.5898Z" fill="url(#paint7_linear_194_8219)"/>
<path d="M154.75 45.8672C154.75 45.8672 155.954 58.8179 156.656 59.5201C157.359 60.2223 164.209 61.4265 164.209 61.4265C164.209 61.4265 157.359 62.6313 156.656 63.3335C155.954 64.0357 154.75 76.9865 154.75 76.9865C154.75 76.9865 153.546 64.0357 152.843 63.3335C152.14 62.6313 145.29 61.4265 145.29 61.4265C145.29 61.4265 152.141 60.2223 152.843 59.5201C153.545 58.8179 154.75 45.8672 154.75 45.8672Z" fill="url(#paint8_linear_194_8219)"/>
<path d="M41.3858 129.984C41.3858 129.984 42.2535 139.315 42.7594 139.824C43.2654 140.333 48.2014 141.198 48.2014 141.198C48.2014 141.198 43.266 142.065 42.7594 142.571C42.2529 143.077 41.3858 152.407 41.3858 152.407C41.3858 152.407 40.5181 143.077 40.0122 142.571C39.5062 142.065 34.5708 141.198 34.5708 141.198C34.5708 141.198 39.5062 140.33 40.0122 139.824C40.5181 139.318 41.3858 129.984 41.3858 129.984Z" fill="url(#paint9_linear_194_8219)"/>
</g>
<defs>
<filter id="filter0_d_194_8219" x="42.8359" y="26.252" width="90.4746" height="129.221" filterUnits="userSpaceOnUse" color-interpolation-filters="sRGB">
<feFlood flood-opacity="0" result="BackgroundImageFix"/>
<feColorMatrix in="SourceAlpha" type="matrix" values="0 0 0 0 0 0 0 0 0 0 0 0 0 0 0 0 0 0 127 0" result="hardAlpha"/>
<feOffset dy="4"/>
<feGaussianBlur stdDeviation="2"/>
<feComposite in2="hardAlpha" operator="out"/>
<feColorMatrix type="matrix" values="0 0 0 0 0 0 0 0 0 0 0 0 0 0 0 0 0 0 0.25 0"/>
<feBlend mode="normal" in2="BackgroundImageFix" result="effect1_dropShadow_194_8219"/>
<feBlend mode="normal" in="SourceGraphic" in2="effect1_dropShadow_194_8219" result="shape"/>
</filter>
<filter id="filter1_d_194_8219" x="63.73" y="58.7461" width="50.5913" height="50.5918" filterUnits="userSpaceOnUse" color-interpolation-filters="sRGB">
<feFlood flood-opacity="0" result="BackgroundImageFix"/>
<feColorMatrix in="SourceAlpha" type="matrix" values="0 0 0 0 0 0 0 0 0 0 0 0 0 0 0 0 0 0 127 0" result="hardAlpha"/>
<feOffset/>
<feGaussianBlur stdDeviation="2.5"/>
<feComposite in2="hardAlpha" operator="out"/>
<feColorMatrix type="matrix" values="0 0 0 0 0 0 0 0 0 0 0 0 0 0 0 0 0 0 0.25 0"/>
<feBlend mode="normal" in2="BackgroundImageFix" result="effect1_dropShadow_194_8219"/>
<feBlend mode="normal" in="SourceGraphic" in2="effect1_dropShadow_194_8219" result="shape"/>
</filter>
<linearGradient id="paint0_linear_194_8219" x1="24.7021" y1="24.7026" x2="143.298" y2="143.298" gradientUnits="userSpaceOnUse">
<stop stop-color="#001E00"/>
<stop offset="1" stop-color="#062F06"/>
</linearGradient>
<linearGradient id="paint1_linear_194_8219" x1="113.726" y1="87.6641" x2="113.726" y2="165.973" gradientUnits="userSpaceOnUse">
<stop stop-color="#FFBFA7"/>
<stop offset="1" stop-color="#FF9470"/>
</linearGradient>
<linearGradient id="paint2_linear_194_8219" x1="56.54" y1="36.1317" x2="119.599" y2="137.599" gradientUnits="userSpaceOnUse">
<stop stop-color="#EBFDEB"/>
<stop offset="1" stop-color="white"/>
</linearGradient>
<linearGradient id="paint3_linear_194_8219" x1="73.9802" y1="63.7461" x2="101.945" y2="108.331" gradientUnits="userSpaceOnUse">
<stop stop-color="#001E00"/>
<stop offset="1" stop-color="#0F410F"/>
</linearGradient>
<linearGradient id="paint4_linear_194_8219" x1="79.2322" y1="82.2018" x2="100.487" y2="87.1635" gradientUnits="userSpaceOnUse">
<stop stop-color="#E0F7FA"/>
<stop offset="1" stop-color="white"/>
</linearGradient>
<linearGradient id="paint5_linear_194_8219" x1="78.5554" y1="97.6633" x2="133.203" y2="152.311" gradientUnits="userSpaceOnUse">
<stop stop-color="#FFD6C7"/>
<stop offset="1" stop-color="#FFA688"/>
</linearGradient>
<linearGradient id="paint6_linear_194_8219" x1="71.9513" y1="104.815" x2="79.0453" y2="111.909" gradientUnits="userSpaceOnUse">
<stop stop-color="#FFBFA7"/>
<stop offset="1" stop-color="#FF9470"/>
</linearGradient>
<linearGradient id="paint7_linear_194_8219" x1="36.2793" y1="31.431" x2="51.8934" y2="31.431" gradientUnits="userSpaceOnUse">
<stop stop-color="#FFF176"/>
<stop offset="1" stop-color="#FFB74D"/>
</linearGradient>
<linearGradient id="paint8_linear_194_8219" x1="145.29" y1="61.4265" x2="164.209" y2="61.4265" gradientUnits="userSpaceOnUse">
<stop stop-color="#FFF176"/>
<stop offset="1" stop-color="#FFB74D"/>
</linearGradient>
<linearGradient id="paint9_linear_194_8219" x1="34.5708" y1="141.195" x2="48.2014" y2="141.195" gradientUnits="userSpaceOnUse">
<stop stop-color="#FFF176"/>
<stop offset="1" stop-color="#FFB74D"/>
</linearGradient>
<clipPath id="clip0_194_8219">
<rect width="167.72" height="167.72" fill="white" transform="translate(0.140137 0.140625)"/>
</clipPath>
</defs>
</svg>
