<svg width="13" height="13" viewBox="0 0 13 13" fill="none" xmlns="http://www.w3.org/2000/svg">
<path id="big-star-fill" d="M6.04234 1.17688C6.08361 1.08873 6.15075 1.01387 6.23565 0.961342C6.32055 0.908812 6.41956 0.880859 6.52075 0.880859C6.62193 0.880859 6.72095 0.908812 6.80584 0.961342C6.89074 1.01387 6.95788 1.08873 6.99916 1.17688L8.4454 4.26388C8.48187 4.3419 8.53868 4.4097 8.61041 4.46082C8.68215 4.51194 8.76641 4.54466 8.85517 4.55588L12.2716 4.98688C12.369 4.99903 12.4608 5.03704 12.5366 5.09656C12.6124 5.15608 12.6692 5.23473 12.7004 5.32354C12.7317 5.41235 12.7361 5.50775 12.7133 5.59886C12.6905 5.68998 12.6413 5.77314 12.5714 5.83888L10.0258 8.23888C9.96491 8.29609 9.91963 8.36664 9.89387 8.44438C9.86812 8.52211 9.86267 8.60468 9.87802 8.68488L10.5288 12.0969C10.5466 12.1907 10.5359 12.2875 10.498 12.3757C10.46 12.4639 10.3964 12.5399 10.3147 12.5948C10.233 12.6497 10.1365 12.6811 10.0366 12.6854C9.93679 12.6896 9.83776 12.6666 9.75121 12.6189L6.78327 10.9739C6.70361 10.93 6.61325 10.9069 6.52127 10.9069C6.42929 10.9069 6.33893 10.93 6.25927 10.9739L3.29238 12.6129C3.20583 12.6606 3.1068 12.6836 3.00696 12.6794C2.90712 12.6751 2.81064 12.6437 2.7289 12.5888C2.64716 12.5339 2.58357 12.4579 2.54563 12.3697C2.50769 12.2815 2.49698 12.1847 2.51477 12.0909L3.16767 8.67888C3.18301 8.59868 3.17757 8.51611 3.15182 8.43837C3.12606 8.36064 3.08077 8.29009 3.0199 8.23288L0.472215 5.83788C0.402269 5.77214 0.353085 5.68898 0.330267 5.59786C0.307449 5.50675 0.311916 5.41135 0.343159 5.32254C0.374402 5.23373 0.431163 5.15508 0.506974 5.09556C0.582785 5.03604 0.674596 4.99803 0.771943 4.98588L4.18737 4.55488C4.27613 4.54366 4.36039 4.51094 4.43213 4.45982C4.50386 4.4087 4.56067 4.3409 4.59714 4.26288L6.04234 1.17688Z" fill="#E6B045"/>
</svg>
