<svg width="73" height="72" viewBox="0 0 73 72" fill="none" xmlns="http://www.w3.org/2000/svg">
<path fill-rule="evenodd" clip-rule="evenodd" d="M44.6059 6.75388L38.5826 0.730547C37.6059 -0.24612 36.0259 -0.24612 35.0492 0.730547L29.0259 6.75388L20.7959 4.54721C19.4626 4.19055 18.0926 4.98388 17.7359 6.31721L15.5292 14.5439L7.30256 16.7505C5.96923 17.1072 5.1759 18.4772 5.53257 19.8105L7.73923 28.0405L1.7159 34.0639C0.739232 35.0405 0.739232 36.6205 1.7159 37.5972L7.73923 43.6205L5.53257 51.8505C5.1759 53.1839 5.96923 54.5539 7.30256 54.9105L15.5292 57.1172L17.7359 65.3439C18.0926 66.6772 19.4626 67.4705 20.7959 67.1139L29.0259 64.9072L35.0492 70.9305C36.0259 71.9072 37.6059 71.9072 38.5826 70.9305L44.6059 64.9072L52.8359 67.1139C54.1692 67.4705 55.5392 66.6772 55.8959 65.3439L58.1026 57.1172L66.3292 54.9105C67.6626 54.5539 68.4559 53.1839 68.0992 51.8505L65.8926 43.6205L71.9159 37.5972C72.8926 36.6205 72.8926 35.0405 71.9159 34.0639L65.8926 28.0405L68.0992 19.8105C68.4559 18.4772 67.6626 17.1072 66.3292 16.7505L58.1026 14.5439L55.8959 6.31721C55.5392 4.98388 54.1692 4.19055 52.8359 4.54721L44.6059 6.75388ZM21.7159 37.5972L30.6026 46.4872C31.5792 47.4639 33.1626 47.4639 34.1392 46.4872L51.9159 28.7105C52.8926 27.7339 52.8926 26.1505 51.9159 25.1739C50.9426 24.1972 49.3559 24.1972 48.3826 25.1739L32.3726 41.1839L25.2492 34.0639C24.2759 33.0872 22.6892 33.0872 21.7159 34.0639C20.7392 35.0372 20.7392 36.6239 21.7159 37.5972Z" fill="#40AF2D"/>
</svg>
