<svg width="45" height="45" viewBox="0 0 45 45" fill="none" xmlns="http://www.w3.org/2000/svg">
<ellipse cx="22.874" cy="22.4199" rx="21.949" ry="22" fill="#48BF5B" fill-opacity="0.2"/>
<path d="M30.3019 34.7513C28.8423 36.1661 27.2487 35.9427 25.7147 35.2725C24.0914 34.5874 22.602 34.5576 20.8893 35.2725C18.7447 36.1959 17.6128 35.9278 16.3319 34.7513C9.06401 27.2599 10.1363 15.8517 18.3872 15.4346C20.3978 15.5389 21.7978 16.5367 22.9744 16.6261C24.7318 16.2687 26.4147 15.241 28.2913 15.3751C30.5402 15.5538 32.238 16.4474 33.355 18.0559C28.7083 20.8409 29.8104 26.9621 34.0699 28.6748C33.221 30.9088 32.1189 33.1279 30.287 34.7662L30.3019 34.7513ZM22.8254 15.3453C22.602 12.0241 25.2977 9.2837 28.3955 9.01562C28.8274 12.8581 24.9105 15.7176 22.8254 15.3453Z" fill="#080809"/>
</svg>
