<svg width="22" height="22" viewBox="0 0 22 22" fill="none" xmlns="http://www.w3.org/2000/svg">
<path d="M12.8219 5.43446C13.6901 5.60385 14.488 6.02847 15.1135 6.65396C15.739 7.27945 16.1636 8.07736 16.333 8.94557M12.8219 1.87891C14.6257 2.07929 16.3078 2.88706 17.5919 4.16958C18.876 5.4521 19.6859 7.13314 19.8886 8.93668M9.42365 12.4239C8.35558 11.3558 7.51222 10.1481 6.89355 8.85955C6.84034 8.74872 6.81373 8.6933 6.79329 8.62318C6.72064 8.37397 6.77282 8.06796 6.92395 7.85692C6.96647 7.79753 7.01728 7.74672 7.11889 7.64511C7.42965 7.33435 7.58503 7.17897 7.68662 7.02272C8.06972 6.43349 8.06972 5.67386 7.68662 5.08462C7.58503 4.92838 7.42965 4.773 7.11889 4.46223L6.94567 4.28902C6.47328 3.81662 6.23708 3.58043 5.98341 3.45212C5.47891 3.19695 4.88312 3.19695 4.37862 3.45212C4.12495 3.58043 3.88875 3.81662 3.41636 4.28902L3.27624 4.42914C2.80546 4.89991 2.57007 5.1353 2.3903 5.45533C2.19081 5.81045 2.04738 6.36199 2.04859 6.7693C2.04968 7.13637 2.12089 7.38723 2.26329 7.88896C3.0286 10.5853 4.47258 13.1296 6.59523 15.2523C8.71788 17.3749 11.2622 18.8189 13.9585 19.5842C14.4603 19.7266 14.7111 19.7978 15.0782 19.7989C15.4855 19.8001 16.0371 19.6567 16.3922 19.4572C16.7122 19.2774 16.9476 19.042 17.4184 18.5713L17.5585 18.4312C18.0309 17.9588 18.2671 17.7226 18.3954 17.4689C18.6506 16.9644 18.6506 16.3686 18.3954 15.8641C18.2671 15.6104 18.0309 15.3742 17.5585 14.9018L17.3853 14.7286C17.0745 14.4179 16.9191 14.2625 16.7629 14.1609C16.1737 13.7778 15.414 13.7778 14.8248 14.1609C14.6685 14.2625 14.5132 14.4179 14.2024 14.7286C14.1008 14.8302 14.05 14.881 13.9906 14.9236C13.7795 15.0747 13.4735 15.1269 13.2243 15.0542C13.1542 15.0338 13.0988 15.0072 12.988 14.954C11.6994 14.3353 10.4917 13.4919 9.42365 12.4239Z" stroke="#001E00" stroke-width="1.57525" stroke-linecap="round" stroke-linejoin="round"/>
</svg>
