<svg width="25" height="24" viewBox="0 0 25 24" fill="none" xmlns="http://www.w3.org/2000/svg">
<path d="M11.7215 23.8773V21.7107C9.46455 21.4579 7.52791 20.5237 5.91157 18.9081C4.29524 17.2925 3.36104 15.3558 3.10899 13.0982H0.942322V10.9315H3.10899C3.36177 8.67457 4.29632 6.73793 5.91266 5.12159C7.52899 3.50526 9.46527 2.57107 11.7215 2.31901V0.152344H13.8882V2.31901C16.1451 2.57179 18.0817 3.50634 19.6981 5.12268C21.3144 6.73901 22.2486 8.67529 22.5007 10.9315H24.6673V13.0982H22.5007C22.2479 15.3551 21.3137 17.2918 19.6981 18.9081C18.0825 20.5244 16.1458 21.4586 13.8882 21.7107V23.8773H11.7215ZM12.8048 19.5982C14.8993 19.5982 16.6868 18.8579 18.1673 17.3773C19.6479 15.8968 20.3882 14.1093 20.3882 12.0148C20.3882 9.9204 19.6479 8.1329 18.1673 6.65234C16.6868 5.17179 14.8993 4.43151 12.8048 4.43151C10.7104 4.43151 8.92288 5.17179 7.44232 6.65234C5.96177 8.1329 5.22149 9.9204 5.22149 12.0148C5.22149 14.1093 5.96177 15.8968 7.44232 17.3773C8.92288 18.8579 10.7104 19.5982 12.8048 19.5982ZM12.8048 16.3482C11.6132 16.3482 10.593 15.9239 9.74441 15.0753C8.8958 14.2267 8.47149 13.2065 8.47149 12.0148C8.47149 10.8232 8.8958 9.80304 9.74441 8.95443C10.593 8.10582 11.6132 7.68151 12.8048 7.68151C13.9965 7.68151 15.0166 8.10582 15.8652 8.95443C16.7139 9.80304 17.1382 10.8232 17.1382 12.0148C17.1382 13.2065 16.7139 14.2267 15.8652 15.0753C15.0166 15.9239 13.9965 16.3482 12.8048 16.3482Z" fill="#001E00"/>
</svg>
