<svg width="22" height="27" viewBox="0 0 22 27" fill="none" xmlns="http://www.w3.org/2000/svg">
<path d="M10.9622 25.5333C11.2361 25.5297 11.462 25.4344 11.5946 25.3686C11.7436 25.2947 11.8847 25.2018 12.0107 25.1091C12.2634 24.9232 12.5383 24.6767 12.8155 24.4057C13.3744 23.8594 14.0268 23.1306 14.6687 22.3679C15.9452 20.8509 17.265 19.0974 17.8093 18.2097C17.8562 18.1333 17.9026 18.0575 17.9487 17.9825C19.4198 15.5863 20.4732 13.8704 20.4339 10.8667C20.3654 5.62108 15.9621 1.46594 10.6487 1.53536C5.33531 1.60478 1.04205 5.87353 1.11058 11.1191C1.15108 14.2191 2.23007 15.8965 3.84862 18.3915C4.45427 19.3252 5.84164 21.0458 7.1684 22.5151C7.83583 23.2542 8.51057 23.9551 9.08582 24.4776C9.37123 24.7368 9.65316 24.9715 9.91117 25.1472C10.0398 25.2347 10.1832 25.3219 10.3335 25.39C10.4679 25.4509 10.6932 25.5368 10.9622 25.5333Z" fill="#40AF2D" stroke="white" stroke-width="2"/>
<path fill-rule="evenodd" clip-rule="evenodd" d="M10.8276 15.2214C13.2195 15.1901 15.1338 13.2715 15.1032 10.936C15.0727 8.60046 13.109 6.73248 10.7171 6.76373C8.32523 6.79498 6.41097 8.71362 6.44148 11.0491C6.47199 13.3846 8.43573 15.2526 10.8276 15.2214Z" fill="white"/>
</svg>
