<svg width="21" height="21" viewBox="0 0 21 21" fill="none" xmlns="http://www.w3.org/2000/svg">
<g clip-path="url(#clip0_141_4227)">
<g clip-path="url(#clip1_141_4227)">
<path d="M11.3633 10.3301C11.3633 9.98508 11.0833 9.70508 10.7383 9.70508C10.3933 9.70508 10.1133 9.98508 10.1133 10.3301C10.1133 13.087 12.3564 15.3301 15.1133 15.3301C17.8702 15.3301 20.1133 13.087 20.1133 10.3301C20.1133 7.78508 18.2008 5.68258 15.7383 5.3732V2.83008C15.7383 1.79633 14.897 0.955078 13.8633 0.955078H3.86328C2.82953 0.955078 1.98828 1.79633 1.98828 2.83008V17.8301C1.98828 18.8638 2.82953 19.7051 3.86328 19.7051H13.8633C14.897 19.7051 15.7383 18.8638 15.7383 17.8301V16.5801C15.7383 16.2345 15.4583 15.9551 15.1133 15.9551C14.7683 15.9551 14.4883 16.2345 14.4883 16.5801V17.8301C14.4883 18.1751 14.2077 18.4551 13.8633 18.4551H3.86328C3.51891 18.4551 3.23828 18.1751 3.23828 17.8301V2.83008C3.23828 2.4857 3.51891 2.20508 3.86328 2.20508H13.8633C14.2077 2.20508 14.4883 2.4857 14.4883 2.83008V5.3732C13.7539 5.46445 13.057 5.71445 12.4377 6.10883L12.5945 5.48195C12.6783 5.14695 12.4745 4.80758 12.1395 4.72383C11.8052 4.64008 11.4658 4.84383 11.3814 5.17883L10.7564 7.67883C10.7095 7.8657 10.752 8.0632 10.8702 8.21508C10.9883 8.36695 11.1708 8.45508 11.3633 8.45508H13.8633C14.2083 8.45508 14.4883 8.17508 14.4883 7.83008C14.4883 7.48508 14.2083 7.20508 13.8633 7.20508H13.0383C13.6483 6.79883 14.3639 6.58008 15.1133 6.58008C17.1814 6.58008 18.8633 8.26195 18.8633 10.3301C18.8633 12.3982 17.1814 14.0801 15.1133 14.0801C13.0452 14.0801 11.3633 12.3982 11.3633 10.3301Z" fill="#001E00"/>
<path d="M8.86328 10.3301H5.11328C4.76828 10.3301 4.48828 10.6101 4.48828 10.9551C4.48828 11.3007 4.76828 11.5801 5.11328 11.5801H8.86328C9.20828 11.5801 9.48828 11.3007 9.48828 10.9551C9.48828 10.6101 9.20828 10.3301 8.86328 10.3301ZM8.86328 13.4551H5.11328C4.76828 13.4551 4.48828 13.7345 4.48828 14.0801C4.48828 14.4257 4.76828 14.7051 5.11328 14.7051H8.86328C9.20828 14.7051 9.48828 14.4257 9.48828 14.0801C9.48828 13.7345 9.20828 13.4551 8.86328 13.4551ZM8.86328 7.20508H5.11328C4.76828 7.20508 4.48828 7.48508 4.48828 7.83008C4.48828 8.17508 4.76828 8.45508 5.11328 8.45508H8.86328C9.20828 8.45508 9.48828 8.17508 9.48828 7.83008C9.48828 7.48508 9.20828 7.20508 8.86328 7.20508ZM8.86328 4.08008H5.11328C4.76828 4.08008 4.48828 4.36008 4.48828 4.70508C4.48828 5.05008 4.76828 5.33008 5.11328 5.33008H8.86328C9.20828 5.33008 9.48828 5.05008 9.48828 4.70508C9.48828 4.36008 9.20828 4.08008 8.86328 4.08008ZM15.7383 12.2051V10.9551H16.9883C17.3333 10.9551 17.6133 10.6751 17.6133 10.3301C17.6133 9.98508 17.3333 9.70508 16.9883 9.70508H15.1133C14.7683 9.70508 14.4883 9.98508 14.4883 10.3301V12.2051C14.4883 12.5507 14.7683 12.8301 15.1133 12.8301C15.4583 12.8301 15.7383 12.5507 15.7383 12.2051Z" fill="#001E00"/>
</g>
</g>
<defs>
<clipPath id="clip0_141_4227">
<rect width="20" height="20" fill="white" transform="translate(0.738281 0.330078)"/>
</clipPath>
<clipPath id="clip1_141_4227">
<rect width="20" height="20" fill="white" transform="translate(0.738281 0.330078)"/>
</clipPath>
</defs>
</svg>
