<svg width="35" height="40" viewBox="0 0 35 40" fill="none" xmlns="http://www.w3.org/2000/svg">
<g filter="url(#filter0_f_81_7522)">
<rect x="11.7428" y="24.1611" width="12.1544" height="4.56462" rx="2.28231" transform="rotate(-0.748513 11.7428 24.1611)" fill="#B3B3B3" fill-opacity="0.8"/>
</g>
<g filter="url(#filter1_d_81_7522)">
<path fill-rule="evenodd" clip-rule="evenodd" d="M17.9241 24.0797C18.8359 24.0678 23.1081 18.6871 24.1565 16.9772C25.7681 14.3487 26.764 12.7932 26.7264 9.91525C26.6631 5.06946 22.5887 1.19374 17.626 1.25858C12.6632 1.32342 8.69146 5.30426 8.75477 10.15C8.79256 13.043 9.75404 14.5627 11.4282 17.1435C12.5951 18.9423 17.0124 24.0916 17.9241 24.0797Z" fill="#FF9933"/>
<path d="M17.9306 24.5797C18.0971 24.5775 18.2463 24.5186 18.355 24.4647C18.4717 24.4068 18.5905 24.3296 18.7069 24.244C18.9401 24.0725 19.2048 23.8364 19.4846 23.5629C20.0464 23.0138 20.7106 22.2727 21.3716 21.4871C22.6901 19.9203 24.039 18.1253 24.5827 17.2386C24.6254 17.169 24.6677 17.1 24.7096 17.0317C26.2457 14.5286 27.265 12.8677 27.2264 9.90871C27.1593 4.77564 22.847 0.690325 17.6194 0.758622C12.3919 0.826918 8.18775 5.0235 8.25481 10.1566C8.29464 13.2052 9.33221 14.8311 11.0088 17.4156C11.6138 18.3483 13.0307 20.1085 14.4008 21.6257C15.0878 22.3866 15.7744 23.099 16.3524 23.624C16.6403 23.8855 16.9118 24.1102 17.1497 24.2722C17.2685 24.3531 17.3893 24.4254 17.5073 24.4789C17.6173 24.5288 17.7666 24.5818 17.9306 24.5797Z" stroke="white"/>
</g>
<path fill-rule="evenodd" clip-rule="evenodd" d="M17.7978 14.4204C20.2792 14.388 22.2651 12.3976 22.2334 9.97471C22.2018 7.55182 20.1646 5.61396 17.6832 5.64638C15.2019 5.6788 13.216 7.66922 13.2476 10.0921C13.2793 12.515 15.3165 14.4529 17.7978 14.4204Z" fill="white"/>
<defs>
<filter id="filter0_f_81_7522" x="0.899273" y="13.1591" width="33.9001" height="26.4093" filterUnits="userSpaceOnUse" color-interpolation-filters="sRGB">
<feFlood flood-opacity="0" result="BackgroundImageFix"/>
<feBlend mode="normal" in="SourceGraphic" in2="BackgroundImageFix" result="shape"/>
<feGaussianBlur stdDeviation="5.43656" result="effect1_foregroundBlur_81_7522"/>
</filter>
<filter id="filter1_d_81_7522" x="2.75403" y="0.257812" width="29.9734" height="34.8223" filterUnits="userSpaceOnUse" color-interpolation-filters="sRGB">
<feFlood flood-opacity="0" result="BackgroundImageFix"/>
<feColorMatrix in="SourceAlpha" type="matrix" values="0 0 0 0 0 0 0 0 0 0 0 0 0 0 0 0 0 0 127 0" result="hardAlpha"/>
<feOffset dy="5"/>
<feGaussianBlur stdDeviation="2.5"/>
<feColorMatrix type="matrix" values="0 0 0 0 0 0 0 0 0 0 0 0 0 0 0 0 0 0 0.2 0"/>
<feBlend mode="normal" in2="BackgroundImageFix" result="effect1_dropShadow_81_7522"/>
<feBlend mode="normal" in="SourceGraphic" in2="effect1_dropShadow_81_7522" result="shape"/>
</filter>
</defs>
</svg>
