<svg width="27" height="27" viewBox="0 0 27 27" fill="none" xmlns="http://www.w3.org/2000/svg">
<path d="M25.5176 12.5199L2.46157 0.978002C2.28087 0.887521 2.07789 0.851267 1.87708 0.873606C1.67627 0.895945 1.48619 0.975924 1.32973 1.10391C1.18031 1.22929 1.06879 1.39391 1.00769 1.57927C0.946597 1.76463 0.938355 1.96338 0.983893 2.15317L3.76109 12.4045H15.614V14.503H3.76109L0.941973 24.7228C0.899242 24.8813 0.894254 25.0476 0.92741 25.2084C0.960566 25.3692 1.03094 25.5199 1.13288 25.6485C1.23481 25.7771 1.36546 25.8799 1.51432 25.9488C1.66318 26.0176 1.8261 26.0505 1.98997 26.0448C2.15403 26.0439 2.31556 26.0043 2.46157 25.9294L25.5176 14.3876C25.6892 14.2995 25.8333 14.1657 25.9339 14.001C26.0345 13.8362 26.0877 13.6468 26.0877 13.4537C26.0877 13.2606 26.0345 13.0712 25.9339 12.9065C25.8333 12.7417 25.6892 12.6079 25.5176 12.5199Z" fill="#001E00"/>
</svg>
