<svg width="46" height="38" viewBox="0 0 46 38" fill="none" xmlns="http://www.w3.org/2000/svg">
<g clip-path="url(#clip0_90_9830)">
<path d="M8.65634 37.0379V34.613C8.65634 33.6832 8.11458 33.0771 7.18598 33.0771C6.72176 33.0771 6.21878 33.2388 5.87053 33.7642C5.59982 33.3196 5.21298 33.0771 4.63262 33.0771C4.2456 33.0771 3.85893 33.1983 3.54928 33.6429V33.1579H2.73682V37.0379H3.54928V34.8958C3.54928 34.2089 3.89753 33.8854 4.43929 33.8854C4.98069 33.8854 5.25175 34.2492 5.25175 34.8958V37.0379H6.06421V34.8958C6.06421 34.2089 6.45088 33.8854 6.95387 33.8854C7.49563 33.8854 7.76633 34.2492 7.76633 34.8958V37.0379H8.65634ZM20.6884 33.1579H19.3731V31.9859H18.5606V33.1579H17.8255V33.9257H18.5605V35.7042C18.5605 36.5935 18.9087 37.1188 19.8373 37.1188C20.1856 37.1188 20.5722 36.9976 20.8433 36.836L20.611 36.1084C20.3789 36.27 20.1082 36.3105 19.9147 36.3105C19.5278 36.3105 19.3731 36.068 19.3731 35.6637V33.9257H20.6884V33.1579ZM27.5751 33.0769C27.1109 33.0769 26.8014 33.3196 26.6079 33.6429V33.1579H25.7954V37.0379H26.6079V34.8555C26.6079 34.2089 26.8786 33.8451 27.3816 33.8451C27.5363 33.8451 27.7298 33.8856 27.8846 33.9259L28.1167 33.1176C27.9619 33.0771 27.7298 33.0771 27.5751 33.0771V33.0769ZM17.1678 33.4812C16.7808 33.1983 16.2392 33.0771 15.6589 33.0771C14.7304 33.0771 14.1115 33.5621 14.1115 34.33C14.1115 34.9768 14.5757 35.3404 15.3882 35.4617L15.775 35.5023C16.2006 35.5829 16.4327 35.7042 16.4327 35.9064C16.4327 36.1892 16.1232 36.3913 15.5815 36.3913C15.0399 36.3913 14.6143 36.1892 14.3434 35.9872L13.9566 36.6338C14.3822 36.9571 14.9625 37.1188 15.5427 37.1188C16.6261 37.1188 17.2452 36.5935 17.2452 35.8659C17.2452 35.1788 16.7422 34.815 15.9683 34.6938L15.5815 34.6533C15.2332 34.6128 14.9625 34.5322 14.9625 34.2897C14.9625 34.0067 15.2332 33.8451 15.6589 33.8451C16.1232 33.8451 16.5875 34.047 16.8196 34.1684L17.1678 33.4812ZM38.7562 33.0771C38.2919 33.0771 37.9824 33.3196 37.7889 33.6429V33.1579H36.9764V37.0379H37.7889V34.8555C37.7889 34.2089 38.0597 33.8451 38.5626 33.8451C38.7175 33.8451 38.911 33.8856 39.0657 33.9259L39.2978 33.1176C39.1431 33.0771 38.911 33.0771 38.7562 33.0771ZM28.3876 35.0979C28.3876 36.27 29.1612 37.1188 30.3607 37.1188C30.9023 37.1188 31.2892 36.9976 31.676 36.6743L31.2892 35.9872C30.9797 36.2297 30.6702 36.3508 30.322 36.3508C29.6642 36.3508 29.2 35.8659 29.2 35.0979C29.2 34.3705 29.6642 33.8854 30.322 33.8451C30.6702 33.8451 30.9797 33.9662 31.2892 34.2089L31.676 33.5217C31.2892 33.1983 30.9023 33.0771 30.3607 33.0771C29.1612 33.0771 28.3876 33.9259 28.3876 35.0979ZM35.8932 35.0979V33.1579H35.0808V33.6429C34.8099 33.2793 34.423 33.0771 33.9201 33.0771C32.8755 33.0771 32.063 33.9259 32.063 35.0979C32.063 36.27 32.8755 37.1188 33.9201 37.1188C34.4616 37.1188 34.8487 36.9168 35.0808 36.553V37.0379H35.8932V35.0979ZM32.9141 35.0979C32.9141 34.4108 33.3397 33.8451 34.036 33.8451C34.6938 33.8451 35.1581 34.3705 35.1581 35.0979C35.1581 35.785 34.6938 36.3508 34.036 36.3508C33.3397 36.3103 32.9141 35.785 32.9141 35.0979ZM23.2033 33.0771C22.12 33.0771 21.3461 33.8854 21.3461 35.0979C21.3461 36.3105 22.1198 37.1188 23.2419 37.1188C23.7835 37.1188 24.3252 36.9571 24.7509 36.5935L24.3638 35.9872C24.0544 36.2297 23.6675 36.3913 23.2807 36.3913C22.7777 36.3913 22.2747 36.1489 22.1586 35.4616H24.9056V35.1384C24.9444 33.8854 24.2481 33.0771 23.2033 33.0771ZM23.2033 33.8045C23.7061 33.8045 24.0545 34.128 24.1317 34.7343H22.1973C22.2747 34.2089 22.6229 33.8045 23.2033 33.8045ZM43.3601 35.0979V31.6221H42.5477V33.6429C42.2768 33.2793 41.89 33.0771 41.387 33.0771C40.3424 33.0771 39.5299 33.9259 39.5299 35.0979C39.5299 36.27 40.3424 37.1188 41.387 37.1188C41.9287 37.1188 42.3156 36.9168 42.5477 36.553V37.0379H43.3601V35.0979ZM40.3812 35.0979C40.3812 34.4108 40.8066 33.8451 41.5031 33.8451C42.1608 33.8451 42.625 34.3705 42.625 35.0979C42.625 35.785 42.1608 36.3508 41.5031 36.3508C40.8066 36.3103 40.3812 35.785 40.3812 35.0979ZM13.2215 35.0979V33.1579H12.409V33.6429C12.1381 33.2793 11.7513 33.0771 11.2483 33.0771C10.2037 33.0771 9.39126 33.9259 9.39126 35.0979C9.39126 36.27 10.2037 37.1188 11.2483 37.1188C11.7901 37.1188 12.1769 36.9168 12.409 36.553V37.0379H13.2215V35.0979ZM10.2037 35.0979C10.2037 34.4108 10.6293 33.8451 11.3257 33.8451C11.9834 33.8451 12.4478 34.3705 12.4478 35.0979C12.4478 35.785 11.9834 36.3508 11.3257 36.3508C10.6293 36.3103 10.2037 35.785 10.2037 35.0979Z" fill="black"/>
<path d="M16.897 3.69531H29.0839V26.5715H16.897V3.69531Z" fill="#FF5F00"/>
<path d="M17.6707 15.1333C17.6707 10.4853 19.7599 6.36268 22.971 3.69507C20.6111 1.75507 17.6321 0.583008 14.3823 0.583008C6.68293 0.583008 0.454102 7.09011 0.454102 15.1333C0.454102 23.1763 6.68293 29.6835 14.3821 29.6835C17.632 29.6835 20.6109 28.5115 22.971 26.5713C19.7599 23.9442 17.6707 19.7812 17.6707 15.1333Z" fill="#EB001B"/>
<path d="M45.5264 15.1333C45.5264 23.1763 39.2976 29.6835 31.5984 29.6835C28.3485 29.6835 25.3695 28.5115 23.0095 26.5713C26.2594 23.9039 28.3099 19.7812 28.3099 15.1333C28.3099 10.4853 26.2206 6.36268 23.0095 3.69507C25.3694 1.75507 28.3485 0.583008 31.5984 0.583008C39.2976 0.583008 45.5264 7.13062 45.5264 15.1333Z" fill="#F79E1B"/>
</g>
<defs>
<clipPath id="clip0_90_9830">
<rect width="45.1173" height="36.6385" fill="white" transform="translate(0.454102 0.583008)"/>
</clipPath>
</defs>
</svg>
