<svg width="19" height="13" viewBox="0 0 19 13" fill="none" xmlns="http://www.w3.org/2000/svg">
<path d="M7.35791 1.73438H12.274V10.8253H7.35791V1.73438Z" fill="#FF5F00"/>
<path d="M7.67018 6.28027C7.67018 4.4332 8.51292 2.79487 9.80825 1.73477C8.8563 0.963821 7.65461 0.498047 6.34364 0.498047C3.23776 0.498047 0.725098 3.08395 0.725098 6.28027C0.725098 9.47652 3.23776 12.0625 6.34357 12.0625C7.65454 12.0625 8.85623 11.5967 9.80825 10.8257C8.51292 9.78169 7.67018 8.12734 7.67018 6.28027Z" fill="#EB001B"/>
<path d="M18.9069 6.28027C18.9069 9.47652 16.3942 12.0625 13.2884 12.0625C11.9774 12.0625 10.7757 11.5967 9.82373 10.8257C11.1347 9.76567 11.9619 8.12734 11.9619 6.28027C11.9619 4.4332 11.1191 2.79487 9.82373 1.73477C10.7757 0.963821 11.9774 0.498047 13.2884 0.498047C16.3942 0.498047 18.9069 3.10004 18.9069 6.28027Z" fill="#F79E1B"/>
</svg>
