<svg width="22" height="22" viewBox="0 0 22 22" fill="none" xmlns="http://www.w3.org/2000/svg">
<path d="M6.99976 10.7637H7.00864M10.9998 10.7637H11.0086M14.9998 10.7637H15.0086M10.9998 18.7637C15.418 18.7637 18.9998 15.182 18.9998 10.7637C18.9998 6.34539 15.418 2.76367 10.9998 2.76367C6.58148 2.76367 2.99976 6.34539 2.99976 10.7637C2.99976 11.8278 3.20752 12.8434 3.5847 13.7721C3.65689 13.9499 3.69298 14.0387 3.70908 14.1106C3.72484 14.1809 3.7306 14.2329 3.73061 14.3049C3.73062 14.3785 3.71725 14.4587 3.69052 14.6191L3.16342 17.7817C3.10823 18.1128 3.08063 18.2784 3.13199 18.3982C3.17694 18.503 3.26045 18.5865 3.36525 18.6314C3.48499 18.6828 3.65058 18.6552 3.98177 18.6L7.14433 18.0729C7.30472 18.0462 7.38492 18.0328 7.45854 18.0328C7.53056 18.0328 7.58257 18.0386 7.65284 18.0543C7.72468 18.0704 7.81356 18.1065 7.9913 18.1787C8.92003 18.5559 9.93563 18.7637 10.9998 18.7637ZM7.4442 10.7637C7.4442 11.0091 7.24522 11.2081 6.99976 11.2081C6.7543 11.2081 6.55531 11.0091 6.55531 10.7637C6.55531 10.5182 6.7543 10.3192 6.99976 10.3192C7.24522 10.3192 7.4442 10.5182 7.4442 10.7637ZM11.4442 10.7637C11.4442 11.0091 11.2452 11.2081 10.9998 11.2081C10.7543 11.2081 10.5553 11.0091 10.5553 10.7637C10.5553 10.5182 10.7543 10.3192 10.9998 10.3192C11.2452 10.3192 11.4442 10.5182 11.4442 10.7637ZM15.4442 10.7637C15.4442 11.0091 15.2452 11.2081 14.9998 11.2081C14.7543 11.2081 14.5553 11.0091 14.5553 10.7637C14.5553 10.5182 14.7543 10.3192 14.9998 10.3192C15.2452 10.3192 15.4442 10.5182 15.4442 10.7637Z" stroke="#001E00" stroke-width="1.57525" stroke-linecap="round" stroke-linejoin="round"/>
</svg>
