<svg width="26" height="27" viewBox="0 0 26 27" fill="none" xmlns="http://www.w3.org/2000/svg">
<path d="M24.8625 14.506H22.6958C22.443 16.7629 21.5088 18.6996 19.8932 20.3159C18.2776 21.9322 16.341 22.8664 14.0833 23.1185V25.2852L11.9166 25.2852V23.1185C9.65967 22.8657 7.72304 21.9312 6.1067 20.3148C4.49037 18.6985 3.55617 16.7622 3.30412 14.506H1.13745L1.13745 12.3393H3.30412C3.5569 10.0824 4.49145 8.14573 6.10779 6.5294C7.72412 4.91307 9.6604 3.97887 11.9166 3.72682V1.56015L14.0833 1.56015V3.72682C16.3402 3.9796 18.2769 4.91379 19.8932 6.5294C21.5095 8.14501 22.4437 10.0817 22.6958 12.3393H24.8625L24.8625 14.506ZM20.5833 13.4227C20.5833 11.3282 19.843 9.54071 18.3625 8.06015C16.8819 6.5796 15.0944 5.83932 13 5.83932C10.9055 5.83932 9.11801 6.5796 7.63745 8.06015C6.1569 9.54071 5.41662 11.3282 5.41662 13.4227C5.41662 15.5171 6.1569 17.3046 7.63745 18.7852C9.11801 20.2657 10.9055 21.006 13 21.006C15.0944 21.006 16.8819 20.2657 18.3625 18.7852C19.843 17.3046 20.5833 15.5171 20.5833 13.4227ZM17.3333 13.4227C17.3333 14.6143 16.909 15.6345 16.0604 16.4831C15.2118 17.3317 14.1916 17.756 13 17.756C11.8083 17.756 10.7881 17.3317 9.93954 16.4831C9.09092 15.6345 8.66662 14.6143 8.66662 13.4227C8.66662 12.231 9.09092 11.2108 9.93954 10.3622C10.7881 9.51363 11.8083 9.08932 13 9.08932C14.1916 9.08932 15.2118 9.51363 16.0604 10.3622C16.909 11.2108 17.3333 12.231 17.3333 13.4227Z" fill="#40AF2D"/>
</svg>
