<svg width="14" height="13" viewBox="0 0 14 13" fill="none" xmlns="http://www.w3.org/2000/svg">
<path d="M6.40802 1.05969C6.45128 0.971544 6.52165 0.896684 6.61062 0.844154C6.69959 0.791625 6.80336 0.763672 6.9094 0.763672C7.01544 0.763672 7.11921 0.791625 7.20818 0.844154C7.29715 0.896684 7.36752 0.971544 7.41077 1.05969L8.92644 4.14669C8.96465 4.22471 9.02419 4.29252 9.09937 4.34363C9.17455 4.39475 9.26286 4.42748 9.35587 4.43869L12.9363 4.86969C13.0384 4.88184 13.1346 4.91985 13.214 4.97937C13.2935 5.03889 13.353 5.11754 13.3857 5.20635C13.4185 5.29516 13.4231 5.39056 13.3992 5.48168C13.3753 5.57279 13.3238 5.65595 13.2505 5.72169L10.5827 8.12169C10.5189 8.1789 10.4714 8.24945 10.4444 8.32719C10.4174 8.40492 10.4117 8.48749 10.4278 8.56769L11.1099 11.9797C11.1285 12.0735 11.1173 12.1703 11.0775 12.2585C11.0378 12.3467 10.9711 12.4227 10.8855 12.4776C10.7998 12.5325 10.6987 12.5639 10.594 12.5682C10.4894 12.5724 10.3856 12.5494 10.2949 12.5017L7.18452 10.8567C7.10104 10.8128 7.00634 10.7897 6.90995 10.7897C6.81355 10.7897 6.71885 10.8128 6.63537 10.8567L3.52607 12.4957C3.43537 12.5434 3.33158 12.5664 3.22695 12.5622C3.12232 12.5579 3.02121 12.5265 2.93555 12.4716C2.84988 12.4167 2.78324 12.3407 2.74348 12.2525C2.70372 12.1643 2.69249 12.0675 2.71113 11.9737L3.39538 8.56169C3.41145 8.48149 3.40575 8.39892 3.37876 8.32119C3.35177 8.24345 3.30431 8.1729 3.24051 8.11569L0.570538 5.72069C0.497234 5.65495 0.445689 5.57179 0.421776 5.48068C0.397863 5.38956 0.402544 5.29416 0.435287 5.20535C0.468029 5.11654 0.527515 5.03789 0.606965 4.97837C0.686415 4.91885 0.782633 4.88084 0.884653 4.86869L4.46403 4.43769C4.55704 4.42648 4.64535 4.39375 4.72053 4.34263C4.7957 4.29152 4.85524 4.22371 4.89346 4.14569L6.40802 1.05969Z" fill="#E6B045"/>
</svg>
