<svg width="21" height="21" viewBox="0 0 21 21" fill="none" xmlns="http://www.w3.org/2000/svg">
<path d="M4.39958 8.38006V15.0467M8.14958 8.38006V15.0467M12.3162 8.38006V15.0467M16.0662 8.38006V15.0467M2.73291 16.3801L2.73291 17.0467C2.73291 17.5134 2.73291 17.7468 2.82374 17.9251C2.90363 18.0819 3.03112 18.2093 3.18792 18.2892C3.36618 18.3801 3.59953 18.3801 4.06624 18.3801H16.3996C16.8663 18.3801 17.0996 18.3801 17.2779 18.2892C17.4347 18.2093 17.5622 18.0819 17.6421 17.9251C17.7329 17.7468 17.7329 17.5134 17.7329 17.0467V16.3801C17.7329 15.9134 17.7329 15.68 17.6421 15.5017C17.5622 15.3449 17.4347 15.2175 17.2779 15.1376C17.0996 15.0467 16.8663 15.0467 16.3996 15.0467H4.06624C3.59953 15.0467 3.36618 15.0467 3.18792 15.1376C3.03112 15.2175 2.90363 15.3449 2.82374 15.5017C2.73291 15.68 2.73291 15.9134 2.73291 16.3801ZM9.94367 3.44434L3.777 4.81471C3.40445 4.8975 3.21818 4.93889 3.07913 5.03906C2.95649 5.12742 2.86018 5.24748 2.80053 5.38637C2.73291 5.54383 2.73291 5.73465 2.73291 6.11629L2.73291 7.04673C2.73291 7.51344 2.73291 7.74679 2.82374 7.92505C2.90363 8.08186 3.03112 8.20934 3.18792 8.28923C3.36618 8.38006 3.59953 8.38006 4.06624 8.38006H16.3996C16.8663 8.38006 17.0996 8.38006 17.2779 8.28923C17.4347 8.20934 17.5622 8.08186 17.6421 7.92505C17.7329 7.74679 17.7329 7.51344 17.7329 7.04673V6.11629C17.7329 5.73465 17.7329 5.54383 17.6653 5.38637C17.6056 5.24748 17.5093 5.12742 17.3867 5.03907C17.2476 4.93889 17.0614 4.8975 16.6888 4.81471L10.5222 3.44434C10.4142 3.42035 10.3602 3.40836 10.3057 3.40358C10.2573 3.39933 10.2086 3.39933 10.1601 3.40358C10.1056 3.40836 10.0516 3.42035 9.94367 3.44434Z" stroke="#001E00" stroke-linecap="round" stroke-linejoin="round"/>
</svg>
