<svg width="249" height="225" viewBox="0 0 249 225" fill="none" xmlns="http://www.w3.org/2000/svg">
<path d="M237.05 224.924H16.6618C16.4151 224.924 16.2148 224.723 16.2148 224.476C16.2148 224.228 16.4151 224.027 16.6618 224.027H237.05C237.297 224.027 237.497 224.228 237.497 224.476C237.497 224.723 237.297 224.924 237.05 224.924Z" fill="#001E00"/>
<path d="M186.875 224.476H65.6503L56.0241 51.5762C55.4234 40.7897 63.6518 32.0449 74.4013 32.0449H156.697C167.447 32.0449 176.649 40.7897 177.249 51.5762L186.875 224.476Z" fill="white"/>
<path d="M186.876 224.925H65.651C65.4136 224.925 65.218 224.74 65.2052 224.503L55.5778 51.6012C55.2798 46.2541 57.0782 41.227 60.6412 37.4462C64.196 33.6736 69.0837 31.5957 74.4008 31.5957H156.697C167.663 31.5957 177.082 40.5473 177.695 51.551L187.322 224.451C187.329 224.574 187.284 224.694 187.201 224.784C187.116 224.874 186.999 224.925 186.876 224.925ZM66.0736 224.028H186.404L176.805 51.6012C176.218 41.0647 167.198 32.4927 156.699 32.4927H74.402C69.3328 32.4927 64.6768 34.4713 61.2919 38.0618C57.8988 41.6615 56.1866 46.4527 56.4706 51.551L66.0736 224.028Z" fill="#001E00"/>
<path d="M104.614 44.0361C105.716 42.8995 105.638 41.0305 104.44 39.8616C103.243 38.6927 101.379 38.6666 100.277 39.8032C99.1753 40.9399 99.2532 42.8089 100.451 43.9778C101.649 45.1467 103.513 45.1728 104.614 44.0361Z" fill="#001E00"/>
<path d="M130.633 44.303H110.158C108.944 44.303 107.905 43.316 107.837 42.0978L107.798 41.4005C107.731 40.1823 108.66 39.1953 109.874 39.1953H130.349C131.563 39.1953 132.601 40.1823 132.67 41.4005L132.708 42.0978C132.775 43.316 131.847 44.303 130.633 44.303Z" fill="#001E00"/>
<path d="M148.655 80.9716C148.211 80.9716 147.827 80.641 147.77 80.1878C147.66 79.3258 144.869 59.1159 126.625 61.1856C126.135 61.2429 125.693 60.8878 125.637 60.3961C125.581 59.9043 125.934 59.4593 126.424 59.4044C146.423 57.1338 149.514 79.7335 149.543 79.9612C149.605 80.4518 149.259 80.9003 148.769 80.9634C148.73 80.9692 148.693 80.9716 148.655 80.9716Z" fill="#FFCC3D"/>
<path d="M136.144 80.7028C136.512 85.0664 140.165 88.7153 144.446 88.8695C148.894 89.0295 152.33 85.383 151.96 80.7063C151.588 76.0144 147.553 72.3352 143.106 72.4953C138.827 72.6494 135.775 76.3275 136.144 80.7028Z" fill="#40AF2D"/>
<path d="M144.229 72.4953C148.675 72.3352 152.711 76.0144 153.08 80.7063C153.447 85.383 150.01 89.0295 145.562 88.8695H144.446C148.894 89.0295 152.33 85.383 151.96 80.7063C151.589 76.0144 147.553 72.3352 143.106 72.4953H144.229Z" fill="#001E00"/>
<path d="M140.339 80.7025C140.502 82.6694 142.162 84.2871 144.073 84.3186C146.018 84.3501 147.487 82.7324 147.323 80.7048C147.159 78.6736 145.426 77.0501 143.481 77.0805C141.569 77.1097 140.176 78.732 140.339 80.7025Z" fill="#FFCC3D"/>
<path d="M136.225 63.4395C136.225 63.4395 143.661 67.4609 146.124 73.0287C148.587 78.5966 145.935 91.2122 154.331 97.9305C162.726 104.649 177.441 118.79 163.08 129.595C148.718 140.4 126.125 116.734 126.125 116.734L125.899 94.298L136.225 63.4395Z" fill="#001E00"/>
<path d="M170.547 191.016L176.017 224.475H105.674V191.016H170.547Z" fill="#001E00"/>
<path d="M221.807 115.866C221.388 116.618 220.785 117.381 219.943 118.138C217.26 120.541 212.483 126.268 211.432 127.543L193.718 115.064L193.961 115.23L215.624 89.1431C216.516 88.1024 217.893 87.7602 219.11 88.1316C219.621 88.2881 220.094 88.5707 220.498 88.9772C221.54 90.0424 221.749 91.6741 221.004 92.9648L215.511 102.507C215.511 102.507 218.379 103.094 218.594 105.869C218.594 105.869 218.613 105.869 218.656 105.874C219.056 105.898 221.121 106.211 221.378 109.421C222.022 109.626 223.663 112.582 221.807 115.866Z" fill="white"/>
<path d="M211.43 127.991C211.342 127.991 211.252 127.965 211.174 127.91L193.461 115.431C193.259 115.29 193.21 115.012 193.35 114.809C193.468 114.639 193.682 114.577 193.868 114.642L215.281 88.8557C216.256 87.7169 217.809 87.2672 219.241 87.7029C219.833 87.8839 220.362 88.2063 220.815 88.6607C221.997 89.8695 222.234 91.7313 221.392 93.189L216.184 102.237C217.26 102.638 218.695 103.626 218.998 105.468C219.724 105.614 221.485 106.266 221.804 109.15C222.182 109.441 222.509 110.02 222.71 110.535C223.032 111.361 223.628 113.555 222.199 116.084C221.734 116.918 221.077 117.721 220.242 118.47C217.456 120.966 212.35 127.132 211.776 127.828C211.687 127.935 211.56 127.991 211.43 127.991ZM194.612 115.146L211.351 126.938C212.577 125.462 217.068 120.111 219.646 117.802C220.406 117.119 221.002 116.394 221.419 115.645C221.419 115.644 221.42 115.644 221.42 115.643C222.509 113.715 222.247 112.032 221.995 111.202C221.731 110.332 221.338 109.895 221.233 109.842C221.06 109.787 220.95 109.637 220.935 109.456C220.704 106.592 218.974 106.341 218.631 106.32C218.388 106.307 218.168 106.143 218.149 105.902C217.963 103.492 215.449 102.949 215.423 102.944C215.282 102.915 215.163 102.82 215.105 102.688C215.046 102.558 215.054 102.406 215.126 102.281L220.619 92.7382C221.26 91.6274 221.08 90.2094 220.18 89.289C219.836 88.9433 219.431 88.6969 218.981 88.559C217.889 88.225 216.705 88.5696 215.964 89.4339L194.612 115.146Z" fill="#001E00"/>
<path d="M213.298 115.326C213.298 115.326 211.441 121.379 217.167 118.909C217.167 118.909 218.919 118.292 221.81 115.865C223.662 112.582 222.025 109.621 221.381 109.424L213.298 115.326Z" fill="white"/>
<path d="M214.862 119.948C214.234 119.948 213.723 119.774 213.335 119.424C211.993 118.215 212.778 115.499 212.871 115.193C212.899 115.1 212.957 115.02 213.035 114.963L221.118 109.061C221.232 108.978 221.377 108.952 221.511 108.995C222.004 109.146 222.447 109.875 222.697 110.504C223.027 111.334 223.637 113.538 222.199 116.086C222.172 116.133 222.139 116.175 222.097 116.209C219.176 118.659 217.389 119.306 217.315 119.332C216.365 119.741 215.545 119.948 214.862 119.948ZM213.684 115.597C213.476 116.37 213.199 118.098 213.932 118.757C214.453 119.225 215.51 119.135 216.99 118.497C217.034 118.481 218.72 117.862 221.46 115.573C222.504 113.672 222.243 112.018 221.993 111.196C221.802 110.571 221.546 110.171 221.38 109.979L213.684 115.597Z" fill="#001E00"/>
<path d="M209.871 111.797C209.897 111.795 209.924 111.797 209.946 111.794C212.557 111.645 218.591 105.867 218.591 105.867C218.379 103.089 215.513 102.506 215.513 102.506L208.505 107.786C206.788 109.077 207.721 111.869 209.871 111.797Z" fill="white"/>
<path d="M209.792 112.246C208.666 112.246 207.704 111.559 207.324 110.474C206.926 109.339 207.285 108.142 208.237 107.426L215.243 102.145C215.345 102.068 215.475 102.041 215.6 102.065C216.706 102.29 218.848 103.366 219.035 105.832C219.046 105.965 218.996 106.097 218.898 106.19C218.268 106.793 212.667 112.086 209.97 112.24C209.963 112.24 209.915 112.244 209.908 112.244L209.869 111.797L209.884 112.245C209.854 112.246 209.823 112.246 209.792 112.246ZM215.608 102.992L208.773 108.144C208.003 108.724 207.966 109.602 208.167 110.179C208.372 110.765 208.926 111.401 209.855 111.349V111.35C209.872 111.349 209.893 111.349 209.9 111.349C211.864 111.237 216.351 107.366 218.123 105.695C217.867 103.812 216.181 103.16 215.608 102.992Z" fill="#001E00"/>
<path d="M211.186 114.944C213.993 117.136 221.38 109.425 221.38 109.425C221.121 106.209 219.056 105.9 218.659 105.873C218.659 105.873 208.403 112.771 211.186 114.944Z" fill="white"/>
<path d="M212.41 115.778C211.85 115.778 211.341 115.634 210.91 115.297C210.466 114.95 210.241 114.471 210.261 113.914C210.363 110.994 217.586 106.055 218.409 105.5C218.49 105.445 218.587 105.417 218.686 105.425C218.976 105.444 221.528 105.714 221.824 109.387C221.835 109.514 221.789 109.642 221.701 109.734C221.028 110.437 215.799 115.777 212.41 115.778ZM218.772 106.336C216.551 107.849 211.226 111.901 211.154 113.946C211.144 114.218 211.239 114.417 211.46 114.589C213.243 115.978 218.14 112.117 220.916 109.26C220.653 106.862 219.292 106.418 218.772 106.336Z" fill="#001E00"/>
<path d="M193.352 116.02L198.125 102.67C198.693 100.397 200.949 98.981 203.234 99.4633L210.773 101.055C211.545 101.219 211.994 102.031 211.724 102.773C211.065 104.584 209.259 105.707 207.35 105.494L203.558 105.069L204.06 107.227C205.356 109.173 205.053 110.49 203.716 113.073" fill="white"/>
<path d="M193.352 116.467C193.302 116.467 193.251 116.459 193.2 116.442C192.968 116.359 192.848 116.102 192.93 115.868L197.704 102.518C198.32 100.043 200.794 98.492 203.325 99.0246L210.864 100.617C211.359 100.721 211.784 101.036 212.029 101.48C212.275 101.924 212.316 102.451 212.142 102.928C211.41 104.939 209.42 106.182 207.298 105.94L204.135 105.586L204.476 107.048C205.84 109.141 205.462 110.672 204.111 113.281C203.997 113.501 203.727 113.586 203.508 113.472C203.289 113.358 203.204 113.087 203.318 112.868C204.618 110.359 204.853 109.227 203.688 107.476C203.658 107.432 203.637 107.382 203.624 107.329L203.121 105.172C203.089 105.03 203.126 104.881 203.222 104.772C203.319 104.664 203.461 104.608 203.607 104.625L207.399 105.05C209.109 105.244 210.714 104.243 211.304 102.622C211.389 102.39 211.368 102.133 211.249 101.917C211.13 101.7 210.924 101.547 210.681 101.496L203.142 99.9041C201.083 99.4672 199.071 100.733 198.56 102.781L193.773 116.173C193.707 116.353 193.536 116.467 193.352 116.467Z" fill="#001E00"/>
<path d="M214.287 129.374L190.836 164.427C188.718 168.489 184.893 171.381 180.419 172.301C179.398 172.509 178.378 172.612 177.363 172.612C172.905 172.612 168.61 170.647 165.686 167.137L144.568 140.07L142.491 116.61L159.055 116.65C163.475 116.957 168.294 119.21 170.171 123.235L178.115 134.261L193.022 113.625L214.287 129.374Z" fill="#FFCC3D"/>
<path opacity="0.4" d="M201.682 148.669C201.659 148.669 201.636 148.667 201.613 148.664C198.357 148.163 195.902 145.289 195.902 141.979C195.902 138.249 198.926 135.215 202.643 135.215C204.99 135.215 207.201 136.469 208.415 138.488C208.543 138.7 208.475 138.976 208.264 139.103C208.052 139.229 207.779 139.162 207.651 138.951C206.597 137.199 204.679 136.112 202.643 136.112C199.419 136.112 196.796 138.743 196.796 141.979C196.796 144.851 198.925 147.345 201.749 147.779C201.994 147.816 202.16 148.045 202.123 148.291C202.089 148.51 201.898 148.669 201.682 148.669Z" fill="white"/>
<path d="M190.834 164.877C190.748 164.877 190.662 164.853 190.585 164.801C190.38 164.663 190.326 164.384 190.463 164.179L213.677 129.481L193.127 114.264L175.161 140.61C175.021 140.813 174.743 140.865 174.539 140.726C174.336 140.586 174.283 140.307 174.423 140.103L192.65 113.374C192.719 113.274 192.825 113.206 192.945 113.186C193.064 113.165 193.187 113.196 193.284 113.267L214.55 129.015C214.742 129.157 214.788 129.426 214.655 129.626L191.204 164.68C191.119 164.807 190.979 164.877 190.834 164.877Z" fill="#001E00"/>
<path d="M173.413 194.935L123.12 199.49L109.609 200.719L103.602 201.262L97.5945 133.059C96.8973 128.687 98.6421 122.946 102.856 121.636C110.473 119.267 121.408 117.947 127.882 117.248C138.51 116.101 155.389 116.854 155.389 116.854C160.456 117.045 164.651 120.866 165.347 125.903L173.413 194.935Z" fill="#FFCC3D"/>
<path opacity="0.4" d="M150.114 157.166C148.476 157.166 147.144 155.828 147.144 154.185C147.144 152.54 148.476 151.203 150.114 151.203C151.752 151.203 153.085 152.54 153.085 154.185C153.085 155.828 151.752 157.166 150.114 157.166ZM150.114 152.1C148.969 152.1 148.036 153.036 148.036 154.185C148.036 155.334 148.969 156.27 150.114 156.27C151.259 156.27 152.192 155.334 152.192 154.185C152.191 153.036 151.259 152.1 150.114 152.1Z" fill="white"/>
<path opacity="0.6" d="M138.415 172.21C138.327 172.21 138.24 172.171 138.182 172.097L134.636 167.637C134.534 167.508 134.555 167.32 134.683 167.218C134.811 167.115 134.999 167.136 135.102 167.264L138.647 171.725C138.75 171.853 138.729 172.041 138.601 172.144C138.545 172.189 138.48 172.21 138.415 172.21Z" fill="white"/>
<path d="M131.319 165.042L135.878 161.943C136.165 161.705 136.38 161.411 136.527 161.077C136.768 160.49 136.747 159.781 136.426 159.177C135.8 157.987 134.273 157.634 133.173 158.414L118.236 165.068L122.907 183.528" fill="white"/>
<path d="M122.909 183.976C122.71 183.976 122.527 183.842 122.476 183.638L117.805 165.178C117.751 164.967 117.857 164.747 118.056 164.658L132.954 158.023C133.582 157.593 134.359 157.447 135.096 157.625C135.838 157.802 136.466 158.292 136.822 158.968C137.195 159.669 137.239 160.521 136.941 161.248C136.754 161.668 136.494 162.015 136.162 162.289L131.569 165.414C131.364 165.552 131.087 165.499 130.949 165.295C130.81 165.091 130.864 164.811 131.067 164.672L135.627 161.573C135.818 161.413 135.995 161.177 136.119 160.896C136.312 160.426 136.281 159.858 136.032 159.39C135.792 158.934 135.386 158.617 134.887 158.498C134.385 158.376 133.855 158.482 133.43 158.782C133.406 158.799 133.38 158.814 133.354 158.825L118.76 165.325L123.338 183.42C123.399 183.659 123.255 183.904 123.015 183.964C122.982 183.971 122.945 183.976 122.909 183.976Z" fill="#001E00"/>
<path d="M155.133 184.975L131.709 188.791C128.638 189.291 126.012 186.566 126.613 183.503L132.735 152.299C133.096 150.462 134.558 149.043 136.401 148.743L159.825 144.927C162.896 144.427 165.522 147.152 164.921 150.214L158.798 181.419C158.438 183.256 156.976 184.675 155.133 184.975Z" fill="#001E00"/>
<path d="M122.909 183.529L143.049 180.554C143.669 180.375 144.122 179.844 144.349 179.288C144.51 178.91 144.563 178.498 144.465 178.076C144.246 177.012 143.22 176.256 142.15 176.44L138.496 176.926L145.291 175.986C146.065 175.883 146.765 175.397 147.077 174.667C147.082 174.66 147.082 174.654 147.082 174.654C147.243 174.277 147.296 173.859 147.198 173.443C146.98 172.379 145.953 171.623 144.889 171.807L137.942 172.731L148.313 171.315C148.934 171.136 149.38 170.599 149.614 170.043C149.775 169.672 149.822 169.255 149.731 168.839C149.512 167.775 148.495 167.083 147.423 167.262L137.384 168.501L144.674 167.532C145.294 167.353 145.746 166.816 145.974 166.26C146.136 165.888 146.188 165.47 146.091 165.056C145.873 163.992 144.854 163.294 143.789 163.479L128.809 164.448" fill="white"/>
<path d="M122.908 183.977C122.69 183.977 122.499 183.817 122.467 183.594C122.431 183.349 122.599 183.121 122.844 183.085L142.952 180.115C143.366 179.984 143.734 179.613 143.937 179.117C144.072 178.799 144.103 178.485 144.032 178.178C143.855 177.317 143.046 176.736 142.227 176.883L138.557 177.371C138.312 177.411 138.089 177.232 138.055 176.987C138.022 176.741 138.192 176.516 138.437 176.482L145.231 175.542C145.874 175.457 146.42 175.058 146.664 174.502C146.666 174.495 146.67 174.487 146.673 174.479C146.805 174.172 146.836 173.848 146.766 173.546C146.59 172.684 145.783 172.104 144.967 172.249L138.003 173.175C137.759 173.214 137.534 173.036 137.501 172.791C137.468 172.546 137.64 172.32 137.884 172.288H137.885L148.219 170.877C148.625 170.748 148.991 170.373 149.203 169.87C149.333 169.571 149.364 169.249 149.296 168.936C149.125 168.104 148.334 167.567 147.497 167.706L137.439 168.947C137.196 168.975 136.973 168.805 136.941 168.56C136.91 168.315 137.082 168.091 137.325 168.058L144.579 167.093C144.991 166.962 145.356 166.59 145.561 166.09C145.696 165.781 145.727 165.461 145.656 165.158C145.483 164.315 144.697 163.78 143.865 163.921L128.839 164.895C128.594 164.91 128.38 164.724 128.364 164.477C128.347 164.231 128.535 164.017 128.78 164.002L143.76 163.033C145.023 162.806 146.259 163.659 146.528 164.967C146.641 165.447 146.591 165.961 146.382 166.441C146.304 166.631 146.208 166.811 146.096 166.976L147.368 166.819C148.663 166.603 149.901 167.45 150.169 168.75C150.277 169.244 150.227 169.757 150.023 170.224C149.701 170.992 149.122 171.55 148.438 171.747C148.417 171.753 148.396 171.757 148.375 171.76L146.843 171.969C147.234 172.322 147.524 172.799 147.638 173.353C147.749 173.826 147.702 174.336 147.5 174.818C147.496 174.826 147.493 174.835 147.489 174.843C147.125 175.695 146.305 176.302 145.351 176.429L144.11 176.601C144.502 176.953 144.791 177.432 144.905 177.984C145.017 178.463 144.968 178.978 144.762 179.462C144.455 180.214 143.86 180.784 143.174 180.982C143.155 180.988 143.136 180.992 143.116 180.995L122.977 183.97C122.952 183.976 122.93 183.977 122.908 183.977Z" fill="#001E00"/>
<path d="M127.093 183.822L93.9751 194.819C92.1279 195.449 90.2271 195.762 88.3402 195.762C83.5026 195.762 78.7814 193.732 75.4186 190C70.8313 184.908 69.6475 177.591 72.3806 171.298L83.7017 135.727C85.4942 128.497 91.5494 123.135 98.9233 122.245L116.291 119.564L96.9864 168.26L121.123 160.249L127.093 183.822Z" fill="#FFCC3D"/>
<path d="M93.9743 195.627C93.788 195.627 93.6146 195.51 93.5517 195.323C93.4714 195.089 93.596 194.834 93.8299 194.754L126.558 183.529L120.808 160.821L97.124 168.681C96.9681 168.732 96.797 168.694 96.6771 168.582C96.5572 168.468 96.5095 168.299 96.5525 168.139L103.39 142.507C103.454 142.269 103.698 142.125 103.937 142.191C104.176 142.255 104.316 142.5 104.252 142.74L97.6292 167.569L120.983 159.819C121.1 159.781 121.229 159.792 121.338 159.851C121.446 159.91 121.525 160.013 121.556 160.134L127.527 183.708C127.584 183.935 127.458 184.167 127.238 184.243L94.1186 195.602C94.0709 195.619 94.022 195.627 93.9743 195.627ZM173.413 195.381C173.189 195.381 172.996 195.213 172.969 194.985L165.558 131.56C165.529 131.314 165.705 131.091 165.95 131.062C166.195 131.043 166.417 131.209 166.446 131.456L173.857 194.882C173.886 195.127 173.711 195.35 173.466 195.379C173.448 195.38 173.43 195.381 173.413 195.381Z" fill="#001E00"/>
<path d="M91.6862 170.634C91.5034 170.634 91.3323 170.521 91.266 170.338C91.1822 170.106 91.3021 169.849 91.5337 169.764L96.8322 167.833C97.0639 167.75 97.3199 167.868 97.4049 168.102C97.4887 168.334 97.3688 168.591 97.1372 168.676L91.8387 170.607C91.7886 170.626 91.7362 170.634 91.6862 170.634Z" fill="#001E00"/>
<path opacity="0.4" d="M119.239 143.572C116.616 143.572 114.481 141.434 114.481 138.804C114.481 136.172 116.616 134.03 119.239 134.03C121.86 134.03 123.991 136.172 123.991 138.804C123.991 141.434 121.86 143.572 119.239 143.572ZM119.239 134.927C117.108 134.927 115.375 136.666 115.375 138.804C115.375 140.94 117.109 142.675 119.239 142.675C121.366 142.675 123.097 140.938 123.097 138.804C123.098 136.666 121.367 134.927 119.239 134.927ZM81.4618 150.744C80.6156 150.744 79.7763 150.55 79.036 150.182C78.8149 150.072 78.7241 149.804 78.8335 149.582C78.9429 149.36 79.2106 149.267 79.4318 149.378C80.0499 149.684 80.7518 149.847 81.4618 149.847C84.068 149.847 86.1876 147.72 86.1876 145.105C86.1876 142.783 84.5406 140.822 82.2708 140.444C82.0275 140.403 81.8622 140.173 81.903 139.928C81.9437 139.684 82.173 139.517 82.4163 139.559C85.1179 140.01 87.0793 142.341 87.0793 145.105C87.0816 148.215 84.5604 150.744 81.4618 150.744ZM94.9514 143.072C92.4663 143.072 90.4456 141.044 90.4456 138.551C90.4456 136.057 92.4674 134.03 94.9514 134.03C97.4365 134.03 99.4572 136.058 99.4572 138.551C99.4572 141.044 97.4365 143.072 94.9514 143.072ZM94.9514 134.926C92.9598 134.926 91.3383 136.551 91.3383 138.551C91.3383 140.551 92.9586 142.176 94.9514 142.176C96.943 142.176 98.5645 140.551 98.5645 138.551C98.5645 136.551 96.943 134.926 94.9514 134.926ZM86.0875 162.108C84.9957 162.108 84.1064 161.216 84.1064 160.12C84.1064 159.025 84.9957 158.133 86.0875 158.133C87.1794 158.133 88.0687 159.025 88.0687 160.12C88.0687 161.216 87.1805 162.108 86.0875 162.108ZM86.0875 159.028C85.4881 159.028 85.0004 159.518 85.0004 160.119C85.0004 160.721 85.4881 161.21 86.0875 161.21C86.687 161.21 87.1747 160.721 87.1747 160.119C87.1747 159.518 86.6882 159.028 86.0875 159.028ZM85.3344 182.441C83.7793 182.441 82.5141 181.171 82.5141 179.611C82.5141 178.05 83.7793 176.781 85.3344 176.781C86.8895 176.781 88.1548 178.05 88.1548 179.611C88.1548 181.171 86.8895 182.441 85.3344 182.441ZM85.3344 177.677C84.2717 177.677 83.4069 178.544 83.4069 179.611C83.4069 180.677 84.2717 181.545 85.3344 181.545C86.3972 181.545 87.262 180.677 87.262 179.611C87.2609 178.544 86.3972 177.677 85.3344 177.677ZM117.298 182.496C115.15 182.496 113.403 180.743 113.403 178.588C113.403 176.433 115.15 174.68 117.298 174.68C119.445 174.68 121.193 176.433 121.193 178.588C121.193 180.743 119.445 182.496 117.298 182.496ZM117.298 175.577C115.643 175.577 114.297 176.927 114.297 178.588C114.297 180.249 115.644 181.6 117.298 181.6C118.952 181.6 120.299 180.249 120.299 178.588C120.299 176.927 118.953 175.577 117.298 175.577ZM150.373 139.101C147.587 139.101 145.321 136.827 145.321 134.032C145.321 131.237 147.587 128.963 150.373 128.963C153.158 128.963 155.425 131.237 155.425 134.032C155.425 136.827 153.158 139.101 150.373 139.101ZM150.373 129.859C148.08 129.859 146.214 131.731 146.214 134.032C146.214 136.333 148.08 138.205 150.373 138.205C152.666 138.205 154.531 136.333 154.531 134.032C154.531 131.731 152.666 129.859 150.373 129.859ZM132.263 135.462C130.58 135.462 129.21 134.087 129.21 132.398C129.21 130.708 130.58 129.333 132.263 129.333C133.948 129.333 135.317 130.708 135.317 132.398C135.317 134.087 133.947 135.462 132.263 135.462ZM132.263 130.23C131.073 130.23 130.103 131.203 130.103 132.398C130.103 133.593 131.071 134.565 132.263 134.565C133.454 134.565 134.424 133.592 134.424 132.398C134.423 131.202 133.454 130.23 132.263 130.23ZM111.634 156.549C110.165 156.549 108.971 155.35 108.971 153.876C108.971 152.402 110.165 151.204 111.634 151.204C113.103 151.204 114.297 152.402 114.297 153.876C114.297 155.349 113.103 156.549 111.634 156.549ZM111.634 152.1C110.658 152.1 109.865 152.896 109.865 153.876C109.865 154.855 110.658 155.652 111.634 155.652C112.609 155.652 113.403 154.855 113.403 153.876C113.403 152.896 112.609 152.1 111.634 152.1ZM164.251 187.598C162.015 187.598 160.195 185.772 160.195 183.527C160.195 181.283 162.014 179.457 164.251 179.457C166.487 179.457 168.308 181.282 168.308 183.527C168.308 185.772 166.489 187.598 164.251 187.598ZM164.251 180.354C162.508 180.354 161.089 181.778 161.089 183.527C161.089 185.277 162.508 186.701 164.251 186.701C165.995 186.701 167.414 185.277 167.414 183.527C167.414 181.778 165.995 180.354 164.251 180.354ZM121.986 195.907C120.081 195.907 118.529 194.351 118.529 192.438C118.529 190.526 120.08 188.97 121.986 188.97C123.893 188.97 125.444 190.526 125.444 192.438C125.444 194.351 123.893 195.907 121.986 195.907ZM121.986 189.867C120.573 189.867 119.423 191.021 119.423 192.439C119.423 193.857 120.573 195.011 121.986 195.011C123.4 195.011 124.55 193.857 124.55 192.439C124.55 191.02 123.4 189.867 121.986 189.867ZM125.932 154.31C124.472 154.31 123.283 153.117 123.283 151.651C123.283 150.185 124.472 148.993 125.932 148.993C127.393 148.993 128.582 150.185 128.582 151.651C128.582 153.117 127.392 154.31 125.932 154.31ZM125.932 149.89C124.964 149.89 124.177 150.681 124.177 151.651C124.177 152.623 124.965 153.413 125.932 153.413C126.901 153.413 127.688 152.622 127.688 151.651C127.688 150.681 126.9 149.89 125.932 149.89ZM187.855 153.521C186.081 153.521 184.638 152.073 184.638 150.293C184.638 148.513 186.081 147.065 187.855 147.065C189.629 147.065 191.072 148.513 191.072 150.293C191.072 152.073 189.63 153.521 187.855 153.521ZM187.855 147.962C186.573 147.962 185.532 149.008 185.532 150.293C185.532 151.578 186.575 152.624 187.855 152.624C189.135 152.624 190.178 151.578 190.178 150.293C190.178 149.008 189.136 147.962 187.855 147.962ZM178.119 164.787C176.714 164.787 175.57 163.64 175.57 162.23C175.57 160.82 176.713 159.672 178.119 159.672C179.525 159.672 180.668 160.819 180.668 162.23C180.667 163.64 179.524 164.787 178.119 164.787ZM178.119 160.569C177.207 160.569 176.464 161.314 176.464 162.23C176.464 163.146 177.207 163.891 178.119 163.891C179.032 163.891 179.774 163.146 179.774 162.23C179.774 161.314 179.032 160.569 178.119 160.569ZM170.171 139.475C169 139.475 168.048 138.518 168.048 137.343C168.048 136.168 169 135.213 170.171 135.213C171.342 135.213 172.295 136.168 172.295 137.343C172.295 138.518 171.341 139.475 170.171 139.475ZM170.171 136.111C169.493 136.111 168.941 136.665 168.941 137.344C168.941 138.025 169.493 138.579 170.171 138.579C170.85 138.579 171.402 138.025 171.402 137.344C171.401 136.664 170.849 136.111 170.171 136.111ZM189.086 138.776C187.21 138.776 185.684 137.245 185.684 135.362C185.684 133.48 187.21 131.949 189.086 131.949C190.963 131.949 192.489 133.481 192.489 135.362C192.489 137.245 190.963 138.776 189.086 138.776ZM189.086 132.846C187.704 132.846 186.578 133.975 186.578 135.364C186.578 136.752 187.704 137.881 189.086 137.881C190.469 137.881 191.595 136.751 191.595 135.364C191.595 133.976 190.47 132.846 189.086 132.846Z" fill="white"/>
<path d="M140.652 117.689L136.976 96.5283L117.904 96.3496L121.521 118.371C121.521 118.371 127.238 124.418 135.056 122.394C141.339 120.767 140.652 117.689 140.652 117.689Z" fill="white"/>
<path d="M131.864 123.253C125.603 123.254 121.246 118.735 121.195 118.682C121.133 118.616 121.092 118.534 121.078 118.446L117.463 96.4242C117.442 96.2933 117.478 96.1602 117.564 96.0597C117.65 95.9593 117.777 95.8939 117.908 95.9032L136.98 96.0808C137.195 96.0831 137.379 96.2384 137.416 96.4522L141.091 117.606C141.147 117.885 141.644 121.152 135.166 122.829C134.02 123.126 132.915 123.253 131.864 123.253ZM121.937 118.157C122.699 118.901 128.01 123.761 134.943 121.96C140.668 120.478 140.22 117.808 140.216 117.781C140.214 117.778 140.213 117.769 140.213 117.766L136.601 96.9731L118.432 96.8038L121.937 118.157Z" fill="#001E00"/>
<path d="M118.143 97.9213C110.657 88.3169 113.718 73.8921 113.718 73.8921L139.232 65.6133C139.659 66.0279 148.326 74.3966 148.652 89.8037C148.868 99.9887 140.795 105.915 131.156 104.855" fill="white"/>
<path d="M133.316 105.421C132.589 105.421 131.851 105.382 131.107 105.299C130.861 105.272 130.684 105.051 130.711 104.805C130.738 104.558 130.958 104.375 131.203 104.409C136.112 104.946 140.73 103.602 143.872 100.713C146.8 98.0233 148.298 94.2542 148.204 89.8123C147.908 75.7951 140.611 67.653 139.109 66.1241L114.107 74.237C113.753 76.1876 111.76 89.0064 118.494 97.6461C118.646 97.8411 118.611 98.1226 118.417 98.2756C118.223 98.4275 117.942 98.3936 117.789 98.1985C110.262 88.5404 113.25 73.9462 113.28 73.799C113.314 73.6425 113.428 73.5152 113.579 73.4662L139.093 65.1874C139.25 65.1371 139.422 65.1769 139.541 65.2925C140.49 66.2152 148.777 74.6972 149.096 89.7948C149.195 94.5018 147.598 98.5069 144.475 101.377C141.625 103.995 137.643 105.421 133.316 105.421Z" fill="#001E00"/>
<path d="M118.06 97.3095L120.52 87.8732C120.52 87.8732 124.915 89.4593 130.465 83.1486C136.015 76.8391 140.049 69.3359 139.705 65.1544C139.36 60.9742 118.527 58.8671 107.248 69.2471C95.9687 79.6341 100.26 91.2651 102.701 98.9493" fill="#001E00"/>
<path d="M121.559 88.8034C121.559 88.8034 116.286 83.663 113.389 84.7376C110.492 85.8121 111.737 96.094 115.208 97.0097C118.679 97.9255 121.443 96.511 121.443 96.511" fill="white"/>
<path d="M117.61 97.7698C116.839 97.7698 115.991 97.681 115.095 97.4451C112.852 96.8529 111.51 93.0861 111.346 89.6697C111.208 86.8093 111.914 84.8085 113.235 84.3191C116.361 83.1534 121.649 88.2658 121.872 88.483C122.049 88.6559 122.054 88.9397 121.882 89.1172C121.709 89.2948 121.426 89.2994 121.25 89.1266C119.838 87.7518 115.703 84.3576 113.545 85.16C112.637 85.4976 112.124 87.2508 112.239 89.6265C112.387 92.6831 113.581 96.1182 115.324 96.5784C118.577 97.4381 121.216 96.1264 121.243 96.1135C121.463 96.0026 121.731 96.0902 121.843 96.3109C121.955 96.5305 121.868 96.8003 121.648 96.9125C121.557 96.958 119.934 97.7698 117.61 97.7698Z" fill="#001E00"/>
<path d="M117.717 90.1949C117.507 89.82 117.217 89.4906 116.874 89.2325C116.658 89.0713 116.416 88.9358 116.151 88.8891C115.885 88.8424 115.594 88.8961 115.392 89.0725C115.105 89.3236 115.057 89.7499 115.07 90.1318C115.096 90.828 115.265 91.5194 115.563 92.1478" fill="white"/>
<path d="M115.563 92.5982C115.396 92.5982 115.236 92.5047 115.159 92.3424C114.836 91.6614 114.65 90.9034 114.623 90.15C114.6 89.4995 114.755 89.0369 115.098 88.7368C115.388 88.4833 115.811 88.3735 116.227 88.4494C116.53 88.502 116.829 88.641 117.14 88.8746C117.53 89.1666 117.864 89.5473 118.105 89.9737C118.226 90.1897 118.151 90.4631 117.936 90.5845C117.722 90.7072 117.448 90.6313 117.327 90.4163C117.147 90.0963 116.897 89.8113 116.605 89.5917C116.408 89.4446 116.234 89.3593 116.073 89.3313C115.92 89.3056 115.771 89.3348 115.684 89.4107C115.56 89.5182 115.502 89.7623 115.515 90.1162C115.538 90.7481 115.693 91.3846 115.964 91.9558C116.07 92.1789 115.976 92.4463 115.752 92.5526C115.693 92.5842 115.627 92.5982 115.563 92.5982Z" fill="#001E00"/>
<path d="M144.14 84.9843C144.66 84.7355 144.783 83.9026 144.413 83.1239C144.043 82.3453 143.322 81.9158 142.801 82.1647C142.28 82.4135 142.158 83.2464 142.528 84.0251C142.897 84.8037 143.619 85.2332 144.14 84.9843Z" fill="#001E00"/>
<path d="M143.241 80.3328C142.133 80.3048 141.091 81.0184 140.599 82.1432L143.241 80.3328Z" fill="white"/>
<path d="M140.599 82.5912C140.538 82.5912 140.478 82.5795 140.419 82.5538C140.194 82.4545 140.091 82.1894 140.19 81.9628C140.757 80.6687 141.964 79.8709 143.253 79.8849C143.499 79.8908 143.694 80.0964 143.688 80.344C143.682 80.5904 143.471 80.768 143.23 80.7808C142.3 80.7434 141.429 81.3625 141.008 82.3226C140.934 82.4919 140.77 82.5912 140.599 82.5912Z" fill="#001E00"/>
<path d="M135.942 88.8945C136.463 88.6456 136.585 87.8127 136.216 87.0341C135.846 86.2555 135.124 85.826 134.604 86.0748C134.083 86.3237 133.961 87.1566 134.33 87.9352C134.7 88.7139 135.422 89.1433 135.942 88.8945Z" fill="#001E00"/>
<path d="M135.045 84.241C133.937 84.213 132.895 84.9266 132.402 86.0514L135.045 84.241Z" fill="white"/>
<path d="M132.401 86.5017C132.341 86.5017 132.28 86.49 132.222 86.4643C131.996 86.365 131.894 86.0999 131.993 85.8733C132.56 84.5791 133.767 83.7721 135.055 83.7954C135.302 83.8013 135.496 84.0068 135.491 84.2544C135.485 84.5009 135.278 84.6714 135.033 84.6913C134.104 84.6574 133.231 85.2729 132.811 86.233C132.738 86.4012 132.574 86.5017 132.401 86.5017Z" fill="#001E00"/>
<path d="M139.462 85.2559C139.989 86.3841 141.497 89.4221 142.024 90.5504C142.342 91.2313 142.665 91.9392 142.604 92.6668C142.542 93.3945 141.978 94.1478 141.111 94.2822" fill="white"/>
<path d="M141.11 94.7304C140.894 94.7304 140.703 94.5715 140.669 94.3508C140.632 94.1055 140.799 93.8766 141.043 93.8392C141.709 93.7364 142.115 93.1384 142.158 92.6292C142.21 92.0066 141.896 91.3338 141.619 90.7405C141.356 90.1775 140.85 89.1403 140.342 88.102C139.831 87.0566 139.321 86.0113 139.057 85.4448C138.952 85.2205 139.049 84.9531 139.272 84.8491C139.496 84.744 139.761 84.8409 139.866 85.064C140.129 85.627 140.636 86.6677 141.145 87.7072C141.655 88.7514 142.165 89.7944 142.429 90.3597C142.754 91.0559 143.122 91.8431 143.049 92.7051C142.976 93.5776 142.31 94.5517 141.18 94.7257C141.157 94.728 141.134 94.7304 141.11 94.7304Z" fill="#001E00"/>
<path d="M137.629 97.4115C136.87 97.4115 136.114 97.2258 135.441 96.8625C134.379 96.2902 133.569 95.2974 133.218 94.1399C133.146 93.9028 133.28 93.6528 133.515 93.5804C133.751 93.5127 134 93.6423 134.072 93.8783C134.355 94.8115 135.008 95.6116 135.864 96.0729C136.719 96.5343 137.745 96.6406 138.676 96.3638C138.913 96.2949 139.161 96.4292 139.231 96.6663C139.301 96.9034 139.166 97.1533 138.93 97.2234C138.507 97.3496 138.068 97.4115 137.629 97.4115Z" fill="#001E00"/>
<path d="M102.7 98.9504C105.141 106.642 98.1539 113.679 93.3396 120.412C88.2412 127.543 89.2295 135.167 106.347 134.48C123.471 133.799 126.209 131.443 124.548 117.03C122.88 102.61 118.061 97.3105 118.061 97.3105" fill="#001E00"/>
<path d="M128.974 100.976C124.046 100.976 120.561 97.0138 120.399 96.8257C120.237 96.6389 120.258 96.3562 120.444 96.1939C120.631 96.0315 120.912 96.0514 121.074 96.2382C121.115 96.285 125.246 100.974 130.582 99.9209C130.825 99.8777 131.059 100.032 131.106 100.275C131.153 100.518 130.995 100.753 130.753 100.8C130.143 100.922 129.549 100.976 128.974 100.976Z" fill="#001E00"/>
<path d="M109.149 91.6544C109.149 96.0367 112.503 99.7101 116.783 99.8642C121.231 100.024 124.965 96.3509 124.965 91.6544C124.965 86.9578 121.231 83.2845 116.783 83.4445C112.504 83.5987 109.149 87.272 109.149 91.6544Z" fill="#40AF2D"/>
<path d="M117.903 83.4445C122.351 83.2845 126.085 86.9578 126.085 91.6544C126.085 96.3509 122.351 100.024 117.903 99.8642H116.783C121.231 100.024 124.965 96.3509 124.965 91.6544C124.965 86.9578 121.231 83.2845 116.783 83.4445H117.903Z" fill="#001E00"/>
<path d="M113.345 91.6548C113.345 93.6287 114.872 95.2534 116.783 95.2838C118.728 95.3153 120.329 93.6906 120.329 91.6548C120.329 89.619 118.727 87.9943 116.783 88.0258C114.872 88.055 113.345 89.6797 113.345 91.6548Z" fill="#FFCC3D"/>
<path d="M116.667 93.0466C116.299 93.0466 115.955 92.8177 115.826 92.4498C115.578 91.7478 109.818 75.1517 115.744 65.6372C117.977 62.0537 121.57 59.956 126.423 59.4047C126.914 59.3463 127.355 59.7025 127.411 60.1943C127.467 60.686 127.114 61.131 126.624 61.1859C122.339 61.673 119.188 63.4892 117.26 66.5867C111.785 75.3748 117.452 91.6859 117.51 91.8494C117.675 92.3154 117.432 92.8282 116.966 92.9941C116.866 93.0303 116.766 93.0466 116.667 93.0466Z" fill="#FFCC3D"/>
<path d="M130.669 102.234C131.609 102.234 132.372 101.469 132.372 100.525C132.372 99.5815 131.609 98.8164 130.669 98.8164C129.728 98.8164 128.966 99.5815 128.966 100.525C128.966 101.469 129.728 102.234 130.669 102.234Z" fill="#001E00"/>
<path d="M86.0343 108.231H11.6873C10.8108 108.231 10.0996 107.518 10.0996 106.638V72.8959C10.0996 72.0164 10.8108 71.3027 11.6873 71.3027H86.0343C86.9108 71.3027 87.622 72.0164 87.622 72.8959V106.637C87.6208 107.518 86.9108 108.231 86.0343 108.231Z" fill="#40AF2D"/>
<path d="M27.1975 81.3569C26.8739 81.3569 26.6353 81.1852 26.4805 80.843C26.4083 80.6806 26.3373 80.5837 26.2651 80.551C26.2116 80.5265 26.0696 80.5136 25.8391 80.5136C25.3863 80.5136 24.8625 80.8675 24.27 81.5741C23.4401 82.5634 23.0245 83.4885 23.0245 84.3505C23.0245 84.7429 23.1561 85.0805 23.418 85.362C23.6799 85.6435 23.9942 85.7836 24.362 85.7836C24.7182 85.7836 25.079 85.6902 25.4457 85.5021C25.5749 85.4344 25.8484 85.2568 26.2651 84.9719C26.5456 84.785 26.7575 84.6904 26.9007 84.6904C27.116 84.6904 27.2999 84.7698 27.4501 84.9286C27.5898 85.0758 27.6608 85.2463 27.6608 85.4367C27.6608 85.6493 27.5676 85.835 27.3802 85.9939C26.392 86.8313 25.3851 87.2483 24.3608 87.2483C23.5518 87.2483 22.8686 86.9528 22.3122 86.3606C21.7802 85.7906 21.5137 85.1202 21.5137 84.3481C21.5137 83.1404 22.041 81.9059 23.0932 80.6468C23.9883 79.5792 24.9032 79.0454 25.8379 79.0454C25.9962 79.0454 26.1394 79.0513 26.2663 79.0618C26.3932 79.0723 26.5061 79.0886 26.6038 79.1108C26.7621 78.9555 26.9519 78.8784 27.1754 78.8784C27.542 78.8784 27.7678 79.0886 27.8551 79.5115C27.9157 79.8151 27.9471 80.1679 27.9471 80.572C27.9471 80.7519 27.8947 80.9166 27.7911 81.0649C27.6538 81.26 27.4559 81.3569 27.1975 81.3569ZM32.3144 87.4492C31.2505 87.4492 30.3449 87.1432 29.5965 86.53C28.798 85.8736 28.3999 85.0232 28.3999 83.9814C28.3999 82.755 28.7829 81.6372 29.5488 80.6269C30.4078 79.4904 31.4903 78.9228 32.7952 78.9228C34.05 78.9228 34.9893 79.2113 35.6155 79.7883C36.2406 80.3653 36.5537 81.2331 36.5537 82.3906C36.5537 83.617 36.201 84.7277 35.4968 85.7229C34.6832 86.8734 33.6228 87.4492 32.3144 87.4492ZM32.794 80.3875C31.992 80.3875 31.3052 80.7776 30.7337 81.5566C30.1983 82.2855 29.9306 83.0925 29.9306 83.9802C29.9306 84.5794 30.1622 85.0665 30.6255 85.4414C31.0713 85.8023 31.6335 85.9822 32.3133 85.9822C33.1036 85.9822 33.7636 85.5932 34.2921 84.8142C34.7775 84.104 35.0196 83.2958 35.0196 82.3906C35.0196 81.6325 34.8508 81.1069 34.5132 80.8103C34.1908 80.5288 33.6169 80.3875 32.794 80.3875ZM45.4176 85.7883C45.4176 85.9682 45.3873 86.2532 45.3256 86.6433C45.2535 87.1081 44.9916 87.3417 44.5388 87.3417C44.2873 87.3417 44.0033 87.1992 43.6867 86.9142C42.3027 85.6621 40.7406 83.9078 39.0004 81.6489C38.9795 82.5868 38.9679 83.1626 38.9679 83.3752C38.9679 83.6602 38.9737 84.09 38.9865 84.6623C38.9993 85.2358 39.0051 85.6656 39.0051 85.9506C39.0051 87.0147 38.7467 87.5461 38.2287 87.5461C37.9668 87.5461 37.7561 87.4655 37.5978 87.3032C37.4581 87.1595 37.3871 86.9843 37.3871 86.7788C37.3871 86.6351 37.3988 86.4167 37.4221 86.1235C37.4453 85.8315 37.457 85.6131 37.457 85.4694C37.457 85.2568 37.464 84.9368 37.4779 84.5117C37.4919 84.0865 37.4989 83.7665 37.4989 83.5539C37.4989 83.3273 37.4931 82.9839 37.4826 82.5261C37.4721 82.0682 37.4663 81.7248 37.4663 81.4982C37.4663 81.2821 37.4453 80.9586 37.4011 80.5288C37.358 80.1001 37.3371 79.7766 37.3371 79.5605C37.3371 79.3444 37.429 79.1517 37.6153 78.9812C37.8004 78.8118 38.011 78.7266 38.2485 78.7266C38.5151 78.7266 38.8095 78.9578 39.1331 79.4192C40.7651 81.7564 42.3749 83.6637 43.9637 85.1377C43.9672 85.0221 43.9696 84.7488 43.9696 84.3154C43.9696 82.5377 43.9521 81.3382 43.916 80.718C43.909 80.614 43.8857 80.419 43.8462 80.134C43.8101 79.8817 43.7926 79.6832 43.7926 79.5383C43.7926 79.0408 44.0545 78.792 44.5795 78.792C45.165 78.792 45.4583 79.6995 45.4583 81.5134C45.4583 81.5531 45.4548 81.8381 45.4478 82.3684C45.4281 84.201 45.4176 85.341 45.4176 85.7883ZM52.8579 80.6316C52.5773 80.6316 52.1408 80.6117 51.5472 80.572C50.9757 80.5323 50.5392 80.5148 50.2365 80.5183C50.2505 80.9294 50.2994 81.6617 50.382 82.7141C50.4577 83.645 50.4949 84.3808 50.4949 84.9216C50.4949 85.0443 50.5077 85.2265 50.5322 85.4683C50.5566 85.71 50.5694 85.8922 50.5694 86.0149C50.5694 86.2847 50.5124 86.5288 50.3972 86.7449C50.2505 87.0229 50.0398 87.1619 49.7663 87.1619C49.5684 87.1619 49.3938 87.0988 49.2436 86.9726C49.0749 86.8325 48.9899 86.6549 48.9899 86.4424C48.9899 86.3921 48.998 86.3151 49.0167 86.2123C49.0353 86.1095 49.0434 86.0312 49.0434 85.9775C49.0434 85.8117 49.0318 85.5605 49.0085 85.2253C48.9852 84.8901 48.9736 84.6366 48.9736 84.4673C48.9736 83.9837 48.9363 83.3297 48.8607 82.5027C48.7746 81.5531 48.7245 80.899 48.7094 80.5381H48.4288C47.6268 80.5381 46.9913 80.4809 46.5199 80.3653C46.1206 80.2683 45.9216 80.0324 45.9216 79.6563C45.9216 79.4729 45.9868 79.3059 46.116 79.1587C46.2673 78.9824 46.4652 78.9029 46.7085 78.9204C46.8342 78.9286 47.1205 78.9578 47.5663 79.0127C47.9225 79.0524 48.21 79.0723 48.4288 79.0723C48.6477 79.0723 48.9759 79.0688 49.4136 79.0618C49.8501 79.0548 50.1783 79.0513 50.3972 79.0513C50.6707 79.0513 51.0804 79.07 51.6264 79.1073C52.1723 79.1447 52.582 79.1634 52.8555 79.1634C53.0709 79.1634 53.2513 79.2335 53.3968 79.3748C53.5423 79.515 53.6156 79.6878 53.6156 79.8946C53.6156 80.1001 53.5423 80.2742 53.3968 80.4167C53.2548 80.5603 53.0732 80.6316 52.8579 80.6316ZM60.2947 87.281C60.0106 87.2705 59.7255 86.9353 59.4368 86.2742C59.2459 85.849 59.0829 85.3573 58.9456 84.8025C58.679 84.8422 58.2449 84.8819 57.6407 84.9216C57.0727 84.9613 56.6374 85.0081 56.3359 85.0618C56.1706 85.4589 55.8831 86.0558 55.4734 86.8535C55.3151 87.1128 55.0962 87.2424 54.8157 87.2424C54.6178 87.2424 54.4397 87.1747 54.2814 87.0404C54.1231 86.9049 54.044 86.7332 54.044 86.523C54.044 86.3396 54.3059 85.7147 54.8308 84.6507C54.7808 84.5385 54.7587 84.4346 54.7657 84.3365C54.7796 84.1636 54.9542 84.0281 55.2895 83.9312C55.8005 83.0435 56.3685 82.1243 56.9936 81.1712C57.8922 79.8046 58.4462 79.1202 58.6546 79.1202C59.0503 79.1202 59.3146 79.3596 59.4473 79.8397C59.5194 80.2251 59.6323 80.8044 59.7872 81.5765C60.006 82.6148 60.2749 83.8039 60.5903 85.1412C60.6159 85.2428 60.7067 85.4799 60.865 85.856C60.9942 86.1667 61.0594 86.3992 61.0594 86.5545C61.0594 86.7636 60.9814 86.9388 60.8254 87.0789C60.6683 87.2214 60.4914 87.288 60.2947 87.281ZM58.2833 81.7295C58.0027 82.213 57.6163 82.8706 57.1239 83.7046C57.2857 83.6684 57.5371 83.6392 57.8794 83.6181C58.2821 83.5936 58.5347 83.5738 58.6395 83.5586C58.5522 83.0902 58.4334 82.4805 58.2833 81.7295ZM67.5836 81.3569C67.26 81.3569 67.0214 81.1852 66.8666 80.843C66.7944 80.6806 66.7234 80.5837 66.6513 80.551C66.5977 80.5265 66.4557 80.5136 66.2252 80.5136C65.7724 80.5136 65.2486 80.8675 64.6562 81.5741C63.8262 82.5634 63.4107 83.4885 63.4107 84.3505C63.4107 84.7429 63.5422 85.0805 63.8041 85.362C64.066 85.6435 64.3803 85.7836 64.7481 85.7836C65.1043 85.7836 65.4651 85.6902 65.8318 85.5021C65.961 85.4344 66.2346 85.2568 66.6513 84.9719C66.9318 84.785 67.1436 84.6904 67.2868 84.6904C67.5021 84.6904 67.6861 84.7698 67.8362 84.9286C67.9759 85.0758 68.0469 85.2463 68.0469 85.4367C68.0469 85.6493 67.9538 85.835 67.7664 85.9939C66.7781 86.8313 65.7713 87.2483 64.747 87.2483C63.938 87.2483 63.2547 86.9528 62.6983 86.3606C62.1664 85.7906 61.8998 85.1202 61.8998 84.3481C61.8998 83.1404 62.4271 81.9059 63.4794 80.6468C64.3745 79.5792 65.2894 79.0454 66.2241 79.0454C66.3824 79.0454 66.5256 79.0513 66.6524 79.0618C66.7793 79.0723 66.8922 79.0886 66.99 79.1108C67.1483 78.9555 67.338 78.8784 67.5615 78.8784C67.9282 78.8784 68.154 79.0886 68.2413 79.5115C68.3018 79.8151 68.3332 80.1679 68.3332 80.572C68.3332 80.7519 68.2809 80.9166 68.1773 81.0649C68.0399 81.26 67.8432 81.3569 67.5836 81.3569ZM75.4511 80.6316C75.1706 80.6316 74.7341 80.6117 74.1404 80.572C73.5689 80.5323 73.1324 80.5148 72.8298 80.5183C72.8437 80.9294 72.8926 81.6617 72.9753 82.7141C73.0509 83.645 73.0882 84.3808 73.0882 84.9216C73.0882 85.0443 73.101 85.2265 73.1254 85.4683C73.1499 85.71 73.1627 85.8922 73.1627 86.0149C73.1627 86.2847 73.1056 86.5288 72.9904 86.7449C72.8437 87.0229 72.6331 87.1619 72.3595 87.1619C72.1616 87.1619 71.987 87.0988 71.8369 86.9726C71.6681 86.8325 71.5831 86.6549 71.5831 86.4424C71.5831 86.3921 71.5913 86.3151 71.6099 86.2123C71.6274 86.1095 71.6367 86.0312 71.6367 85.9775C71.6367 85.8117 71.625 85.5605 71.6018 85.2253C71.5785 84.8901 71.5668 84.6366 71.5668 84.4673C71.5668 83.9837 71.5296 83.3297 71.4539 82.5027C71.3678 81.5531 71.3177 80.899 71.3026 80.5381H71.0221C70.2201 80.5381 69.5845 80.4809 69.1131 80.3653C68.7139 80.2683 68.5148 80.0324 68.5148 79.6563C68.5148 79.4729 68.58 79.3059 68.7092 79.1587C68.8605 78.9824 69.0584 78.9029 69.3017 78.9204C69.4274 78.9286 69.7137 78.9578 70.1596 79.0127C70.5157 79.0524 70.8033 79.0723 71.0221 79.0723C71.2409 79.0723 71.5692 79.0688 72.0068 79.0618C72.4433 79.0548 72.7716 79.0513 72.9904 79.0513C73.264 79.0513 73.6737 79.07 74.2196 79.1073C74.7655 79.1447 75.1752 79.1634 75.4488 79.1634C75.6641 79.1634 75.8445 79.2335 75.99 79.3748C76.1355 79.515 76.2089 79.6878 76.2089 79.8946C76.2089 80.1001 76.1355 80.2742 75.99 80.4167C75.848 80.5603 75.6664 80.6316 75.4511 80.6316ZM49.4148 99.4807C49.1529 99.8382 48.8362 100.136 48.4661 100.374C48.0133 100.663 47.5477 100.806 47.0693 100.806C46.1521 100.806 45.4711 100.634 45.0253 100.286C44.0836 99.552 43.6122 98.2777 43.6122 96.4638C43.6122 96.2898 43.6215 96.0316 43.639 95.6871C43.6564 95.3437 43.6658 95.0844 43.6658 94.9104C43.6658 94.7726 43.6693 94.5658 43.6762 94.2913C43.6832 94.0169 43.6867 93.8101 43.6867 93.6723C43.6867 93.3885 43.7391 93.121 43.8427 92.8699C43.9824 92.537 44.1791 92.37 44.4305 92.37C44.6284 92.37 44.803 92.433 44.9543 92.5603C45.1196 92.6947 45.2022 92.8675 45.2022 93.0789C45.2022 93.2798 45.1999 93.5847 45.1941 93.9923C45.1883 94.4 45.1859 94.7071 45.1859 94.9115C45.1859 95.0809 45.1766 95.3367 45.1592 95.6801C45.1417 96.0223 45.1324 96.2781 45.1324 96.4486C45.1324 96.9952 45.1976 97.5045 45.3268 97.9729C45.4781 98.5347 45.6993 98.9271 45.9903 99.149C46.1416 99.2647 46.5013 99.3266 47.0681 99.3336C48.0168 99.3476 48.657 98.5358 48.9876 96.8995C49.1598 96.0515 49.246 94.8613 49.246 93.3277C49.246 93.1257 49.3053 92.9318 49.4241 92.7437C49.5859 92.4949 49.8163 92.3711 50.1143 92.3711C50.3588 92.3711 50.5427 92.4611 50.6637 92.6409C50.7568 92.7741 50.8034 92.9224 50.8034 93.0848C50.8034 94.5098 50.7371 95.6205 50.6044 96.4183C50.4053 97.6482 50.0084 98.669 49.4148 99.4807ZM54.4083 100.746C53.4957 100.746 52.7764 100.542 52.2514 100.135C51.8091 99.7961 51.5879 99.4048 51.5879 98.961C51.5879 98.7344 51.6566 98.5452 51.7928 98.3957C51.929 98.2462 52.1187 98.1714 52.3585 98.1714C52.6821 98.1714 52.9196 98.3373 53.0697 98.669C53.2746 99.1128 53.7378 99.3347 54.4607 99.3347C55.0788 99.3347 55.6771 99.1993 56.2556 98.9295C56.8562 98.6515 57.1565 98.3466 57.1565 98.0149C57.1565 97.5606 56.9691 97.2616 56.5955 97.1167C56.3301 97.0128 55.7958 96.9509 54.9938 96.9333C54.3722 96.9193 53.8147 96.8025 53.3223 96.5818C52.6577 96.2828 52.3294 95.8529 52.3411 95.2935C52.3515 94.5903 52.7263 93.9456 53.4631 93.3593C54.2 92.7729 55.0124 92.4798 55.9006 92.4798C56.2533 92.4798 56.6874 92.5604 57.2054 92.7227C57.8491 92.9248 58.1704 93.1572 58.1704 93.4212C58.1704 93.6081 58.1063 93.7751 57.976 93.9187C57.8316 94.0811 57.6466 94.1617 57.4207 94.1617C57.252 94.1617 56.9994 94.1255 56.663 94.0542C56.3266 93.9818 56.0728 93.9456 55.9006 93.9456C55.4361 93.9491 54.9961 94.0612 54.5794 94.2808C54.1476 94.5039 53.9322 94.748 53.9322 95.0108C53.9322 95.1475 53.9974 95.2608 54.129 95.3495C54.2605 95.4371 54.4572 95.5002 54.7191 95.5364C55.1789 95.561 55.6375 95.5867 56.0938 95.6112C56.8923 95.6719 57.5232 95.8985 57.9865 96.2874C58.4974 96.7208 58.7524 97.32 58.7524 98.0838C58.7524 99.0147 58.2239 99.719 57.167 100.199C56.3638 100.565 55.4443 100.746 54.4083 100.746Z" fill="white"/>
<path d="M230.873 190.44L230.942 184.258L227.731 184.221C227.366 182.379 226.66 180.659 225.689 179.123L227.985 176.867L223.677 172.446L221.381 174.702C219.872 173.691 218.174 172.947 216.347 172.54L216.383 169.319L210.218 169.25L210.182 172.471C208.346 172.837 206.632 173.542 205.101 174.52L202.856 172.213L198.45 176.536L200.695 178.843C199.69 180.357 198.946 182.061 198.541 183.894L195.329 183.858L195.261 190.04L198.472 190.077C198.837 191.922 199.542 193.643 200.514 195.175L198.217 197.432L202.525 201.852L204.822 199.596C206.33 200.607 208.029 201.351 209.856 201.758L209.82 204.983L215.985 205.052L216.021 201.827C217.856 201.461 219.571 200.756 221.102 199.778L223.347 202.085L227.753 197.762L225.507 195.455C226.513 193.945 227.257 192.24 227.662 190.404L230.873 190.44ZM213.625 194.617C209.027 194.931 205.263 191.071 205.675 186.462C205.999 182.836 208.961 179.929 212.581 179.685C217.182 179.374 220.943 183.236 220.529 187.841C220.202 191.465 217.242 194.37 213.625 194.617Z" fill="#001E00"/>
<path d="M217.424 76.6685C231.247 76.6685 242.454 65.4239 242.454 51.553C242.454 37.6821 231.247 26.4375 217.424 26.4375C203.601 26.4375 192.395 37.6821 192.395 51.553C192.395 65.4239 203.601 76.6685 217.424 76.6685Z" fill="white"/>
<path d="M217.424 77.1175C203.375 77.1175 191.947 65.6489 191.947 51.5535C191.947 37.4569 203.377 25.9883 217.424 25.9883C231.472 25.9883 242.9 37.4569 242.9 51.5535C242.9 65.6489 231.471 77.1175 217.424 77.1175ZM217.424 26.8853C203.869 26.8853 192.84 37.9509 192.84 51.5535C192.84 65.1548 203.868 76.2216 217.424 76.2216C230.98 76.2216 242.007 65.156 242.007 51.5535C242.006 37.9509 230.979 26.8853 217.424 26.8853Z" fill="#001E00"/>
<path d="M197.836 62.6073C200.24 65.7258 203.031 68.5267 206.139 70.9386C208.034 72.4115 210.511 72.1031 211.509 70.4586C212.569 68.8456 214.771 68.4228 216.548 69.3279C218.363 70.2577 220.261 71.0519 222.229 71.6955C224.15 72.3297 225.47 74.2055 225.083 76.0977C224.579 78.3578 224.076 80.6178 223.572 82.8791C223.189 84.7654 220.601 85.8213 217.921 84.9418C201.799 79.6683 189.135 66.9604 183.88 50.7836C183.003 48.0937 184.055 45.4972 185.935 45.113C188.187 44.6072 190.44 44.1027 192.693 43.5969C194.579 43.2091 196.448 44.5325 197.08 46.4608C197.722 48.4348 198.512 50.3398 199.44 52.1607C200.343 53.9442 199.922 56.1541 198.313 57.217C196.677 58.2203 196.369 60.7058 197.836 62.6073Z" fill="#40AF2D"/>
<path d="M209.625 58.3642C209.509 58.3642 209.327 58.3443 209.083 58.3046C208.837 58.2649 208.661 58.245 208.553 58.245L206.493 58.238C206.316 58.238 206.047 58.2602 205.687 58.3046C205.328 58.349 205.057 58.3712 204.875 58.3712C204.824 58.3712 204.749 58.3618 204.65 58.3431C204.553 58.3245 204.478 58.3151 204.426 58.3151C204.005 58.3151 203.72 58.1446 203.571 57.8024C203.478 57.5863 203.432 57.2534 203.432 56.8037C203.432 55.9277 203.625 55.1942 204.012 54.6044C204.312 54.15 204.795 53.6945 205.463 53.2401C206.094 52.8232 206.721 52.4085 207.347 51.9962C208.085 51.4578 208.454 50.8458 208.454 50.1613C208.454 49.9838 208.308 49.8062 208.013 49.6299C207.719 49.4547 207.432 49.3671 207.152 49.3671C206.656 49.3671 206.132 49.5878 205.579 50.0317C205.026 50.4743 204.646 50.6962 204.441 50.6962C204.193 50.6962 203.976 50.6355 203.789 50.514C203.555 50.3645 203.439 50.1555 203.439 49.888C203.439 49.6018 203.555 49.3566 203.789 49.1498C204.354 48.6487 204.847 48.2832 205.267 48.0542C205.874 47.7214 206.502 47.5543 207.152 47.5543C207.96 47.5543 208.688 47.7681 209.338 48.1944C210.08 48.6826 210.452 49.3192 210.452 50.1064C210.452 50.903 210.27 51.5804 209.905 52.1387C209.619 52.5837 209.169 53.0182 208.552 53.4387C207.969 53.809 207.385 54.1769 206.8 54.5425C205.913 55.1241 205.436 55.7864 205.371 56.5327C205.628 56.5 206.006 56.4627 206.506 56.4206C207.501 56.3692 208.212 56.3435 208.642 56.3435C209.043 56.3435 209.44 56.43 209.832 56.604C210.318 56.8189 210.561 57.0957 210.561 57.4333C210.561 57.6774 210.475 57.89 210.302 58.0733C210.122 58.2649 209.895 58.3642 209.625 58.3642ZM216.421 55.4465H213.626C212.127 55.4465 211.377 55.1393 211.377 54.5249C211.377 54.268 211.507 53.9795 211.769 53.6606C211.984 53.4165 212.201 53.1712 212.421 52.9225C213.173 51.8444 214.32 50.2419 215.861 48.1138C216.225 47.6267 216.699 47.3826 217.283 47.3826C217.559 47.3826 217.797 47.4527 217.998 47.594C218.237 47.7622 218.355 47.9993 218.355 48.3042L218.362 53.5905C218.975 53.6092 219.383 53.6723 219.588 53.7798C219.816 53.9059 219.931 54.1547 219.931 54.5249C219.936 54.9139 219.759 55.1814 219.398 55.3262C219.146 55.4243 218.801 55.464 218.361 55.4453C218.375 56.1204 218.373 56.8516 218.354 57.6388C218.349 57.8958 218.266 58.1095 218.102 58.2789C217.939 58.4471 217.716 58.5312 217.436 58.5312C216.726 58.5312 216.387 58.0628 216.42 57.1249V55.4465H216.421ZM216.421 50.4334C215.968 51.1506 215.27 52.203 214.326 53.5905H216.421V50.4334ZM227.069 48.2411C226.887 48.6347 226.623 49.2444 226.277 50.069C225.96 50.8983 225.512 51.8596 224.932 52.9517C224.422 53.8802 223.913 54.8099 223.405 55.7432C223.307 55.9301 222.883 56.8247 222.137 58.4284C221.965 58.7987 221.691 58.9844 221.318 58.9844C221.074 58.9844 220.863 58.9073 220.68 58.7531C220.483 58.5837 220.385 58.3782 220.385 58.1341C220.385 58.0266 220.406 57.918 220.448 57.8105C220.817 56.8493 221.506 55.464 222.515 53.6525C223.525 51.8409 224.213 50.4498 224.583 49.4792C224.863 48.7434 225.07 48.2446 225.205 47.9818C225.57 47.2647 225.913 46.9108 226.236 46.9201C226.474 46.9294 226.684 47.0112 226.866 47.1665C227.063 47.3347 227.161 47.5391 227.161 47.7786C227.161 47.9223 227.13 48.0764 227.069 48.2411ZM233.073 49.6754C232.549 49.6707 231.576 49.6497 230.151 49.6123C229.796 49.6123 229.267 49.596 228.561 49.5633C227.94 49.5119 227.63 49.2094 227.63 48.6557C227.63 48.3988 227.723 48.1827 227.911 48.0087C228.097 47.8358 228.326 47.7494 228.597 47.7494C229.185 47.7494 230.07 47.7669 231.249 47.8019C232.428 47.837 233.313 47.8545 233.9 47.8545H235.183C235.436 47.8545 235.657 47.9036 235.849 48.0017C236.088 48.1231 236.206 48.3042 236.206 48.5436C236.206 48.8006 236.067 49.1078 235.786 49.464C235.552 49.7268 235.317 49.9896 235.078 50.2512C234.486 50.9123 233.937 51.7229 233.433 52.6842C233.273 52.9832 232.855 53.8627 232.179 55.3204C232.09 55.5119 231.891 56.0375 231.583 56.8948C231.349 57.5419 231.112 58.0476 230.868 58.4132C230.682 58.6807 230.422 58.8138 230.091 58.8138C229.833 58.8138 229.604 58.7274 229.404 58.5534C229.203 58.3805 229.102 58.1644 229.102 57.9063C229.102 57.7054 229.258 57.2359 229.572 56.5C230.076 55.3192 230.578 54.1383 231.078 52.9575C231.721 51.5804 232.386 50.486 233.073 49.6754Z" fill="#001E00"/>
<path d="M56.1338 176.759L27.1676 189.082C26.6741 189.292 26.1037 189.061 25.8954 188.566L16.9163 167.311C16.7068 166.816 16.9372 166.244 17.4308 166.035L46.3969 153.712C46.8904 153.502 47.4608 153.733 47.6692 154.229L56.6483 175.483C56.8578 175.978 56.6273 176.55 56.1338 176.759Z" fill="#FFCC3D"/>
<path d="M36.6558 174.139C36.3462 174.139 36.0319 174.091 35.7246 173.989L21.4237 169.283C21.1897 169.206 21.0617 168.953 21.1385 168.718C21.2153 168.482 21.4679 168.355 21.7019 168.432L36.0028 173.138C37.0062 173.468 38.1096 172.997 38.5706 172.046L45.139 158.462C45.2473 158.239 45.5138 158.146 45.7362 158.254C45.9585 158.361 46.0504 158.63 45.9434 158.853L39.3749 172.437C38.8616 173.499 37.7849 174.139 36.6558 174.139Z" fill="white"/>
<path d="M51.9991 174.387C51.9642 174.387 51.9281 174.383 51.892 174.374L39.5199 171.327C39.2801 171.268 39.1334 171.025 39.1928 170.785C39.2522 170.544 39.4931 170.397 39.7329 170.457L52.1051 173.504C52.3448 173.562 52.4915 173.805 52.4321 174.046C52.3821 174.25 52.1993 174.387 51.9991 174.387ZM28.0196 184.587C27.9427 184.587 27.8659 184.567 27.7949 184.526C27.5819 184.401 27.5097 184.127 27.6343 183.913L34.0596 172.87C34.1841 172.656 34.4577 172.585 34.6707 172.708C34.8837 172.833 34.9558 173.108 34.8313 173.322L28.406 184.365C28.3234 184.509 28.1732 184.587 28.0196 184.587Z" fill="white"/>
<path d="M36.5137 54.3695L33.8284 56.0654C32.5678 56.8538 30.9114 56.4765 30.1234 55.2198L28.4332 52.5252C27.6452 51.2684 28.0223 49.6064 29.2736 48.8156L31.9613 47.1103C33.2138 46.3196 34.8702 46.698 35.6663 47.956L37.3553 50.6599C38.1433 51.9155 37.7662 53.5776 36.5137 54.3695Z" fill="#FFCC3D"/>
<path d="M87.6285 19.1329L85.6986 20.3523C84.793 20.9188 83.6022 20.6478 83.0353 19.7449L81.8201 17.8084C81.2544 16.9055 81.5245 15.7107 82.4242 15.143L84.3553 13.9178C85.2551 13.3501 86.4459 13.6211 87.0186 14.5251L88.2326 16.4687C88.7983 17.3692 88.5283 18.5641 87.6285 19.1329Z" fill="#FFCC3D"/>
<path d="M233.544 113.799L231.614 115.018C230.708 115.585 229.517 115.314 228.95 114.411L227.735 112.474C227.169 111.572 227.44 110.377 228.339 109.809L230.27 108.584C231.17 108.016 232.361 108.287 232.934 109.191L234.148 111.135C234.715 112.036 234.443 113.23 233.544 113.799Z" fill="#FFCC3D"/>
<path d="M99.5855 60.0548L97.6556 61.2742C96.75 61.8406 95.5592 61.5697 94.9924 60.6668L93.7772 58.7303C93.2115 57.8274 93.4815 56.6325 94.3813 56.0649L96.3124 54.8397C97.2121 54.272 98.4029 54.543 98.9756 55.447L100.19 57.3906C100.757 58.2923 100.485 59.486 99.5855 60.0548Z" fill="#FFCC3D"/>
</svg>
