<svg width="19" height="18" viewBox="0 0 19 18" fill="none" xmlns="http://www.w3.org/2000/svg">
<path d="M17.7606 13.8854L14.1173 11.4558C13.655 11.1499 13.0352 11.2505 12.6934 11.687L11.6322 13.0515C11.4958 13.2313 11.2479 13.2835 11.0506 13.1739L10.8487 13.0626C10.1795 12.6979 9.34682 12.2437 7.66917 10.5655C5.99152 8.88724 5.53649 8.05395 5.17172 7.38597L5.06103 7.1841C4.94992 6.98683 5.0011 6.73786 5.181 6.60038L6.54458 5.53945C6.98088 5.19761 7.08166 4.57804 6.77616 4.11556L4.34652 0.472291C4.03343 0.00133782 3.40528 -0.14004 2.92058 0.151327L1.3971 1.06648C0.918414 1.3479 0.56722 1.80367 0.417161 2.33828C-0.131442 4.33718 0.281266 7.78697 5.36312 12.8694C9.40563 16.9116 12.4151 17.9987 14.4836 17.9987C14.9596 18.0007 15.4338 17.9388 15.8934 17.8145C16.4281 17.6646 16.8839 17.3134 17.1652 16.8346L18.0813 15.312C18.373 14.8272 18.2317 14.1987 17.7606 13.8854ZM17.5644 15.0042L16.6504 16.5277C16.4485 16.8733 16.1206 17.1274 15.7356 17.2368C13.8902 17.7434 10.6663 17.3238 5.78754 12.445C0.908748 7.56623 0.48915 4.3426 0.995782 2.49699C1.10531 2.11145 1.35974 1.78318 1.70576 1.58092L3.22924 0.666958C3.43955 0.540414 3.71218 0.601753 3.84804 0.806121L5.16786 2.78762L6.27561 4.44907C6.40827 4.64968 6.36468 4.91855 6.17543 5.06699L4.81153 6.12792C4.39647 6.4453 4.27794 7.01956 4.53349 7.47533L4.64179 7.6721C5.02515 8.37519 5.50176 9.24986 7.2418 10.9896C8.98185 12.7294 9.85623 13.206 10.559 13.5893L10.7561 13.6979C11.2118 13.9534 11.7861 13.8349 12.1035 13.4199L13.1644 12.056C13.3129 11.8668 13.5816 11.8233 13.7823 11.9558L17.4253 14.3854C17.6298 14.5212 17.6911 14.7939 17.5644 15.0042Z" fill="#001E00"/>
<path d="M10.4323 3.00028C13.2472 3.00341 15.5284 5.2846 15.5315 8.09953C15.5315 8.2652 15.6658 8.39948 15.8315 8.39948C15.9971 8.39948 16.1314 8.2652 16.1314 8.09953C16.1279 4.95341 13.5784 2.40384 10.4323 2.40039C10.2666 2.40039 10.1323 2.53467 10.1323 2.70033C10.1323 2.866 10.2666 3.00028 10.4323 3.00028Z" fill="#001E00"/>
<path d="M10.4323 4.80106C12.2537 4.8032 13.7296 6.2792 13.7318 8.10058C13.7318 8.26625 13.8661 8.40053 14.0317 8.40053C14.1974 8.40053 14.3317 8.26625 14.3317 8.10058C14.3292 5.948 12.5848 4.20363 10.4323 4.20117C10.2666 4.20117 10.1323 4.33545 10.1323 4.50112C10.1323 4.66678 10.2666 4.80106 10.4323 4.80106Z" fill="#001E00"/>
<path d="M10.4323 6.59989C11.2601 6.60087 11.931 7.27176 11.9321 8.09968C11.9321 8.26534 12.0664 8.39962 12.232 8.39962C12.3976 8.39962 12.5319 8.26534 12.5319 8.09968C12.5306 6.94061 11.5913 6.0013 10.4323 6C10.2666 6 10.1323 6.13428 10.1323 6.29994C10.1323 6.46561 10.2666 6.59989 10.4323 6.59989Z" fill="#001E00"/>
</svg>
