<svg width="21" height="17" viewBox="0 0 21 17" fill="none" xmlns="http://www.w3.org/2000/svg">
<path d="M13.7255 9.84932C13.7255 11.6279 12.2786 13.0748 10.5 13.0748C8.72137 13.0748 7.27503 11.6279 7.27503 9.84932C7.27503 8.0707 8.72137 6.6238 10.5 6.6238C12.2786 6.6238 13.7255 8.07125 13.7255 9.84932ZM20.5 5.26924V14.4305C20.5 15.6518 19.5098 16.642 18.2885 16.642H2.71153C1.49021 16.642 0.5 15.6518 0.5 14.4305V5.26924C0.5 4.04792 1.49021 3.0577 2.71153 3.0577H5.43172V2.29251C5.43172 1.22379 6.29753 0.357422 7.36681 0.357422H13.6332C14.7025 0.357422 15.5683 1.22379 15.5683 2.29251V3.05715H18.2885C19.5098 3.0577 20.5 4.04792 20.5 5.26924ZM15.3842 9.84932C15.3842 7.15623 13.1931 4.96515 10.5 4.96515C7.80746 4.96515 5.61638 7.15623 5.61638 9.84932C5.61638 12.5424 7.80746 14.7335 10.5 14.7335C13.1931 14.7335 15.3842 12.5424 15.3842 9.84932Z" fill="#40AF2D"/>
</svg>
