<svg width="172" height="109" viewBox="0 0 172 109" fill="none" xmlns="http://www.w3.org/2000/svg">
<path d="M44.7405 73.9499C43.4983 73.9499 42.2337 73.8799 40.9828 73.7433C40.8437 73.7277 40.7425 73.6024 40.7581 73.4623C40.7736 73.3223 40.8938 73.2212 41.039 73.2367C42.3832 73.3845 43.7439 73.4537 45.0742 73.439C45.0751 73.439 45.0759 73.439 45.0768 73.439C45.216 73.439 45.3301 73.5514 45.331 73.6905C45.3327 73.8315 45.2194 73.9464 45.0794 73.9481C44.9653 73.9499 44.8529 73.9499 44.7405 73.9499ZM36.9969 73.0673C36.9779 73.0673 36.9589 73.0656 36.9398 73.0612C35.6198 72.7604 34.2947 72.3792 32.9997 71.9297C32.8666 71.8839 32.7966 71.7386 32.8433 71.6055C32.8891 71.4724 33.036 71.4032 33.1674 71.4482C34.4442 71.8925 35.7512 72.2677 37.0531 72.5642C37.1897 72.5953 37.2761 72.7319 37.245 72.8693C37.2182 72.9878 37.1127 73.0673 36.9969 73.0673ZM29.3164 70.4005C29.2801 70.4005 29.2429 70.3927 29.2074 70.3763C27.9765 69.7928 26.7637 69.1367 25.6027 68.4261C25.4826 68.3526 25.4454 68.1962 25.5189 68.076C25.5924 67.9567 25.7488 67.9178 25.869 67.9922C27.0152 68.6932 28.2116 69.3407 29.4261 69.9164C29.5532 69.9769 29.6077 70.1282 29.5472 70.2553C29.5031 70.3469 29.4123 70.4005 29.3164 70.4005ZM22.3801 66.1561C22.3265 66.1561 22.2712 66.1388 22.2254 66.1034C21.1396 65.2683 20.0945 64.3693 19.1168 63.4305C19.0157 63.3328 19.0122 63.172 19.1099 63.0709C19.2076 62.9698 19.3675 62.9663 19.4695 63.064C20.4334 63.9898 21.4655 64.8767 22.5357 65.7005C22.6472 65.7861 22.668 65.946 22.5824 66.0575C22.5314 66.1215 22.4562 66.1561 22.3801 66.1561ZM16.5183 60.5208C16.4457 60.5208 16.3731 60.4897 16.3221 60.4292C15.4447 59.372 14.6278 58.2603 13.893 57.1244C13.817 57.0069 13.8507 56.8487 13.9682 56.7726C14.0867 56.6965 14.244 56.7302 14.3201 56.8478C15.0436 57.9664 15.8493 59.0625 16.7137 60.1041C16.8036 60.2122 16.7889 60.373 16.68 60.4629C16.6333 60.5018 16.5754 60.5208 16.5183 60.5208ZM12.1149 53.6917C12.0198 53.6917 11.929 53.639 11.8849 53.5474C11.3957 52.5308 10.96 51.484 10.59 50.438C10.5079 50.2063 10.4292 49.9746 10.3532 49.7412C10.3091 49.6073 10.3825 49.4638 10.5157 49.4205C10.6505 49.3765 10.7932 49.4499 10.8372 49.5831C10.9124 49.8121 10.9894 50.0403 11.0706 50.2686C11.4346 51.2981 11.8625 52.3268 12.344 53.3269C12.4053 53.454 12.3517 53.6053 12.2247 53.6667C12.1892 53.684 12.1512 53.6917 12.1149 53.6917ZM99.1017 49.8787C98.6003 49.8787 98.0955 49.8657 97.601 49.8398C97.461 49.8329 97.3529 49.7127 97.3598 49.5727C97.3667 49.4318 97.4947 49.3298 97.6269 49.3315C98.9417 49.3998 100.303 49.3747 101.66 49.2589C101.804 49.2468 101.924 49.3505 101.936 49.4906C101.948 49.6306 101.845 49.7542 101.704 49.7655C100.833 49.8415 99.9575 49.8787 99.1017 49.8787ZM93.577 49.3289C93.5597 49.3289 93.5433 49.3272 93.5252 49.3237C93.1085 49.2381 92.6893 49.1413 92.2804 49.0367C91.377 48.8051 90.4685 48.5207 89.5781 48.1922C89.4459 48.1438 89.3793 47.9968 89.4277 47.8654C89.4761 47.7332 89.6222 47.6666 89.7545 47.715C90.6276 48.0383 91.5205 48.3167 92.4066 48.544C92.8085 48.6469 93.2192 48.742 93.628 48.8258C93.7655 48.8543 93.8545 48.9883 93.826 49.1266C93.8018 49.2468 93.6955 49.3289 93.577 49.3289ZM105.707 49.1655C105.589 49.1655 105.484 49.0834 105.458 48.9641C105.428 48.8267 105.517 48.6918 105.654 48.6624C106.945 48.3884 108.257 48.0314 109.554 47.6018C109.687 47.5577 109.832 47.6294 109.876 47.7634C109.92 47.8965 109.848 48.0409 109.714 48.085C108.4 48.5215 107.068 48.8829 105.759 49.1612C105.742 49.1638 105.724 49.1655 105.707 49.1655ZM113.428 46.618C113.331 46.618 113.238 46.5618 113.195 46.4676C113.138 46.3397 113.195 46.1884 113.323 46.1314C114.54 45.5859 115.753 44.9687 116.932 44.2987C117.053 44.2287 117.209 44.2719 117.279 44.3938C117.348 44.5157 117.306 44.6713 117.184 44.7405C115.991 45.4191 114.763 46.0432 113.532 46.5956C113.498 46.6111 113.463 46.618 113.428 46.618ZM85.9587 46.5359C85.9181 46.5359 85.8775 46.5264 85.8394 46.5057C84.6794 45.8876 83.5029 45.1684 82.3419 44.3679C82.2261 44.2884 82.1967 44.1293 82.2771 44.0135C82.3566 43.8976 82.5157 43.8683 82.6306 43.9486C83.776 44.7379 84.9361 45.4467 86.078 46.0561C86.2025 46.1218 86.2492 46.2766 86.1835 46.4002C86.1377 46.4866 86.0495 46.5359 85.9587 46.5359ZM9.59072 45.9732C9.47056 45.9732 9.36337 45.8876 9.3409 45.7648C9.0928 44.4327 8.92769 43.0626 8.84903 41.6925C8.84125 41.5524 8.94844 41.4314 9.08848 41.4236C9.2242 41.4124 9.34868 41.523 9.35732 41.6631C9.43426 43.0116 9.59764 44.361 9.84141 45.6715C9.86734 45.8098 9.77571 45.9429 9.63826 45.968C9.62184 45.9723 9.60628 45.9732 9.59072 45.9732ZM120.501 42.6001C120.42 42.6001 120.342 42.5621 120.292 42.4921C120.211 42.3771 120.239 42.218 120.354 42.1376L120.407 42.1005C121.468 41.3571 122.537 40.5453 123.584 39.6904C123.693 39.6014 123.853 39.6169 123.942 39.7267C124.031 39.8356 124.015 39.9956 123.906 40.0846C122.85 40.9482 121.77 41.7668 120.697 42.5189L120.645 42.5552C120.602 42.5846 120.551 42.6001 120.501 42.6001ZM79.2464 41.9483C79.1893 41.9483 79.1314 41.9293 79.0838 41.8895C78.082 41.0571 77.0835 40.1659 76.0324 39.1666C75.9304 39.0697 75.9261 38.909 76.0237 38.807C76.1206 38.705 76.2813 38.7006 76.3833 38.7983C77.4258 39.7898 78.4156 40.6733 79.4097 41.4988C79.5178 41.5887 79.5325 41.7495 79.4426 41.8576C79.3916 41.9172 79.319 41.9483 79.2464 41.9483ZM9.1196 37.863C9.11355 37.863 9.10836 37.863 9.10318 37.8621C8.96227 37.8526 8.85595 37.7325 8.86546 37.5916C8.95276 36.2378 9.12306 34.8686 9.37029 33.5226C9.39622 33.3843 9.52675 33.2936 9.66679 33.3186C9.8051 33.3446 9.89673 33.4768 9.8708 33.6151C9.62616 34.9421 9.45932 36.2906 9.37288 37.6244C9.36424 37.7593 9.25186 37.863 9.1196 37.863ZM126.81 37.4602C126.742 37.4602 126.675 37.4334 126.625 37.3789C126.529 37.276 126.535 37.1153 126.638 37.0193C127.586 36.135 128.558 35.1763 129.527 34.1701C129.625 34.069 129.787 34.0664 129.887 34.1632C129.988 34.2609 129.991 34.4217 129.894 34.5228C128.918 35.5359 127.939 36.5006 126.984 37.391C126.935 37.4377 126.873 37.4602 126.81 37.4602ZM73.3267 36.3563C73.2601 36.3563 73.1927 36.3303 73.1426 36.2776C72.3006 35.3985 71.3929 34.4208 70.3668 33.2875C70.2726 33.1829 70.2804 33.0221 70.3841 32.9279C70.4887 32.8337 70.6495 32.8415 70.7437 32.9461C71.7664 34.075 72.6714 35.0501 73.5099 35.9258C73.6068 36.0269 73.6042 36.1886 73.5022 36.2854C73.4538 36.3329 73.3898 36.3563 73.3267 36.3563ZM132.468 31.6062C132.409 31.6062 132.348 31.5854 132.3 31.5422C132.194 31.4489 132.185 31.2881 132.278 31.1826C133.126 30.2239 133.99 29.2134 134.92 28.0931C135.01 27.985 135.17 27.9704 135.278 28.0594C135.386 28.1493 135.401 28.3101 135.311 28.4181C134.378 29.5419 133.511 30.5559 132.659 31.5189C132.609 31.5768 132.538 31.6062 132.468 31.6062ZM67.8384 30.3389C67.7683 30.3389 67.6992 30.3104 67.649 30.2542C66.5633 29.044 65.7162 28.1173 64.9045 27.2503C64.8085 27.1474 64.8137 26.9866 64.9166 26.8907C65.0186 26.7947 65.1811 26.7999 65.2762 26.9028C66.0905 27.7724 66.9385 28.7017 68.0277 29.9145C68.1219 30.0191 68.1133 30.1799 68.0078 30.2741C67.9594 30.3173 67.8989 30.3389 67.8384 30.3389ZM10.5866 29.8695C10.5623 29.8695 10.5364 29.8661 10.5122 29.8583C10.3782 29.8168 10.3022 29.675 10.3436 29.5402C10.7422 28.2375 11.2202 26.9443 11.7648 25.6951C11.821 25.5663 11.9722 25.5084 12.1002 25.5638C12.229 25.6199 12.2878 25.7695 12.2316 25.8992C11.6948 27.1301 11.2236 28.406 10.8303 29.6897C10.7966 29.7995 10.6963 29.8695 10.5866 29.8695ZM137.682 25.3494C137.627 25.3494 137.571 25.3312 137.524 25.294C137.414 25.2067 137.396 25.046 137.484 24.9362C138.332 23.8738 139.17 22.8062 140.005 21.7395C140.092 21.6288 140.252 21.6089 140.362 21.6963C140.473 21.7827 140.493 21.9426 140.406 22.0533C139.57 23.1208 138.73 24.1893 137.882 25.2534C137.831 25.3165 137.757 25.3494 137.682 25.3494ZM40.4218 25.1575C39.9429 25.1575 39.4666 25.1073 39.0059 25.0088C38.2797 24.8523 37.5847 24.5584 36.9381 24.134C36.8206 24.057 36.7877 23.8988 36.8655 23.7813C36.9433 23.6637 37.1006 23.6317 37.2182 23.7087C37.8112 24.0985 38.4483 24.3682 39.113 24.5109C39.7035 24.6379 40.3267 24.6768 40.937 24.6284C41.0866 24.6181 41.1998 24.7218 41.211 24.8618C41.2223 25.0019 41.1168 25.1246 40.9776 25.1359C40.7927 25.1497 40.6077 25.1575 40.4218 25.1575ZM62.2532 24.408C62.1884 24.408 62.1236 24.3838 62.0743 24.3345C61.0447 23.3188 60.074 22.4146 59.1067 21.5692C59.0003 21.4767 58.99 21.3159 59.0825 21.2096C59.1749 21.1032 59.3366 21.0929 59.4412 21.1854C60.4171 22.0377 61.3948 22.9497 62.4313 23.9723C62.5316 24.0709 62.5324 24.2325 62.4339 24.3319C62.3846 24.3829 62.3189 24.408 62.2532 24.408ZM44.738 23.7502C44.6567 23.7502 44.578 23.7121 44.5288 23.6404C44.4484 23.5245 44.4778 23.3663 44.5927 23.286C45.7079 22.5131 46.5913 21.494 47.1471 20.3399C47.2085 20.2137 47.3598 20.1601 47.4869 20.2215C47.6139 20.2829 47.6667 20.435 47.6062 20.5612C47.0123 21.7939 46.0701 22.8814 44.8832 23.7043C44.8382 23.7355 44.7881 23.7502 44.738 23.7502ZM13.8343 22.4198C13.791 22.4198 13.7469 22.4085 13.7072 22.3852C13.5853 22.3143 13.5438 22.1587 13.6147 22.0368C14.301 20.8543 15.0609 19.7029 15.8743 18.6154C15.9582 18.503 16.1172 18.4797 16.2305 18.5644C16.3429 18.6482 16.3662 18.8082 16.2815 18.9205C15.4801 19.9924 14.7307 21.1266 14.0547 22.2927C14.008 22.374 13.9224 22.4198 13.8343 22.4198ZM34.554 21.0583C34.4529 21.0583 34.3569 20.9969 34.3171 20.8975C34.0241 20.1567 33.8754 19.4038 33.8754 18.6577C33.8754 17.9835 33.999 17.336 34.2419 16.7352C34.2947 16.6047 34.4433 16.5425 34.573 16.5943C34.7035 16.6471 34.7666 16.7957 34.7139 16.9254C34.4952 17.4657 34.3846 18.0483 34.3846 18.6569C34.3846 19.3381 34.5211 20.0287 34.79 20.7091C34.8419 20.8396 34.7779 20.9874 34.6465 21.0393C34.6171 21.0531 34.5851 21.0583 34.554 21.0583ZM56.1045 19.077C56.0517 19.077 55.999 19.0606 55.9541 19.0269C54.8329 18.2005 53.6979 17.4501 52.5819 16.7983C52.46 16.7275 52.4194 16.5719 52.4902 16.45C52.5611 16.3289 52.7167 16.2875 52.8386 16.3583C53.971 17.0196 55.1207 17.7795 56.2566 18.6171C56.3698 18.7001 56.3941 18.86 56.3102 18.9733C56.2601 19.0407 56.1823 19.077 56.1045 19.077ZM48.0522 16.7404C47.9217 16.7404 47.811 16.641 47.7989 16.5088C47.7332 15.7861 47.569 15.0556 47.314 14.3442C46.8774 14.1912 46.4383 14.0494 46.0018 13.9206C45.7251 13.8394 45.4416 13.7642 45.1615 13.6985C45.0249 13.6665 44.9394 13.529 44.9722 13.3924C45.0051 13.255 45.1442 13.1712 45.2782 13.2031C45.5678 13.2714 45.86 13.3484 46.1461 13.4322C46.453 13.523 46.7599 13.6189 47.0668 13.7218C46.925 13.3985 46.7633 13.0804 46.5844 12.7701C46.5144 12.6482 46.5559 12.4926 46.6778 12.4225C46.7996 12.3517 46.9552 12.394 47.0253 12.5159C47.2915 12.9775 47.5206 13.4564 47.709 13.9448C48.2009 14.122 48.6902 14.3131 49.1743 14.5179C49.3039 14.5724 49.3644 14.722 49.3091 14.8516C49.2546 14.9813 49.106 15.0409 48.9754 14.9873C48.6279 14.8404 48.277 14.7003 47.9243 14.5681C48.1188 15.1948 48.2484 15.8328 48.3055 16.4647C48.3185 16.6047 48.2147 16.7283 48.0747 16.7413C48.0678 16.7396 48.06 16.7404 48.0522 16.7404ZM18.7054 15.9149C18.6423 15.9149 18.5792 15.8915 18.5299 15.8449C18.4279 15.748 18.4244 15.5864 18.5212 15.4853C19.4669 14.4946 20.4783 13.5567 21.5295 12.6974C21.6384 12.6084 21.7983 12.624 21.8874 12.7337C21.9764 12.8427 21.96 13.0026 21.8511 13.0916C20.8163 13.937 19.8205 14.8603 18.8895 15.8362C18.8402 15.8889 18.7728 15.9149 18.7054 15.9149ZM37.2441 14.2171C37.1508 14.2171 37.0609 14.1661 37.0159 14.0762C36.9528 13.9509 37.0038 13.7979 37.13 13.7348C38.2624 13.1668 39.6213 12.8479 41.1704 12.7873C41.2966 12.7847 41.4289 12.8911 41.4349 13.032C41.441 13.172 41.3312 13.2904 41.1903 13.2965C39.7147 13.3544 38.4258 13.6552 37.3582 14.1903C37.3211 14.2085 37.2822 14.2171 37.2441 14.2171ZM24.9976 10.7758C24.9129 10.7758 24.8299 10.7334 24.7815 10.6565C24.7072 10.5372 24.7435 10.3799 24.8628 10.3055C26.0713 9.55088 27.2944 8.9086 28.4995 8.39513C28.6274 8.34067 28.7778 8.40031 28.8331 8.52911C28.8885 8.65878 28.828 8.80833 28.6983 8.86279C27.5175 9.36503 26.3176 9.99607 25.1316 10.7369C25.0901 10.7637 25.0434 10.7758 24.9976 10.7758ZM44.1285 9.86208C44.0749 9.86208 44.0213 9.84566 43.9755 9.81021C42.9477 9.03308 41.76 8.42279 40.4451 7.99662C40.3112 7.9534 40.2385 7.8099 40.2818 7.67591C40.3259 7.54192 40.4676 7.46845 40.6025 7.51253C41.9709 7.95599 43.2096 8.59222 44.2824 9.40393C44.3948 9.48864 44.4164 9.64856 44.3317 9.76094C44.2815 9.8275 44.2055 9.86208 44.1285 9.86208ZM32.475 7.65603C32.3575 7.65603 32.2511 7.57305 32.2261 7.45289C32.1975 7.31544 32.2857 7.18059 32.424 7.15206C32.7439 7.08637 33.0672 7.02758 33.387 6.97917C34.4278 6.82098 35.4885 6.76134 36.5327 6.80283C36.6736 6.80802 36.7825 6.92644 36.7773 7.06735C36.7721 7.20825 36.639 7.31717 36.5128 7.31198C35.5006 7.27222 34.4727 7.33014 33.4631 7.48314C33.1527 7.52982 32.8381 7.58687 32.5269 7.65084C32.5096 7.6543 32.4923 7.65603 32.475 7.65603Z" fill="black"/>
<path d="M113.52 55.4835V97.8937C113.52 99.0071 113.349 100.079 113.033 101.084C111.677 105.405 107.64 108.538 102.875 108.538H39.5167C34.7519 108.538 30.7141 105.405 29.3586 101.084C29.0422 100.079 28.8711 99.0062 28.8711 97.8937V55.4835C28.8711 55.3253 28.8746 55.1671 28.8815 55.0089C29.1304 49.3503 33.7975 44.8379 39.5167 44.8379H102.875C108.591 44.8379 113.261 49.3503 113.51 55.0054C113.517 55.1636 113.52 55.3218 113.52 55.4835Z" fill="#FFD400"/>
<path d="M102.874 108.795H39.5159C34.7269 108.795 30.5474 105.727 29.115 101.162C28.7839 100.107 28.6162 99.0082 28.6162 97.8948V55.4846C28.6162 55.3229 28.6197 55.1613 28.6266 54.9987C28.8833 49.1586 33.6663 44.584 39.5159 44.584H102.874C108.724 44.584 113.507 49.1569 113.763 54.9953C113.77 55.1578 113.774 55.3186 113.774 55.4846V97.8948C113.774 99.0091 113.606 100.109 113.275 101.162C111.843 105.727 107.663 108.795 102.874 108.795ZM39.5159 45.0931C33.9394 45.0931 29.3795 49.4542 29.1349 55.0212C29.128 55.176 29.1254 55.3298 29.1254 55.4846V97.8948C29.1254 98.9563 29.2853 100.004 29.6017 101.009C30.9666 105.362 34.9517 108.285 39.5168 108.285H102.875C107.44 108.285 111.424 105.361 112.79 101.009C113.106 100.005 113.266 98.9572 113.266 97.8948V55.4846C113.266 55.3264 113.263 55.1725 113.257 55.0178C113.012 49.4534 108.452 45.094 102.876 45.094H39.5159V45.0931Z" fill="black"/>
<path d="M113.509 55.006L107.198 59.7707L71.1934 86.9487L35.1921 59.7742L28.8809 55.0094C28.9855 52.6287 29.8663 49.8746 31.4595 48.3048C32.4216 47.3565 33.7027 46.2034 35.1921 44.9223C41.3184 39.6501 51.0053 32.1925 56.9639 27.6698C60.1044 25.2857 62.2093 23.7193 62.2093 23.7193C67.4582 19.4758 74.9494 19.4594 80.2147 23.6787C80.2147 23.6787 82.2894 25.2692 85.3858 27.6698C91.3677 32.3066 101.162 39.9561 107.198 44.9862C108.435 46.0149 109.511 46.933 110.369 47.6928C112.31 49.4182 113.388 52.2423 113.509 55.006Z" fill="#F7BD06"/>
<path d="M71.1929 87.2681L71.039 87.1523L28.6201 55.1317L28.6262 54.9977C28.7437 52.2938 29.7862 49.595 31.2809 48.1229C32.1954 47.2213 33.4558 46.0793 35.0256 44.7282C40.947 39.6323 50.1403 32.5284 56.8095 27.4662C59.9145 25.1089 62.0359 23.5296 62.0566 23.514C67.3496 19.235 75.0561 19.2177 80.3732 23.4794C80.3767 23.482 82.4496 25.0717 85.5417 27.468C92.2913 32.6995 101.555 39.9522 107.36 44.7896C108.614 45.8321 109.683 46.7441 110.537 47.5013C112.425 49.1801 113.631 51.9809 113.763 54.9934L113.769 55.1274L107.351 59.9726L71.1929 87.2681ZM29.1414 54.8871L71.1929 86.6302L113.248 54.8836C113.093 52.0561 111.958 49.4463 110.199 47.8825C109.349 47.1296 108.284 46.2202 107.034 45.1812C101.236 40.3481 91.9757 33.0998 85.2288 27.8699C82.1332 25.4694 80.0586 23.8797 80.0586 23.8797C74.9212 19.7632 67.4836 19.7796 62.3678 23.916C62.3384 23.9376 60.2197 25.5161 57.1164 27.8716C50.4533 32.9295 41.2686 40.0265 35.3567 45.1146C33.7955 46.458 32.5438 47.5921 31.637 48.4859C30.2548 49.8491 29.2814 52.35 29.1414 54.8871Z" fill="black"/>
<path d="M107.198 39.8758V59.7709L71.1937 86.9488L35.1924 59.7743V39.8758C35.1924 33.1349 40.6574 27.6699 47.3983 27.6699H94.9926C101.733 27.6699 107.198 33.1349 107.198 39.8758Z" fill="white"/>
<path d="M71.1929 87.2678L71.0391 87.152L34.9375 59.9006V39.8749C34.9375 33.0044 40.527 27.4141 47.3984 27.4141H94.9927C101.863 27.4141 107.454 33.0035 107.454 39.8749V59.8971L107.352 59.9732L71.1929 87.2678ZM35.4467 59.6464L71.1938 86.629L106.944 59.6429V39.8749C106.944 33.2853 101.583 27.9232 94.9927 27.9232H47.3975C40.807 27.9232 35.4458 33.2845 35.4458 39.8749V59.6464H35.4467Z" fill="black"/>
<path d="M113.032 101.085C111.676 105.405 107.638 108.539 102.874 108.539H39.5154C34.7507 108.539 30.7129 105.405 29.3574 101.085L63.6999 75.0226C68.1318 71.6591 74.2616 71.6591 78.6927 75.0226L113.032 101.085Z" fill="#F7BD06"/>
<path d="M102.874 108.794H39.5161C34.7271 108.794 30.5475 105.727 29.1151 101.161L29.0615 100.989L63.5457 74.8194C68.0495 71.4014 74.3426 71.4014 78.8463 74.8194L113.327 100.989L113.273 101.16C111.843 105.727 107.663 108.794 102.874 108.794ZM29.6563 101.178C31.0705 105.436 35.0106 108.284 39.5169 108.284H102.875C107.381 108.284 111.321 105.436 112.735 101.178L78.5403 75.2256C74.2164 71.9451 68.1783 71.9442 63.8543 75.2256L29.6563 101.178Z" fill="black"/>
<path d="M93.439 38.2725V46.8045C93.439 48.778 91.8398 50.3781 89.8654 50.3781H50.2637C48.7328 50.3781 47.4932 49.1385 47.4932 47.6076V38.2725C47.4932 36.7416 48.7328 35.502 50.2637 35.502H90.6684C92.1968 35.502 93.439 36.7416 93.439 38.2725Z" fill="#DEEAFC"/>
<path d="M89.8665 50.6333H50.2648C48.5964 50.6333 47.2393 49.2762 47.2393 47.6078V38.2736C47.2393 36.6052 48.5964 35.248 50.2648 35.248H90.6695C92.3379 35.248 93.6951 36.6052 93.6951 38.2736V46.8056C93.6951 48.9166 91.9774 50.6333 89.8665 50.6333ZM50.2648 35.7572C48.8774 35.7572 47.7484 36.8862 47.7484 38.2736V47.6078C47.7484 48.9952 48.8774 50.1242 50.2648 50.1242H89.8665C91.6965 50.1242 93.1851 48.6356 93.1851 46.8056V38.2736C93.1851 36.8862 92.0561 35.7572 90.6687 35.7572H50.2648Z" fill="black"/>
<path d="M95.0678 55.2295H47.3223V55.7386H95.0678V55.2295Z" fill="black"/>
<path d="M95.0678 60.334H47.3223V60.8431H95.0678V60.334Z" fill="black"/>
<path d="M87.313 65.4414H55.0771V65.9506H87.313V65.4414Z" fill="black"/>
<path d="M0.569673 41.2839C1.65195 49.197 8.94436 54.732 16.8574 53.6497L17.0234 53.6272L22.4166 55.4036C23.5093 55.7624 24.6063 54.8668 24.474 53.7232C24.3547 52.7299 24.219 51.5629 24.0919 50.485C27.828 47.4024 29.9278 42.5174 29.2232 37.3654C28.141 29.4523 20.8511 23.9138 12.9389 24.9953C5.02586 26.0775 -0.512605 33.3708 0.569673 41.2839Z" fill="white"/>
<path d="M22.9101 55.7383C22.7182 55.7383 22.5254 55.708 22.337 55.6458L17 53.8875L16.8919 53.9022C12.9976 54.4338 9.12837 53.419 5.99824 51.0426C2.86724 48.6663 0.850502 45.212 0.318008 41.3185C-0.214486 37.4242 0.80123 33.555 3.1793 30.4249C5.55651 27.2939 9.01081 25.2763 12.9051 24.7438C16.7994 24.2113 20.6678 25.227 23.7979 27.6051C26.9272 29.9823 28.9439 33.4366 29.4764 37.3309C30.1654 42.3723 28.255 47.3195 24.3615 50.5923L24.4678 51.4982C24.5569 52.2546 24.6459 53.0144 24.7272 53.693C24.7998 54.318 24.5526 54.9283 24.065 55.3251C23.7322 55.5965 23.3251 55.7383 22.9101 55.7383ZM17.0233 53.3732C17.0501 53.3732 17.0769 53.3775 17.1028 53.3861L22.4961 55.1625C22.9257 55.3034 23.3925 55.217 23.7426 54.9309C24.0944 54.6439 24.2725 54.2039 24.2206 53.7526C24.1394 53.0749 24.0503 52.3151 23.9613 51.5578L23.8385 50.5153C23.8282 50.4297 23.8627 50.3442 23.9293 50.2888C27.7579 47.1302 29.6424 42.3118 28.9707 37.4C28.4564 33.6406 26.5096 30.3056 23.4884 28.0105C20.4664 25.7154 16.7311 24.7343 12.9725 25.2486C9.21309 25.763 5.87808 27.7105 3.58299 30.7326C1.28791 33.7547 0.306771 37.4899 0.821112 41.2494C1.33545 45.0088 3.28304 48.343 6.30511 50.6372C9.32719 52.9314 13.0633 53.9117 16.8219 53.3982L16.9879 53.3757C17 53.374 17.0112 53.3732 17.0233 53.3732Z" fill="black"/>
<path d="M22.5521 36.8317C22.5521 37.3218 22.5184 37.8172 22.4518 38.3177C22.3844 38.8182 22.2755 39.2979 22.1242 39.7578C21.9729 40.2177 21.7801 40.6491 21.545 41.0519C21.3099 41.4547 21.0264 41.8039 20.6935 42.0996C20.3607 42.3952 19.9769 42.6286 19.5404 42.7998C19.1038 42.9709 18.6103 43.0565 18.0596 43.0565C17.7303 43.0565 17.4312 43.0245 17.1632 42.9606C16.8943 42.8966 16.6601 42.8032 16.4578 42.6788C16.2564 42.5543 16.0904 42.4004 15.959 42.2154C15.8285 42.0304 15.7291 41.8178 15.6616 41.5757C15.3997 41.8446 15.143 42.0711 14.8914 42.256C14.6399 42.441 14.3909 42.5932 14.1463 42.7142C13.9008 42.8352 13.6579 42.9225 13.4158 42.9761C13.1738 43.0297 12.9292 43.0565 12.6802 43.0565C12.3647 43.0565 12.0863 43.0176 11.8443 42.9407C11.6022 42.8637 11.3922 42.7574 11.215 42.6234C11.0369 42.4894 10.8891 42.333 10.7715 42.1549C10.654 41.9768 10.558 41.7806 10.4845 41.5654C10.4102 41.351 10.3583 41.1254 10.3281 40.8902C10.2978 40.6551 10.2831 40.4165 10.2831 40.1753C10.2831 39.8598 10.3082 39.5071 10.3583 39.1181C10.4085 38.7291 10.4923 38.3306 10.6099 37.9243C10.7274 37.5181 10.8839 37.1256 11.0784 36.7461C11.2729 36.3666 11.5149 36.0278 11.8037 35.7287C12.0924 35.4296 12.4295 35.1901 12.8159 35.0086C13.2015 34.8271 13.6466 34.7363 14.1506 34.7363C14.3788 34.7363 14.5906 34.7596 14.7851 34.8072C14.9796 34.8539 15.1672 34.9282 15.3487 35.0285C15.5303 35.1287 15.7066 35.2601 15.8778 35.4209C16.0489 35.5817 16.2287 35.7805 16.4163 36.0148L16.5875 35.2394C16.6143 35.1184 16.6964 35.0276 16.8347 34.9671C16.9721 34.9066 17.2159 34.8763 17.5651 34.8763C17.7398 34.8763 17.8859 34.885 18.0034 34.9014C18.121 34.9187 18.2135 34.942 18.2809 34.9714C18.3475 35.0017 18.3915 35.0388 18.4114 35.0821C18.4313 35.1262 18.4382 35.178 18.4313 35.2385L17.5651 39.7405C17.4709 40.2376 17.4865 40.6015 17.611 40.8332C17.7346 41.0648 17.9783 41.1807 18.3414 41.1807C18.5765 41.1807 18.7909 41.1167 18.9863 40.9896C19.1808 40.8626 19.3502 40.6888 19.4946 40.471C19.6389 40.2531 19.7617 40.0007 19.8628 39.7155C19.9631 39.4302 20.0452 39.1311 20.1092 38.819C20.1732 38.507 20.2198 38.1915 20.2501 37.8725C20.2803 37.5535 20.295 37.2466 20.295 36.951C20.295 36.4142 20.2207 35.905 20.0737 35.4252C19.9259 34.9455 19.6657 34.5219 19.2932 34.1563C18.9206 33.7906 18.4166 33.5019 17.7821 33.2901C17.1476 33.0783 16.3402 32.9728 15.36 32.9728C14.7021 32.9728 14.1022 33.0385 13.5619 33.1691C13.0217 33.2996 12.5358 33.4811 12.1062 33.7128C11.6766 33.9445 11.2936 34.2185 10.9582 34.534C10.6228 34.8495 10.3298 35.1936 10.0817 35.5662C9.83274 35.9387 9.62354 36.3355 9.45238 36.7548C9.28122 37.1749 9.14551 37.5993 9.04437 38.0289C8.94323 38.4586 8.86975 38.8882 8.82221 39.3178C8.77553 39.7474 8.75219 40.1641 8.75219 40.5669C8.75219 41.2991 8.83258 41.9535 8.99423 42.5309C9.15501 43.1084 9.43423 43.5985 9.83014 44.0014C10.2261 44.4042 10.7551 44.7111 11.4164 44.9228C12.0777 45.1346 12.9058 45.2401 13.8991 45.2401C14.416 45.2401 14.888 45.2098 15.3141 45.1493C15.7403 45.0888 16.1129 45.0248 16.4319 44.9583C16.7508 44.8909 17.011 44.8269 17.2125 44.7672C17.4139 44.7067 17.5513 44.6765 17.6257 44.6765C17.6723 44.6765 17.713 44.6877 17.7467 44.7119C17.7804 44.7353 17.8072 44.7802 17.8271 44.8476C17.847 44.9151 17.8625 45.0058 17.8729 45.1199C17.8833 45.234 17.8876 45.3784 17.8876 45.553C17.8876 45.7008 17.8841 45.8253 17.8772 45.9256C17.8703 46.0267 17.8591 46.1123 17.8418 46.1823C17.8245 46.2532 17.8029 46.3129 17.7761 46.3639C17.7493 46.414 17.7156 46.4581 17.6749 46.4944C17.6352 46.5316 17.509 46.5869 17.2972 46.6604C17.0854 46.7338 16.8036 46.8065 16.4509 46.8773C16.0982 46.9474 15.685 47.0096 15.2121 47.0632C14.7384 47.1168 14.2198 47.1436 13.6561 47.1436C12.3802 47.1436 11.2928 46.9975 10.3929 46.7053C9.49301 46.4131 8.75651 45.9904 8.18252 45.4363C7.60853 44.8822 7.18842 44.2114 6.92303 43.4222C6.65765 42.6329 6.52539 41.7452 6.52539 40.758C6.52539 40.2073 6.56343 39.6472 6.64123 39.0758C6.71816 38.5052 6.83745 37.9408 6.9991 37.3841C7.15989 36.8265 7.36995 36.2845 7.62842 35.7572C7.88688 35.2299 8.19376 34.732 8.54991 34.2617C8.90519 33.7915 9.31667 33.3601 9.78346 32.9676C10.2503 32.5743 10.7741 32.2372 11.355 31.9554C11.9359 31.6736 12.5773 31.4549 13.2784 31.301C13.9803 31.1463 14.7505 31.0693 15.5899 31.0693C16.8183 31.0693 17.8712 31.2068 18.7477 31.4825C19.6234 31.7583 20.3435 32.1473 20.9079 32.6513C21.4724 33.1552 21.8865 33.7612 22.1519 34.4692C22.419 35.1789 22.5521 35.9655 22.5521 36.8317ZM15.7835 37.7281C15.5821 37.359 15.3721 37.0798 15.1542 36.8922C14.9355 36.7046 14.6892 36.6104 14.4134 36.6104C14.1783 36.6104 13.9682 36.6657 13.7841 36.7764C13.5991 36.887 13.4366 37.0348 13.2957 37.2198C13.1548 37.4048 13.0355 37.6123 12.9378 37.844C12.8401 38.0756 12.7597 38.3125 12.6958 38.5537C12.6318 38.7957 12.586 39.0317 12.56 39.2634C12.5332 39.495 12.5194 39.6982 12.5194 39.8728C12.5194 40.2756 12.5929 40.5946 12.7407 40.8297C12.8885 41.0648 13.1366 41.1824 13.4859 41.1824C13.6138 41.1824 13.7461 41.1608 13.8835 41.1167C14.0209 41.0735 14.1653 41.0026 14.3166 40.9049C14.4679 40.8081 14.6295 40.6802 14.7998 40.522C14.971 40.3638 15.1611 40.1745 15.3686 39.9532L15.7835 37.7281Z" fill="#40AF2D"/>
<path d="M132.034 7.33695L171.161 1.0957L155.085 21.1049L143.344 14.0182L132.034 7.33695Z" fill="white"/>
<path d="M155.085 21.3582C155.04 21.3582 154.994 21.3461 154.953 21.3219L143.212 14.2352L131.905 7.55571C131.812 7.50125 131.764 7.39492 131.784 7.28946C131.804 7.184 131.887 7.10274 131.994 7.08546L171.121 0.844204C171.227 0.826915 171.328 0.877052 171.381 0.967818C171.434 1.05858 171.425 1.17269 171.359 1.25481L155.283 21.2631C155.232 21.3254 155.159 21.3582 155.085 21.3582ZM132.772 7.47618L143.473 13.7978L155.025 20.7704L170.549 1.45018L132.772 7.47618Z" fill="black"/>
<path d="M163.84 3.83301L139.115 11.5205L140.68 21.4114L143.342 14.0178L163.84 3.83301Z" fill="#C8DAFE"/>
<path d="M140.68 21.6662C140.672 21.6662 140.664 21.6662 140.656 21.6653C140.54 21.6541 140.446 21.5668 140.428 21.4518L138.864 11.5609C138.844 11.4356 138.919 11.3154 139.04 11.2782L163.765 3.59078C163.89 3.55101 164.026 3.61584 164.077 3.73946C164.126 3.86307 164.072 4.00311 163.954 4.0619L143.548 14.2009L140.92 21.4985C140.882 21.5996 140.786 21.6662 140.68 21.6662ZM139.401 11.6975L140.777 20.392L143.104 13.9312C143.126 13.869 143.171 13.8188 143.23 13.7894L160.879 5.02056L139.401 11.6975Z" fill="black"/>
<path d="M140.782 21.412L147.281 16.7268L143.329 14.3418L140.782 21.412Z" fill="#060F11"/>
<path d="M140.782 21.6661C140.727 21.6661 140.674 21.6488 140.629 21.6151C140.54 21.5476 140.504 21.4301 140.542 21.3255L143.089 14.2552C143.115 14.1835 143.171 14.1273 143.244 14.1014C143.316 14.0763 143.395 14.0841 143.461 14.123L147.413 16.508C147.487 16.552 147.532 16.6298 147.536 16.7154C147.539 16.801 147.499 16.8823 147.43 16.9324L140.932 21.6177C140.887 21.6496 140.835 21.6661 140.782 21.6661ZM143.463 14.7186L141.3 20.7238L146.818 16.7448L143.463 14.7186Z" fill="black"/>
<path d="M111.6 28.7646C113.074 28.7646 114.269 27.5694 114.269 26.0952C114.269 24.6209 113.074 23.4258 111.6 23.4258C110.126 23.4258 108.931 24.6209 108.931 26.0952C108.931 27.5694 110.126 28.7646 111.6 28.7646Z" fill="#40AF2D"/>
<path d="M111.6 29.0193C111.376 29.0193 111.147 28.9934 110.919 28.939C109.351 28.5638 108.381 26.9827 108.756 25.4146C109.132 23.8465 110.711 22.8758 112.281 23.2518C113.849 23.627 114.819 25.208 114.444 26.7761C114.124 28.116 112.922 29.0193 111.6 29.0193ZM111.6 23.6797C110.51 23.6797 109.517 24.4257 109.252 25.5331C108.942 26.828 109.744 28.1342 111.039 28.4436C112.332 28.754 113.64 27.9526 113.949 26.6568C114.259 25.3619 113.457 24.0557 112.162 23.7463C111.975 23.7013 111.786 23.6797 111.6 23.6797Z" fill="black"/>
<path d="M115.263 13.2084C116.597 13.2084 117.678 12.1271 117.678 10.7932C117.678 9.45927 116.597 8.37793 115.263 8.37793C113.929 8.37793 112.848 9.45927 112.848 10.7932C112.848 12.1271 113.929 13.2084 115.263 13.2084Z" fill="#40AF2D"/>
<path d="M115.268 13.4634C115.06 13.4634 114.85 13.4384 114.641 13.3891C113.948 13.2231 113.36 12.797 112.988 12.1893C112.614 11.5816 112.5 10.8649 112.666 10.1708C112.832 9.47751 113.258 8.88969 113.866 8.51711C114.474 8.14454 115.19 8.03044 115.884 8.19641C116.578 8.36238 117.166 8.78855 117.538 9.39625C117.912 10.004 118.026 10.7206 117.86 11.4147C117.694 12.108 117.268 12.6958 116.66 13.0684C116.234 13.3294 115.755 13.4634 115.268 13.4634ZM115.259 8.63122C114.864 8.63122 114.477 8.74014 114.133 8.95106C113.641 9.25275 113.296 9.72819 113.162 10.2901C112.885 11.4484 113.602 12.6172 114.761 12.8946C115.322 13.0286 115.902 12.937 116.394 12.6353C116.885 12.3336 117.23 11.8582 117.364 11.2963C117.642 10.1379 116.924 8.96921 115.766 8.69173C115.597 8.6511 115.427 8.63122 115.259 8.63122Z" fill="black"/>
<path d="M118.388 27.7202C119.01 27.8689 119.596 27.3442 119.497 26.7123C119.249 25.1113 119.312 23.4741 119.692 21.8904L120.361 19.0966C120.803 17.2458 120.456 15.3907 119.532 13.8883C118.586 12.347 117.039 11.1774 115.121 10.7616C111.437 9.95857 107.805 12.3557 106.928 16.0235L106.291 18.6834C105.912 20.267 105.227 21.7556 104.281 23.0704C103.908 23.589 104.192 24.323 104.814 24.4716L118.388 27.7202Z" fill="white"/>
<path d="M118.601 28C118.51 28 118.419 27.9896 118.329 27.968L104.753 24.7185C104.375 24.6278 104.067 24.3555 103.931 23.9898C103.797 23.6302 103.851 23.2308 104.073 22.9214C105.007 21.6221 105.67 20.1759 106.042 18.6234L106.679 15.9635C107.595 12.1358 111.403 9.69113 115.174 10.5124C117.096 10.929 118.721 12.0804 119.749 13.7549C120.748 15.38 121.053 17.2982 120.609 19.1559L119.94 21.9497C119.568 23.5014 119.504 25.0911 119.749 26.6739C119.807 27.0508 119.674 27.4303 119.392 27.6905C119.173 27.891 118.89 28 118.601 28ZM118.448 27.4726C118.663 27.5237 118.885 27.4649 119.047 27.3162C119.206 27.1692 119.278 26.9635 119.245 26.7517C118.99 25.1041 119.056 23.4478 119.443 21.8313L120.112 19.0366C120.526 17.3112 120.242 15.5296 119.314 14.0211C118.359 12.466 116.85 11.3967 115.065 11.0094C111.566 10.247 108.026 12.5222 107.174 16.0819L106.536 18.7418C106.149 20.3592 105.459 21.8659 104.485 23.2187C104.36 23.3925 104.331 23.6086 104.407 23.8126C104.484 24.0192 104.657 24.1731 104.871 24.2241L118.448 27.4726Z" fill="black"/>
</svg>
