<svg width="21" height="21" viewBox="0 0 21 21" fill="none" xmlns="http://www.w3.org/2000/svg">
<g clip-path="url(#clip0_201_13690)">
<path d="M13.7255 11.8493C13.7255 13.6279 12.2786 15.0748 10.5 15.0748C8.72137 15.0748 7.27503 13.6279 7.27503 11.8493C7.27503 10.0707 8.72137 8.6238 10.5 8.6238C12.2786 8.6238 13.7255 10.0712 13.7255 11.8493ZM20.5 7.26924V16.4305C20.5 17.6518 19.5098 18.642 18.2885 18.642H2.71153C1.49021 18.642 0.5 17.6518 0.5 16.4305V7.26924C0.5 6.04792 1.49021 5.0577 2.71153 5.0577H5.43172V4.29251C5.43172 3.22379 6.29753 2.35742 7.36681 2.35742H13.6332C14.7025 2.35742 15.5683 3.22379 15.5683 4.29251V5.05715H18.2885C19.5098 5.0577 20.5 6.04792 20.5 7.26924ZM15.3842 11.8493C15.3842 9.15623 13.1931 6.96515 10.5 6.96515C7.80746 6.96515 5.61638 9.15623 5.61638 11.8493C5.61638 14.5424 7.80746 16.7335 10.5 16.7335C13.1931 16.7335 15.3842 14.5424 15.3842 11.8493Z" fill="#40AF2D"/>
</g>
<defs>
<clipPath id="clip0_201_13690">
<rect width="20" height="20" fill="white" transform="translate(0.5 0.5)"/>
</clipPath>
</defs>
</svg>
