<svg width="21" height="21" viewBox="0 0 21 21" fill="none" xmlns="http://www.w3.org/2000/svg">
<path d="M13.5662 19.6309H3.56624C3.01391 19.6302 2.48439 19.4105 2.09384 19.0199C1.70328 18.6294 1.48357 18.0999 1.48291 17.5475V4.21419C1.48357 3.66186 1.70328 3.13234 2.09384 2.74178C2.48439 2.35123 3.01391 2.13152 3.56624 2.13086H10.0079C10.2854 2.13105 10.56 2.1864 10.8159 2.29369C11.0717 2.40099 11.3037 2.55809 11.4983 2.75586L15.0558 6.39711C15.4374 6.78666 15.6507 7.31055 15.6496 7.85586V10.96C15.6496 11.0705 15.6057 11.1765 15.5275 11.2547C15.4494 11.3328 15.3434 11.3767 15.2329 11.3767C15.1224 11.3767 15.0164 11.3328 14.9383 11.2547C14.8601 11.1765 14.8162 11.0705 14.8162 10.96V7.85586C14.8164 7.52876 14.6884 7.21463 14.4596 6.98086L10.9017 3.33919C10.7851 3.22045 10.646 3.12612 10.4925 3.06174C10.3391 2.99735 10.1743 2.96419 10.0079 2.96419H3.56624C3.23472 2.96419 2.91678 3.09589 2.68236 3.33031C2.44794 3.56473 2.31624 3.88267 2.31624 4.21419V17.5475C2.31624 17.879 2.44794 18.197 2.68236 18.4314C2.91678 18.6658 3.23472 18.7975 3.56624 18.7975H13.5662C13.7234 18.7981 13.8792 18.7677 14.0246 18.7079C14.1268 18.6659 14.2415 18.6662 14.3435 18.7087C14.4456 18.7513 14.5265 18.8326 14.5685 18.9348C14.6106 19.037 14.6103 19.1518 14.5678 19.2538C14.5252 19.3558 14.4439 19.4367 14.3417 19.4788C14.0957 19.5798 13.8322 19.6315 13.5662 19.6309Z" fill="#001E00"/>
<path d="M15.0621 7.54727H12.3162C11.7639 7.5466 11.2344 7.3269 10.8438 6.93634C10.4533 6.54578 10.2336 6.01626 10.2329 5.46393V2.67643C10.2329 2.56593 10.2768 2.45994 10.3549 2.3818C10.4331 2.30366 10.5391 2.25977 10.6496 2.25977C10.7601 2.25977 10.8661 2.30366 10.9442 2.3818C11.0223 2.45994 11.0662 2.56593 11.0662 2.67643V5.46393C11.0662 5.79545 11.1979 6.1134 11.4324 6.34782C11.6668 6.58224 11.9847 6.71393 12.3162 6.71393H15.0621C15.1726 6.71393 15.2786 6.75783 15.3567 6.83597C15.4348 6.91411 15.4787 7.02009 15.4787 7.1306C15.4787 7.24111 15.4348 7.34709 15.3567 7.42523C15.2786 7.50337 15.1726 7.54727 15.0621 7.54727Z" fill="#001E00"/>
<path d="M14.3997 19.5693C14.2354 19.5695 14.0748 19.521 13.9381 19.4298L12.5997 18.5373C11.7429 17.9676 11.0404 17.1947 10.5548 16.2876C10.0691 15.3806 9.81548 14.3674 9.81641 13.3385V12.6252C9.81722 12.4377 9.88095 12.2559 9.99737 12.109C10.1138 11.962 10.2762 11.8584 10.4585 11.8148C11.696 11.4727 12.8732 10.9416 13.9485 10.2402C14.083 10.1535 14.2397 10.1074 14.3997 10.1074C14.5598 10.1074 14.7164 10.1535 14.851 10.2402C15.9263 10.9417 17.1035 11.4728 18.341 11.8148C18.5233 11.8584 18.6857 11.962 18.8021 12.109C18.9185 12.2559 18.9823 12.4377 18.9831 12.6252V13.3385C18.9843 14.3677 18.7308 15.3812 18.2451 16.2886C17.7595 17.196 17.0568 17.9691 16.1997 18.5389L14.8618 19.431C14.7249 19.5218 14.5641 19.57 14.3997 19.5693ZM14.3997 10.9402C13.2477 11.6917 11.986 12.2598 10.6597 12.6243L10.6497 13.3385C10.6487 14.2305 10.8685 15.1088 11.2893 15.8952C11.7102 16.6816 12.3191 17.3517 13.0618 17.8456L14.3997 18.736L15.7377 17.8439C16.4801 17.3501 17.0889 16.6804 17.5098 15.8943C17.9306 15.1082 18.1505 14.2302 18.1497 13.3385V12.6252C16.8202 12.2609 15.5551 11.6926 14.3997 10.9406V10.9402Z" fill="#001E00"/>
<path d="M13.9827 15.8816C13.8722 15.8816 13.7662 15.8377 13.6881 15.7595L12.8548 14.9262C12.7789 14.8476 12.7369 14.7423 12.7378 14.6331C12.7388 14.5238 12.7826 14.4193 12.8598 14.3421C12.9371 14.2648 13.0416 14.221 13.1508 14.2201C13.2601 14.2191 13.3653 14.2611 13.4439 14.337L13.9827 14.8758L15.3548 13.5037C15.4333 13.4278 15.5386 13.3858 15.6478 13.3867C15.7571 13.3877 15.8616 13.4315 15.9388 13.5088C16.0161 13.586 16.0599 13.6905 16.0609 13.7998C16.0618 13.909 16.0198 14.0143 15.9439 14.0928L14.2773 15.7595C14.1991 15.8377 14.0932 15.8816 13.9827 15.8816Z" fill="#001E00"/>
<path d="M7.73291 6.29818H4.39958C4.28907 6.29818 4.18309 6.25428 4.10495 6.17614C4.02681 6.098 3.98291 5.99202 3.98291 5.88151C3.98291 5.771 4.02681 5.66502 4.10495 5.58688C4.18309 5.50874 4.28907 5.46484 4.39958 5.46484H7.73291C7.84342 5.46484 7.9494 5.50874 8.02754 5.58688C8.10568 5.66502 8.14958 5.771 8.14958 5.88151C8.14958 5.99202 8.10568 6.098 8.02754 6.17614C7.9494 6.25428 7.84342 6.29818 7.73291 6.29818Z" fill="#001E00"/>
<path d="M10.2329 8.79818H4.39958C4.28907 8.79818 4.18309 8.75428 4.10495 8.67614C4.02681 8.598 3.98291 8.49202 3.98291 8.38151C3.98291 8.271 4.02681 8.16502 4.10495 8.08688C4.18309 8.00874 4.28907 7.96484 4.39958 7.96484H10.2329C10.3434 7.96484 10.4494 8.00874 10.5275 8.08688C10.6057 8.16502 10.6496 8.271 10.6496 8.38151C10.6496 8.49202 10.6057 8.598 10.5275 8.67614C10.4494 8.75428 10.3434 8.79818 10.2329 8.79818Z" fill="#001E00"/>
<path d="M11.0662 11.2982H4.39958C4.28907 11.2982 4.18309 11.2543 4.10495 11.1761C4.02681 11.098 3.98291 10.992 3.98291 10.8815C3.98291 10.771 4.02681 10.665 4.10495 10.5869C4.18309 10.5087 4.28907 10.4648 4.39958 10.4648H11.0662C11.1768 10.4648 11.2827 10.5087 11.3609 10.5869C11.439 10.665 11.4829 10.771 11.4829 10.8815C11.4829 10.992 11.439 11.098 11.3609 11.1761C11.2827 11.2543 11.1768 11.2982 11.0662 11.2982Z" fill="#001E00"/>
<path d="M8.56624 13.7982H4.39958C4.28907 13.7982 4.18309 13.7543 4.10495 13.6761C4.02681 13.598 3.98291 13.492 3.98291 13.3815C3.98291 13.271 4.02681 13.165 4.10495 13.0869C4.18309 13.0087 4.28907 12.9648 4.39958 12.9648H8.56624C8.67675 12.9648 8.78273 13.0087 8.86087 13.0869C8.93901 13.165 8.98291 13.271 8.98291 13.3815C8.98291 13.492 8.93901 13.598 8.86087 13.6761C8.78273 13.7543 8.67675 13.7982 8.56624 13.7982Z" fill="#001E00"/>
<path d="M8.56624 16.2982H4.39958C4.28907 16.2982 4.18309 16.2543 4.10495 16.1761C4.02681 16.098 3.98291 15.992 3.98291 15.8815C3.98291 15.771 4.02681 15.665 4.10495 15.5869C4.18309 15.5087 4.28907 15.4648 4.39958 15.4648H8.56624C8.67675 15.4648 8.78273 15.5087 8.86087 15.5869C8.93901 15.665 8.98291 15.771 8.98291 15.8815C8.98291 15.992 8.93901 16.098 8.86087 16.1761C8.78273 16.2543 8.67675 16.2982 8.56624 16.2982Z" fill="#001E00"/>
</svg>
