<svg width="21" height="21" viewBox="0 0 21 21" fill="none" xmlns="http://www.w3.org/2000/svg">
<g clip-path="url(#clip0_201_7680)">
<path d="M18.1821 0.880859H4.62744C3.81971 0.880859 3.1626 1.53797 3.1626 2.3457C3.1626 2.50754 3.29377 2.63867 3.45557 2.63867H5.50635V15.9004C5.50635 16.0622 5.63752 16.1934 5.79932 16.1934C5.96111 16.1934 6.09229 16.0622 6.09229 15.9004V2.63867H17.0103C17.1721 2.63867 17.3032 2.50754 17.3032 2.3457C17.3032 1.86109 17.6975 1.4668 18.1821 1.4668C18.6668 1.4668 19.061 1.86109 19.061 2.3457V19.416C19.061 19.9006 18.6668 20.2949 18.1821 20.2949C17.6975 20.2949 17.3032 19.9006 17.3032 19.416V18.2441C17.3032 17.4364 16.6461 16.7793 15.8384 16.7793H2.28369C1.47596 16.7793 0.818848 17.4364 0.818848 18.2441C0.818848 18.406 0.95002 18.5371 1.11182 18.5371H14.6665C14.8283 18.5371 14.9595 18.406 14.9595 18.2441C14.9595 17.7595 15.3537 17.3652 15.8384 17.3652C16.323 17.3652 16.7173 17.7595 16.7173 18.2441V19.416C16.7173 19.7455 16.8267 20.0499 17.011 20.2949H4.62744C4.14279 20.2949 3.74854 19.9006 3.74854 19.416C3.74854 19.2542 3.61736 19.123 3.45557 19.123C3.29377 19.123 3.1626 19.2542 3.1626 19.416C3.1626 20.2237 3.81971 20.8809 4.62744 20.8809H18.1821C18.9899 20.8809 19.647 20.2237 19.647 19.416V2.3457C19.647 1.53797 18.9899 0.880859 18.1821 0.880859ZM16.7467 2.05273H3.79873C3.91963 1.71172 4.24549 1.4668 4.62744 1.4668H17.0113C16.8831 1.63727 16.7908 1.83629 16.7467 2.05273ZM14.4029 17.9512H1.45498C1.57588 17.6102 1.90174 17.3652 2.28369 17.3652H14.6672C14.539 17.5356 14.4471 17.7348 14.4029 17.9512Z" fill="#001E00"/>
<path d="M16.8031 10.6736L14.6665 12.8103L14.2877 12.4315C14.1733 12.3171 13.9878 12.3171 13.8734 12.4315C13.759 12.5459 13.759 12.7314 13.8734 12.8458L14.4593 13.4318C14.5165 13.4889 14.5915 13.5175 14.6665 13.5175C14.7415 13.5175 14.8165 13.4889 14.8736 13.4318L17.2174 11.088C17.3318 10.9736 17.3318 10.7881 17.2174 10.6737C17.103 10.5593 16.9175 10.5593 16.8031 10.6736Z" fill="#001E00"/>
<path d="M12.6157 14.3965C12.6157 14.5583 12.7469 14.6895 12.9087 14.6895H16.4243C16.5861 14.6895 16.7173 14.5583 16.7173 14.3965V13.1241C16.7173 12.9622 16.5861 12.8311 16.4243 12.8311C16.2625 12.8311 16.1313 12.9622 16.1313 13.1241V14.1035H13.2017V11.1738H15.353C15.5148 11.1738 15.646 11.0427 15.646 10.8809C15.646 10.719 15.5148 10.5879 15.353 10.5879H12.9087C12.7469 10.5879 12.6157 10.719 12.6157 10.8809V14.3965Z" fill="#001E00"/>
<path d="M17.2174 4.8143C17.103 4.69992 16.9175 4.69992 16.8031 4.8143L14.6665 6.95094L14.2877 6.57215C14.1733 6.45777 13.9878 6.45777 13.8734 6.57215C13.759 6.6866 13.759 6.87207 13.8734 6.98648L14.4593 7.57242C14.5165 7.62961 14.5915 7.6582 14.6665 7.6582C14.7415 7.6582 14.8165 7.62961 14.8736 7.57242L17.2174 5.22867C17.3318 5.11422 17.3318 4.92875 17.2174 4.8143Z" fill="#001E00"/>
<path d="M15.353 4.72852H12.9087C12.7469 4.72852 12.6157 4.85965 12.6157 5.02148V8.53711C12.6157 8.69895 12.7469 8.83008 12.9087 8.83008H16.4243C16.5861 8.83008 16.7173 8.69895 16.7173 8.53711V7.26469C16.7173 7.10285 16.5861 6.97172 16.4243 6.97172C16.2625 6.97172 16.1313 7.10285 16.1313 7.26469V8.24414H13.2017V5.31445H15.353C15.5148 5.31445 15.646 5.18332 15.646 5.02148C15.646 4.85965 15.5148 4.72852 15.353 4.72852Z" fill="#001E00"/>
<path d="M8.729 5.31445H11.7368C11.8986 5.31445 12.0298 5.18332 12.0298 5.02148C12.0298 4.85965 11.8986 4.72852 11.7368 4.72852H8.729C8.56721 4.72852 8.43604 4.85965 8.43604 5.02148C8.43604 5.18332 8.56721 5.31445 8.729 5.31445Z" fill="#001E00"/>
<path d="M8.729 6.48633H11.7368C11.8986 6.48633 12.0298 6.3552 12.0298 6.19336C12.0298 6.03152 11.8986 5.90039 11.7368 5.90039H8.729C8.56721 5.90039 8.43604 6.03152 8.43604 6.19336C8.43604 6.3552 8.56721 6.48633 8.729 6.48633Z" fill="#001E00"/>
<path d="M8.729 7.6582H11.7368C11.8986 7.6582 12.0298 7.52707 12.0298 7.36523C12.0298 7.2034 11.8986 7.07227 11.7368 7.07227H8.729C8.56721 7.07227 8.43604 7.2034 8.43604 7.36523C8.43604 7.52707 8.56721 7.6582 8.729 7.6582Z" fill="#001E00"/>
<path d="M8.729 8.83008H11.7368C11.8986 8.83008 12.0298 8.69895 12.0298 8.53711C12.0298 8.37527 11.8986 8.24414 11.7368 8.24414H8.729C8.56721 8.24414 8.43604 8.37527 8.43604 8.53711C8.43604 8.69895 8.56721 8.83008 8.729 8.83008Z" fill="#001E00"/>
<path d="M8.729 11.1738H11.7368C11.8986 11.1738 12.0298 11.0427 12.0298 10.8809C12.0298 10.719 11.8986 10.5879 11.7368 10.5879H8.729C8.56721 10.5879 8.43604 10.719 8.43604 10.8809C8.43604 11.0427 8.56721 11.1738 8.729 11.1738Z" fill="#001E00"/>
<path d="M8.729 12.3457H11.7368C11.8986 12.3457 12.0298 12.2146 12.0298 12.0527C12.0298 11.8909 11.8986 11.7598 11.7368 11.7598H8.729C8.56721 11.7598 8.43604 11.8909 8.43604 12.0527C8.43604 12.2146 8.56721 12.3457 8.729 12.3457Z" fill="#001E00"/>
<path d="M8.729 13.5176H11.7368C11.8986 13.5176 12.0298 13.3864 12.0298 13.2246C12.0298 13.0628 11.8986 12.9316 11.7368 12.9316H8.729C8.56721 12.9316 8.43604 13.0628 8.43604 13.2246C8.43604 13.3864 8.56721 13.5176 8.729 13.5176Z" fill="#001E00"/>
<path d="M8.729 14.6895H11.7368C11.8986 14.6895 12.0298 14.5583 12.0298 14.3965C12.0298 14.2346 11.8986 14.1035 11.7368 14.1035H8.729C8.56721 14.1035 8.43604 14.2346 8.43604 14.3965C8.43604 14.5583 8.56721 14.6895 8.729 14.6895Z" fill="#001E00"/>
</g>
<defs>
<clipPath id="clip0_201_7680">
<rect width="20" height="20" fill="white" transform="translate(0.23291 0.880859)"/>
</clipPath>
</defs>
</svg>
