<svg width="21" height="21" viewBox="0 0 21 21" fill="none" xmlns="http://www.w3.org/2000/svg">
<g clip-path="url(#clip0_201_7663)">
<path d="M19.1395 9.23086L17.967 8.29273C17.9623 8.28898 17.9576 8.2843 17.9529 8.28055L19.0445 8.06211C19.1904 8.03305 19.2954 7.90492 19.2954 7.75586V6.81836C19.2954 6.64586 19.1554 6.50586 18.9829 6.50586H17.4204C17.2479 6.50586 17.1079 6.64586 17.1079 6.81836V7.36586C17.1007 7.35617 17.0935 7.34648 17.0863 7.3368C17.0667 7.28242 17.0317 7.23805 16.9873 7.20273C16.8113 6.95367 16.6607 6.7043 16.5626 6.48867L16.0345 5.32711C15.6979 4.58617 14.7967 4.00586 13.9829 4.00586H6.48291C5.66916 4.00586 4.76791 4.58617 4.43135 5.32711L3.90354 6.48836C3.80541 6.70398 3.65479 6.95367 3.47885 7.20273C3.43447 7.23805 3.39979 7.28242 3.37979 7.3368C3.3726 7.34648 3.36572 7.35586 3.35822 7.36586V6.81836C3.35822 6.64586 3.21822 6.50586 3.04572 6.50586H1.48291C1.31041 6.50586 1.17041 6.64586 1.17041 6.81836V7.75586C1.17041 7.90492 1.27541 8.03305 1.42166 8.06211L2.51322 8.28055C2.50854 8.2843 2.50385 8.28898 2.49916 8.29273L1.32635 9.23086C0.713223 9.72148 0.23291 10.7209 0.23291 11.5059V16.8184C0.23291 17.3352 0.653535 17.7559 1.17041 17.7559H3.67041C4.18729 17.7559 4.60791 17.3352 4.60791 16.8184V16.1934H15.8579V16.8184C15.8579 17.3352 16.2785 17.7559 16.7954 17.7559H19.2954C19.8123 17.7559 20.2329 17.3352 20.2329 16.8184V11.5059C20.2329 10.7209 19.7526 9.72148 19.1395 9.23086ZM16.2998 15.5684L15.5832 14.8518C15.2792 14.5477 14.7254 14.3184 14.2954 14.3184H6.01416C5.58416 14.3184 5.03041 14.5477 4.72635 14.8518L4.00979 15.5684H1.79541C1.27854 15.5684 0.85791 15.1477 0.85791 14.6309V13.0684H1.17041V13.3809C1.17041 14.0702 1.73104 14.6309 2.42041 14.6309H3.35791C3.53041 14.6309 3.67041 14.4909 3.67041 14.3184C3.67041 14.1459 3.53041 14.0059 3.35791 14.0059H2.42041C2.07572 14.0059 1.79541 13.7255 1.79541 13.3809V13.0684H2.42041C2.67979 13.0684 3.08291 13.2352 3.26635 13.4187C3.32729 13.4796 3.40728 13.5102 3.48729 13.5102C3.56729 13.5102 3.64729 13.4796 3.70822 13.4187C3.83041 13.2965 3.83041 13.099 3.70822 12.9768C3.40416 12.6727 2.85072 12.4434 2.42041 12.4434H0.85791V11.5059C0.85791 11.3955 0.87541 11.2765 0.900098 11.1549C1.1001 11.3637 1.39104 11.5059 1.79541 11.5059H4.29541C4.37822 11.5059 4.4576 11.473 4.51635 11.4143L4.92041 11.0102L5.32447 11.4143C5.38291 11.473 5.4626 11.5059 5.54541 11.5059H9.16604L10.012 12.3518C10.0729 12.4127 10.1529 12.4434 10.2329 12.4434C10.3129 12.4434 10.3929 12.4127 10.4538 12.3518L11.2998 11.5059H14.9204C15.0032 11.5059 15.0829 11.473 15.1413 11.4143L15.5454 11.0102L15.9495 11.4143C16.0079 11.473 16.0876 11.5059 16.1704 11.5059H18.6704C19.0748 11.5059 19.3657 11.3637 19.5657 11.1549C19.5904 11.2765 19.6079 11.3955 19.6079 11.5059V12.4434H18.0454C17.6154 12.4434 17.0617 12.6727 16.7576 12.9768C16.6354 13.099 16.6354 13.2965 16.7576 13.4187C16.8185 13.4796 16.8985 13.5102 16.9785 13.5102C17.0585 13.5102 17.1385 13.4796 17.1995 13.4187C17.3829 13.2352 17.786 13.0684 18.0454 13.0684H18.6704V13.3809C18.6704 13.7255 18.3901 14.0059 18.0454 14.0059H17.1079C16.9354 14.0059 16.7954 14.1459 16.7954 14.3184C16.7954 14.4909 16.9354 14.6309 17.1079 14.6309H18.0454C18.7348 14.6309 19.2954 14.0702 19.2954 13.3809V13.0684H19.6079V14.6309C19.6079 15.1477 19.1873 15.5684 18.6704 15.5684H16.2998ZM15.416 15.5684H4.89354L5.16822 15.2937C5.35166 15.1102 5.75479 14.9434 6.01416 14.9434H14.2954C14.5548 14.9434 14.9579 15.1102 15.1413 15.2937L15.416 15.5684ZM3.84541 7.75586H16.6204C16.9232 8.15617 17.2692 8.53492 17.5763 8.78086L17.9523 9.08148L15.742 9.96555C15.7417 9.96555 15.7417 9.96586 15.7413 9.96586C15.7035 9.98117 15.6679 10.004 15.6373 10.0346L15.3248 10.3471L14.791 10.8809H11.1704C11.0876 10.8809 11.0079 10.9137 10.9495 10.9724L10.2329 11.689L9.51635 10.9724C9.45791 10.9137 9.37822 10.8809 9.29541 10.8809H5.67479L5.14135 10.3474L4.82885 10.0349C4.79822 10.0043 4.7626 9.98148 4.72478 9.96617C4.72447 9.96617 4.72447 9.96586 4.72416 9.96586L2.51385 9.0818L2.88979 8.78117C3.19666 8.53492 3.5426 8.15617 3.84541 7.75586ZM19.277 10.3868C19.2142 10.7134 19.0117 10.8809 18.6704 10.8809H16.2998L15.9873 10.5684L16.0335 10.5221L18.5132 9.53023L18.7488 9.71898C18.947 9.87742 19.1298 10.1184 19.277 10.3868ZM17.7329 7.13086H18.6704V7.49961L17.7329 7.68711V7.13086ZM4.47197 6.74711L4.99978 5.58586C5.23541 5.06805 5.91447 4.63086 6.48291 4.63086H13.9829C14.5513 4.63086 15.2304 5.06805 15.4657 5.58555L15.9938 6.74711C16.0488 6.86773 16.1204 6.99805 16.1988 7.13086H4.26697C4.34541 6.99805 4.41728 6.86773 4.47197 6.74711ZM1.79541 7.13086H2.73291V7.68711L1.79541 7.49961V7.13086ZM1.71666 9.71898L1.95229 9.53023L4.43229 10.5221L4.47854 10.5684L4.16604 10.8809H1.79541C1.45416 10.8809 1.25166 10.7134 1.18885 10.3868C1.33604 10.1184 1.51854 9.87742 1.71666 9.71898ZM3.67041 17.1309H1.17041C0.998223 17.1309 0.85791 16.9905 0.85791 16.8184V15.873C1.11979 16.0712 1.44229 16.1934 1.79541 16.1934H3.98291V16.8184C3.98291 16.9905 3.8426 17.1309 3.67041 17.1309ZM19.2954 17.1309H16.7954C16.6232 17.1309 16.4829 16.9905 16.4829 16.8184V16.1934H18.6704C19.0235 16.1934 19.346 16.0712 19.6079 15.873V16.8184C19.6079 16.9905 19.4676 17.1309 19.2954 17.1309Z" fill="#001E00"/>
</g>
<defs>
<clipPath id="clip0_201_7663">
<rect width="20" height="20" fill="white" transform="translate(0.23291 0.880859)"/>
</clipPath>
</defs>
</svg>
